**ABCDEFGHIJKLMNOPQRSTUVWXYZabcdefghijklmnopqrstuvwxyz**************************
**PARASOLID !"#$%&'()*+,-./:;<=>?@[\]^_`{|}~0123456789**************************
**PART1;
MC=unknown;
MC_MODEL=unknown;
MC_ID=unknown;
OS=unknown;
OS_RELEASE=unknown;
FRU=Parasolid 32.0.170;
APPL=Onshape;
SITE=unknown;
USER=unknown;
FORMAT=text;
GUISE=transmit;
KEY=BTGapi::writeModels_.xmt;
FILE=BTGapi::writeModels_.xmt;
DATE=2019-11-16T11:18:25 (UTC);
**PART2;
SCH=SCH_3200170_32001;
USFLD_SIZE=0;
**PART3;
**END_OF_HEADER*****************************************************************
T51 : TRANSMIT FILE created by modeller version 320017023 SCH_3200170_32001_1300
6227 0 12 34 CCCCCCI4 mesh1006 0 I8 polyline1008 0 CCCCCCCDI5 owner1040 0 CCCCCC
I13 boundary_mesh1006 0 I17 boundary_polyline1008 0 CCCA16 index_map_offset0 0 1
 dA9 index_map82 0 A17 node_id_index_map82 0 A20 schema_embedding_map82 0 A5 chi
ld12 0 A14 lowest_node_id0 0 1 dA16 mesh_offset_data206 0 Z1 2366 2 3 0 0 0 0 0
 0 1e3 1e-8 0 4 5 1 0 1 1 6 7 8 9 0 0 10 11 12 0 0 0 0 0 0 0 81 255 1 2 2362 13
 1 14 0 15 16 17 70 11 CI9 list_type0 0 1 uI10 notransmit0 0 1 lCCCDCCDI12 finge
r_index0 0 1 dI12 finger_block1012 0 CZ3 0 4 T1 0 0 6 20 1 18 18 13 255 6 214 0
 1 0 19 0 0 20 0 50 255 7 2192 0 21 22 0 0 +-.82020519265437 -.03175 .0160828706
383704 -.923879532511287 -.3826834323650895 -3264770927444625e-31 -3533762587607
43e-30 0 1 30 255 8 2160 0 11 23 0 0 +-.84169753218296 .02013709757704855 .32003
0451122961 .3763132791742325 -.908500622283526 .1817001244567045 29 255 9 2152 0
 12 24 0 -.826780832957043 -.015875 .3272328706383705 19 8 CCCCCCCA5 owner12 0 Z
10 78 0 1 20 0 25 V0 16 255 11 2158 26 ?27 0 28 8 0 0 1 18 255 12 2149 29 30 0 3
1 9 ?1 81 1 29 2289 13 12 32 0 33 34 35 17 255 30 0 36 37 38 12 39 28 0 40 +18 3
1 2140 41 42 12 43 24 ?1 81 1 41 2287 13 31 44 0 45 33 46 17 42 0 47 48 49 31 50
 51 0 38 +18 43 2131 45 52 31 53 54 ?1 29 24 2143 0 31 54 9 -.826780832957043 -.
015875 .3177078706383705 29 54 2134 0 43 55 24 -.83323539265437 -.00029231443956
6111 .314591333526284 29 55 2125 0 53 56 54 -.83323539265437 -.00029231443956610
05 -.2979439198970795 18 53 2122 57 58 43 59 55 ?1 29 56 2116 0 59 60 55 -.83212
1249213268 -.00298209464550296 -.2979439198970795 18 59 2113 61 62 53 63 56 ?1 2
9 60 2107 0 63 64 56 -.82020519265437 -.03175 .3304078706383705 18 63 2104 33 27
 59 65 60 ?1 29 64 2103 0 65 66 60 -.82020519265437 -.03175 -.29506712936163 18
 65 2100 67 68 63 69 64 ?1 29 66 1813 0 69 70 64 -.82053539265437 -.002982094645
502965 -.2979439198970795 18 69 1809 71 72 65 73 66 ?1 29 70 1356 0 73 74 66 -.8
3323539265437 693889390390723e-32 .3145328706383705 18 73 1352 75 76 69 77 70 ?1
 29 74 588 0 77 78 70 -.79196039265437 -.03175 .2954828706383705 18 77 586 79 80
 73 81 74 ?1 29 78 551 0 81 82 74 -.78243539265437 -.0127 -.2474421293616295 18
 81 547 83 84 77 85 78 ?1 29 82 282 0 85 86 78 -.78243539265437 0 -.247442129361
6295 18 85 280 87 88 81 89 82 ?1 29 86 178 0 89 90 82 -.83323539265437 0 -.29794
39198970795 18 89 147 91 92 85 93 86 ?1 29 90 182 0 93 94 86 -.82053539265437 0
 -.2979439198970795 18 93 163 95 96 89 97 90 ?1 29 94 449 0 97 98 90 -.782435392
65437 0 .2859578706383705 18 97 398 99 100 93 101 94 ?1 29 98 450 0 101 102 94 .
26688940734563 0 .2859578706383705 18 101 392 103 104 97 105 98 ?1 29 102 451 0
 105 106 98 .26688940734563 0 -.2474421293616295 18 105 394 15 107 101 108 102 ?
1 29 106 782 0 108 109 102 .26688940734563 -.0127 -.2474421293616295 18 108 697
 110 111 105 112 106 ?1 29 109 783 0 112 113 106 .2668894073456295 -.0127 .28595
78706383705 18 112 698 114 115 108 116 109 ?1 29 113 784 0 116 117 109 -.7824353
9265437 -.0127 .2859578706383705 18 116 699 118 119 112 120 113 ?1 29 117 790 0
 121 122 113 -.79196039265437 -.03175 -.2569671293616295 18 121 715 123 124 125
 126 117 ?1 29 122 792 0 126 127 117 .27641440734563 -.03175 .2954828706383705 1
8 126 707 128 129 121 130 122 ?1 29 127 793 0 130 131 122 .27641440734563 -.0317
5 -.2569671293616295 18 130 703 132 133 126 134 127 ?1 29 131 794 0 120 135 127
 -.79196039265437 -.0127 -.2569671293616295 18 120 701 136 137 116 138 131 ?1 29
 135 795 0 138 139 131 -.79196039265437 -.0127 .2954828706383705 18 138 713 140
 141 120 142 135 ?1 29 139 796 0 142 143 135 .27641440734563 -.0127 .29548287063
83705 18 142 709 144 145 138 125 139 ?1 29 143 797 0 125 146 139 .27641440734563
 -.0127 -.2569671293616295 18 125 705 147 148 142 121 143 ?1 29 146 1686 0 149 1
50 143 .3097646073456295 867361737988404e-32 .3145328706383705 18 149 1604 151 1
52 153 154 146 ?1 29 150 1687 0 154 155 146 .3097646073456295 -.015875 .31770787
06383705 18 154 1602 156 48 149 157 150 ?1 29 155 1691 0 134 158 150 .3097646073
456295 -.03175 .3304078706383705 18 134 1494 159 160 130 153 155 ?1 29 158 1692
 0 153 161 155 .3097646073456295 -.015875 .3272328706383705 18 153 1497 162 37 1
34 149 158 ?1 29 161 2027 0 157 163 158 -.82053539265437 0 -.29824212936163 18 1
57 1954 164 165 154 166 161 ?1 29 163 2028 0 166 167 161 .30976460734563 -.03175
 -.2950671293616295 18 166 1957 168 169 157 170 163 ?1 29 167 2029 0 170 0 163 .
30976460734563 0 -.2982421293616295 18 170 1955 171 172 166 0 167 ?1 81 1 171 23
00 13 170 173 0 168 75 174 17 172 0 175 176 165 170 177 178 0 179 -15 255 175 19
80 0 180 181 0 17 176 0 175 180 172 166 179 182 0 183 +17 165 0 175 172 72 157 1
84 185 0 186 +17 177 0 187 188 189 157 172 178 0 0 +16 178 129 190 ?177 191 192
 193 0 0 1 17 179 0 194 195 183 170 176 182 0 189 -15 194 1850 0 179 19 0 17 195
 0 194 196 179 149 189 197 0 0 +17 183 0 194 179 198 166 160 199 0 0 -16 182 194
5 200 ?176 201 0 202 0 0 1 17 189 0 187 177 203 170 195 197 0 0 -15 187 120 0 20
4 205 0 17 203 0 187 189 204 149 206 207 0 195 +16 197 143 208 ?195 192 209 210
 0 0 1 81 1 208 2304 13 197 211 0 212 213 214 16 192 133 215 ?188 178 197 216 0
 0 1 16 209 349 217 ?107 197 218 219 0 0 1 30 210 177 0 197 220 216 0 +.30976460
734563 0 .01608287063837065 -176604314741932e-30 0 1 30 220 15 0 221 222 210 0 +
-.2553853926543705 -.03175 .3304078706383705 -1 0 -1473356221302074e-31 30 216 1
75 0 192 210 193 0 +-.82053539265437 0 -.2980930246293545 0 0 1 30 193 174 0 178
 216 223 0 +-.25538539265437 0 -.2982421293616295 -1 0 0 30 223 173 0 191 193 22
4 0 +-.82688539265437 0 -.2979439198970795 -1 0 0 16 191 125 16 ?225 226 178 223
 0 0 1 30 224 172 0 226 223 227 0 +-.83323539265437 0 .01623197537064555 3533762
58760743e-30 0 -1 16 226 121 212 ?228 199 191 224 0 0 1 30 227 208 0 229 224 230
 0 +-.83323539265437 -.03175 -.2979439198970795 0 1 0 16 229 2123 231 ?92 232 23
3 227 0 0 1 30 230 212 0 233 227 234 0 +-.82053539265437 -.03175 -.2979439198970
795 0 1 0 16 233 188 235 ?96 229 221 230 0 0 1 30 234 554 0 232 230 236 0 +-.782
43539265437 -.0127 .0192578706383704 -208140799517277e-30 0 1 16 232 552 237 ?11
9 238 229 234 0 0 1 30 236 1359 0 238 234 239 0 +-.83323539265437 .0268367106284
0835 .309165528512689 693027861177474e-31 .980580675690921 -.196116135138183 16
 238 2132 240 ?76 241 232 236 0 0 1 30 239 2110 0 241 236 242 0 +-.8202051926543
7 -.03175 -.29506712936163 353376258760743e-30 0 -1 16 241 2108 243 ?244 245 238
 239 0 0 1 30 242 2119 0 245 239 246 0 +-.809297482039847 -.0580835429000231 -.2
924337750716275 -.3810606100421295 .919961692849875 -.0919961692849871 16 245 21
17 247 ?62 248 241 242 0 0 1 30 246 2128 0 248 242 249 0 +-.821183485294529 -.02
938819264015875 -.2979439198970795 -.3826834323650895 .923879532511287 0 16 248
 2126 250 ?58 251 245 246 0 0 1 30 249 2137 0 251 246 252 0 +-.83323539265437 -.
0002923144395661005 .3304078706383705 -353376258760743e-30 0 1 16 251 2135 253 ?
52 51 248 249 0 0 1 30 252 2146 0 51 249 23 0 +-.841046249166942 .01856476128683
495 .3108199183810035 .3763132791742325 -.908500622283526 .181700124456704 16 51
 2144 254 ?42 28 251 252 0 0 1 30 23 2155 0 28 252 8 0 +-.826780832957043 -.0158
75 .0160828706383704 -353376258760743e-30 0 1 16 28 2153 255 ?30 11 51 23 0 0 1
 81 1 255 2277 13 28 256 0 257 254 258 80 255 1 13 259 260 9000 0 0 0 0 3 5 0 0
 0 FFTFTFTTFFFFFF3 81 1 256 2221 259 28 0 255 261 262 263 81 1 257 2276 13 201 2
62 0 231 255 264 81 1 254 2278 13 51 261 0 255 26 265 84 255 3 258 JcV81 1 261 2
220 259 51 0 254 266 256 267 81 1 26 2279 13 11 266 0 254 240 268 84 3 265 JcR81
 1 266 2219 259 11 0 26 269 261 270 81 1 240 2280 13 238 269 0 26 271 272 84 3 2
68 JcN81 1 269 2218 259 238 0 240 273 266 274 81 1 271 2281 13 275 273 0 240 276
 277 84 3 272 JcJ16 275 2150 271 ?37 278 279 280 0 0 1 81 1 273 2217 259 275 0 2
71 281 269 282 81 1 276 2282 13 283 281 0 271 57 284 84 3 277 JcF16 283 2141 276
 ?48 285 278 286 0 0 1 81 1 281 2216 259 283 0 276 287 273 288 81 1 57 2283 13 5
3 287 0 276 67 289 84 3 284 JcB81 1 287 2215 259 53 0 57 290 281 291 81 1 67 228
4 13 65 290 0 57 61 292 84 3 289 JcY81 1 290 2214 259 65 0 67 293 287 294 81 1 6
1 2285 13 59 293 0 67 45 295 84 3 292 JcU81 1 293 2213 259 59 0 61 296 290 297 8
1 1 45 2286 13 43 296 0 61 41 298 84 3 295 JcQ81 1 296 2212 259 43 0 45 44 293 2
99 84 3 298 JcM80 1 259 300 301 9000 0 0 0 0 3 6 0 0 0 FFTFTFTTFFFFFF1 81 1 44 2
211 259 31 0 41 302 296 303 82 255 3 299 27 3 0 81 1 302 2210 259 63 0 33 32 44
 304 82 3 303 27 2 0 81 1 33 2288 13 63 302 0 41 29 305 81 1 32 2209 259 12 0 29
 306 302 307 82 3 304 27 1 0 81 1 306 2096 259 185 0 34 308 32 309 82 3 307 27 0
 0 16 185 1928 34 ?165 310 201 311 0 0 1 81 1 34 2290 13 185 306 0 29 71 312 81
 1 308 2094 259 69 0 71 313 306 314 82 3 309 26 7 1 81 1 71 2291 13 69 308 0 34
 315 316 81 1 313 2091 259 19 0 317 318 308 319 82 3 314 26 4 0 14 255 19 201 31
5 ?320 0 194 6 22 -0 0 320 0 25 81 1 317 2241 321 19 313 315 0 322 323 81 1 318
 2088 259 324 0 325 326 313 327 82 3 319 26 4 2 14 324 197 328 ?205 329 330 6 33
1 +0 0 205 329 25 81 1 325 2249 321 324 318 328 332 333 334 81 1 326 2085 259 19
9 0 335 336 318 337 82 3 327 26 1 2 16 199 10 335 ?160 221 226 222 0 0 1 81 1 33
5 2294 13 199 326 0 328 235 338 81 1 336 2083 259 233 0 235 339 326 340 82 3 337
 26 5 1 81 1 235 2295 13 233 336 0 335 200 341 81 1 339 2082 259 182 0 200 342 3
36 343 82 3 340 26 3 1 81 1 200 2296 13 182 339 0 235 190 344 81 1 342 2080 259
 178 0 190 345 339 346 82 3 343 26 2 1 81 1 190 2297 13 178 342 0 200 164 347 81
 1 345 2079 259 157 0 164 348 342 349 82 3 346 26 0 1 81 1 164 2298 13 157 345 0
 190 168 350 81 1 348 2078 259 166 0 168 173 345 351 82 3 349 26 2 0 81 1 168 22
99 13 166 348 0 164 171 352 81 1 173 2077 259 170 0 171 353 348 354 82 3 351 26
 1 0 81 1 353 1785 259 73 0 75 355 173 356 82 3 354 26 0 0 81 1 75 2301 13 73 35
3 0 171 357 358 81 1 355 1783 259 205 0 333 359 353 360 82 3 356 22 7 0 14 205 1
09 357 ?361 324 362 6 363 -0 0 361 324 25 81 1 333 2250 321 205 355 357 325 364
 365 81 1 359 1776 259 226 0 212 211 355 366 82 3 360 22 5 2 81 1 212 2303 13 22
6 359 0 357 208 367 81 1 211 1775 259 197 0 208 368 359 369 82 3 366 22 8 1 81 1
 368 1774 259 278 0 213 370 211 371 82 3 369 22 7 1 16 278 1044 213 ?372 283 275
 373 0 0 1 81 1 213 2305 13 278 368 0 208 374 375 81 1 370 1773 259 376 0 374 37
7 368 378 82 3 371 22 6 1 16 376 1588 374 ?152 207 310 379 0 0 1 81 1 374 2306 1
3 376 370 0 213 380 381 81 1 377 1772 259 279 0 380 382 370 383 82 3 378 22 5 1
 16 279 1488 380 ?384 275 207 385 0 0 1 81 1 380 2307 13 279 377 0 374 386 387 8
1 1 382 1771 259 207 0 386 388 377 389 82 3 383 22 4 1 16 207 1577 386 ?203 279
 376 390 0 0 1 81 1 386 2308 13 207 382 0 380 151 391 81 1 388 1765 259 149 0 15
1 392 382 393 82 3 389 22 3 1 81 1 151 2309 13 149 388 0 386 162 394 81 1 392 17
64 259 153 0 162 395 388 396 82 3 393 22 3 0 81 1 162 2310 13 153 392 0 151 156
 397 81 1 395 1763 259 154 0 156 398 392 399 82 3 396 22 2 0 81 1 156 2311 13 15
4 395 0 162 159 400 81 1 398 1762 259 134 0 159 401 395 402 82 3 399 22 1 0 81 1
 159 2312 13 134 398 0 156 237 403 81 1 401 845 259 232 0 237 404 398 405 82 3 4
02 22 0 0 81 1 237 2313 13 232 401 0 159 406 407 81 1 404 844 259 408 0 406 409
 401 410 82 3 405 14 19 1 16 408 635 406 ?411 412 413 414 0 0 1 81 1 406 2314 13
 408 404 0 237 415 416 81 1 409 843 259 413 0 415 417 404 418 82 3 410 14 18 1 1
6 413 638 415 ?419 408 420 421 0 0 1 81 1 415 2315 13 413 409 0 406 422 423 81 1
 417 842 259 412 0 422 424 409 425 82 3 418 14 17 1 16 412 685 422 ?84 426 408 4
27 0 0 1 81 1 422 2316 13 412 417 0 415 118 428 81 1 424 841 259 116 0 118 429 4
17 430 82 3 425 14 16 1 81 1 118 2317 13 116 424 0 422 114 431 81 1 429 840 259
 112 0 114 432 424 433 82 3 430 14 11 0 81 1 114 2318 13 112 429 0 118 83 434 81
 1 432 839 259 81 0 83 435 429 436 82 3 433 14 10 0 81 1 83 2319 13 81 432 0 114
 110 437 81 1 435 838 259 108 0 110 438 432 439 82 3 436 14 9 0 81 1 110 2320 13
 108 435 0 83 440 441 81 1 438 836 259 442 0 443 444 435 445 82 3 439 14 8 0 14
 442 416 440 ?446 447 448 6 449 -0 0 446 447 25 81 1 443 2246 321 442 438 440 45
0 451 452 81 1 444 835 259 453 0 454 455 438 456 82 3 445 14 8 2 14 453 408 457
 ?447 458 459 6 460 +0 0 447 458 25 81 1 454 2244 321 453 444 457 461 450 462 81
 1 455 834 259 447 0 450 463 444 464 82 3 456 14 7 2 14 447 412 465 ?442 453 466
 6 467 +0 0 442 453 25 81 1 450 2245 321 447 455 465 454 443 468 81 1 463 833 25
9 458 0 461 469 455 470 82 3 464 14 6 2 14 458 404 471 ?453 320 472 6 473 -0 0 4
53 320 25 81 1 461 2243 321 458 463 471 322 454 474 81 1 469 832 259 475 0 476 4
77 463 478 82 3 470 14 5 2 14 475 743 479 ?480 481 482 6 483 +0 0 480 481 25 81
 1 476 2255 321 475 469 479 484 485 486 81 1 477 831 259 487 0 488 489 469 490 8
2 3 478 14 4 2 14 487 735 491 ?481 492 493 6 494 -0 0 481 492 25 81 1 488 2253 3
21 487 477 491 495 484 496 81 1 489 830 259 481 0 484 497 477 498 82 3 490 14 3
 2 14 481 739 499 ?475 487 500 6 501 -0 0 475 487 25 81 1 484 2254 321 481 489 4
99 488 476 502 81 1 497 829 259 361 0 364 503 489 504 82 3 498 14 2 2 14 361 747
 505 ?492 205 506 6 507 +0 0 492 205 25 81 1 364 2251 321 361 497 505 333 495 50
8 81 1 503 828 259 492 0 495 509 497 510 82 3 504 14 1 2 14 492 731 511 ?487 361
 512 6 513 +0 0 487 361 25 81 1 495 2252 321 492 503 511 364 488 514 81 1 509 82
7 259 515 0 516 517 503 518 82 3 510 14 0 2 16 515 365 516 ?100 218 519 520 0 0
 1 81 1 516 2330 13 515 509 0 511 521 522 81 1 517 826 259 218 0 521 523 509 524
 82 3 518 14 15 1 16 218 357 521 ?104 209 515 525 0 0 1 81 1 521 2331 13 218 517
 0 516 526 527 81 1 523 825 259 519 0 526 528 517 529 82 3 524 14 14 1 16 519 34
1 526 ?88 515 530 531 0 0 1 81 1 526 2332 13 519 523 0 521 217 532 81 1 528 824
 259 209 0 217 533 523 534 82 3 529 14 13 1 81 1 217 2333 13 209 528 0 526 535 5
36 81 1 533 823 259 537 0 535 538 528 539 82 3 534 14 12 1 16 537 632 535 ?540 5
41 542 543 0 0 1 81 1 535 2334 13 537 533 0 217 544 545 81 1 538 822 259 546 0 5
44 547 533 548 82 3 539 14 11 1 16 546 677 544 ?549 550 551 552 0 0 1 81 1 544 2
335 13 546 538 0 535 553 554 81 1 547 821 259 555 0 553 556 538 557 82 3 548 14
 10 1 16 555 665 553 ?558 542 550 559 0 0 1 81 1 553 2336 13 555 547 0 544 560 5
61 81 1 556 820 259 562 0 560 563 547 564 82 3 557 14 9 1 16 562 641 560 ?565 55
1 285 566 0 0 1 81 1 560 2337 13 562 556 0 553 567 568 81 1 563 819 259 542 0 56
7 569 556 570 82 3 564 14 8 1 16 542 671 567 ?571 537 555 572 0 0 1 81 1 567 233
8 13 542 563 0 560 573 574 81 1 569 818 259 551 0 573 575 563 576 82 3 570 14 7
 1 16 551 646 573 ?80 546 562 577 0 0 1 81 1 573 2339 13 551 569 0 567 578 579 8
1 1 575 817 259 550 0 578 580 569 581 82 3 576 14 6 1 16 550 629 578 ?582 555 54
6 583 0 0 1 81 1 578 2340 13 550 575 0 573 584 585 81 1 580 816 259 285 0 584 58
6 575 587 82 3 581 14 5 1 16 285 657 584 ?588 562 283 589 0 0 1 81 1 584 2341 13
 285 580 0 578 590 591 81 1 586 815 259 592 0 590 593 580 594 82 3 587 14 4 1 16
 592 674 590 ?595 596 541 597 0 0 1 81 1 590 2342 13 592 586 0 584 598 599 81 1
 593 814 259 596 0 598 600 586 601 82 3 594 14 3 1 16 596 668 598 ?129 420 592 6
02 0 0 1 81 1 598 2343 13 596 593 0 590 603 604 81 1 600 813 259 541 0 603 605 5
93 606 82 3 601 14 2 1 16 541 682 603 ?124 592 537 607 0 0 1 81 1 603 2344 13 54
1 600 0 598 608 609 81 1 605 812 259 420 0 608 610 600 611 82 3 606 14 1 1 16 42
0 662 608 ?133 413 596 612 0 0 1 81 1 608 2345 13 420 605 0 603 140 613 81 1 610
 811 259 138 0 140 614 605 615 82 3 611 14 0 1 81 1 140 2346 13 138 610 0 608 79
 616 81 1 614 810 259 77 0 79 617 610 618 82 3 615 14 7 0 81 1 79 2347 13 77 614
 0 140 144 619 81 1 617 809 259 142 0 144 620 614 621 82 3 618 14 6 0 81 1 144 2
348 13 142 617 0 79 128 622 81 1 620 808 259 126 0 128 623 617 624 82 3 621 14 5
 0 81 1 128 2349 13 126 620 0 144 136 625 81 1 623 807 259 120 0 136 626 620 627
 82 3 624 14 4 0 81 1 136 2350 13 120 623 0 128 123 628 81 1 626 806 259 121 0 1
23 629 623 630 82 3 627 14 3 0 81 1 123 2351 13 121 626 0 136 147 631 81 1 629 8
05 259 125 0 147 632 626 633 82 3 630 14 2 0 81 1 147 2352 13 125 629 0 123 132
 634 81 1 632 804 259 130 0 132 635 629 636 82 3 633 14 1 0 81 1 132 2353 13 130
 632 0 147 637 638 81 1 635 479 259 530 0 637 639 632 640 82 3 636 14 0 0 16 530
 383 637 ?641 519 642 643 0 0 1 81 1 637 2354 13 530 635 0 132 644 645 81 1 639
 477 259 646 0 644 647 635 648 82 3 640 10 10 1 16 646 344 644 ?649 642 426 650
 0 0 1 81 1 644 2355 13 646 639 0 637 651 652 81 1 647 475 259 642 0 651 653 639
 654 82 3 648 10 8 1 16 642 352 651 ?655 530 646 656 0 0 1 81 1 651 2356 13 642
 647 0 644 657 658 81 1 653 473 259 426 0 657 659 647 660 82 3 654 10 6 1 16 426
 378 657 ?661 646 412 662 0 0 1 81 1 657 2357 13 426 653 0 651 99 663 81 1 659 4
67 259 97 0 99 664 653 665 82 3 660 10 4 1 81 1 99 2358 13 97 659 0 657 103 666
 81 1 664 465 259 101 0 103 667 659 668 82 3 665 10 6 0 81 1 103 2359 13 101 664
 0 99 87 669 81 1 667 463 259 85 0 87 670 664 671 82 3 668 10 4 0 81 1 87 2360 1
3 85 667 0 103 15 672 81 1 670 461 259 105 0 15 673 667 674 82 3 671 10 2 0 81 1
 15 2361 13 105 670 0 87 2 675 81 1 673 274 259 1 0 676 677 670 678 82 3 674 10
 0 0 81 1 676 2238 679 1 673 680 0 0 681 81 1 677 262 259 191 0 16 682 673 683 8
2 3 678 8 0 3 81 1 16 2363 13 191 677 0 2 215 684 81 1 682 260 259 192 0 215 685
 677 686 82 3 683 8 14 1 81 1 215 2364 13 192 682 0 16 91 687 81 1 685 246 259 8
9 0 91 688 682 689 82 3 686 8 12 1 81 1 91 2365 13 89 685 0 215 95 690 81 1 688
 242 259 93 0 95 0 685 691 82 3 689 8 10 0 81 1 95 2366 13 93 688 0 91 0 692 82
 3 691 8 6 0 84 3 692 JJY84 3 690 JJo84 3 687 JJx84 3 684 JJ580 1 679 693 694 80
38 0 0 0 0 0 0 0 0 0 TTTTTTTTTTTTTF10 81 1 680 2239 693 1 676 14 0 0 695 98 255
 6 681 80 97 114 116 32 49 80 1 693 696 697 8017 0 0 0 0 0 0 0 0 0 TTTTTTTTTTTTT
F3 81 1 14 2240 698 1 680 2 0 0 699 84 6 695 Part 180 1 698 321 700 8040 0 0 0 0
 3 5 0 0 0 TTTFFFFFFFFFFF2 83 255 3 699 .615686274509804 .811764705882353 .92941
1764705882 79 255 17 700 SDL/TYSA_COLOUR_279 13 697 SDL/TYSA_NAME79 14 694 SDL/T
YSA_UNAME84 2 675 IL84 3 672 JLI84 3 669 JLQ84 3 666 JLY84 3 663 JLR17 661 0 472
 701 107 85 702 426 0 703 +30 662 443 0 426 427 650 0 +-.25777299265437 0 -.2474
421293616295 -1 0 -105803562883976e-30 30 427 763 0 412 414 662 0 +-.25777299265
437 -.0127 -.2474421293616295 -1 0 -105803562883976e-30 30 650 442 0 646 662 656
 0 +.26688940734563 0 .01925787063837055 -208140799517277e-30 0 1 30 656 441 0 6
42 650 643 0 +-.25777299265437 0 .2859578706383705 -1 0 -105803562883976e-30 30
 643 440 0 530 656 531 0 +-.78243539265437 0 .0192578706383704 -208140799517277e
-30 0 1 30 531 439 0 519 643 520 0 +-.78243539265437 -.03175 -.2474421293616295
 0 1 0 30 520 438 0 515 531 525 0 +-.78243539265437 -.03175 .2859578706383705 0
 1 0 30 525 437 0 218 520 219 0 +.26688940734563 -.03175 .2859578706383705 0 1 0
 30 219 436 0 209 525 222 0 +.26688940734563 -.03175 -.2474421293616295 0 1 0 30
 222 11 0 199 219 220 0 +.30976460734563 -.03175 .01608287063837065 -17660431474
1932e-30 0 1 30 414 764 0 408 421 427 0 +.26688940734563 -.0127 .019257870638370
55 -208140799517277e-30 0 1 30 421 765 0 413 612 414 0 +-.25777299265437 -.0127
 .2859578706383705 -1 0 -105803562883976e-30 30 612 770 0 420 602 421 0 +.276414
40734563 -.0127 -.2569671293616295 0 -1 0 30 602 771 0 596 597 612 0 +.276414407
34563 -.0127 .2954828706383705 0 -1 0 30 597 772 0 592 607 602 0 +-.791960392654
37 -.0127 .2954828706383705 0 -1 0 30 607 773 0 541 552 597 0 +-.79196039265437
 -.0127 -.2569671293616295 0 -1 0 30 552 774 0 546 577 607 0 +-.79196039265437 -
.03175 .0192578706383705 -2009635305684055e-31 0 1 30 577 775 0 551 566 552 0 +-
.25777299265437 -.03175 .2954828706383705 -1 0 -1039169984751752e-31 30 566 776
 0 562 589 577 0 +.27641440734563 -.03175 .0192578706383706 -2009635305684055e-3
1 0 1 30 589 777 0 285 543 566 0 +-.25777299265437 -.03175 -.2569671293616295 -1
 0 -1039169984751752e-31 30 543 778 0 537 572 589 0 +-.79196039265437 -.0127 .01
92578706383705 -2009635305684055e-31 0 1 30 572 779 0 542 559 543 0 +-.257772992
65437 -.0127 .2954828706383705 -1 0 -1039169984751752e-31 30 559 780 0 555 583 5
72 0 +.27641440734563 -.0127 .0192578706383706 -2009635305684055e-31 0 1 30 583
 781 0 550 286 559 0 +-.25777299265437 -.0127 -.2569671293616295 -1 0 -103916998
4751752e-31 30 286 1127 0 283 373 583 0 +-.90943539265437 -.015875 .317707870638
3705 1 0 176604314741932e-30 30 373 1134 0 278 390 286 0 +.3097646073456295 -.01
5875 .3240578706383705 176604314741932e-30 0 -1 30 390 1662 0 207 379 373 0 +-.9
0943539265437 867361737988404e-32 .3145328706383705 1 0 176604314741932e-30 30 3
79 1665 0 376 280 390 0 +.3097646073456295 -.0079375 .316120370638371 3463495565
591495e-32 .98058067569092 -.196116135138183 30 280 1671 0 275 385 379 0 +-.9094
3539265437 -.015875 .3272328706383705 1 0 176604314741932e-30 30 385 1674 0 279
 704 280 0 +.3097646073456295 -.0238125 .3288203706383705 34634955655915e-30 .98
058067569092 -.196116135138183 30 704 2010 0 310 311 385 0 +-.82688539265437 -.0
0298209464550295 -.2979439198970795 1 176604314741933e-29 0 16 310 2114 705 ?72
 376 185 704 0 0 1 30 311 2011 0 185 706 704 0 +-.82053539265437 -.0314504064091
3615 -.295097088720716 0 .995037190209989 -.0995037190209984 30 706 2014 0 201 2
02 311 0 +-.90943539265437 -.03175 -.29506712936163 1 0 176604314741932e-30 16 2
01 2101 257 ?169 185 182 706 0 0 1 30 202 2015 0 182 0 706 0 +.30976460734563 -.
015875 -.2966546293616295 -175727861119772e-31 -.995037190209989 .09950371902099
84 17 169 0 707 160 244 166 180 201 0 176 +15 707 5 0 708 320 0 17 160 0 707 708
 169 134 183 199 0 709 +17 244 0 707 169 708 65 710 241 0 180 +17 180 0 175 62 1
76 65 169 201 0 0 -17 62 0 175 72 180 59 68 245 0 711 +17 72 0 175 165 62 69 711
 310 0 184 +17 68 0 712 710 713 65 62 245 0 244 -17 711 0 714 58 715 59 72 310 0
 713 -15 714 1825 0 711 329 0 17 58 0 714 92 711 53 713 248 0 716 +17 715 0 714
 711 717 69 96 233 0 0 -17 713 0 712 68 718 59 58 248 0 0 -15 712 2175 0 50 21 0
 17 718 0 712 713 50 53 52 251 0 0 -17 50 0 712 718 39 43 42 51 0 0 -17 52 0 719
 76 716 43 718 251 0 49 +15 719 190 0 716 446 0 17 76 0 719 228 52 73 49 238 0 2
06 +17 716 0 719 52 228 53 92 229 0 718 -17 49 0 47 42 206 43 76 238 0 50 -15 47
 1624 0 49 720 0 17 206 0 47 49 152 73 203 207 0 204 -17 152 0 47 206 48 149 196
 376 0 203 +17 204 0 187 203 225 73 228 226 0 0 -17 225 0 187 204 188 89 717 191
 0 0 +17 228 0 719 716 76 89 204 226 0 225 +17 188 0 187 225 177 93 186 192 0 0
 +17 717 0 714 715 92 93 225 191 0 188 -17 92 0 714 717 58 89 716 229 0 228 +17
 186 0 330 184 96 157 188 192 0 177 -15 330 1815 0 184 324 0 17 184 0 330 96 186
 69 165 185 0 715 -17 96 0 330 186 184 93 715 233 0 717 +17 48 0 47 152 42 154 3
8 283 0 196 +17 196 0 194 721 195 154 152 376 0 372 -17 721 0 194 198 196 153 37
2 278 0 0 -17 372 0 36 38 37 154 721 278 0 0 +15 36 1090 0 38 480 0 17 38 0 36 3
0 372 31 48 283 0 39 -17 37 0 36 372 30 153 40 275 0 384 +17 40 0 722 27 384 12
 37 275 0 723 -17 384 0 722 40 709 153 198 279 0 721 +15 722 1515 0 40 724 0 17
 709 0 722 384 27 134 708 221 0 198 -17 198 0 194 183 721 134 384 279 0 0 -17 27
 0 722 709 40 63 723 11 0 708 +17 708 0 707 244 160 63 709 221 0 710 +16 221 14
 725 ?708 233 199 220 0 0 1 81 1 725 2269 13 221 726 0 727 705 728 81 1 726 2229
 259 221 0 725 729 730 731 81 1 727 2268 13 21 732 0 733 725 734 81 1 705 2270 1
3 310 729 0 725 253 735 84 3 728 Jc181 1 729 2228 259 310 0 705 736 726 737 81 1
 253 2271 13 251 736 0 705 243 738 84 3 735 Jcx81 1 736 2227 259 251 0 253 739 7
29 740 81 1 243 2272 13 241 739 0 253 250 741 84 3 738 Jct81 1 739 2226 259 241
 0 243 742 736 743 81 1 250 2273 13 248 742 0 243 247 744 84 3 741 Jcp81 1 742 2
225 259 248 0 250 745 739 746 81 1 247 2274 13 245 745 0 250 231 747 84 3 744 Jc
l81 1 745 2224 259 245 0 247 748 742 749 81 1 231 2275 13 229 748 0 247 257 750
 84 3 747 Jch81 1 748 2223 259 229 0 231 262 745 751 84 3 750 Jcd81 1 262 2222 2
59 201 0 257 256 748 752 82 3 751 27 7 1 82 3 752 27 6 1 82 3 749 27 8 1 82 3 74
6 27 9 1 82 3 743 27 10 1 82 3 740 27 11 1 82 3 737 27 12 1 14 21 2174 727 ?0 18
1 712 6 7 +0 0 0 181 25 81 1 732 2260 321 21 730 727 753 0 754 81 1 733 2267 13
 724 755 0 756 727 757 84 3 734 JcC14 724 1524 733 ?181 720 722 6 758 -0 0 181 7
20 25 81 1 755 2258 321 724 759 733 760 753 761 81 1 756 2266 13 720 760 0 762 7
33 763 84 3 757 JcG14 720 1629 756 ?724 480 47 6 764 -0 0 724 480 25 81 1 760 22
57 321 720 765 756 485 755 766 81 1 762 2265 13 480 485 0 767 756 768 84 3 763 J
cK14 480 1095 762 ?720 475 36 6 769 -0 0 720 475 25 81 1 485 2256 321 480 770 76
2 476 760 771 81 1 767 2264 13 181 753 0 772 762 773 84 3 768 JcO14 181 1989 767
 ?21 724 175 6 774 -0 0 21 724 25 81 1 753 2259 321 181 775 767 755 732 776 81 1
 772 2263 13 329 332 0 777 767 778 84 3 773 JcS14 329 193 772 ?324 446 714 6 779
 +0 0 324 446 25 81 1 332 2248 321 329 780 772 451 325 781 81 1 777 2262 13 320
 322 0 782 772 783 84 3 778 JcW14 320 1 777 ?458 19 784 6 785 +0 0 458 19 25 81
 1 322 2242 321 320 786 777 317 461 787 81 1 782 2261 13 446 451 0 0 777 788 84
 3 783 Jca14 446 191 782 ?329 442 719 6 789 -0 0 329 442 25 81 1 451 2247 321 44
6 790 782 443 332 791 84 3 788 Jce80 1 321 0 792 8001 0 0 0 0 3 5 0 0 0 FFFFTFTF
FFFFFF2 81 1 790 2237 259 446 0 451 786 0 793 83 3 791 .615686274509804 .8117647
05882353 .929411764705882 81 1 786 2236 259 320 0 322 780 790 794 82 3 793 27 7
 2 81 1 780 2235 259 329 0 332 775 786 795 82 3 794 27 6 2 81 1 775 2234 259 181
 0 753 770 780 796 82 3 795 27 5 2 81 1 770 2233 259 480 0 485 765 775 797 82 3
 796 27 4 2 81 1 765 2232 259 720 0 760 759 770 798 82 3 797 27 3 2 81 1 759 223
1 259 724 0 755 730 765 799 82 3 798 27 2 2 81 1 730 2230 259 21 0 732 726 759 8
00 82 3 799 27 1 2 82 3 800 27 0 2 79 15 792 SDL/TYSA_COLOUR50 789 202 0 446 363
 779 0 +-.83323539265437 -.03175 .01623197537064555 1 0 353376258760743e-30 3533
76258760743e-30 0 -1 13 25 79 0 0 0 0 0 0 10 19 50 363 171 0 205 785 789 0 +-.26
173539265437 0 .0160828706383706 0 -1 0 1 0 0 50 779 203 0 329 789 331 0 +-.8268
8539265437 -.03175 -.2979439198970795 0 0 -1 -1 0 0 50 331 205 0 324 779 22 0 +-
.82053539265437 -.03175 -.2980930246293545 -1 0 0 0 0 1 50 22 207 0 19 331 7 0 +
.30976460734563 -.03175 .01608287063837065 -1 0 -176604314741932e-30 -1766043147
41932e-30 0 1 50 785 2 0 320 473 363 0 +-.26173539265437 -.03175 .01608287063837
06 0 -1 0 1 0 0 50 473 430 0 458 460 785 0 +-.25777299265437 -.03175 -.247442129
3616295 105803562883976e-30 0 -1 -1 0 -105803562883976e-30 50 460 431 0 453 467
 473 0 +.26688940734563 -.03175 .01925787063837055 -1 0 -208140799517277e-30 -20
8140799517277e-30 0 1 50 467 432 0 447 449 460 0 +-.25777299265437 -.03175 .2859
578706383705 105803562883976e-30 0 -1 -1 0 -105803562883976e-30 50 449 433 0 442
 513 467 0 +-.78243539265437 -.03175 .0192578706383704 -1 0 -208140799517277e-30
 -208140799517277e-30 0 1 50 513 757 0 492 494 449 0 +-.25777299265437 -.0127 -.
2569671293616295 -1039169984751752e-31 0 1 1 0 1039169984751752e-31 50 494 758 0
 487 501 513 0 +.27641440734563 -.0127 .0192578706383706 1 0 2009635305684055e-3
1 2009635305684055e-31 0 -1 50 501 759 0 481 483 494 0 +-.25777299265437 -.0127
 .2954828706383705 -1039169984751752e-31 0 1 1 0 1039169984751752e-31 50 483 760
 0 475 507 501 0 +-.79196039265437 -.0127 .0192578706383705 1 0 2009635305684055
e-31 2009635305684055e-31 0 -1 50 507 762 0 361 769 483 0 +-.26173539265437 -.01
27 .0160828706383706 0 -1 0 1 0 0 50 769 1121 0 480 764 507 0 +-.90943539265437
 -.015875 .3240578706383705 0 -1 0 0 0 -1 50 764 1650 0 720 758 769 0 +-.9094353
9265437 -.0079375 .3161203706383705 173174778279576e-30 -.196116135138183 -.9805
8067569092 0 .980580675690921 -.196116135138183 50 758 1655 0 724 774 764 0 +-.9
0943539265437 -.0238125 .3288203706383705 173174778279576e-30 -.196116135138183
 -.98058067569092 0 .98058067569092 -.196116135138183 50 774 2005 0 181 0 758 0
 +-.90943539265437 -.015875 -.29665462936163 -175727861119773e-30 .0995037190209
984 .995037190209989 0 -.995037190209989 .0995037190209984 83 3 787 .61568627450
9804 .811764705882353 .929411764705882 15 784 584 0 801 320 707 17 801 0 784 588
 802 130 565 562 0 0 -17 588 0 784 549 801 121 803 285 0 0 +17 802 0 784 801 549
 126 80 551 0 0 -17 565 0 493 145 133 126 801 562 0 802 +15 493 738 0 565 487 0
 17 145 0 493 804 565 142 129 596 0 558 -17 133 0 493 565 804 130 148 420 0 803
 +17 804 0 493 133 145 125 558 555 0 805 -17 148 0 512 582 803 125 133 420 0 804
 -17 803 0 512 148 124 130 588 285 0 801 -15 512 734 0 803 492 0 17 124 0 512 80
3 582 121 137 541 0 806 +17 582 0 512 124 148 120 805 550 0 0 +17 137 0 482 540
 806 120 124 541 0 807 -17 806 0 482 137 595 121 549 546 0 588 -15 482 746 0 806
 475 0 17 595 0 482 806 540 77 141 592 0 549 +17 549 0 784 802 588 77 806 546 0
 0 +17 540 0 482 595 137 138 807 537 0 0 +17 141 0 500 808 80 138 595 592 0 571
 -15 500 742 0 80 481 0 17 808 0 500 129 141 142 571 542 0 0 -17 80 0 500 141 12
9 77 802 551 0 595 +17 571 0 506 807 558 138 808 542 0 540 +15 506 724 0 805 361
 809 17 807 0 506 805 571 120 540 537 0 582 -17 558 0 506 571 805 142 804 555 0
 808 +17 805 0 506 558 807 125 582 550 0 0 -15 809 725 0 84 361 0 17 84 0 809 11
9 111 81 810 412 0 811 +17 119 0 809 115 84 116 811 232 0 419 +17 111 0 809 84 1
15 108 411 408 0 810 -17 810 0 472 107 701 108 84 412 0 812 -17 811 0 448 88 813
 81 119 232 0 701 -15 448 553 0 811 442 0 17 88 0 448 641 811 85 701 519 0 661 +
17 813 0 448 811 641 116 100 515 0 0 -17 701 0 472 810 661 81 88 519 0 0 -15 472
 579 0 810 458 0 17 641 0 448 813 88 97 703 530 0 655 +17 100 0 466 814 419 97 8
13 515 0 641 +15 466 415 0 815 447 0 17 814 0 466 815 100 101 655 642 0 649 -17
 419 0 466 100 815 116 115 413 0 813 +17 815 0 466 419 814 112 104 218 0 0 -17 1
15 0 809 111 119 112 419 413 0 411 -17 411 0 459 104 812 112 111 408 0 815 +15 4
59 411 0 812 453 0 17 104 0 459 816 411 101 815 218 0 814 +17 812 0 459 411 816
 108 107 209 0 0 -17 816 0 459 812 104 105 649 646 0 702 -17 107 0 472 661 810 1
05 812 209 0 816 +17 649 0 362 655 702 101 816 646 0 0 +17 702 0 362 649 703 105
 661 426 0 0 -15 362 278 0 703 205 187 17 703 0 362 702 655 85 641 530 0 0 -17 6
55 0 362 703 649 97 814 642 0 0 +17 129 0 500 80 808 126 145 596 0 565 +83 3 781
 .615686274509804 .811764705882353 .929411764705882 83 3 776 .615686274509804 .8
11764705882353 .929411764705882 83 3 771 .615686274509804 .811764705882353 .9294
11764705882 83 3 766 .615686274509804 .811764705882353 .929411764705882 83 3 761
 .615686274509804 .811764705882353 .929411764705882 83 3 754 .615686274509804 .8
11764705882353 .929411764705882 82 3 731 27 13 1 17 710 0 712 723 68 63 244 241
 0 0 -17 723 0 712 39 710 12 27 11 0 0 -17 39 0 712 50 723 31 30 28 0 0 -84 3 65
8 JLZ84 3 652 JLh84 3 645 JLp84 2 638 IP84 3 634 JPE84 3 631 JPI84 3 628 JPM84 3
 625 JPQ84 3 622 JPU84 3 619 JPY84 3 616 JPc84 3 613 JPB84 3 609 JPF84 3 604 JPJ
84 3 599 JPN84 3 591 JPR84 3 585 JPV84 3 579 JPZ84 3 574 JPd84 3 568 JPh84 3 561
 JPl84 3 554 JPp84 3 545 JPt84 3 536 JPx84 3 532 JP184 3 527 JP581 1 511 2329 13
 492 495 0 505 516 817 84 3 522 JP981 1 505 2328 13 361 364 0 499 511 818 84 3 8
17 JPC81 1 499 2327 13 481 484 0 491 505 819 84 3 818 JPG81 1 491 2326 13 487 48
8 0 479 499 820 84 3 819 JPK81 1 479 2325 13 475 476 0 471 491 821 84 3 820 JPO8
1 1 471 2324 13 458 461 0 465 479 822 84 3 821 JPS81 1 465 2323 13 447 450 0 457
 471 823 84 3 822 JPW81 1 457 2322 13 453 454 0 440 465 824 84 3 823 JPa81 1 440
 2321 13 442 443 0 110 457 825 84 3 824 JPe84 3 825 JPi83 3 514 .615686274509804
 .811764705882353 .929411764705882 83 3 508 .615686274509804 .811764705882353 .9
29411764705882 83 3 502 .615686274509804 .811764705882353 .929411764705882 83 3
 496 .615686274509804 .811764705882353 .929411764705882 83 3 486 .61568627450980
4 .811764705882353 .929411764705882 83 3 474 .615686274509804 .811764705882353 .
929411764705882 83 3 468 .615686274509804 .811764705882353 .929411764705882 83 3
 462 .615686274509804 .811764705882353 .929411764705882 83 3 452 .61568627450980
4 .811764705882353 .929411764705882 84 3 441 JPg84 3 437 JPk84 3 434 JPo84 3 431
 JPs84 4 428 KPBB84 4 423 KPFB84 4 416 KPJB84 4 407 KPNB84 2 403 IX84 3 400 JXE8
4 3 397 JXI84 3 394 JXM84 3 391 JXN84 3 387 JXR84 3 381 JXV84 3 375 JXZ81 1 357
 2302 13 205 333 0 75 212 826 84 3 367 JXh84 3 826 JXW83 3 365 .615686274509804
 .811764705882353 .929411764705882 84 3 358 JXc84 3 352 JbE84 3 350 JbI84 3 347
 JbB84 3 344 JbJ84 3 341 JbN81 1 328 2293 13 324 325 0 315 335 827 84 3 338 JbV8
1 1 315 2292 13 19 317 0 71 328 828 84 3 827 JbG84 3 828 JbS83 3 334 .6156862745
09804 .811764705882353 .929411764705882 83 3 323 .615686274509804 .8117647058823
53 .929411764705882 84 3 316 JbQ84 3 312 Jbd84 3 305 JcE79 9 301 BTI/DetId82 3 2
97 27 4 0 82 3 294 27 5 0 82 3 291 27 6 0 82 3 288 27 0 1 82 3 282 27 1 1 82 3 2
74 27 2 1 82 3 270 27 3 1 82 3 267 27 4 1 84 3 264 JcZ82 3 263 27 5 1 79 12 260
 BTI/ExportId84 3 214 JXd84 2 174 Ib84 3 46 JcI84 2 35 Ic19 20 215 0 1 0 10 6 S0
 74 4 CI16 index_map_offset0 0 1 dCCZ20 18 6 0 0 790 676 680 14 732 95 0 0 0 0 0
 0 0 0 0 0 0 0 0 0 84 3 17 JJD1 0 
