**ABCDEFGHIJKLMNOPQRSTUVWXYZabcdefghijklmnopqrstuvwxyz**************************
**PARASOLID !"#$%&'()*+,-./:;<=>?@[\]^_`{|}~0123456789**************************
**PART1;
MC=unknown;
MC_MODEL=unknown;
MC_ID=unknown;
OS=unknown;
OS_RELEASE=unknown;
FRU=Parasolid 32.0.170;
APPL=Onshape;
SITE=unknown;
USER=unknown;
FORMAT=text;
GUISE=transmit;
KEY=BTGapi::writeModels_.xmt;
FILE=BTGapi::writeModels_.xmt;
DATE=2019-10-27T06:05:38 (UTC);
**PART2;
SCH=SCH_3200170_32001;
USFLD_SIZE=0;
**PART3;
**END_OF_HEADER*****************************************************************
T51 : TRANSMIT FILE created by modeller version 320017023 SCH_3200170_32001_1300
6227 0 12 34 CCCCCCI4 mesh1006 0 I8 polyline1008 0 CCCCCCCDI5 owner1040 0 CCCCCC
I13 boundary_mesh1006 0 I17 boundary_polyline1008 0 CCCA16 index_map_offset0 0 1
 dA9 index_map82 0 A17 node_id_index_map82 0 A20 schema_embedding_map82 0 A5 chi
ld12 0 A14 lowest_node_id0 0 1 dA16 mesh_offset_data206 0 Z1 548 2 3 0 0 0 0 0 0
 1e3 1e-8 0 4 5 1 0 1 1 6 7 8 9 0 0 10 11 12 0 0 0 0 0 0 0 81 255 1 2 534 13 1 1
4 0 15 16 17 70 11 CI9 list_type0 0 1 uI10 notransmit0 0 1 lCCCDCCDI12 finger_in
dex0 0 1 dI12 finger_block1012 0 CZ3 0 4 T1 0 0 6 20 1 18 18 13 255 6 107 0 1 0
 19 0 0 20 0 51 255 7 333 0 19 21 0 22 +0 0 .004 0 0 1 .0195 1 0 0 38 12 CCCCCCC
CCCCA17 intersection_data204 0 Z8 406 0 11 23 0 0 +24 25 26 27 28 29 29 255 9 39
8 0 12 30 0 .004 .0322529068457403 .125 19 8 CCCCCCCA5 owner12 0 Z10 122 0 1 20
 0 31 V0 16 255 11 404 32 ?33 0 34 8 0 0 1 18 255 12 397 35 36 0 37 9 ?1 81 1 35
 524 13 12 38 0 39 40 41 17 255 36 0 42 43 44 12 45 46 0 33 -18 37 457 47 44 12
 48 30 ?1 81 1 47 522 13 37 49 0 50 39 51 17 44 0 42 36 52 37 53 54 0 45 -18 48
 455 39 52 37 55 56 ?1 29 30 487 0 37 56 9 .004 .01908533468399235 .125 29 56 48
8 0 48 57 30 -.004 .01908533468399235 .125 29 57 490 0 55 0 56 -.004 .0322529068
457403 .125 18 55 456 40 43 48 0 57 ?1 81 1 40 525 13 55 58 0 35 32 59 17 43 0 4
2 52 36 55 33 11 0 60 -15 255 42 462 0 36 61 0 17 52 0 42 44 43 48 60 62 0 53 -1
7 33 0 63 64 64 12 43 11 0 65 +17 60 0 66 65 67 55 52 62 0 64 +15 66 370 0 65 68
 0 17 65 0 66 45 60 12 64 69 0 0 +17 67 0 66 60 45 48 70 34 0 0 -16 62 443 50 ?6
0 46 0 71 0 0 1 17 64 0 63 33 33 55 65 69 0 0 -15 63 369 0 64 72 73 16 69 274 15
 ?65 34 74 75 0 0 1 81 1 15 533 13 69 76 0 77 2 78 16 34 291 77 ?70 11 69 23 0 0
 1 16 74 257 79 ?80 69 81 82 0 0 1 31 255 75 341 0 69 82 23 0 +0 0 .125 0 0 1 1
 0 0 .0325 31 82 340 0 74 83 75 0 +0 0 .118 0 0 1 1 0 0 .0325 31 23 342 0 34 75
 8 0 +0 0 .125 0 0 1 1 0 0 .0195 31 83 339 0 81 84 82 0 +0 0 .112 0 0 1 1 0 0 .0
325 16 81 240 85 ?86 74 87 83 0 0 1 31 84 338 0 87 88 83 0 +0 0 .105 0 0 1 1 0 0
 .0325 16 87 223 89 ?90 81 91 84 0 0 1 31 88 337 0 91 92 84 0 +0 0 .105 0 0 1 1
 0 0 .025 16 91 206 93 ?94 87 95 88 0 0 1 31 92 336 0 95 96 88 0 +0 0 .003 0 0 1
 1 0 0 .025 16 95 189 97 ?98 91 99 92 0 0 1 31 96 335 0 99 100 92 0 +0 0 0 0 0 1
 1 0 0 .022 16 99 172 101 ?102 95 103 96 0 0 1 31 100 334 0 103 104 96 0 +0 0 .0
08 0 0 1 1 0 0 .0195 16 103 136 105 ?106 99 54 100 0 0 1 38 104 482 0 54 107 100
 0 +7 25 108 109 110 111 16 54 440 112 ?53 103 46 104 0 0 1 30 255 107 483 0 46
 71 104 0 +.004 .05 .125 0 -1 0 51 25 479 0 61 0 113 114 +0 .05 .125 0 -1 0 .004
 0 0 -1 40 255 11 108 0 1 11 .0002322662062212955 .3437587931681305 ??.004 .0190
8533468399235 .125 .00378004611421442 .0191301137313507 .1236918519294772 .00314
7413737531405 .0192443182982614 .122531440346113 .002157769641993825 .0193802484
5485965 .121631910011284 .000911699424916323 .01947867562640255 .121105285099188
 -.0004230743452964125 .0194954099238347 .121022436914598 -.001690776809771755 .
01942656103842205 .1213749105142716 -.002778972482924365 .01930096660634255 .122
1229682067886 -.00357518678913642 .01916945589793265 .123206110532172 -.00396849
945371958 .01909190959767585 .1244989889364222 -.004 .01908533468399235 .125 41
 3 CI8 term_use0 0 1 cCZ1 109 L?.004 .01908533468399235 .125 41 1 110 L?-.004 .0
1908533468399235 .125 204 2 17 INTERSECTION_DATA17 Intersection data7 uv_type0 0
 1 u6 values0 1 1 fT44 111 4 1.364201630702302 .121 1.570796326794895 .030914665
3160077 1.375712758590742 .1196918519294772 1.237629852504122 .0308698862686493
 1.408681328552984 .118531440346113 .905693667915492 .0307556817017386 1.4599144
01118066 .117631910011284 .569774766207817 .03061975154514035 1.524025460010005
 .117105285099188 .22994590860598 .0305213243735975 1.59249414956603 .1170224369
14598 6.17721851601205 .0305045900761653 1.657611842569825 .1173749105142716 5.8
4676920124987 .03057343896157795 1.71379458819646 .1181229682067886 5.5151226128
5619 .03069903339365745 1.755182261924155 .119206110532172 5.17744443463059 .030
83054410206735 1.775740796962365 .1204989889364222 4.83797157971918 .03090809040
232415 1.77739102288749 .121 4.71238898038469 .03091466531600765 14 255 61 463 1
15 ?0 116 42 6 25 -0 0 0 116 31 50 255 113 324 0 116 25 117 0 +-.002653061121590
725 0 .008 0 0 -1 -1 0 0 141 255 114 8 118 118 25 141 118 104 114 114 25 14 116
 141 119 ?61 120 121 6 113 -0 0 61 120 31 50 117 325 0 120 113 122 0 +-.0125 0 0
 0 0 1 1 0 0 14 120 175 123 ?116 124 125 6 117 -0 0 116 124 31 54 255 122 326 0
 124 117 126 0 +0 0 .003 0 0 1 .022 .003 1 0 0 14 124 192 16 ?120 127 128 6 122
 +0 0 120 127 31 51 126 327 0 127 122 129 0 -0 0 .004 0 0 1 .025 1 0 0 14 127 20
9 130 ?124 131 132 6 126 -0 0 124 131 31 50 129 328 0 131 126 133 0 +-.02625 0 .
105 0 0 1 1 0 0 14 131 226 134 ?127 135 136 6 129 -0 0 127 135 31 51 133 329 0 1
35 129 137 0 -0 0 .004 0 0 1 .0325 1 0 0 14 135 243 138 ?131 139 140 6 133 -0 0
 131 139 31 54 137 330 0 139 133 24 0 +0 0 .115 0 0 1 .0325 .003 1 0 0 14 139 26
0 141 ?135 72 142 6 137 -0 0 135 72 31 51 24 331 0 72 137 21 143 -0 0 .004 0 0 1
 .0325 1 0 0 14 72 277 144 ?139 68 63 6 24 -0 0 139 68 31 50 21 332 0 68 24 7 0
 +-.02140306112159075 0 .125 0 0 -1 -1 0 0 141 143 8 143 143 24 14 68 294 145 ?7
2 19 66 6 21 -0 0 72 19 31 81 1 145 530 13 68 146 0 147 115 148 14 19 309 147 ?6
8 0 149 6 7 -0 0 68 0 31 13 31 121 0 0 0 0 0 0 10 19 81 1 147 529 13 19 150 0 14
4 145 151 15 149 371 0 152 19 153 17 152 0 149 152 152 0 106 103 0 0 -15 153 308
 0 70 19 0 17 70 0 153 53 53 37 67 34 0 0 +17 53 0 153 70 70 48 44 54 0 67 +17 1
06 0 121 106 106 0 152 103 0 0 +15 121 140 0 106 116 0 80 255 1 13 154 155 9000
 0 0 0 0 3 5 0 0 0 FFTFTFTTFFFFFF3 81 1 150 509 156 19 157 147 0 146 158 81 1 14
4 528 13 72 159 0 112 147 160 84 255 3 151 JLK81 1 159 511 156 72 161 144 146 16
2 163 81 1 112 527 13 54 164 0 32 144 165 84 3 160 JLO81 1 164 498 154 54 0 112
 161 166 167 81 1 32 526 13 11 166 0 40 112 168 84 3 165 JLJ81 1 166 499 154 11
 0 32 164 58 169 84 3 168 JLN80 1 154 170 171 9000 0 0 0 0 3 6 0 0 0 FFTFTFTTFFF
FFF1 81 1 58 500 154 55 0 40 166 38 172 82 255 3 169 10 3 1 81 1 38 501 154 12 0
 35 58 173 174 82 3 172 10 0 0 81 1 173 502 154 48 0 39 38 49 175 82 3 174 10 1
 0 81 1 39 523 13 48 173 0 47 35 176 81 1 49 503 154 37 0 47 173 177 178 82 3 17
5 10 2 0 81 1 177 504 154 62 0 50 49 179 180 82 3 178 10 3 0 81 1 50 521 13 62 1
77 0 181 47 182 81 1 179 505 154 46 0 181 177 0 183 82 3 180 10 4 1 16 46 437 18
1 ?45 54 62 107 0 0 1 81 1 181 520 13 46 179 0 0 50 184 82 3 183 10 5 1 84 3 184
 JLV17 45 0 66 67 65 37 36 46 0 70 +84 3 182 JLR84 3 176 JLI79 255 9 171 BTI/Det
Id81 1 161 497 154 72 0 159 157 164 185 82 3 167 10 2 1 81 1 157 496 154 19 0 15
0 186 161 187 82 3 185 10 3 2 81 1 186 495 154 68 0 146 188 157 189 82 3 187 10
 2 2 81 1 146 510 156 68 186 145 150 159 190 81 1 188 494 154 61 0 191 192 186 1
93 82 3 189 10 1 2 81 1 191 519 156 61 188 115 194 0 195 81 1 192 493 154 34 0 7
7 76 188 196 82 3 193 10 0 2 81 1 77 532 13 34 192 0 115 15 197 81 1 76 492 154
 69 0 15 198 192 199 82 3 196 10 1 1 81 1 198 391 154 1 0 200 201 76 202 82 3 19
9 10 0 1 81 1 200 506 203 1 198 204 0 0 205 81 1 201 390 154 124 0 206 207 198 2
08 82 3 202 6 0 3 81 1 206 516 156 124 201 16 209 210 211 81 1 207 388 154 139 0
 162 212 201 213 82 3 208 6 9 2 81 1 162 512 156 139 207 141 159 214 215 81 1 21
2 387 154 116 0 194 216 207 217 82 3 213 6 7 2 81 1 194 518 156 116 212 119 210
 191 218 81 1 216 384 154 135 0 214 219 212 220 82 3 217 6 6 2 81 1 214 513 156
 135 216 138 162 221 222 81 1 219 383 154 131 0 221 223 216 224 82 3 220 6 3 2 8
1 1 221 514 156 131 219 134 214 209 225 81 1 223 382 154 127 0 209 226 219 227 8
2 3 224 6 2 2 81 1 209 515 156 127 223 130 221 206 228 81 1 226 381 154 120 0 21
0 229 223 230 82 3 227 6 1 2 81 1 210 517 156 120 226 123 206 194 231 81 1 229 3
80 154 74 0 79 232 226 233 82 3 230 6 0 2 81 1 79 542 13 74 229 0 123 105 234 81
 1 232 379 154 103 0 105 235 229 236 82 3 233 6 8 1 81 1 105 543 13 103 232 0 79
 85 237 81 1 235 376 154 81 0 85 238 232 239 82 3 236 6 7 1 81 1 85 544 13 81 23
5 0 105 89 240 81 1 238 375 154 87 0 89 241 235 242 82 3 239 6 4 1 81 1 89 545 1
3 87 238 0 85 93 243 81 1 241 374 154 91 0 93 244 238 245 82 3 242 6 3 1 81 1 93
 546 13 91 241 0 89 97 246 81 1 244 373 154 95 0 97 247 241 248 82 3 245 6 2 1 8
1 1 97 547 13 95 244 0 93 101 249 81 1 247 372 154 99 0 101 0 244 250 82 3 248 6
 1 1 81 1 101 548 13 99 247 0 97 0 251 82 3 250 6 0 1 84 3 251 JHB84 3 249 JHF84
 3 246 JHJ84 3 243 JHN84 3 240 JHR84 3 237 JHd81 1 123 541 13 120 210 0 130 79 2
52 84 3 234 JHh81 1 130 540 13 127 209 0 134 123 253 84 3 252 JHC81 1 134 539 13
 131 221 0 138 130 254 84 3 253 JHG81 1 138 538 13 135 214 0 119 134 255 84 3 25
4 JHK81 1 119 537 13 116 194 0 141 138 256 84 3 255 JHO81 1 141 536 13 139 162 0
 16 119 257 84 3 256 JHa81 1 16 535 13 124 206 0 2 141 258 84 3 257 JHe84 3 258
 JHm80 1 156 0 259 8001 0 0 0 0 3 5 0 0 0 FFFFTFTFFFFFFF2 83 255 3 231 .37647058
8235294 .376470588235294 .376470588235294 79 15 259 SDL/TYSA_COLOUR83 3 228 .376
470588235294 .376470588235294 .376470588235294 83 3 225 .376470588235294 .376470
588235294 .376470588235294 83 3 222 .376470588235294 .376470588235294 .376470588
235294 83 3 218 .376470588235294 .376470588235294 .376470588235294 83 3 215 .376
470588235294 .376470588235294 .376470588235294 83 3 211 .376470588235294 .376470
588235294 .376470588235294 80 1 203 260 261 8038 0 0 0 0 0 0 0 0 0 TTTTTTTTTTTTT
F10 81 1 204 507 260 1 200 14 0 0 262 98 255 8 205 67 114 117 99 105 98 108 101
 80 1 260 263 264 8017 0 0 0 0 0 0 0 0 0 TTTTTTTTTTTTTF3 81 1 14 508 265 1 204 2
 0 0 266 84 8 262 Crucible80 1 265 156 267 8040 0 0 0 0 3 5 0 0 0 TTTFFFFFFFFFFF
2 83 3 266 .376470588235294 .376470588235294 .376470588235294 79 17 267 SDL/TYSA
_COLOUR_279 13 264 SDL/TYSA_NAME79 14 261 SDL/TYSA_UNAME81 1 115 531 13 61 191 0
 145 77 268 84 3 197 JLF84 3 268 JLC83 3 195 .376470588235294 .376470588235294 .
376470588235294 83 3 190 .376470588235294 .376470588235294 .376470588235294 83 3
 163 .376470588235294 .376470588235294 .376470588235294 83 3 158 .37647058823529
4 .376470588235294 .376470588235294 79 12 155 BTI/ExportId84 3 148 JLG15 142 368
 0 269 139 270 17 269 0 142 269 269 0 80 74 0 0 -15 270 259 0 86 139 0 17 86 0 2
70 86 86 0 271 81 0 0 +17 271 0 140 271 271 0 86 81 0 0 -15 140 367 0 271 135 27
2 15 272 242 0 90 135 0 17 90 0 272 90 90 0 273 87 0 0 +17 273 0 136 273 273 0 9
0 87 0 0 -15 136 366 0 273 131 274 15 274 225 0 94 131 0 17 94 0 274 94 94 0 275
 91 0 0 +17 275 0 132 275 275 0 94 91 0 0 -15 132 365 0 275 127 276 15 276 208 0
 98 127 0 17 98 0 276 98 98 0 277 95 0 0 +17 277 0 278 277 277 0 98 95 0 0 -15 2
78 191 0 277 124 0 17 80 0 73 80 80 0 269 74 0 0 +15 73 276 0 80 72 0 15 128 364
 0 102 124 278 17 102 0 128 102 102 0 279 99 0 0 +17 279 0 125 279 279 0 102 99
 0 0 -15 125 363 0 279 120 0 30 71 484 0 62 0 107 0 --.004 .05 .125 0 -1 0 84 3
 78 JLB84 2 59 IL84 3 51 JLM84 3 41 JLE19 20 106 0 1 0 10 6 S0 40 11 26 0 1 11 .
000227837399741927 .339658835484064 ??-.004 .0322529068457403 .125 -.00377650708
2004255 .03227983882022295 .123681669897343 -.00313210752295106 .032348723351388
6 .122512048540531 -.00213372961748871 .0324298812504679 .1216166292075134 -.000
890124903049615 .0324878081386998 .1211002977476516 .000448622852342887 .0324969
0350689365 .1210252374239012 .001729785726903365 .0324539341427045 .121393361490
39 .0028203315322074 .0323773953561499 .1221635003880774 .003600585290064145 .03
229993476106375 .123257649412726 .00397465636865159 .03225603984916835 .12455043
71555196 .004 .03225290684574025 .125 41 1 27 L?-.004 .0322529068457403 .125 41
 1 28 L?.004 .03225290684574025 .125 204 44 29 4 1.69418611400757 .121 4.7123889
8038469 .01774709315425975 1.68725964521519 .119681669897343 5.04825034100993 .0
1772016117977705 1.667318672249765 .118512048540531 5.38366782472007 .0176512766
486114 1.63649680218568 .1176166292075134 5.72053193993603 .0175701187495321 1.5
98188210646695 .1171002977476516 6.0587752754314 .0175121918613002 1.55699210831
318 .1170252374239012 .1123921867649754 .0175030964931064 1.51754698947229 .1173
9336149039 .4472042713086875 .0175460658572955 1.48390760639659 .118163500388077
4 .782540019804761 .0176226046438501 1.45978119584974 .119257649412726 1.1201053
18293034 .01770006523893625 1.448192279587076 .1205504371555196 1.45816764673659
 .01774396015083165 1.447406539582224 .121 1.570796326794895 .01774709315425975
 141 22 104 22 22 7 74 4 CI16 index_map_offset0 0 1 dCCZ20 18 6 0 0 179 200 204
 14 191 101 0 0 0 0 0 0 0 0 0 0 0 0 0 0 84 3 17 JHD1 0 
