**ABCDEFGHIJKLMNOPQRSTUVWXYZabcdefghijklmnopqrstuvwxyz**************************
**PARASOLID !"#$%&'()*+,-./:;<=>?@[\]^_`{|}~0123456789**************************
**PART1;
MC=unknown;
MC_MODEL=unknown;
MC_ID=unknown;
OS=unknown;
OS_RELEASE=unknown;
FRU=Parasolid 32.0.170;
APPL=Onshape;
SITE=unknown;
USER=unknown;
FORMAT=text;
GUISE=transmit;
KEY=BTGapi::writeModels_.xmt;
FILE=BTGapi::writeModels_.xmt;
DATE=2019-12-14T08:17:30 (UTC);
**PART2;
SCH=SCH_3200170_32001;
USFLD_SIZE=0;
**PART3;
**END_OF_HEADER*****************************************************************
T51 : TRANSMIT FILE created by modeller version 320017023 SCH_3200170_32001_1300
6227 0 12 34 CCCCCCI4 mesh1006 0 I8 polyline1008 0 CCCCCCCDI5 owner1040 0 CCCCCC
I13 boundary_mesh1006 0 I17 boundary_polyline1008 0 CCCA16 index_map_offset0 0 1
 dA9 index_map82 0 A17 node_id_index_map82 0 A20 schema_embedding_map82 0 A5 chi
ld12 0 A14 lowest_node_id0 0 1 dA16 mesh_offset_data206 0 Z1 193 2 3 0 0 0 0 0 0
 1e3 1e-8 0 4 0 1 0 1 1 5 6 7 0 0 0 8 9 0 0 0 0 0 0 0 0 81 255 1 2 176 10 1 11 0
 0 12 13 70 11 CI9 list_type0 0 1 uI10 notransmit0 0 1 lCCCDCCDI12 finger_index0
 0 1 dI12 finger_block1012 0 CZ3 0 4 T1 0 0 6 20 1 14 14 13 255 5 116 0 1 0 15 0
 0 16 0 50 255 6 110 0 15 17 0 0 +-.045879889279604 .0634238 0 0 -1 0 1 0 0 31 2
55 7 59 0 9 18 0 0 +-.0001576107203960785 .2588133 486031698411606e-33 -29680034
4717907e-30 1 0 0 0 -1 .0079375 19 8 CCCCCCCA5 owner12 0 Z8 5 0 1 16 0 19 V0 16
 255 9 37 20 ?21 0 22 7 0 0 1 81 1 20 190 10 9 23 0 24 25 26 17 255 21 0 27 21 2
1 0 28 9 0 0 +16 22 29 24 ?29 9 30 18 0 0 1 81 1 24 189 10 22 31 0 32 20 33 17 2
9 0 34 29 29 0 35 22 0 0 +16 30 25 36 ?37 22 38 39 0 0 1 31 18 57 0 22 39 7 0 +-
.000157610720396051 .1502083244842765 486031698411606e-33 0 1 0 0 0 -1 .0079375
 31 39 56 0 30 40 18 0 +.00732804014868193 .1321363646329586 486031698411606e-33
 -.707106781186548 .707106781186547 0 0 0 -1 .0079375 31 40 55 0 38 41 39 0 +.03
848656463295855 .100977840148682 486031698411606e-33 -.707106781186547 .70710678
1186548 0 0 0 -1 .0079375 16 38 21 25 ?42 30 43 40 0 0 1 31 41 54 0 43 44 40 0 +
.045879889279604 .0831287755157234 486031698411606e-33 0 1 0 0 0 -1 .0079375 16
 43 17 45 ?46 38 47 41 0 0 1 31 44 53 0 47 48 41 0 +.045879889279604 0 486031698
411606e-33 0 1 0 0 0 -1 .0079375 16 47 13 49 ?50 43 51 44 0 0 1 31 48 52 0 51 52
 44 0 +-.045879889279604 0 486031698411606e-33 0 -1 0 0 0 -1 .0079375 16 51 9 53
 ?54 47 55 48 0 0 1 31 52 51 0 55 0 48 0 +-.045879889279604 .0634238 48603169841
1606e-33 0 -1 0 0 0 -1 .0079375 16 55 6 32 ?56 51 0 52 0 0 1 81 1 32 188 10 55 5
7 0 36 24 58 17 56 0 59 56 56 0 60 55 0 0 +15 255 59 7 0 56 61 0 17 60 0 62 60 6
0 0 56 55 0 0 -15 62 104 0 60 15 0 14 255 15 100 63 ?64 0 62 5 6 -0 0 0 64 19 81
 1 63 184 10 15 65 0 66 67 68 14 64 81 67 ?61 15 27 5 17 +0 0 15 61 19 13 19 3 0
 0 0 0 0 0 8 69 14 69 32 70 ?0 71 34 5 72 +0 0 71 0 19 81 1 70 180 10 69 73 0 74
 75 76 14 71 28 77 ?69 78 79 5 80 +0 0 78 69 19 15 34 31 0 29 69 81 51 255 72 49
 0 69 80 17 0 +-.000157610720396044 .1502083244842765 486031698411606e-33 -29680
0344717907e-30 1 0 .0079375 -1 -296800344717907e-30 0 54 255 80 48 0 71 82 72 0
 +.0254 .1502083244842765 486031698411606e-33 0 0 -1 .02555761072039605 .0079375
 -1 0 0 50 17 91 0 64 72 6 0 +-.0001576107203960785 .2588133 0 -296800344717907e
-30 1 0 -1 -296800344717907e-30 0 51 82 47 0 78 83 80 0 +.0384865646329586 .1009
77840148682 486031698411606e-33 -.707106781186548 .707106781186548 0 .0079375 -.
707106781186548 -.707106781186548 0 14 78 24 75 ?71 84 85 5 82 +0 0 84 71 19 54
 83 46 0 84 86 82 0 +.0206375 .0831287755157234 486031698411606e-33 0 0 1 .02524
2389279604 .0079375 1 0 0 14 84 20 12 ?78 87 88 5 83 +0 0 87 78 19 51 86 45 0 87
 89 83 0 +.045879889279604 0 486031698411606e-33 0 1 0 .0079375 0 0 1 14 87 16 9
0 ?84 91 92 5 86 +0 0 91 84 19 54 89 44 0 91 93 86 0 +0 0 486031698411606e-33 0
 0 1 .045879889279604 .0079375 1 0 0 14 91 12 66 ?87 61 94 5 89 +0 0 61 87 19 51
 93 43 0 61 0 89 0 +-.045879889279604 .0634238 486031698411606e-33 0 -1 0 .00793
75 0 0 -1 14 61 2 74 ?91 64 95 5 93 +0 0 64 91 19 81 1 74 179 10 61 96 0 77 70 9
7 15 95 10 0 98 61 59 17 98 0 95 98 98 0 54 51 0 0 -17 54 0 99 54 54 0 98 51 0 0
 +15 99 11 0 54 91 0 80 255 1 10 100 101 9000 0 0 0 0 3 5 0 0 0 FFTFTFTTFFFFFF3
 81 1 96 169 102 61 103 74 104 105 106 81 1 77 178 10 71 107 0 12 74 108 84 255
 3 97 JIa81 1 107 174 102 71 109 77 110 73 111 81 1 12 177 10 84 112 0 2 77 113
 84 3 108 JIe81 1 112 172 102 84 114 12 115 110 116 84 3 113 JIi80 1 102 0 117 8
001 0 0 0 0 3 5 0 0 0 FFFFTFTFFFFFFF2 81 1 114 162 100 84 0 112 109 118 119 81 1
 115 171 102 87 120 90 105 112 121 81 1 110 173 102 78 122 75 112 107 123 83 255
 3 116 .603921568627451 .647058823529412 .686274509803922 81 1 122 158 100 78 0
 110 120 124 125 81 1 75 181 10 78 110 0 70 90 126 83 3 123 .603921568627451 .64
7058823529412 .686274509803922 81 1 90 182 10 87 115 0 75 66 127 84 3 126 JIS81
 1 66 183 10 91 105 0 90 63 128 84 3 127 JIO81 1 105 170 102 91 129 66 96 115 13
0 84 3 128 JIK81 1 129 156 100 91 0 105 131 120 132 83 3 130 .603921568627451 .6
47058823529412 .686274509803922 80 1 100 133 134 9000 0 0 0 0 3 6 0 0 0 FFTFTFTT
FFFFFF1 81 1 131 155 100 15 0 65 135 129 136 81 1 120 157 100 87 0 115 129 122 1
37 82 255 3 132 7 2 2 82 3 137 7 3 2 81 1 65 167 102 15 131 63 0 104 138 81 1 13
5 154 100 64 0 104 139 131 140 82 3 136 7 1 2 81 1 104 168 102 64 135 67 65 96 1
41 81 1 139 153 100 43 0 45 142 135 143 82 3 140 7 0 2 81 1 45 186 10 43 139 0 6
7 36 144 81 1 142 152 100 30 0 36 57 139 145 82 3 143 7 7 1 81 1 36 187 10 30 14
2 0 45 32 146 81 1 57 151 100 55 0 32 31 142 147 82 3 145 7 6 1 81 1 31 150 100
 22 0 24 23 57 148 82 3 147 7 5 1 81 1 23 149 100 9 0 20 149 31 150 82 3 148 7 4
 1 81 1 149 148 100 38 0 25 151 23 152 82 3 150 7 3 1 81 1 25 191 10 38 149 0 20
 49 153 81 1 151 147 100 47 0 49 154 149 155 82 3 152 7 2 1 81 1 49 192 10 47 15
1 0 25 53 156 81 1 154 146 100 51 0 53 0 151 157 82 3 155 7 1 1 81 1 53 193 10 5
1 154 0 49 0 158 82 3 157 7 0 1 84 3 158 JIB84 3 156 JIF84 3 153 JIJ84 3 146 JIZ
81 1 67 185 10 64 104 0 63 45 159 84 3 144 JId84 3 159 JIC83 3 141 .603921568627
451 .647058823529412 .686274509803922 83 3 138 .603921568627451 .647058823529412
 .686274509803922 79 255 9 134 BTI/DetId81 1 124 159 100 69 0 73 122 103 160 82
 3 125 7 4 2 81 1 73 175 102 69 124 70 107 0 161 81 1 103 160 100 61 0 96 124 10
9 162 82 3 160 7 5 2 81 1 109 161 100 71 0 107 103 114 163 82 3 162 7 6 2 82 3 1
63 7 7 2 83 3 161 .603921568627451 .647058823529412 .686274509803922 83 3 121 .6
03921568627451 .647058823529412 .686274509803922 81 1 118 163 100 1 0 164 114 0
 165 82 3 119 7 8 2 81 1 164 164 166 1 118 167 0 0 168 82 3 165 7 0 3 80 1 166 1
69 170 8038 0 0 0 0 0 0 0 0 0 TTTTTTTTTTTTTF10 81 1 167 165 169 1 164 11 0 0 171
 98 255 6 168 80 97 114 116 32 49 80 1 169 172 173 8017 0 0 0 0 0 0 0 0 0 TTTTTT
TTTTTTTF3 81 1 11 166 174 1 167 2 0 0 175 84 6 171 Part 180 1 174 102 176 8040 0
 0 0 0 3 5 0 0 0 TTTFFFFFFFFFFF2 83 3 175 .603921568627451 .647058823529412 .686
274509803922 79 17 176 SDL/TYSA_COLOUR_279 13 173 SDL/TYSA_NAME79 14 170 SDL/TYS
A_UNAME79 15 117 SDL/TYSA_COLOUR83 3 111 .603921568627451 .647058823529412 .6862
74509803922 83 3 106 .603921568627451 .647058823529412 .686274509803922 79 12 10
1 BTI/ExportId15 94 14 0 177 91 99 17 177 0 94 177 177 0 50 47 0 0 -17 50 0 178
 50 50 0 177 47 0 0 +15 178 15 0 50 87 0 15 92 18 0 179 87 178 17 179 0 92 179 1
79 0 46 43 0 0 -17 46 0 180 46 46 0 179 43 0 0 +15 180 19 0 46 84 0 15 88 22 0 1
81 84 180 17 181 0 88 181 181 0 42 38 0 0 -17 42 0 182 42 42 0 181 38 0 0 +15 18
2 23 0 42 78 0 15 85 26 0 183 78 182 17 183 0 85 183 183 0 37 30 0 0 -17 37 0 18
4 37 37 0 183 30 0 0 +15 184 27 0 37 71 0 15 81 38 0 28 69 0 17 28 0 81 28 28 0
 21 9 0 0 -15 79 30 0 35 71 184 17 35 0 79 35 35 0 29 22 0 0 -84 3 76 JIW15 27 8
5 0 21 64 0 84 3 68 JIG84 3 58 JIV84 3 33 JIR84 3 26 JIN19 16 117 0 1 0 8 5 S0 7
4 4 CI16 index_map_offset0 0 1 dCCZ20 14 6 0 0 118 164 167 11 73 53 0 0 0 0 0 0
 0 0 0 0 0 0 0 0 84 3 13 JID1 0 
