**ABCDEFGHIJKLMNOPQRSTUVWXYZabcdefghijklmnopqrstuvwxyz**************************
**PARASOLID !"#$%&'()*+,-./:;<=>?@[\]^_`{|}~0123456789**************************
**PART1;
MC=unknown;
MC_MODEL=unknown;
MC_ID=unknown;
OS=unknown;
OS_RELEASE=unknown;
FRU=Parasolid 32.0.170;
APPL=Onshape;
SITE=unknown;
USER=unknown;
FORMAT=text;
GUISE=transmit;
KEY=BTGapi::writeModels_.xmt;
FILE=BTGapi::writeModels_.xmt;
DATE=2019-11-20T02:39:44 (UTC);
**PART2;
SCH=SCH_3200170_32001;
USFLD_SIZE=0;
**PART3;
**END_OF_HEADER*****************************************************************
T51 : TRANSMIT FILE created by modeller version 320017023 SCH_3200170_32001_1300
6227 0 12 34 CCCCCCI4 mesh1006 0 I8 polyline1008 0 CCCCCCCDI5 owner1040 0 CCCCCC
I13 boundary_mesh1006 0 I17 boundary_polyline1008 0 CCCA16 index_map_offset0 0 1
 dA9 index_map82 0 A17 node_id_index_map82 0 A20 schema_embedding_map82 0 A5 chi
ld12 0 A14 lowest_node_id0 0 1 dA16 mesh_offset_data206 0 Z1 59 2 3 0 0 0 0 0 0
 1e3 1e-8 0 4 0 1 0 1 1 5 6 7 0 0 0 8 9 0 0 0 0 0 0 0 0 81 255 1 2 54 10 1 11 0
 0 12 13 70 11 CI9 list_type0 0 1 uI10 notransmit0 0 1 lCCCDCCDI12 finger_index0
 0 1 dI12 finger_block1012 0 CZ3 0 4 T1 0 0 6 20 1 14 14 13 255 5 37 0 1 0 15 0
 0 16 0 51 255 6 36 0 15 17 0 0 -.1016 0 -.000306260894656714 -1 0 0 .003175 0 0
 1 31 255 7 31 0 18 19 0 0 +0 0 -.000306260894656714 1 0 0 0 1 0 .003175 19 8 CC
CCCCCA5 owner12 0 Z8 11 0 1 16 0 20 V0 16 255 9 6 21 ?22 0 18 19 0 0 1 81 1 21 5
8 10 9 23 0 24 25 26 17 255 22 0 27 22 22 0 28 9 0 0 +16 18 26 25 ?29 9 0 7 0 0
 1 31 19 7 0 9 0 7 0 +.1016 0 -.000306260894656714 1 0 0 0 1 0 .003175 81 1 25 5
9 10 18 30 0 21 0 31 17 29 0 32 29 29 0 33 18 0 0 +15 255 32 34 0 29 15 0 17 33
 0 34 33 33 0 29 18 0 0 -15 34 25 0 33 35 0 14 255 35 21 36 ?0 37 34 5 17 -0 0 0
 37 20 81 1 36 56 10 35 38 0 12 24 39 14 37 1 12 ?35 15 27 5 40 +0 0 35 15 20 50
 255 17 30 0 35 40 6 0 +0 0 -.000306260894656714 1 0 0 0 1 0 13 20 12 0 0 0 0 0
 0 8 15 14 15 33 24 ?37 0 41 5 6 -0 0 37 0 20 81 1 24 57 10 15 42 0 36 21 43 15
 41 32 0 28 15 32 17 28 0 41 28 28 0 22 9 0 0 -80 255 1 10 44 45 9000 0 0 0 0 3
 5 0 0 0 FFTFTFTTFFFFFF3 81 1 42 51 46 15 47 24 0 48 49 84 255 3 43 JHC80 1 46 0
 50 8001 0 0 0 0 3 5 0 0 0 FFFFTFTFFFFFFF2 81 1 47 44 44 15 0 42 23 51 52 81 1 4
8 52 46 37 53 12 42 38 54 83 255 3 49 .603921568627451 .647058823529412 .6862745
09803922 81 1 53 46 44 37 0 48 51 55 56 81 1 12 55 10 37 48 0 2 36 57 81 1 38 53
 46 35 51 36 48 0 58 83 3 54 .603921568627451 .647058823529412 .686274509803922
 81 1 51 45 44 35 0 38 47 53 59 83 3 58 .603921568627451 .647058823529412 .68627
4509803922 80 1 44 60 61 9000 0 0 0 0 3 6 0 0 0 FFTFTFTTFFFFFF1 82 255 3 59 6 1
 2 79 255 9 61 BTI/DetId84 3 57 JHK81 1 55 47 44 1 0 62 53 0 63 82 3 56 6 2 2 81
 1 62 48 64 1 55 65 0 0 66 82 3 63 6 0 3 80 1 64 67 68 8038 0 0 0 0 0 0 0 0 0 TT
TTTTTTTTTTTF10 81 1 65 49 67 1 62 11 0 0 69 98 255 4 66 65 120 108 101 80 1 67 7
0 71 8017 0 0 0 0 0 0 0 0 0 TTTTTTTTTTTTTF3 81 1 11 50 72 1 65 2 0 0 73 84 4 69
 Axle80 1 72 46 74 8040 0 0 0 0 3 5 0 0 0 TTTFFFFFFFFFFF2 83 3 73 .6039215686274
51 .647058823529412 .686274509803922 79 17 74 SDL/TYSA_COLOUR_279 13 71 SDL/TYSA
_NAME79 14 68 SDL/TYSA_UNAME81 1 23 43 44 9 0 21 30 47 75 82 3 52 6 0 2 81 1 30
 42 44 18 0 25 0 23 76 82 3 75 6 1 1 82 3 76 6 0 1 79 15 50 SDL/TYSA_COLOUR79 12
 45 BTI/ExportId50 40 2 0 37 0 17 0 +.1016 0 -.000306260894656714 1 0 0 0 1 0 15
 27 5 0 22 37 0 84 3 39 JHG84 3 31 JHB84 3 26 JHF19 16 38 0 1 0 8 5 S0 74 4 CI16
 index_map_offset0 0 1 dCCZ20 14 6 0 0 55 62 65 11 38 25 0 0 0 0 0 0 0 0 0 0 0 0
 0 0 84 3 13 JHD1 0 
