**ABCDEFGHIJKLMNOPQRSTUVWXYZabcdefghijklmnopqrstuvwxyz**************************
**PARASOLID !"#$%&'()*+,-./:;<=>?@[\]^_`{|}~0123456789**************************
**PART1;
MC=unknown;
MC_MODEL=unknown;
MC_ID=unknown;
OS=unknown;
OS_RELEASE=unknown;
FRU=Parasolid 32.0.170;
APPL=Onshape;
SITE=unknown;
USER=unknown;
FORMAT=text;
GUISE=transmit;
KEY=BTGapi::writeModels_.xmt;
FILE=BTGapi::writeModels_.xmt;
DATE=2019-11-20T02:39:59 (UTC);
**PART2;
SCH=SCH_3200170_32001;
USFLD_SIZE=0;
**PART3;
**END_OF_HEADER*****************************************************************
T51 : TRANSMIT FILE created by modeller version 320017023 SCH_3200170_32001_1300
6227 0 12 34 CCCCCCI4 mesh1006 0 I8 polyline1008 0 CCCCCCCDI5 owner1040 0 CCCCCC
I13 boundary_mesh1006 0 I17 boundary_polyline1008 0 CCCA16 index_map_offset0 0 1
 dA9 index_map82 0 A17 node_id_index_map82 0 A20 schema_embedding_map82 0 A5 chi
ld12 0 A14 lowest_node_id0 0 1 dA16 mesh_offset_data206 0 Z1 175 2 3 0 0 0 0 0 0
 1e3 1e-8 0 4 5 1 0 1 1 6 7 8 0 0 0 9 10 0 0 0 0 0 0 0 0 81 255 1 2 174 11 1 12
 0 13 14 15 70 11 CI9 list_type0 0 1 uI10 notransmit0 0 1 lCCCDCCDI12 finger_ind
ex0 0 1 dI12 finger_block1012 0 CZ3 0 4 T1 0 0 6 20 1 16 16 13 255 6 12 0 1 0 17
 0 0 18 0 52 255 7 148 0 19 20 0 0 +-.003175 0 0 1 0 0 .0127 .707106781186548 .7
07106781186548 0 0 -1 31 255 8 132 0 10 21 0 0 --.00635 0 0 1 0 0 0 0 -1 .009525
 19 8 CCCCCCCA5 owner12 0 Z9 11 0 1 18 0 22 V0 16 255 10 129 23 ?24 0 25 8 0 0 1
 81 1 23 168 11 10 26 0 27 28 29 17 255 24 0 30 24 24 0 31 10 0 0 +16 25 123 28
 ?32 10 33 21 0 0 1 81 1 28 169 11 25 34 0 23 35 36 17 32 0 37 32 32 0 38 25 0 0
 +16 33 26 14 ?39 25 40 41 0 0 1 31 21 126 0 25 42 8 0 +-.003175 0 0 1 0 0 0 0 -
1 .0127 31 42 61 0 40 41 21 0 --.00635 0 0 1 0 0 0 0 -1 .003175 16 40 76 13 ?43
 33 44 42 0 0 1 31 41 31 0 33 45 42 0 +0 0 0 1 0 0 0 1 0 .0127 31 45 113 0 44 0
 41 0 +0 0 0 1 0 0 0 0 -1 .003175 16 44 82 46 ?47 40 0 45 0 0 1 81 1 46 172 11 4
4 48 0 49 13 50 17 47 0 51 47 47 0 52 44 0 0 +15 255 51 92 0 47 53 54 17 52 0 55
 52 52 0 47 44 0 0 -15 55 67 0 52 56 57 14 255 56 21 35 ?53 58 55 6 59 +0 0 53 5
8 22 15 57 25 0 39 56 0 17 39 0 57 39 39 0 60 33 0 0 +17 60 0 61 60 60 0 39 33 0
 0 -15 61 34 0 60 17 0 14 17 33 62 ?58 0 37 6 20 +0 0 58 0 22 81 1 62 166 11 17
 63 0 64 27 65 14 58 1 64 ?56 17 30 6 66 -0 0 56 17 22 15 37 124 0 32 17 61 51 2
55 20 36 0 17 59 7 0 +-.00635 0 0 1 0 0 .0127 0 0 -1 13 22 37 0 0 0 0 0 0 9 17 5
0 255 59 30 0 56 66 20 0 +0 0 0 1 0 0 0 1 0 50 66 2 0 58 67 59 0 +-.00635 0 0 1
 0 0 0 1 0 51 67 110 0 53 0 66 0 --.03743183903822275 0 0 1 0 0 .003175 0 0 -1 1
4 53 94 49 ?19 56 51 6 67 +0 0 19 56 22 81 1 49 171 11 53 68 0 35 46 69 14 19 14
1 27 ?0 53 70 6 7 +0 0 0 53 22 81 1 27 167 11 19 71 0 62 23 72 15 70 142 0 31 19
 73 17 31 0 70 31 31 0 24 10 0 0 -15 73 143 0 38 19 0 17 38 0 73 38 38 0 32 25 0
 0 -80 255 1 11 74 75 9000 0 0 0 0 3 5 0 0 0 FFTFTFTTFFFFFF3 81 1 71 164 76 19 7
7 27 68 0 78 84 255 3 72 JPC80 1 76 0 79 8001 0 0 0 0 3 5 0 0 0 FFFFTFTFFFFFFF2
 81 1 77 154 74 19 0 71 26 80 81 81 1 68 163 76 53 82 49 83 71 84 83 255 3 78 .6
03921568627451 .647058823529412 .686274509803922 81 1 82 119 74 53 0 68 48 85 86
 81 1 83 162 76 56 85 35 87 68 88 83 3 84 .603921568627451 .647058823529412 .686
274509803922 81 1 85 120 74 56 0 83 82 34 89 81 1 35 170 11 56 83 0 28 49 90 81
 1 87 161 76 58 91 64 63 83 92 83 3 88 .603921568627451 .647058823529412 .686274
509803922 81 1 91 156 74 58 0 87 80 0 93 81 1 64 165 11 58 87 0 0 62 94 81 1 63
 160 76 17 80 62 0 87 95 83 3 92 .603921568627451 .647058823529412 .686274509803
922 81 1 80 155 74 17 0 63 77 91 96 83 3 95 .603921568627451 .647058823529412 .6
86274509803922 80 1 74 97 98 9000 0 0 0 0 3 6 0 0 0 FFTFTFTTFFFFFF1 82 255 3 96
 14 1 2 79 255 9 98 BTI/DetId84 3 94 JPK82 3 93 14 2 2 84 3 90 JNG81 1 34 152 74
 25 0 28 85 26 99 82 3 89 12 1 2 81 1 26 153 74 10 0 23 34 77 100 82 3 99 14 0 1
 82 3 100 14 1 1 81 1 48 118 74 44 0 46 101 82 102 82 3 86 12 0 2 81 1 101 117 7
4 40 0 13 103 48 104 82 3 102 12 1 1 81 1 13 173 11 40 101 0 46 2 105 81 1 103 4
7 74 1 0 106 107 101 108 82 3 104 12 0 1 81 1 106 157 109 1 103 110 0 0 111 81 1
 107 42 74 33 0 14 0 103 112 82 3 108 6 0 3 81 1 14 175 11 33 107 0 2 0 113 82 3
 112 6 0 1 84 3 113 JHB80 1 109 114 115 8038 0 0 0 0 0 0 0 0 0 TTTTTTTTTTTTTF10
 81 1 110 158 114 1 106 12 0 0 116 98 255 10 111 66 101 118 101 108 71 101 97 11
4 49 80 1 114 117 118 8017 0 0 0 0 0 0 0 0 0 TTTTTTTTTTTTTF3 81 1 12 159 119 1 1
10 2 0 0 120 84 10 116 BevelGear180 1 119 76 121 8040 0 0 0 0 3 5 0 0 0 TTTFFFFF
FFFFFF2 83 3 120 .603921568627451 .647058823529412 .686274509803922 79 17 121 SD
L/TYSA_COLOUR_279 13 118 SDL/TYSA_NAME79 14 115 SDL/TYSA_UNAME84 3 105 JNB82 3 8
1 14 0 2 79 15 79 SDL/TYSA_COLOUR79 12 75 BTI/ExportId84 3 69 JNC15 30 130 0 24
 58 122 15 122 60 0 123 58 0 17 123 0 122 123 123 0 43 40 0 0 -17 43 0 54 43 43
 0 123 40 0 0 +15 54 93 0 43 53 0 84 3 65 JPG84 3 50 JNF84 3 36 JPB84 3 29 JPF19
 18 38 0 1 0 9 6 S0 74 4 CI16 index_map_offset0 0 1 dCCZ20 16 6 0 0 91 106 110 1
2 71 14 0 0 0 0 0 0 0 0 0 0 0 0 0 0 84 3 15 JHD1 0 
