**ABCDEFGHIJKLMNOPQRSTUVWXYZabcdefghijklmnopqrstuvwxyz**************************
**PARASOLID !"#$%&'()*+,-./:;<=>?@[\]^_`{|}~0123456789**************************
**PART1;
MC=unknown;
MC_MODEL=unknown;
MC_ID=unknown;
OS=unknown;
OS_RELEASE=unknown;
FRU=Parasolid 32.0.170;
APPL=Onshape;
SITE=unknown;
USER=unknown;
FORMAT=text;
GUISE=transmit;
KEY=BTGapi::writeModels_.xmt;
FILE=BTGapi::writeModels_.xmt;
DATE=2019-11-20T02:39:54 (UTC);
**PART2;
SCH=SCH_3200170_32001;
USFLD_SIZE=0;
**PART3;
**END_OF_HEADER*****************************************************************
T51 : TRANSMIT FILE created by modeller version 320017023 SCH_3200170_32001_1300
6227 0 12 34 CCCCCCI4 mesh1006 0 I8 polyline1008 0 CCCCCCCDI5 owner1040 0 CCCCCC
I13 boundary_mesh1006 0 I17 boundary_polyline1008 0 CCCA16 index_map_offset0 0 1
 dA9 index_map82 0 A17 node_id_index_map82 0 A20 schema_embedding_map82 0 A5 chi
ld12 0 A14 lowest_node_id0 0 1 dA16 mesh_offset_data206 0 Z1 259 2 3 0 0 0 0 0 0
 1e3 1e-8 0 4 5 1 0 1 1 6 7 8 0 0 0 9 10 0 0 0 0 0 0 0 0 81 255 1 2 253 11 1 12
 0 13 14 15 70 11 CI9 list_type0 0 1 uI10 notransmit0 0 1 lCCCDCCDI12 finger_ind
ex0 0 1 dI12 finger_block1012 0 CZ3 0 4 T1 0 0 6 20 1 16 16 13 255 6 37 0 1 0 17
 0 0 18 0 54 255 7 224 0 19 20 0 0 +.03175 .00256816498069087 -.0018668566179418
2 1 0 0 .0127 .0127 0 0 -1 31 255 8 208 0 10 21 0 0 -.03175 .00256816498069087 -
.00186685661794182 1 0 0 0 0 -1 .0254 19 8 CCCCCCCA5 owner12 0 Z9 11 0 1 18 0 22
 V0 16 255 10 205 23 ?24 0 25 8 0 0 1 81 1 23 248 11 10 26 0 27 28 29 17 255 24
 0 30 24 24 0 31 10 0 0 +16 25 199 27 ?32 10 33 21 0 0 1 81 1 27 247 11 25 34 0
 35 23 36 17 32 0 37 32 32 0 38 25 0 0 +16 33 135 39 ?40 25 41 42 0 0 1 31 21 20
2 0 25 43 8 0 +.04445 .00256816498069087 -.00186685661794182 1 0 0 0 0 -1 .0127
 31 43 61 0 44 45 21 0 -0 0 0 1 0 0 0 0 -1 .003175 16 44 76 46 ?47 48 49 43 0 0
 1 31 45 31 0 48 50 43 0 +0 0 0 1 0 0 0 1 0 .0508 16 48 26 51 ?52 41 44 45 0 0 1
 31 50 7 0 41 53 45 0 +.0254 0 0 1 0 0 0 1 0 .0508 16 41 6 54 ?55 33 48 50 0 0 1
 31 53 113 0 49 42 50 0 +.0254 0 0 1 0 0 0 0 -1 .003175 16 49 147 13 ?56 44 0 53
 0 0 1 31 42 181 0 33 0 53 0 +.0254 .00256816498069087 -.00186685661794182 1 0 0
 0 1 0 .0254 81 1 13 252 11 49 57 0 39 2 58 17 56 0 59 56 56 0 60 49 0 0 +15 255
 59 92 0 56 61 62 17 60 0 63 60 60 0 56 49 0 0 -15 63 175 0 60 64 0 14 255 64 17
2 28 ?19 65 63 6 66 -0 0 19 65 22 81 1 28 249 11 64 67 0 23 68 69 14 19 217 35 ?
0 64 70 6 7 +0 0 0 64 22 14 65 163 71 ?64 72 30 6 73 -0 0 64 72 22 50 255 66 179
 0 64 74 73 0 +.0254 0 0 1 0 0 0 1 0 13 22 12 0 0 0 0 0 0 9 17 14 17 33 75 ?76 0
 77 6 20 -0 0 76 0 22 81 1 75 257 11 17 78 0 46 54 79 14 76 1 68 ?80 17 81 6 82
 +0 0 80 17 22 15 77 32 0 83 17 84 51 255 20 36 0 17 85 7 0 -.0254 0 0 -1 0 0 .0
508 0 0 1 50 85 30 0 80 82 20 0 +0 0 0 1 0 0 0 1 0 14 80 21 14 ?61 76 86 6 85 -0
 0 61 76 22 50 82 2 0 76 87 85 0 +.0254 0 0 1 0 0 0 1 0 51 87 110 0 61 73 82 0 -
-.1214657574547722 0 0 1 0 0 .003175 0 0 -1 14 61 94 88 ?72 80 59 6 87 +0 0 72 8
0 22 51 73 178 0 65 66 87 0 -.04445 .00256816498069087 -.00186685661794182 -1 0
 0 .0254 0 0 1 81 1 88 255 11 61 89 0 14 46 90 14 72 168 91 ?65 61 37 6 74 +0 0
 65 61 22 81 1 91 244 11 72 92 0 0 71 93 15 37 200 0 32 72 0 50 74 180 0 72 0 66
 0 +.04445 0 0 1 0 0 0 1 0 80 255 1 11 94 95 9000 0 0 0 0 3 5 0 0 0 FFTFTFTTFFFF
FF3 81 1 92 240 96 72 97 91 89 98 99 81 1 71 245 11 65 98 0 91 35 100 84 255 3 9
3 JTK81 1 98 241 96 65 101 71 92 67 102 81 1 35 246 11 19 103 0 71 27 104 84 3 1
00 JTG81 1 103 243 96 19 105 35 67 0 106 84 3 104 JTC80 1 96 0 107 8001 0 0 0 0
 3 5 0 0 0 FFFFTFTFFFFFFF2 81 1 105 230 94 19 0 103 34 101 108 81 1 67 242 96 64
 109 28 98 103 110 83 255 3 106 .603921568627451 .647058823529412 .6862745098039
22 81 1 109 197 94 64 0 67 111 26 112 83 3 110 .603921568627451 .647058823529412
 .686274509803922 80 1 94 113 114 9000 0 0 0 0 3 6 0 0 0 FFTFTFTTFFFFFF1 81 1 11
1 196 94 76 0 115 116 109 117 81 1 26 228 94 10 0 23 109 34 118 82 255 3 112 17
 1 2 81 1 34 229 94 25 0 27 26 105 119 82 3 118 18 0 1 82 3 119 18 1 1 81 1 115
 237 96 76 111 68 78 120 121 81 1 116 195 94 33 0 39 57 111 122 82 3 117 17 0 2
 81 1 39 251 11 33 116 0 68 13 123 81 1 57 194 94 49 0 13 124 116 125 82 3 122 1
7 1 1 81 1 124 193 94 1 0 126 127 57 128 82 3 125 17 0 1 81 1 126 233 129 1 124
 130 0 0 131 81 1 127 120 94 80 0 120 132 124 133 82 3 128 6 0 3 81 1 120 238 96
 80 127 14 115 89 134 81 1 132 119 94 61 0 89 135 127 136 82 3 133 12 1 2 81 1 8
9 239 96 61 132 88 120 92 137 81 1 135 117 94 44 0 46 138 132 139 82 3 136 12 0
 2 81 1 46 256 11 44 135 0 88 75 140 81 1 138 44 94 17 0 78 141 135 142 82 3 139
 12 0 1 81 1 78 236 96 17 138 75 0 115 143 81 1 141 43 94 41 0 54 144 138 145 82
 3 142 6 0 2 81 1 54 258 11 41 141 0 75 51 146 81 1 144 42 94 48 0 51 0 141 147
 82 3 145 6 1 1 81 1 51 259 11 48 144 0 54 0 148 82 3 147 6 0 1 84 3 148 JHB84 3
 146 JHF83 3 143 .603921568627451 .647058823529412 .686274509803922 84 3 140 JNB
83 3 137 .603921568627451 .647058823529412 .686274509803922 81 1 14 254 11 80 12
0 0 2 88 149 83 3 134 .603921568627451 .647058823529412 .686274509803922 84 3 14
9 JNG80 1 129 150 151 8038 0 0 0 0 0 0 0 0 0 TTTTTTTTTTTTTF10 81 1 130 234 150 1
 126 12 0 0 152 98 255 5 131 87 104 101 101 108 80 1 150 153 154 8017 0 0 0 0 0
 0 0 0 0 TTTTTTTTTTTTTF3 81 1 12 235 155 1 130 2 0 0 156 84 5 152 Wheel80 1 155
 96 157 8040 0 0 0 0 3 5 0 0 0 TTTFFFFFFFFFFF2 83 3 156 .603921568627451 .647058
823529412 .686274509803922 79 255 17 157 SDL/TYSA_COLOUR_279 13 154 SDL/TYSA_NAM
E79 14 151 SDL/TYSA_UNAME81 1 68 250 11 76 115 0 28 39 158 84 3 123 JSF84 3 158
 JSC83 3 121 .603921568627451 .647058823529412 .686274509803922 79 9 114 BTI/Det
Id81 1 101 231 94 65 0 98 105 97 159 82 3 108 18 0 2 81 1 97 232 94 72 0 92 101
 0 160 82 3 159 18 1 2 82 3 160 18 2 2 79 15 107 SDL/TYSA_COLOUR83 3 102 .603921
568627451 .647058823529412 .686274509803922 83 3 99 .603921568627451 .6470588235
29412 .686274509803922 79 12 95 BTI/ExportId84 3 90 JNC15 86 60 0 161 80 162 17
 161 0 86 161 161 0 47 44 0 0 -15 162 25 0 163 80 0 17 163 0 162 163 163 0 52 48
 0 0 -17 52 0 84 52 52 0 163 48 0 0 +15 84 34 0 52 17 0 17 47 0 62 47 47 0 161 4
4 0 0 +15 62 93 0 47 61 0 17 83 0 77 83 83 0 55 41 0 0 -17 55 0 164 55 55 0 83 4
1 0 0 +15 164 5 0 55 76 0 15 81 137 0 165 76 164 17 165 0 81 165 165 0 40 33 0 0
 -17 40 0 166 40 40 0 165 33 0 0 +15 166 167 0 40 65 0 84 3 79 JHC15 30 206 0 24
 65 166 15 70 218 0 31 19 167 17 31 0 70 31 31 0 24 10 0 0 -15 167 219 0 38 19 0
 17 38 0 167 38 38 0 32 25 0 0 -84 3 69 JSG84 3 58 JSB84 3 36 JTF84 3 29 JTB19 1
8 38 0 1 0 9 6 S0 74 4 CI16 index_map_offset0 0 1 dCCZ20 16 6 0 0 97 126 130 12
 103 51 0 0 0 0 0 0 0 0 0 0 0 0 0 0 84 3 15 JHD1 0 
