**ABCDEFGHIJKLMNOPQRSTUVWXYZabcdefghijklmnopqrstuvwxyz**************************
**PARASOLID !"#$%&'()*+,-./:;<=>?@[\]^_`{|}~0123456789**************************
**PART1;
MC=unknown;
MC_MODEL=unknown;
MC_ID=unknown;
OS=unknown;
OS_RELEASE=unknown;
FRU=Parasolid 32.0.170;
APPL=Onshape;
SITE=unknown;
USER=unknown;
FORMAT=text;
GUISE=transmit;
KEY=BTGapi::writeModels_.xmt;
FILE=BTGapi::writeModels_.xmt;
DATE=2019-12-14T08:17:35 (UTC);
**PART2;
SCH=SCH_3200170_32001;
USFLD_SIZE=0;
**PART3;
**END_OF_HEADER*****************************************************************
T51 : TRANSMIT FILE created by modeller version 320017023 SCH_3200170_32001_1300
6227 0 12 34 CCCCCCI4 mesh1006 0 I8 polyline1008 0 CCCCCCCDI5 owner1040 0 CCCCCC
I13 boundary_mesh1006 0 I17 boundary_polyline1008 0 CCCA16 index_map_offset0 0 1
 dA9 index_map82 0 A17 node_id_index_map82 0 A20 schema_embedding_map82 0 A5 chi
ld12 0 A14 lowest_node_id0 0 1 dA16 mesh_offset_data206 0 Z1 509 2 3 0 0 0 0 0 0
 1e3 1e-8 0 4 0 1 0 1 1 5 6 7 8 0 0 9 10 11 0 0 0 0 0 0 0 81 255 1 2 447 12 1 13
 0 0 14 15 70 11 CI9 list_type0 0 1 uI10 notransmit0 0 1 lCCCDCCDI12 finger_inde
x0 0 1 dI12 finger_block1012 0 CZ3 0 4 T1 0 0 6 20 1 16 16 13 255 5 332 0 1 0 17
 0 0 18 0 51 255 6 323 0 19 20 0 0 --.0508 -.030988 .00635 0 0 -1 .00508 -1 0 0
 30 255 7 331 0 10 21 0 0 +.0635 .03175 .00635 0 0 -1 29 255 8 264 0 22 23 0 .06
35 -.03175 0 19 8 CCCCCCCA5 owner12 0 Z9 99 0 1 18 0 24 V0 16 255 10 279 25 ?26
 0 27 7 0 0 1 18 255 11 93 28 29 0 30 31 ?1 81 1 28 500 12 11 32 0 33 34 35 17 2
55 29 0 36 37 38 11 39 40 0 41 +18 30 88 42 43 11 44 45 ?1 29 31 95 0 11 45 46 .
0635 -.03175 .00635 29 45 90 0 30 47 31 .0508 -.04445 .00635 29 46 271 0 48 31 4
9 .0635 .03175 0 18 48 247 33 50 51 0 46 ?1 29 49 270 0 51 46 52 .0508 .04445 0
 18 51 243 53 54 55 48 49 ?1 29 52 269 0 55 49 56 -.0508 .04445 0 18 55 239 57 5
8 59 51 52 ?1 29 56 268 0 59 52 60 -.0635 .03175 0 18 59 235 61 62 63 55 56 ?1 2
9 60 267 0 63 56 64 -.0635 -.03175 0 18 63 231 65 66 67 59 60 ?1 29 64 266 0 67
 60 23 -.0508 -.04445 0 18 67 227 68 69 70 63 64 ?1 29 23 265 0 70 64 8 .0508 -.
04445 0 18 70 223 71 72 22 67 23 ?1 81 1 71 509 12 70 73 0 42 0 74 17 72 0 75 76
 39 70 43 77 0 78 +18 22 219 34 76 79 70 8 ?1 81 1 34 501 12 22 80 0 28 81 82 17
 76 0 75 41 72 22 78 83 0 84 +18 79 58 85 86 87 22 88 ?1 81 1 85 498 12 79 89 0
 65 33 90 17 86 0 91 26 92 79 93 94 0 37 -18 87 63 95 93 96 79 97 ?1 29 88 60 0
 79 0 97 .0635 .03175 .00635 29 97 65 0 87 88 98 .0508 .04445 .00635 29 98 70 0
 96 97 99 -.0508 .04445 .00635 18 96 68 81 100 101 87 98 ?1 29 99 75 0 101 98 10
2 -.0635 .03175 .00635 18 101 73 103 104 105 96 99 ?1 29 102 80 0 105 99 47 -.06
35 -.03175 .00635 18 105 78 106 107 44 101 102 ?1 29 47 85 0 44 102 45 -.0508 -.
04445 .00635 18 44 83 108 109 30 105 47 ?1 81 1 108 506 12 44 110 0 53 68 111 17
 109 0 36 38 112 44 113 114 0 115 +15 255 36 9 0 37 116 0 17 38 0 36 29 109 30 1
17 118 0 0 -17 112 0 36 109 104 105 119 120 0 0 -17 113 0 121 66 115 105 109 114
 0 112 -16 114 46 122 ?109 118 120 123 0 0 1 17 115 0 121 113 124 44 69 125 0 11
7 -15 121 284 0 124 126 0 17 124 0 121 115 66 67 127 128 0 129 +17 69 0 130 131
 117 67 115 125 0 124 +16 125 274 132 ?69 133 77 134 0 0 1 17 117 0 130 69 43 44
 38 118 0 0 +15 130 282 0 131 135 0 17 43 0 130 117 131 30 72 77 0 39 -16 118 50
 136 ?117 40 114 137 0 0 1 81 1 136 484 12 118 138 0 139 140 141 16 40 54 142 ?2
9 143 118 144 0 0 1 30 137 51 0 118 123 144 0 +-693889390390723e-32 -.04445 .006
35 -1 -682961998416066e-31 0 31 255 123 47 0 114 145 137 0 +-.0508 -.03175 .0063
5 0 0 1 1 0 0 .0127 31 144 55 0 40 137 146 0 +.0508 -.03175 .00635 0 0 1 1 0 0 .
0127 31 146 263 0 147 144 148 0 +-.0508 -.030988 0 0 0 1 1 0 0 .00508 16 147 215
 149 ?150 151 0 146 0 0 1 31 148 262 0 151 146 152 0 +.0508 -.030988 0 0 0 1 1 0
 0 .00508 16 151 211 153 ?154 155 147 148 0 0 1 31 152 261 0 155 148 156 0 +.050
8 .030988 0 0 0 1 1 0 0 .00508 16 155 207 157 ?158 159 151 152 0 0 1 31 156 260
 0 159 152 160 0 +-.0508 .030988 0 0 0 1 1 0 0 .00508 16 159 203 161 ?162 163 15
5 156 0 0 1 30 160 259 0 163 156 164 0 +.0635 0 0 0 1 0 16 163 199 165 ?166 167
 159 160 0 0 1 31 164 258 0 167 160 168 0 +.0508 .03175 0 0 0 1 1 0 0 .0127 16 1
67 195 169 ?54 170 163 164 0 0 1 30 168 257 0 170 164 171 0 +0 .04445 0 -1 -1365
923996832132e-31 0 16 170 191 139 ?58 172 167 168 0 0 1 31 171 256 0 172 168 173
 0 +-.0508 .03175 0 0 0 1 1 0 0 .0127 16 172 187 174 ?175 176 170 171 0 0 1 30 1
73 255 0 176 171 177 0 +-.0635 -1040834085586084e-32 0 0 1 0 16 176 183 178 ?179
 128 172 173 0 0 1 31 177 254 0 128 173 180 0 +-.0508 -.03175 0 0 0 1 1 0 0 .012
7 16 128 179 181 ?124 182 176 177 0 0 1 30 180 253 0 182 177 183 0 +-69388939039
0723e-32 -.04445 0 -1 -682961998416066e-31 0 16 182 175 140 ?129 83 128 180 0 0
 1 31 183 252 0 83 180 184 0 +.0508 -.03175 0 0 0 1 1 0 0 .0127 16 83 171 185 ?7
6 186 182 183 0 0 1 30 184 324 0 143 183 187 0 +.0635 -.03175 .00635 0 0 -1 16 1
43 272 188 ?84 77 40 184 0 0 1 30 187 325 0 77 184 134 0 +.0508 -.04445 .00635 0
 0 -1 16 77 273 189 ?72 125 143 187 0 0 1 30 134 326 0 125 187 190 0 +-.0508 -.0
4445 .00635 0 0 -1 30 190 327 0 133 134 191 0 +-.0635 -.03175 .00635 0 0 -1 16 1
33 275 192 ?66 193 125 190 0 0 1 30 191 328 0 193 190 194 0 +-.0635 .03175 .0063
5 0 0 -1 16 193 276 195 ?62 196 133 191 0 0 1 30 194 329 0 196 191 21 0 +-.0508
 .04445 .00635 0 0 -1 16 196 277 197 ?198 27 193 194 0 0 1 30 21 330 0 27 194 7
 0 +.0508 .04445 .00635 0 0 -1 16 27 278 199 ?200 10 196 21 0 0 1 81 1 199 491 1
2 27 201 0 197 132 202 17 200 0 203 58 204 51 92 27 0 205 +15 203 290 0 58 206 0
 17 58 0 203 207 200 55 205 170 0 198 +17 204 0 203 200 207 87 100 208 0 0 -17 9
2 0 91 86 54 87 200 27 0 204 -17 205 0 209 50 210 51 58 170 0 0 -15 209 170 0 21
1 212 0 17 50 0 209 211 205 48 54 167 0 26 -17 210 0 209 205 179 55 175 172 0 0
 -17 179 0 209 210 127 59 213 176 0 0 +17 175 0 214 215 198 59 210 172 0 179 +15
 214 288 0 175 216 0 17 215 0 214 217 175 101 62 193 0 119 -17 198 0 214 175 217
 55 207 196 0 210 +17 217 0 214 198 215 96 104 218 0 0 -17 207 0 203 204 58 96 1
98 196 0 217 -17 104 0 36 112 100 101 217 218 0 215 +16 218 38 219 ?104 120 208
 220 0 0 1 81 1 219 468 12 218 221 0 169 174 222 16 120 42 223 ?119 114 218 145
 0 0 1 16 208 34 224 ?100 218 94 225 0 0 1 31 220 39 0 218 225 145 0 +-.0508 .03
175 .00635 0 0 1 1 0 0 .0127 30 225 35 0 208 226 220 0 +0 .04445 .00635 -1 -1365
923996832132e-31 0 30 145 43 0 120 220 123 0 +-.0635 -1040834085586084e-32 .0063
5 0 1 0 31 226 31 0 94 227 225 0 +.0508 .03175 .00635 0 0 1 1 0 0 .0127 16 94 30
 228 ?93 208 229 226 0 0 1 30 227 27 0 229 230 226 0 +.0635 0 .00635 0 1 0 16 22
9 26 231 ?37 94 232 227 0 0 1 31 230 23 0 232 233 227 0 +-.0508 .030988 .00635 0
 0 1 1 0 0 .00508 16 232 22 234 ?235 229 236 230 0 0 1 31 233 19 0 236 237 230 0
 +.0508 .030988 .00635 0 0 1 1 0 0 .00508 16 236 18 238 ?239 232 240 233 0 0 1 3
1 237 15 0 240 241 233 0 +.0508 -.030988 .00635 0 0 1 1 0 0 .00508 16 240 14 242
 ?243 236 186 237 0 0 1 31 241 11 0 186 0 237 0 +-.0508 -.030988 .00635 0 0 1 1
 0 0 .00508 16 186 10 244 ?245 240 83 241 0 0 1 81 1 244 470 12 186 246 0 174 14
9 247 17 245 0 248 245 245 0 249 186 0 0 +15 248 308 0 245 19 250 17 249 0 251 2
49 249 0 245 186 0 0 -15 251 5 0 249 116 252 14 255 116 1 253 ?212 254 251 5 255
 +0 0 212 254 24 15 252 6 0 256 116 257 17 256 0 252 256 256 0 243 240 0 0 -15 2
57 7 0 258 116 259 17 258 0 257 258 258 0 239 236 0 0 -15 259 8 0 260 116 36 17
 260 0 259 260 260 0 235 232 0 0 -17 235 0 261 235 235 0 260 232 0 0 +15 261 296
 0 235 262 263 14 262 297 264 ?265 135 261 5 266 +0 0 265 135 24 15 263 298 0 26
7 262 0 17 267 0 263 267 267 0 162 159 0 0 -17 162 0 268 162 162 0 267 159 0 0 +
15 268 169 0 162 212 209 14 212 151 269 ?0 116 270 5 271 -0 0 0 116 24 81 1 269
 460 12 212 272 0 253 273 274 15 270 166 0 150 212 275 50 255 271 251 0 212 255
 276 0 +0 -1387778780781446e-32 0 0 0 1 1 0 0 13 24 100 0 0 0 0 0 0 9 17 14 17 2
95 277 ?278 0 279 5 280 -0 0 278 0 24 81 1 277 457 12 17 281 0 282 283 284 14 27
8 293 285 ?206 17 91 5 286 -0 0 206 17 24 15 279 294 0 166 17 0 50 280 319 0 17
 286 266 0 +.0635 0 .00635 -1 0 0 0 0 1 51 286 318 0 278 287 280 0 -.0508 .03175
 .00635 0 0 -1 .0127 -1 0 0 51 266 320 0 262 280 288 0 --.0508 .030988 .00635 0
 0 -1 .00508 -1 0 0 51 288 321 0 265 266 20 0 -.0508 .030988 .00635 0 0 -1 .0050
8 -1 0 0 14 265 301 289 ?290 262 291 5 288 +0 0 290 262 24 51 20 322 0 290 288 6
 0 -.0508 -.030988 .00635 0 0 -1 .00508 -1 0 0 14 290 305 292 ?19 265 293 5 20 +
0 0 19 265 24 81 1 292 453 12 290 294 0 295 289 296 14 19 309 295 ?254 290 248 5
 6 +0 0 254 290 24 15 293 304 0 243 290 297 17 243 0 293 243 243 0 256 240 0 0 +
15 297 306 0 298 290 0 17 298 0 297 298 298 0 154 151 0 0 -17 154 0 275 154 154
 0 298 151 0 0 +15 275 167 0 154 212 299 15 299 168 0 158 212 268 17 158 0 299 1
58 158 0 300 155 0 0 +17 300 0 301 300 300 0 158 155 0 0 -15 301 302 0 300 265 0
 81 1 295 452 12 19 302 0 303 292 304 14 254 281 305 ?116 19 75 5 276 -0 0 116 1
9 24 81 1 305 449 12 254 306 0 14 285 307 15 75 280 0 76 254 0 51 276 312 0 254
 271 308 0 -.0508 -.03175 .00635 0 0 -1 .0127 -1 0 0 50 308 313 0 135 276 309 0
 +-693889390390723e-32 -.04445 .00635 682961998416066e-31 -1 0 1 682961998416066
e-31 0 14 135 283 273 ?262 126 130 5 308 +0 0 262 126 24 51 309 314 0 126 308 31
0 0 --.0508 -.03175 .00635 0 0 -1 .0127 -1 0 0 14 126 285 14 ?135 311 121 5 309
 -0 0 135 311 24 50 310 315 0 311 309 312 0 +-.0635 -1040834085586084e-32 .00635
 -1 0 0 0 0 1 14 311 287 282 ?126 216 313 5 310 +0 0 126 216 24 51 312 316 0 216
 310 287 0 --.0508 .03175 .00635 0 0 -1 .0127 -1 0 0 14 216 289 303 ?311 206 214
 5 312 -0 0 311 206 24 50 287 317 0 206 312 286 0 +0 .04445 .00635 1365923996832
132e-31 -1 0 1 1365923996832132e-31 0 14 206 291 283 ?216 278 203 5 287 -0 0 216
 278 24 81 1 283 458 12 206 314 0 277 253 315 80 255 1 12 316 317 9000 0 0 0 0 3
 5 0 0 0 FFTFTFTTFFFFFF3 81 1 314 435 318 206 319 283 320 321 322 81 1 253 459 1
2 116 323 0 283 269 324 84 255 3 315 JHO81 1 323 445 318 116 325 253 306 272 326
 84 3 324 JHK80 1 318 0 327 8001 0 0 0 0 3 5 0 0 0 FFFFTFTFFFFFFF2 81 1 325 417
 316 116 0 323 328 319 329 81 1 306 444 318 254 330 305 302 323 331 81 1 272 446
 318 212 328 269 323 0 332 83 255 3 326 .603921568627451 .647058823529412 .68627
4509803922 81 1 328 416 316 212 0 272 333 325 334 83 3 332 .603921568627451 .647
058823529412 .686274509803922 80 1 316 335 336 9000 0 0 0 0 3 6 0 0 0 FFTFTFTTFF
FFFF1 81 1 333 415 316 135 0 337 338 328 339 82 255 3 334 6 1 2 81 1 337 439 318
 135 333 273 340 341 342 81 1 338 414 316 114 0 122 343 333 344 82 3 339 6 0 2 8
1 1 122 462 12 114 338 0 273 181 345 81 1 343 413 316 128 0 181 346 338 347 82 3
 344 6 31 1 81 1 181 463 12 128 343 0 122 142 348 81 1 346 412 316 40 0 142 349
 343 350 82 3 347 6 30 1 81 1 142 464 12 40 346 0 181 185 351 81 1 349 411 316 8
3 0 185 352 346 353 82 3 350 6 29 1 81 1 185 465 12 83 349 0 142 228 354 81 1 35
2 410 316 94 0 228 355 349 356 82 3 353 6 28 1 81 1 228 466 12 94 352 0 185 169
 357 81 1 355 409 316 167 0 169 221 352 358 82 3 356 6 27 1 81 1 169 467 12 167
 355 0 228 219 359 81 1 221 408 316 218 0 219 360 355 361 82 3 358 6 26 1 81 1 3
60 407 316 172 0 174 246 221 362 82 3 361 6 25 1 81 1 174 469 12 172 360 0 219 2
44 363 81 1 246 406 316 186 0 244 364 360 365 82 3 362 6 24 1 81 1 364 405 316 1
47 0 149 366 246 367 82 3 365 6 23 1 81 1 149 471 12 147 364 0 244 242 368 81 1
 366 404 316 240 0 242 369 364 370 82 3 367 6 22 1 81 1 242 472 12 240 366 0 149
 153 371 81 1 369 403 316 151 0 153 372 366 373 82 3 370 6 21 1 81 1 153 473 12
 151 369 0 242 238 374 81 1 372 402 316 236 0 238 375 369 376 82 3 373 6 20 1 81
 1 238 474 12 236 372 0 153 157 377 81 1 375 401 316 155 0 157 378 372 379 82 3
 376 6 19 1 81 1 157 475 12 155 375 0 238 234 380 81 1 378 400 316 232 0 234 381
 375 382 82 3 379 6 18 1 81 1 234 476 12 232 378 0 157 161 383 81 1 381 399 316
 159 0 161 384 378 385 82 3 382 6 17 1 81 1 161 477 12 159 381 0 234 223 386 81
 1 384 398 316 120 0 223 387 381 388 82 3 385 6 16 1 81 1 223 478 12 120 384 0 1
61 178 389 81 1 387 397 316 176 0 178 390 384 391 82 3 388 6 15 1 81 1 178 479 1
2 176 387 0 223 231 392 81 1 390 396 316 229 0 231 393 387 394 82 3 391 6 14 1 8
1 1 231 480 12 229 390 0 178 165 395 81 1 393 395 316 163 0 165 396 390 397 82 3
 394 6 13 1 81 1 165 481 12 163 393 0 231 224 398 81 1 396 394 316 208 0 224 399
 393 400 82 3 397 6 12 1 81 1 224 482 12 208 396 0 165 139 401 81 1 399 393 316
 170 0 139 138 396 402 82 3 400 6 11 1 81 1 139 483 12 170 399 0 224 136 403 81
 1 138 392 316 118 0 136 404 399 405 82 3 402 6 10 1 81 1 404 391 316 182 0 140
 406 138 407 82 3 405 6 9 1 81 1 140 485 12 182 404 0 136 195 408 81 1 406 390 3
16 193 0 195 409 404 410 82 3 407 6 8 1 81 1 195 486 12 193 406 0 140 192 411 81
 1 409 389 316 133 0 192 412 406 413 82 3 410 6 7 1 81 1 192 487 12 133 409 0 19
5 25 414 81 1 412 388 316 10 0 25 415 409 416 82 3 413 6 6 1 81 1 25 488 12 10 4
12 0 192 188 417 81 1 415 387 316 143 0 188 418 412 419 82 3 416 6 5 1 81 1 188
 489 12 143 415 0 25 197 420 81 1 418 386 316 196 0 197 201 415 421 82 3 419 6 4
 1 81 1 197 490 12 196 418 0 188 199 422 81 1 201 385 316 27 0 199 423 418 424 8
2 3 421 6 3 1 81 1 423 384 316 125 0 132 425 201 426 82 3 424 6 2 1 81 1 132 492
 12 125 423 0 199 189 427 81 1 425 383 316 77 0 189 428 423 429 82 3 426 6 1 1 8
1 1 189 493 12 77 425 0 132 103 430 81 1 428 382 316 101 0 103 431 425 432 82 3
 429 6 0 1 81 1 103 494 12 101 428 0 189 61 433 81 1 431 381 316 59 0 61 434 428
 435 82 3 432 6 15 0 81 1 61 495 12 59 431 0 103 106 436 81 1 434 380 316 105 0
 106 437 431 438 82 3 435 6 14 0 81 1 106 496 12 105 434 0 61 65 439 81 1 437 37
9 316 63 0 65 89 434 440 82 3 438 6 13 0 81 1 65 497 12 63 437 0 106 85 441 81 1
 89 378 316 79 0 85 442 437 443 82 3 440 6 12 0 81 1 442 377 316 48 0 33 32 89 4
44 82 3 443 6 11 0 81 1 33 499 12 48 442 0 85 28 445 81 1 32 376 316 11 0 28 80
 442 446 82 3 444 6 10 0 81 1 80 375 316 22 0 34 447 32 448 82 3 446 6 9 0 81 1
 447 374 316 96 0 81 449 80 450 82 3 448 6 8 0 81 1 81 502 12 96 447 0 34 57 451
 81 1 449 373 316 55 0 57 452 447 453 82 3 450 6 7 0 81 1 57 503 12 55 449 0 81
 95 454 81 1 452 372 316 87 0 95 455 449 456 82 3 453 6 6 0 81 1 95 504 12 87 45
2 0 57 53 457 81 1 455 371 316 51 0 53 110 452 458 82 3 456 6 5 0 81 1 53 505 12
 51 455 0 95 108 459 81 1 110 370 316 44 0 108 460 455 461 82 3 458 6 4 0 81 1 4
60 369 316 67 0 68 462 110 463 82 3 461 6 3 0 81 1 68 507 12 67 460 0 108 42 464
 81 1 462 368 316 30 0 42 73 460 465 82 3 463 6 2 0 81 1 42 508 12 30 462 0 68 7
1 466 81 1 73 367 316 70 0 71 0 462 467 82 3 465 6 1 0 82 3 467 6 0 0 84 3 466 J
HE84 3 464 JHI84 3 459 JHQ84 3 457 JHU84 3 454 JHY84 3 451 JHc84 3 445 JHo84 3 4
41 JHw84 3 439 JH084 3 436 JH484 3 433 JH884 3 430 JHB84 3 427 JHF84 3 422 JHN84
 3 420 JHR84 3 417 JHV84 3 414 JHZ84 3 411 JHd84 3 408 JHh84 3 403 JHp84 3 401 J
Ht84 3 398 JHx84 3 395 JH184 3 392 JH584 3 389 JH984 4 386 KHBB84 4 383 KHFB84 4
 380 KHJB84 4 377 KHNB84 4 374 KHRB84 4 371 KHVB84 4 368 KHZB84 4 363 KHhB84 4 3
59 KHpB84 4 357 KHtB84 4 354 KHxB84 4 351 KH1B84 4 348 KH5B81 1 273 461 12 135 3
37 0 269 122 468 84 4 345 KH9B84 3 468 JHC81 1 340 438 318 126 469 14 470 337 47
1 81 1 341 440 318 262 472 264 337 473 474 83 3 342 .603921568627451 .6470588235
29412 .686274509803922 81 1 472 421 316 262 0 341 475 476 477 81 1 264 455 12 26
2 341 0 289 282 478 81 1 473 441 318 265 476 289 341 294 479 83 3 474 .603921568
627451 .647058823529412 .686274509803922 81 1 476 422 316 265 0 473 472 480 481
 81 1 289 454 12 265 473 0 292 264 482 81 1 294 442 318 290 480 292 473 302 483
 83 3 479 .603921568627451 .647058823529412 .686274509803922 81 1 480 423 316 29
0 0 294 476 484 485 81 1 302 443 318 19 484 295 294 306 486 83 3 483 .6039215686
27451 .647058823529412 .686274509803922 81 1 484 424 316 19 0 302 480 487 488 83
 3 486 .603921568627451 .647058823529412 .686274509803922 81 1 487 425 316 216 0
 321 484 489 490 82 3 488 6 9 2 81 1 321 436 318 216 487 303 314 470 491 81 1 48
9 426 316 278 0 320 487 330 492 82 3 490 6 10 2 81 1 320 434 318 278 489 285 281
 314 493 81 1 330 427 316 254 0 306 489 469 494 82 3 492 6 11 2 81 1 469 428 316
 126 0 340 330 495 496 82 3 494 6 12 2 81 1 495 429 316 1 0 497 469 0 498 82 3 4
96 6 13 2 81 1 497 430 499 1 495 500 0 0 501 82 3 498 6 0 3 80 1 499 502 503 803
8 0 0 0 0 0 0 0 0 0 TTTTTTTTTTTTTF10 81 1 500 431 502 1 497 13 0 0 504 98 255 17
 501 66 114 97 99 107 101 116 32 51 120 53 32 32 46 50 53 48 80 1 502 505 506 80
17 0 0 0 0 0 0 0 0 0 TTTTTTTTTTTTTF3 81 1 13 432 507 1 500 2 0 0 508 84 17 504 B
racket 3x5  .25080 1 507 318 509 8040 0 0 0 0 3 5 0 0 0 TTTFFFFFFFFFFF2 83 3 508
 .603921568627451 .647058823529412 .686274509803922 79 255 17 509 SDL/TYSA_COLOU
R_279 13 506 SDL/TYSA_NAME79 14 503 SDL/TYSA_UNAME81 1 285 450 12 278 320 0 305
 303 510 81 1 281 433 318 17 511 277 0 320 512 83 3 493 .603921568627451 .647058
823529412 .686274509803922 81 1 511 419 316 17 0 281 319 475 513 83 3 512 .60392
1568627451 .647058823529412 .686274509803922 81 1 319 418 316 206 0 314 325 511
 514 81 1 475 420 316 311 0 470 511 472 515 82 3 513 6 4 2 81 1 470 437 318 311
 475 282 321 340 516 82 3 515 6 5 2 81 1 282 456 12 311 470 0 264 277 517 83 3 5
16 .603921568627451 .647058823529412 .686274509803922 84 3 517 JHW82 3 514 6 3 2
 81 1 303 451 12 216 321 0 285 295 518 84 3 510 JHu84 3 518 JHq83 3 491 .6039215
68627451 .647058823529412 .686274509803922 82 3 485 6 8 2 84 3 482 JHe82 3 481 6
 7 2 84 3 478 JHa82 3 477 6 6 2 81 1 14 448 12 126 340 0 2 305 519 83 3 471 .603
921568627451 .647058823529412 .686274509803922 84 3 519 JH279 9 336 BTI/DetId83
 3 331 .603921568627451 .647058823529412 .686274509803922 82 3 329 6 2 2 79 15 3
27 SDL/TYSA_COLOUR83 3 322 .603921568627451 .647058823529412 .686274509803922 79
 12 317 BTI/ExportId15 313 286 0 213 311 0 17 213 0 313 107 62 63 179 176 0 0 -1
7 107 0 313 119 213 105 66 133 0 113 -17 62 0 313 213 119 59 215 193 0 175 +17 1
19 0 313 62 107 101 112 120 0 0 +17 66 0 121 124 113 63 107 133 0 127 +17 127 0
 209 179 129 63 124 128 0 213 -17 129 0 209 127 78 67 131 182 0 0 +17 78 0 209 1
29 211 70 76 83 0 131 -17 131 0 130 43 69 70 129 182 0 0 -17 211 0 209 78 50 22
 166 163 0 0 -17 166 0 279 520 84 48 211 163 0 0 +17 520 0 279 521 166 79 26 10
 0 0 -17 84 0 279 166 521 22 41 143 0 211 +17 521 0 279 84 520 11 37 229 0 0 -17
 41 0 75 39 76 11 84 143 0 521 -17 39 0 75 72 41 30 29 40 0 38 -17 37 0 36 93 29
 79 521 229 0 520 +17 93 0 36 100 37 87 86 94 0 92 +17 100 0 36 104 93 96 204 20
8 0 207 +17 26 0 91 54 86 48 520 10 0 166 +15 91 292 0 54 278 0 17 54 0 91 92 26
 51 50 167 0 200 +84 3 307 JHy84 3 304 JHm84 3 296 JHi15 291 300 0 239 265 301 1
7 239 0 291 239 239 0 258 236 0 0 +84 3 284 JHS50 255 2 0 116 0 271 0 +0 -138777
8780781446e-32 .00635 0 0 1 1 0 0 17 150 0 270 150 150 0 522 147 0 0 +17 522 0 2
50 522 522 0 150 147 0 0 -15 250 310 0 522 19 0 84 3 274 JHG84 4 247 KHdB84 4 22
2 KHlB84 3 202 JHJ84 3 141 JHl84 3 111 JHM84 3 90 JHs84 3 82 JHg84 2 74 IH84 3 3
5 JHk19 18 333 0 1 0 9 5 S0 74 4 CI16 index_map_offset0 0 1 dCCZ20 16 6 0 0 495
 497 500 13 272 71 0 0 0 0 0 0 0 0 0 0 0 0 0 0 84 3 15 JHD1 0 
