**ABCDEFGHIJKLMNOPQRSTUVWXYZabcdefghijklmnopqrstuvwxyz**************************
**PARASOLID !"#$%&'()*+,-./:;<=>?@[\]^_`{|}~0123456789**************************
**PART1;
MC=unknown;
MC_MODEL=unknown;
MC_ID=unknown;
OS=unknown;
OS_RELEASE=unknown;
FRU=Parasolid 32.0.170;
APPL=Onshape;
SITE=unknown;
USER=unknown;
FORMAT=text;
GUISE=transmit;
KEY=BTGapi::writeModels_.xmt;
FILE=BTGapi::writeModels_.xmt;
DATE=2019-11-10T03:32:05 (UTC);
**PART2;
SCH=SCH_3200170_32001;
USFLD_SIZE=0;
**PART3;
**END_OF_HEADER*****************************************************************
T51 : TRANSMIT FILE created by modeller version 320017023 SCH_3200170_32001_1300
6227 0 12 34 CCCCCCI4 mesh1006 0 I8 polyline1008 0 CCCCCCCDI5 owner1040 0 CCCCCC
I13 boundary_mesh1006 0 I17 boundary_polyline1008 0 CCCA16 index_map_offset0 0 1
 dA9 index_map82 0 A17 node_id_index_map82 0 A20 schema_embedding_map82 0 A5 chi
ld12 0 A14 lowest_node_id0 0 1 dA16 mesh_offset_data206 0 Z1 232 2 3 0 0 0 0 0 0
 1e3 1e-8 0 4 5 1 0 1 1 6 7 8 9 0 0 10 11 12 0 0 0 0 0 0 0 81 255 1 2 206 13 1 1
4 0 0 15 16 70 11 CI9 list_type0 0 1 uI10 notransmit0 0 1 lCCCDCCDI12 finger_ind
ex0 0 1 dI12 finger_block1012 0 CZ3 0 4 T1 0 0 6 20 1 17 17 13 255 6 137 0 1 0 1
8 0 0 19 0 50 255 7 132 0 18 20 0 0 +.1143 1387778780781446e-32 .00635 1 0 0 0 0
 -1 30 255 8 136 0 11 21 0 0 +.1143 .0762 .00635 0 0 -1 29 255 9 113 0 22 23 0 .
1143 -.0762 0 19 8 CCCCCCCA5 owner12 0 Z10 48 0 1 19 0 24 V0 16 255 11 120 25 ?2
6 0 27 8 0 0 1 18 255 12 42 28 29 0 30 31 ?1 81 1 28 227 13 12 32 0 33 34 35 17
 255 29 0 36 37 38 12 39 40 0 41 -18 30 37 42 43 12 44 45 ?1 29 31 44 0 12 45 46
 .1143 -.0762 .00635 29 45 39 0 30 47 31 -.1143 -.0762 .00635 29 46 116 0 48 31
 49 .1143 .0762 0 18 48 104 50 26 51 0 46 ?1 29 49 115 0 51 46 23 -.1143 .0762 0
 18 51 100 52 53 54 48 49 ?1 29 23 114 0 54 49 9 -.1143 -.0762 0 18 54 96 33 55
 22 51 23 ?1 81 1 33 226 13 54 56 0 42 28 57 17 55 0 36 38 37 54 58 59 0 60 +18
 22 92 34 39 61 54 9 ?1 81 1 34 228 13 22 62 0 28 63 64 17 39 0 65 66 41 22 29 4
0 0 67 +18 61 27 68 69 44 22 70 ?1 81 1 68 231 13 61 71 0 52 50 72 17 69 0 65 41
 66 61 26 11 0 73 -18 44 32 63 74 30 61 47 ?1 29 70 29 0 61 0 47 .1143 .0762 .00
635 29 47 34 0 44 70 45 -.1143 .0762 .00635 81 1 63 229 13 44 75 0 34 52 76 17 7
4 0 77 43 78 44 73 79 0 80 +15 255 77 6 0 78 81 0 17 43 0 77 82 74 30 83 84 0 58
 +17 78 0 77 74 82 61 41 85 0 0 -17 73 0 86 26 80 61 74 79 0 78 -16 79 12 87 ?74
 84 85 88 0 0 1 17 80 0 86 73 53 44 89 27 0 83 -15 86 125 0 53 90 0 17 53 0 86 8
0 26 51 91 92 0 89 +17 89 0 93 60 83 51 80 27 0 94 +16 27 119 95 ?89 11 59 21 0
 0 1 17 83 0 93 89 58 44 43 84 0 0 -15 93 123 0 60 96 0 17 58 0 93 83 60 30 55 5
9 0 37 -16 84 17 97 ?43 98 79 99 0 0 1 81 1 97 213 13 84 100 0 101 102 103 16 98
 22 104 ?37 40 84 105 0 0 1 30 99 19 0 84 88 105 0 +-.1143 1387778780781446e-32
 .00635 0 -1 0 30 88 14 0 79 106 99 0 +693889390390723e-32 .0762 .00635 -1 0 0 3
0 105 24 0 98 99 107 0 +0 -.0762 .00635 -1 0 0 30 107 112 0 108 105 109 0 +.1143
 1387778780781446e-32 0 0 -1 0 16 108 88 110 ?67 92 0 107 0 0 1 30 109 111 0 92
 107 111 0 +693889390390723e-32 .0762 0 -1 0 0 16 92 84 112 ?53 113 108 109 0 0
 1 30 111 110 0 113 109 114 0 +-.1143 1387778780781446e-32 0 0 -1 0 16 113 80 10
2 ?60 115 92 111 0 0 1 30 114 109 0 115 111 116 0 +0 -.0762 0 -1 0 0 16 115 76 1
17 ?118 85 113 114 0 0 1 30 116 133 0 40 114 119 0 +.1143 -.0762 .00635 0 0 -1 1
6 40 117 120 ?39 59 98 116 0 0 1 30 119 134 0 59 116 21 0 +-.1143 -.0762 .00635
 0 0 -1 16 59 118 121 ?55 27 40 119 0 0 1 30 21 135 0 27 119 8 0 +-.1143 .0762 .
00635 0 0 -1 81 1 121 221 13 59 122 0 112 120 123 80 255 1 13 124 125 9000 0 0 0
 0 3 5 0 0 0 FFTFTFTTFFFFFF3 81 1 122 163 124 59 0 121 126 127 128 81 1 112 220
 13 92 127 0 87 121 129 81 1 120 222 13 40 126 0 121 95 130 84 255 3 123 JQN81 1
 126 162 124 40 0 120 131 122 132 81 1 95 223 13 27 131 0 120 25 133 84 3 130 JQ
J81 1 131 161 124 27 0 95 134 126 135 81 1 25 224 13 11 134 0 95 42 136 84 3 133
 JQF81 1 134 160 124 11 0 25 137 131 138 81 1 42 225 13 30 137 0 25 33 139 84 3
 136 JQB81 1 137 159 124 30 0 42 56 134 140 84 3 139 JQc80 1 124 141 142 9000 0
 0 0 0 3 6 0 0 0 FFTFTFTTFFFFFF1 81 1 56 158 124 54 0 33 32 137 143 82 255 3 140
 15 7 0 81 1 32 157 124 12 0 28 62 56 144 82 3 143 15 6 0 81 1 62 156 124 22 0 3
4 75 32 145 82 3 144 15 5 0 81 1 75 155 124 44 0 63 146 62 147 82 3 145 15 4 0 8
1 1 146 154 124 51 0 52 71 75 148 82 3 147 15 3 0 81 1 52 230 13 51 146 0 63 68
 149 81 1 71 153 124 61 0 68 150 146 151 82 3 148 15 2 0 81 1 150 152 124 48 0 5
0 0 71 152 82 3 151 15 1 0 81 1 50 232 13 48 150 0 68 0 153 82 3 152 15 0 0 84 2
 153 IQ84 3 149 JQI79 255 9 142 BTI/DetId82 3 138 15 0 1 82 3 135 15 1 1 82 3 13
2 15 2 1 81 1 127 164 124 92 0 112 122 154 155 81 1 87 219 13 79 154 0 117 112 1
56 84 3 129 JQR81 1 154 165 124 79 0 87 127 157 158 81 1 117 218 13 115 157 0 10
4 87 159 84 3 156 JQV81 1 157 166 124 115 0 117 154 160 161 81 1 104 217 13 98 1
60 0 110 117 162 84 3 159 JQZ81 1 160 167 124 98 0 104 157 163 164 81 1 110 216
 13 108 163 0 165 104 166 84 3 162 JQd81 1 163 168 124 108 0 110 160 167 168 81
 1 165 215 13 85 167 0 102 110 169 84 3 166 JQh16 85 7 165 ?41 79 115 106 0 0 1
 81 1 167 169 124 85 0 165 163 170 171 81 1 102 214 13 113 170 0 97 165 172 84 3
 169 JQl81 1 170 170 124 113 0 102 167 100 173 84 3 172 JQp81 1 100 171 124 84 0
 97 170 174 175 82 3 173 15 10 1 81 1 174 172 124 90 0 176 100 177 178 82 3 175
 15 11 1 14 255 90 126 101 ?96 18 86 6 20 -0 0 96 18 24 81 1 176 201 179 90 174
 101 180 181 182 81 1 177 173 124 183 0 184 174 185 186 82 3 178 15 0 2 14 183 6
8 187 ?0 81 188 6 189 -0 0 0 81 24 81 1 184 205 179 183 177 187 190 0 191 81 1 1
85 174 124 81 0 190 177 192 193 82 3 186 15 1 2 14 81 1 194 ?183 195 77 6 196 +0
 0 183 195 24 81 1 190 204 179 81 185 194 197 184 198 81 1 192 175 124 195 0 197
 185 199 200 82 3 193 15 2 2 14 195 122 201 ?81 96 36 6 202 +0 0 81 96 24 81 1 1
97 203 179 195 192 201 181 190 203 81 1 199 176 124 18 0 180 192 204 205 82 3 20
0 15 3 2 14 18 128 206 ?90 0 65 6 7 +0 0 90 0 24 81 1 180 200 179 18 199 206 0 1
76 207 81 1 204 177 124 96 0 181 199 208 209 82 3 205 15 4 2 14 96 124 15 ?195 9
0 93 6 210 -0 0 195 90 24 81 1 181 202 179 96 204 15 176 197 211 81 1 208 178 12
4 1 0 212 204 0 213 82 3 209 15 5 2 81 1 212 197 214 1 208 215 0 0 216 82 3 213
 15 0 3 80 1 214 217 218 8038 0 0 0 0 0 0 0 0 0 TTTTTTTTTTTTTF10 81 1 215 198 21
7 1 212 14 0 0 219 98 255 6 216 80 97 114 116 32 49 80 1 217 220 221 8017 0 0 0
 0 0 0 0 0 0 TTTTTTTTTTTTTF3 81 1 14 199 222 1 215 2 0 0 223 84 6 219 Part 180 1
 222 179 224 8040 0 0 0 0 3 5 0 0 0 TTTFFFFFFFFFFF2 83 255 3 223 .61568627450980
4 .811764705882353 .929411764705882 79 17 224 SDL/TYSA_COLOUR_279 13 221 SDL/TYS
A_NAME79 14 218 SDL/TYSA_UNAME80 1 179 0 225 8001 0 0 0 0 3 5 0 0 0 FFFFTFTFFFFF
FF2 81 1 15 207 13 96 181 0 2 206 226 83 3 211 .615686274509804 .811764705882353
 .929411764705882 81 1 206 208 13 18 180 0 15 201 227 84 3 226 JQW81 1 201 209 1
3 195 197 0 206 194 228 84 3 227 JQS81 1 194 210 13 81 190 0 201 187 229 84 3 22
8 JQO81 1 187 211 13 183 184 0 194 101 230 84 3 229 JQK81 1 101 212 13 90 176 0
 187 97 231 84 3 230 JQG84 3 231 JQC79 15 225 SDL/TYSA_COLOUR50 210 130 0 96 202
 20 0 +-.1143 1387778780781446e-32 .00635 1 0 0 0 0 -1 13 24 49 0 0 0 0 0 0 10 1
8 50 202 129 0 195 189 210 0 +0 -.0762 .00635 0 -1 0 0 0 -1 50 20 131 0 90 210 7
 0 +693889390390723e-32 .0762 .00635 0 -1 0 0 0 -1 50 189 108 0 183 196 202 0 +0
 1387778780781446e-32 0 0 0 1 1 0 0 50 196 3 0 81 0 189 0 +0 1387778780781446e-3
2 .00635 0 0 1 1 0 0 83 3 207 .615686274509804 .811764705882353 .929411764705882
 15 65 127 0 66 18 0 17 66 0 65 69 39 48 67 108 0 0 -17 67 0 188 118 91 22 66 10
8 0 38 +15 188 75 0 67 183 0 17 118 0 188 94 67 54 38 115 0 0 +17 91 0 188 67 94
 48 53 92 0 66 -17 38 0 36 29 55 22 118 115 0 0 -15 36 121 0 38 195 0 17 94 0 18
8 91 118 51 60 113 0 0 -17 60 0 93 58 89 54 94 113 0 118 +83 3 203 .615686274509
804 .811764705882353 .929411764705882 83 3 198 .615686274509804 .811764705882353
 .929411764705882 83 3 191 .615686274509804 .811764705882353 .929411764705882 83
 3 182 .615686274509804 .811764705882353 .929411764705882 82 3 171 15 9 1 17 41
 0 65 39 69 12 78 85 0 82 +30 106 9 0 85 0 88 0 +.1143 1387778780781446e-32 .006
35 0 -1 0 17 82 0 77 78 43 12 37 98 0 0 -17 37 0 36 55 29 30 82 98 0 0 +82 3 168
 15 8 1 82 3 164 15 7 1 82 3 161 15 6 1 82 3 158 15 5 1 82 3 155 15 4 1 82 3 128
 15 3 1 79 12 125 BTI/ExportId84 3 103 JQt17 26 0 86 53 73 48 69 11 0 91 +84 3 7
6 JQM84 3 72 JQE84 3 64 JQQ84 3 57 JQY84 3 35 JQU19 19 138 0 1 0 10 6 S0 74 4 CI
16 index_map_offset0 0 1 dCCZ20 17 6 0 0 208 212 215 14 184 50 0 0 0 0 0 0 0 0 0
 0 0 0 0 0 84 3 16 JQD1 0 
