**ABCDEFGHIJKLMNOPQRSTUVWXYZabcdefghijklmnopqrstuvwxyz**************************
**PARASOLID !"#$%&'()*+,-./:;<=>?@[\]^_`{|}~0123456789**************************
**PART1;
MC=unknown;
MC_MODEL=unknown;
MC_ID=unknown;
OS=unknown;
OS_RELEASE=unknown;
FRU=Parasolid 32.0.170;
APPL=Onshape;
SITE=unknown;
USER=unknown;
FORMAT=text;
GUISE=transmit;
KEY=BTGapi::writeModels_.xmt;
FILE=BTGapi::writeModels_.xmt;
DATE=2019-11-10T03:32:02 (UTC);
**PART2;
SCH=SCH_3200170_32001;
USFLD_SIZE=0;
**PART3;
**END_OF_HEADER*****************************************************************
T51 : TRANSMIT FILE created by modeller version 320017023 SCH_3200170_32001_1300
6227 0 12 34 CCCCCCI4 mesh1006 0 I8 polyline1008 0 CCCCCCCDI5 owner1040 0 CCCCCC
I13 boundary_mesh1006 0 I17 boundary_polyline1008 0 CCCA16 index_map_offset0 0 1
 dA9 index_map82 0 A17 node_id_index_map82 0 A20 schema_embedding_map82 0 A5 chi
ld12 0 A14 lowest_node_id0 0 1 dA16 mesh_offset_data206 0 Z1 231 2 3 0 0 0 0 0 0
 1e3 1e-8 0 4 0 1 0 1 1 5 6 7 8 0 0 9 10 11 0 0 0 0 0 0 0 81 255 1 2 205 12 1 13
 0 0 14 15 70 11 CI9 list_type0 0 1 uI10 notransmit0 0 1 lCCCDCCDI12 finger_inde
x0 0 1 dI12 finger_block1012 0 CZ3 0 4 T1 0 0 6 20 1 16 16 13 255 5 153 0 1 0 17
 0 0 18 0 50 255 6 148 0 17 19 0 0 +.0127 .0381 0 0 0 -1 -1 0 0 30 255 7 152 0 1
0 20 0 0 +.0127 -.0762 0 -1 0 0 29 255 8 129 0 21 22 0 0 .0762 0 19 8 CCCCCCCA5
 owner12 0 Z9 58 0 1 18 0 23 V0 16 255 10 136 24 ?25 0 26 7 0 0 1 18 255 11 52 2
7 28 0 29 30 ?1 81 1 27 224 12 11 31 0 24 32 33 17 255 28 0 34 35 36 11 37 38 0
 39 +18 29 47 40 36 11 41 42 ?1 29 30 54 0 11 42 43 .0127 .0762 0 29 42 49 0 29
 44 30 .0127 .0762 -.127 29 43 132 0 45 30 46 0 -.0762 0 18 45 120 47 48 49 0 43
 ?1 29 46 131 0 49 43 22 0 -.0762 -.127 18 49 116 50 51 52 45 46 ?1 29 22 130 0
 52 46 8 0 .0762 -.127 18 52 112 53 54 21 49 22 ?1 81 1 53 227 12 52 55 0 40 56
 57 17 54 0 58 59 60 52 61 62 0 63 +18 21 108 32 64 65 52 8 ?1 81 1 32 225 12 21
 66 0 27 40 67 17 64 0 68 39 63 21 69 70 0 71 +18 65 37 72 73 41 21 74 ?1 81 1 7
2 230 12 65 75 0 50 47 76 17 73 0 77 25 78 65 79 80 0 35 -18 41 42 56 79 29 65 4
4 ?1 29 74 39 0 65 0 44 .0127 -.0762 0 29 44 44 0 41 74 42 .0127 -.0762 -.127 81
 1 56 228 12 41 81 0 53 50 82 17 79 0 34 36 35 41 73 80 0 78 +15 255 34 6 0 35 8
3 0 17 36 0 34 28 79 29 84 85 0 59 +17 35 0 34 79 28 65 86 87 0 88 +16 80 17 89
 ?79 85 87 90 0 0 1 17 78 0 77 73 51 41 60 26 0 84 -15 77 141 0 51 91 0 17 51 0
 77 78 25 49 48 92 0 60 +17 60 0 58 54 84 49 78 26 0 61 +16 26 135 93 ?60 10 94
 20 0 0 1 17 84 0 58 60 59 41 36 85 0 0 -15 58 139 0 54 95 0 17 59 0 58 84 54 29
 63 94 0 37 -16 85 22 96 ?36 38 80 97 0 0 1 81 1 96 214 12 85 98 0 99 100 101 16
 38 27 102 ?28 103 85 104 0 0 1 30 97 24 0 85 90 104 0 +.0127 1387778780781446e-
32 -.127 0 1 0 30 90 19 0 80 105 97 0 +.0127 -.0762 -.0635 0 0 -1 30 104 29 0 38
 97 106 0 +.0127 .0762 -.0635 0 0 1 30 106 128 0 107 104 108 0 +0 .0381 0 0 -1 0
 16 107 102 109 ?110 92 0 106 0 0 1 30 108 127 0 92 106 111 0 +0 -.0762 -.0635 0
 0 -1 16 92 98 112 ?51 62 107 108 0 0 1 30 111 126 0 62 108 113 0 +0 13877787807
81446e-32 -.127 0 1 0 16 62 94 100 ?54 70 92 111 0 0 1 30 113 125 0 70 111 114 0
 +0 .0762 -.0635 0 0 1 16 70 90 99 ?64 87 62 113 0 0 1 30 114 149 0 103 113 115
 0 +.0127 .0762 0 -1 0 0 16 103 133 116 ?71 94 38 114 0 0 1 30 115 150 0 94 114
 20 0 +.0127 .0762 -.127 -1 0 0 16 94 134 117 ?63 26 103 115 0 0 1 30 20 151 0 2
6 115 7 0 +.0127 -.0762 -.127 -1 0 0 81 1 117 221 12 94 118 0 116 93 119 17 63 0
 68 64 37 52 59 94 0 69 +15 68 137 0 64 120 0 17 37 0 68 63 39 29 28 38 0 0 -17
 69 0 121 61 122 52 64 70 0 0 -15 121 89 0 122 123 0 17 61 0 121 48 69 49 54 62
 0 0 -17 122 0 121 69 48 21 110 107 0 0 -17 48 0 121 122 61 45 51 92 0 25 -17 11
0 0 124 88 71 45 122 107 0 0 +15 124 143 0 110 17 0 17 88 0 124 86 110 65 25 10
 0 0 -17 71 0 124 110 86 21 39 103 0 122 +17 86 0 124 71 88 11 35 87 0 0 -17 39
 0 68 37 64 11 71 103 0 86 -16 87 7 125 ?35 80 70 105 0 0 1 81 1 125 218 12 87 1
26 0 112 109 127 30 105 9 0 87 0 90 0 +.0127 .0381 0 0 -1 0 80 255 1 12 128 129
 9000 0 0 0 0 3 5 0 0 0 FFTFTFTTFFFFFF3 81 1 126 182 128 87 0 125 130 131 132 81
 1 112 217 12 92 131 0 89 125 133 81 1 109 219 12 107 130 0 125 116 134 84 255 3
 127 JIV81 1 130 181 128 107 0 109 135 126 136 81 1 116 220 12 103 135 0 109 117
 137 84 3 134 JIR81 1 135 180 128 103 0 116 118 130 138 84 3 137 JIN80 1 128 139
 140 9000 0 0 0 0 3 6 0 0 0 FFTFTFTTFFFFFF1 81 1 118 179 128 94 0 117 141 135 14
2 82 255 3 138 7 3 1 81 1 141 178 128 26 0 93 143 118 144 82 3 142 7 2 1 81 1 93
 222 12 26 141 0 117 24 145 81 1 143 177 128 10 0 24 31 141 146 82 3 144 7 1 1 8
1 1 24 223 12 10 143 0 93 27 147 81 1 31 176 128 11 0 27 66 143 148 82 3 146 7 0
 1 81 1 66 175 128 21 0 32 149 31 150 82 3 148 7 7 0 81 1 149 174 128 29 0 40 55
 66 151 82 3 150 7 6 0 81 1 40 226 12 29 149 0 32 53 152 81 1 55 173 128 52 0 53
 81 149 153 82 3 151 7 5 0 81 1 81 172 128 41 0 56 154 55 155 82 3 153 7 4 0 81
 1 154 171 128 49 0 50 75 81 156 82 3 155 7 3 0 81 1 50 229 12 49 154 0 56 72 15
7 81 1 75 170 128 65 0 72 158 154 159 82 3 156 7 2 0 81 1 158 169 128 45 0 47 0
 75 160 82 3 159 7 1 0 81 1 47 231 12 45 158 0 72 0 161 82 3 160 7 0 0 84 2 161
 II84 3 157 JII84 3 152 JIU84 3 147 JIB84 3 145 JIF79 255 9 140 BTI/DetId82 3 13
6 7 4 1 81 1 131 183 128 92 0 112 126 162 163 81 1 89 216 12 80 162 0 100 112 16
4 84 3 133 JIZ81 1 162 184 128 80 0 89 131 165 166 81 1 100 215 12 62 165 0 96 8
9 167 84 3 164 JId81 1 165 185 128 62 0 100 162 98 168 84 3 167 JIh81 1 98 186 1
28 85 0 96 165 169 170 82 3 168 7 8 1 81 1 169 187 128 70 0 99 98 171 172 82 3 1
70 7 9 1 81 1 99 213 12 70 169 0 102 96 173 81 1 171 188 128 38 0 102 169 174 17
5 82 3 172 7 10 1 81 1 102 212 12 38 171 0 176 99 177 81 1 174 189 128 123 0 178
 171 179 180 82 3 175 7 11 1 14 255 123 81 176 ?0 83 121 5 181 -0 0 0 83 23 81 1
 178 204 182 123 174 176 183 0 184 81 1 179 190 128 83 0 183 174 185 186 82 3 18
0 7 0 2 14 83 1 187 ?123 120 34 5 188 +0 0 123 120 23 81 1 183 203 182 83 179 18
7 189 178 190 81 1 185 191 128 17 0 191 179 192 193 82 3 186 7 1 2 14 17 144 194
 ?91 0 124 5 6 -0 0 91 0 23 81 1 191 199 182 17 185 194 0 195 196 81 1 192 192 1
28 91 0 195 185 197 198 82 3 193 7 2 2 14 91 142 199 ?95 17 77 5 19 -0 0 95 17 2
3 81 1 195 200 182 91 192 199 191 200 201 81 1 197 193 128 95 0 200 192 202 203
 82 3 198 7 3 2 14 95 140 204 ?120 91 58 5 205 -0 0 120 91 23 81 1 200 201 182 9
5 197 204 195 189 206 81 1 202 194 128 120 0 189 197 207 208 82 3 203 7 4 2 14 1
20 138 14 ?83 95 68 5 209 -0 0 83 95 23 81 1 189 202 182 120 202 14 200 183 210
 81 1 207 195 128 1 0 211 202 0 212 82 3 208 7 5 2 81 1 211 196 213 1 207 214 0
 0 215 82 3 212 7 0 3 80 1 213 216 217 8038 0 0 0 0 0 0 0 0 0 TTTTTTTTTTTTTF10 8
1 1 214 197 216 1 211 13 0 0 218 98 255 6 215 80 97 114 116 32 49 80 1 216 219 2
20 8017 0 0 0 0 0 0 0 0 0 TTTTTTTTTTTTTF3 81 1 13 198 221 1 214 2 0 0 222 84 6 2
18 Part 180 1 221 182 223 8040 0 0 0 0 3 5 0 0 0 TTTFFFFFFFFFFF2 83 255 3 222 .6
15686274509804 .811764705882353 .929411764705882 79 17 223 SDL/TYSA_COLOUR_279 1
3 220 SDL/TYSA_NAME79 14 217 SDL/TYSA_UNAME80 1 182 0 224 8001 0 0 0 0 3 5 0 0 0
 FFFFTFTFFFFFFF2 81 1 14 206 12 120 189 0 2 204 225 83 3 210 .615686274509804 .8
11764705882353 .929411764705882 81 1 204 207 12 95 200 0 14 199 226 84 3 225 JIW
81 1 199 208 12 91 195 0 204 194 227 84 3 226 JIS81 1 194 209 12 17 191 0 199 18
7 228 84 3 227 JIO81 1 187 210 12 83 183 0 194 176 229 84 3 228 JIK81 1 176 211
 12 123 178 0 187 102 230 84 3 229 JIG84 3 230 JIC79 15 224 SDL/TYSA_COLOUR50 20
9 145 0 120 181 205 0 +.0127 .0762 -.0635 0 -1 0 0 0 -1 13 23 59 0 0 0 0 0 0 9 1
7 50 181 124 0 123 188 209 0 +0 0 -.0635 1 0 0 0 1 0 50 205 146 0 95 209 19 0 +.
0127 1387778780781446e-32 -.127 0 0 1 1 0 0 50 19 147 0 91 205 6 0 +.0127 -.0762
 -.0635 0 1 0 0 0 1 50 188 3 0 83 0 181 0 +.0127 0 -.0635 1 0 0 0 1 0 83 3 206 .
615686274509804 .811764705882353 .929411764705882 83 3 201 .615686274509804 .811
764705882353 .929411764705882 83 3 196 .615686274509804 .811764705882353 .929411
764705882 83 3 190 .615686274509804 .811764705882353 .929411764705882 83 3 184 .
615686274509804 .811764705882353 .929411764705882 84 3 177 JIt84 3 173 JIp82 3 1
66 7 7 1 82 3 163 7 6 1 82 3 132 7 5 1 79 12 129 BTI/ExportId17 25 0 77 51 73 45
 88 10 0 110 +84 3 119 JIJ84 3 101 JIl84 3 82 JIM84 3 76 JIE84 3 67 JIY84 3 57 J
IQ84 3 33 JIc19 18 154 0 1 0 9 5 S0 74 4 CI16 index_map_offset0 0 1 dCCZ20 16 6
 0 0 207 211 214 13 178 47 0 0 0 0 0 0 0 0 0 0 0 0 0 0 84 3 15 JID1 0 
