**ABCDEFGHIJKLMNOPQRSTUVWXYZabcdefghijklmnopqrstuvwxyz**************************
**PARASOLID !"#$%&'()*+,-./:;<=>?@[\]^_`{|}~0123456789**************************
**PART1;
MC=unknown;
MC_MODEL=unknown;
MC_ID=unknown;
OS=unknown;
OS_RELEASE=unknown;
FRU=Parasolid 32.0.170;
APPL=Onshape;
SITE=unknown;
USER=unknown;
FORMAT=text;
GUISE=transmit;
KEY=BTGapi::writeModels_.xmt;
FILE=BTGapi::writeModels_.xmt;
DATE=2019-12-04T09:03:46 (UTC);
**PART2;
SCH=SCH_3200170_32001;
USFLD_SIZE=0;
**PART3;
**END_OF_HEADER*****************************************************************
T51 : TRANSMIT FILE created by modeller version 320017023 SCH_3200170_32001_1300
6227 0 12 34 CCCCCCI4 mesh1006 0 I8 polyline1008 0 CCCCCCCDI5 owner1040 0 CCCCCC
I13 boundary_mesh1006 0 I17 boundary_polyline1008 0 CCCA16 index_map_offset0 0 1
 dA9 index_map82 0 A17 node_id_index_map82 0 A20 schema_embedding_map82 0 A5 chi
ld12 0 A14 lowest_node_id0 0 1 dA16 mesh_offset_data206 0 Z1 630 2 3 0 0 0 0 0 0
 1e3 1e-8 0 4 0 1 0 1 1 5 6 7 8 0 0 9 10 11 0 0 0 0 0 0 0 81 255 1 2 556 12 1 13
 0 0 14 15 70 11 CI9 list_type0 0 1 uI10 notransmit0 0 1 lCCCDCCDI12 finger_inde
x0 0 1 dI12 finger_block1012 0 CZ3 0 4 T1 0 0 6 20 1 16 16 13 255 5 423 0 1 0 17
 0 0 18 0 50 255 6 410 0 19 20 0 0 +0 .0127 .00254 -1 0 0 0 0 1 30 255 7 422 0 2
1 22 0 0 +0 0 .00254 0 0 -1 29 255 8 351 0 23 24 0 .2032 .0254 0 19 8 CCCCCCCA5
 owner12 0 Z9 159 0 1 18 0 25 V0 16 255 10 368 26 ?27 0 28 29 0 0 1 18 255 11 15
3 30 31 0 32 33 ?1 81 1 30 623 12 11 34 0 35 36 37 17 255 31 0 38 39 40 11 41 42
 0 43 +18 32 148 44 40 11 45 46 ?1 29 33 155 0 11 46 47 .2032 .0254 .00254 29 46
 150 0 32 48 33 .2032 0 .00254 29 47 362 0 49 33 50 0 0 0 18 49 334 51 52 53 0 4
7 ?1 29 50 361 0 53 47 54 0 .0254 0 18 53 330 55 56 57 49 50 ?1 29 54 360 0 57 5
0 58 .00966769942505582 .02064770890191085 0 18 57 326 59 60 61 53 54 ?1 29 58 3
59 0 61 54 62 .03104918842627035 .01048770890191082 0 18 61 322 63 64 65 57 58 ?
1 29 62 358 0 65 58 66 .02832384760068435 .00475229109808918 0 18 65 318 67 68 6
9 61 62 ?1 29 66 357 0 69 62 70 .0069423585994698 .01491229109808922 0 18 69 314
 35 71 72 65 66 ?1 29 70 356 0 72 66 73 .1721508115737295 .0104877089019109 0 18
 72 310 74 27 75 69 70 ?1 29 73 355 0 75 70 76 .193532300574944 .020647708901910
95 0 18 75 306 77 78 79 72 73 ?1 29 76 354 0 79 73 80 .19625764140053 .014912291
0980893 0 18 79 302 81 82 83 75 76 ?1 29 80 353 0 83 76 24 .1748761523993155 .00
475229109808926 0 18 83 298 84 85 86 79 80 ?1 29 24 352 0 86 80 8 .2032 0 0 18 8
6 294 87 88 23 83 24 ?1 81 1 87 626 12 86 89 0 44 90 91 17 88 0 92 93 52 86 94 9
5 0 96 +18 23 290 36 97 98 86 8 ?1 81 1 36 624 12 23 99 0 30 44 100 17 97 0 101
 102 103 23 43 104 0 105 +18 98 88 106 107 108 23 109 ?1 81 1 106 629 12 98 110
 0 55 51 111 17 107 0 112 113 114 98 52 21 0 115 -18 108 103 90 116 117 98 118 ?
1 29 109 90 0 98 0 118 0 0 .00254 29 118 105 0 108 109 119 0 .0254 .00254 29 119
 110 0 117 118 120 .00966769942505582 .02064770890191085 .00254 18 117 108 121 1
22 123 108 119 ?1 29 120 115 0 123 119 124 .03104918842627035 .01048770890191082
 .00254 18 123 113 125 126 127 117 120 ?1 29 124 120 0 127 120 128 .028323847600
68435 .00475229109808918 .00254 18 127 118 129 130 131 123 124 ?1 29 128 125 0 1
31 124 132 .0069423585994698 .01491229109808922 .00254 18 131 123 133 134 135 12
7 128 ?1 29 132 130 0 135 128 136 .1721508115737295 .0104877089019109 .00254 18
 135 128 137 138 139 131 132 ?1 29 136 135 0 139 132 140 .193532300574944 .02064
770890191095 .00254 18 139 133 141 142 143 135 136 ?1 29 140 140 0 143 136 48 .1
9625764140053 .0149122910980893 .00254 18 143 138 144 145 45 139 140 ?1 29 48 14
5 0 45 140 46 .1748761523993155 .00475229109808926 .00254 18 45 143 146 147 32 1
43 48 ?1 81 1 146 607 12 45 148 0 149 84 150 17 147 0 151 152 153 45 154 155 0 1
56 +15 255 151 11 0 152 157 0 17 152 0 151 158 147 135 159 160 0 161 -17 153 0 1
51 147 158 143 162 163 0 0 -17 154 0 164 82 156 143 147 155 0 153 -16 155 68 165
 ?147 42 163 166 0 0 1 17 156 0 164 154 167 45 85 168 0 159 -15 164 377 0 167 16
9 0 17 167 0 164 156 82 83 170 171 0 172 +17 85 0 173 174 159 83 156 168 0 167 +
16 168 365 175 ?85 176 177 178 0 0 1 17 159 0 173 85 138 45 152 160 0 0 +15 173
 383 0 174 17 0 17 138 0 173 159 174 135 27 10 0 152 -16 160 53 179 ?159 180 181
 182 0 0 1 81 1 179 573 12 160 183 0 184 185 186 16 180 58 187 ?161 163 160 188
 0 0 1 16 181 48 189 ?190 160 191 192 0 0 1 31 255 182 55 0 160 192 188 0 +.1735
134819865225 .00762 .00254 0 0 1 1 0 0 .003175 30 192 50 0 181 193 182 0 +.01763
310310007705 .0098322910980892 .00254 .903215402176636 -.429187531588347 0 30 18
8 60 0 180 182 194 0 +.182841556074337 .0155677089019109 .00254 -.90321540217663
5 -.429187531588348 0 31 194 65 0 163 188 166 0 +.194894970987737 .01778 .00254
 0 0 1 1 0 0 .003175 16 163 63 195 ?162 155 180 194 0 0 1 30 166 70 0 155 194 19
6 0 +.185566896899923 .00983229109808928 .00254 -.903215402176635 -.429187531588
348 0 30 196 80 0 42 166 197 0 +.2032 .0127 .00254 0 1 0 16 42 78 198 ?31 199 15
5 196 0 0 1 30 197 350 0 200 196 201 0 +0 .0127 0 0 1 0 16 200 286 202 ?203 95 0
 197 0 0 1 30 201 349 0 95 197 204 0 +.0508 0 0 1 0 0 16 95 280 205 ?88 206 200
 201 0 0 1 30 204 348 0 206 201 207 0 +.0508 .0254 0 1 0 0 16 206 274 208 ?209 2
10 95 204 0 0 1 31 207 347 0 210 204 211 0 +.00830502901226282 .01778 0 0 0 -1 1
 0 0 .003175 16 210 270 212 ?213 214 206 207 0 0 1 30 211 346 0 214 207 215 0 +.
0203584439256631 .01556770890191085 0 .903215402176636 -.429187531588347 0 16 21
4 266 216 ?64 217 210 211 0 0 1 31 215 345 0 217 211 218 0 +.02968651801347735 .
00762 0 0 0 -1 1 0 0 .003175 16 217 262 219 ?220 221 214 215 0 0 1 30 218 344 0
 221 215 222 0 +.01763310310007705 .0098322910980892 0 .903215402176636 -.429187
531588347 0 16 221 258 223 ?224 225 217 218 0 0 1 31 222 343 0 225 218 226 0 +.1
735134819865225 .00762 0 0 0 1 1 0 0 .003175 16 225 254 185 ?172 227 221 222 0 0
 1 30 226 342 0 227 222 228 0 +.182841556074337 .0155677089019109 0 -.9032154021
76635 -.429187531588348 0 16 227 250 229 ?230 231 225 226 0 0 1 31 228 341 0 231
 226 232 0 +.194894970987737 .01778 0 0 0 1 1 0 0 .003175 16 231 246 184 ?233 17
1 227 228 0 0 1 30 232 340 0 171 228 234 0 +.185566896899923 .00983229109808928
 0 -.903215402176635 -.429187531588348 0 16 171 242 235 ?167 236 231 232 0 0 1 3
0 234 339 0 236 232 237 0 +.2032 .0127 0 0 1 0 16 236 238 238 ?105 239 171 234 0
 0 1 30 237 411 0 104 234 240 0 +.2032 .0254 .00254 0 0 -1 16 104 363 241 ?97 24
2 199 237 0 0 1 30 240 412 0 242 237 178 0 +.2032 0 .00254 0 0 -1 16 242 364 243
 ?96 21 104 240 0 0 1 30 178 413 0 168 240 244 0 +.1748761523993155 .00475229109
808926 .00254 0 0 -1 30 244 414 0 176 178 245 0 +.19625764140053 .01491229109808
93 .00254 0 0 -1 16 176 366 246 ?82 28 168 244 0 0 1 30 245 415 0 28 244 29 0 +.
193532300574944 .02064770890191095 .00254 0 0 -1 16 28 367 247 ?78 10 176 245 0
 0 1 30 29 416 0 10 245 248 0 +.1721508115737295 .0104877089019109 .00254 0 0 -1
 30 248 417 0 249 29 250 0 +.0069423585994698 .01491229109808922 .00254 0 0 -1 1
6 249 369 251 ?71 252 21 248 0 0 1 30 250 418 0 252 248 253 0 +.0283238476006843
5 .00475229109808918 .00254 0 0 -1 16 252 370 254 ?68 255 249 250 0 0 1 30 253 4
19 0 255 250 256 0 +.03104918842627035 .01048770890191082 .00254 0 0 -1 16 255 3
71 257 ?258 177 252 253 0 0 1 30 256 420 0 177 253 22 0 +.00966769942505582 .020
64770890191085 .00254 0 0 -1 16 177 372 259 ?260 168 255 256 0 0 1 30 22 421 0 1
99 256 7 0 +0 .0254 .00254 0 0 -1 16 199 373 261 ?56 104 42 22 0 0 1 81 1 261 60
5 12 199 262 0 243 149 263 17 56 0 112 114 113 53 116 199 0 102 +15 112 397 0 11
4 19 0 17 114 0 112 107 56 49 203 200 0 0 -17 113 0 112 56 107 108 264 239 0 0 +
17 116 0 101 103 102 108 56 199 0 39 -17 102 0 101 116 97 53 209 206 0 203 -15 1
01 393 0 102 265 0 17 209 0 266 267 203 23 102 206 0 0 +17 203 0 266 209 94 53 1
14 200 0 0 +15 266 235 0 203 268 269 17 94 0 266 203 267 49 88 95 0 114 -17 267
 0 266 94 209 86 105 236 0 0 -17 105 0 270 43 96 23 267 236 0 209 +15 270 375 0
 105 271 0 17 43 0 270 41 105 11 97 104 0 103 -17 96 0 270 105 41 86 93 242 0 26
7 +17 41 0 270 96 43 32 31 42 0 0 -17 93 0 92 115 88 32 96 242 0 41 -15 92 395 0
 88 272 0 17 115 0 92 52 93 98 40 273 0 264 -17 52 0 92 88 115 49 107 21 0 94 +1
7 40 0 38 31 264 32 115 273 0 93 +16 273 18 274 ?40 275 239 276 0 0 1 17 264 0 3
8 40 39 98 113 239 0 0 -15 38 6 0 264 157 277 17 39 0 38 264 31 108 103 275 0 11
3 -16 239 13 278 ?113 273 236 279 0 0 1 81 1 278 589 12 239 280 0 238 202 281 30
 279 15 0 239 0 276 0 +0 .0127 .00254 0 1 0 30 276 20 0 273 279 282 0 +.0508 0 .
00254 1 0 0 30 282 30 0 275 276 283 0 +.0508 .0254 .00254 1 0 0 16 275 28 284 ?1
03 285 273 282 0 0 1 31 283 35 0 285 282 286 0 +.00830502901226282 .01778 .00254
 0 0 -1 1 0 0 .003175 16 285 33 287 ?288 289 275 283 0 0 1 30 286 40 0 289 283 1
93 0 +.0203584439256631 .01556770890191085 .00254 .903215402176636 -.42918753158
8347 0 16 289 38 290 ?126 191 285 286 0 0 1 31 193 45 0 191 286 192 0 +.02968651
801347735 .00762 .00254 0 0 -1 1 0 0 .003175 16 191 43 291 ?130 181 289 193 0 0
 1 81 1 291 583 12 191 292 0 216 219 293 17 130 0 277 294 126 127 295 191 0 296
 +15 277 7 0 288 157 151 17 294 0 277 288 130 131 190 181 0 0 -17 126 0 277 130
 288 123 122 289 0 297 +17 295 0 298 258 296 123 130 191 0 0 -17 296 0 298 295 2
20 127 68 252 0 190 -15 298 387 0 220 299 0 17 220 0 298 296 258 65 300 217 0 22
4 +17 68 0 301 302 190 65 296 252 0 220 +17 190 0 301 68 134 127 294 181 0 0 +15
 301 385 0 302 303 0 17 134 0 301 190 302 131 71 249 0 304 -17 302 0 301 134 68
 69 224 221 0 0 -17 71 0 305 213 304 69 134 249 0 306 +17 304 0 305 71 307 131 2
88 285 0 294 -15 305 391 0 213 308 0 17 307 0 305 304 213 117 260 177 0 0 -17 28
8 0 277 126 294 117 304 285 0 307 +17 213 0 305 307 71 57 306 210 0 0 +17 260 0
 309 64 122 57 307 177 0 213 +15 309 389 0 64 310 0 17 64 0 309 297 260 61 60 21
4 0 258 +17 122 0 309 260 297 117 126 289 0 288 -17 297 0 309 122 64 123 258 255
 0 295 -17 258 0 298 220 295 61 297 255 0 300 +17 300 0 269 60 224 61 220 217 0
 0 -15 269 236 0 306 268 311 17 60 0 269 306 300 57 64 214 0 260 -17 224 0 269 3
00 306 65 302 221 0 0 +17 306 0 269 224 60 69 213 210 0 302 -14 255 268 217 312
 ?0 157 266 5 313 -0 0 0 157 25 15 311 237 0 172 268 0 17 172 0 311 170 230 83 1
74 225 0 0 +17 170 0 311 233 172 79 167 171 0 314 -17 230 0 311 172 233 72 315 2
27 0 0 +17 174 0 173 138 85 72 172 225 0 230 -17 233 0 311 230 170 75 314 231 0
 0 +17 315 0 316 142 27 75 230 227 0 233 -15 316 381 0 315 317 0 17 142 0 316 16
1 315 139 78 28 0 158 -17 27 0 316 315 161 72 138 10 0 174 +17 161 0 316 27 142
 135 158 180 0 0 +17 158 0 151 153 152 139 161 180 0 162 -17 162 0 318 78 145 13
9 153 163 0 0 +15 318 379 0 314 319 0 17 78 0 318 314 162 75 142 28 0 315 +17 14
5 0 318 162 314 143 82 176 0 154 -17 314 0 318 145 78 79 233 231 0 0 -17 82 0 16
4 167 154 79 145 176 0 170 +14 319 380 14 ?308 317 318 5 320 +0 0 308 317 25 81
 1 14 557 12 319 321 0 2 322 323 14 308 392 324 ?310 319 305 5 325 -0 0 310 319
 25 14 317 382 326 ?319 17 316 5 327 +0 0 319 17 25 51 255 320 401 0 319 328 327
 0 -.194894970987737 .01778 .00254 0 0 -1 .003175 -1 0 0 13 25 160 0 0 0 0 0 0 9
 17 14 17 384 322 ?317 0 173 5 329 +0 0 317 0 25 81 1 322 558 12 17 330 0 14 331
 332 51 329 403 0 17 327 333 0 -.1735134819865225 .00762 .00254 0 0 -1 .003175 -
1 0 0 50 327 402 0 317 320 329 0 +.182841556074337 .0155677089019109 .00254 .429
187531588348 -.903215402176635 0 .903215402176635 .429187531588348 0 50 333 404
 0 303 329 334 0 +.01763310310007705 .0098322910980892 .00254 .429187531588347 .
903215402176636 0 -.903215402176636 .429187531588347 0 14 303 386 335 ?265 271 3
01 5 333 +0 0 265 271 25 51 334 405 0 299 333 336 0 +.02968651801347735 .00762 .
00254 0 0 -1 .003175 -1 0 0 14 299 388 337 ?19 310 298 5 334 -0 0 19 310 25 50 3
36 406 0 310 334 325 0 +.0203584439256631 .01556770890191085 .00254 .42918753158
8347 .903215402176636 0 -.903215402176636 .429187531588347 0 14 310 390 338 ?299
 308 309 5 336 -0 0 299 308 25 51 325 407 0 308 336 339 0 +.00830502901226282 .0
1778 .00254 0 0 -1 .003175 -1 0 0 50 339 408 0 265 325 20 0 +.0508 .0254 .00254
 0 1 0 0 0 1 14 265 394 340 ?169 303 101 5 339 +0 0 169 303 25 50 20 409 0 272 3
39 6 0 +.0508 0 .00254 0 1 0 0 0 1 14 272 396 341 ?271 19 92 5 20 -0 0 271 19 25
 81 1 341 570 12 272 342 0 312 195 343 14 271 376 344 ?303 272 270 5 345 -0 0 30
3 272 25 14 19 398 346 ?272 299 112 5 6 +0 0 272 299 25 81 1 346 566 12 19 347 0
 344 340 348 80 255 1 12 349 350 9000 0 0 0 0 3 5 0 0 0 FFTFTFTTFFFFFF3 81 1 347
 548 351 19 352 346 353 342 354 81 1 344 565 12 271 355 0 324 346 356 81 1 340 5
67 12 265 357 0 346 358 359 84 255 3 348 JHS81 1 357 552 351 265 360 340 361 362
 363 81 1 358 568 12 157 364 0 340 312 365 84 3 359 JHO14 157 1 358 ?268 169 38
 5 366 +0 0 268 169 25 81 1 364 554 351 157 367 358 362 368 369 81 1 312 569 12
 268 368 0 358 341 370 84 3 365 JHK81 1 368 555 351 268 371 312 364 0 372 84 3 3
70 JHG80 1 351 0 373 8001 0 0 0 0 3 5 0 0 0 FFFFTFTFFFFFFF2 81 1 371 525 349 268
 0 368 374 367 375 83 255 3 372 .615686274509804 .811764705882353 .9294117647058
82 80 1 349 376 377 9000 0 0 0 0 3 6 0 0 0 FFTFTFTTFFFFFF1 81 1 374 524 349 272
 0 342 378 371 379 81 1 367 526 349 157 0 364 371 360 380 82 255 3 375 6 1 2 81
 1 360 527 349 265 0 357 367 352 381 82 3 380 6 2 2 81 1 352 528 349 19 0 347 36
0 382 383 82 3 381 6 3 2 81 1 382 529 349 271 0 355 352 384 385 82 3 383 6 4 2 8
1 1 355 550 351 271 382 344 342 361 386 81 1 384 530 349 308 0 387 382 388 389 8
2 3 385 6 5 2 81 1 387 545 351 308 384 324 321 390 391 81 1 388 531 349 299 0 35
3 384 392 393 82 3 389 6 6 2 81 1 353 547 351 299 388 337 390 347 394 81 1 392 5
32 349 310 0 390 388 395 396 82 3 393 6 7 2 81 1 390 546 351 310 392 338 387 353
 397 81 1 395 533 349 303 0 361 392 398 399 82 3 396 6 8 2 81 1 361 551 351 303
 395 335 355 357 400 81 1 398 534 349 317 0 401 395 402 403 82 3 399 6 9 2 81 1
 401 543 351 317 398 326 330 321 404 81 1 402 535 349 169 0 362 398 405 406 82 3
 403 6 10 2 14 169 378 331 ?157 265 164 5 328 -0 0 157 265 25 81 1 362 553 351 1
69 402 331 357 364 407 81 1 405 536 349 17 0 330 402 408 409 82 3 406 6 11 2 81
 1 330 542 351 17 405 322 0 401 410 81 1 408 537 349 319 0 321 405 411 412 82 3
 409 6 12 2 81 1 321 544 351 319 408 14 401 387 413 81 1 411 538 349 1 0 414 408
 0 415 82 3 412 6 13 2 81 1 414 539 416 1 411 417 0 0 418 82 3 415 6 0 3 80 1 41
6 419 420 8038 0 0 0 0 0 0 0 0 0 TTTTTTTTTTTTTF10 81 1 417 540 419 1 414 13 0 0
 421 98 255 6 418 80 97 114 116 32 49 80 1 419 422 423 8017 0 0 0 0 0 0 0 0 0 TT
TTTTTTTTTTTF3 81 1 13 541 424 1 417 2 0 0 425 84 6 421 Part 180 1 424 351 426 80
40 0 0 0 0 3 5 0 0 0 TTTFFFFFFFFFFF2 83 3 425 .615686274509804 .811764705882353
 .929411764705882 79 255 17 426 SDL/TYSA_COLOUR_279 13 423 SDL/TYSA_NAME79 14 42
0 SDL/TYSA_UNAME83 3 413 .615686274509804 .811764705882353 .929411764705882 83 3
 410 .615686274509804 .811764705882353 .929411764705882 81 1 331 559 12 169 362
 0 322 326 427 83 3 407 .615686274509804 .811764705882353 .929411764705882 81 1
 326 560 12 317 401 0 331 335 428 84 3 427 JHu81 1 335 561 12 303 361 0 326 338
 429 84 3 428 JHq81 1 338 562 12 310 390 0 335 337 430 84 3 429 JHm81 1 337 563
 12 299 353 0 338 324 431 84 3 430 JHi81 1 324 564 12 308 387 0 337 344 432 84 3
 431 JHe84 3 432 JHa50 328 400 0 169 345 320 0 +.185566896899923 .00983229109808
928 .00254 .429187531588348 -.903215402176635 0 .903215402176635 .42918753158834
8 0 50 345 399 0 271 313 328 0 +.2032 .0127 .00254 -1 0 0 0 0 1 50 313 338 0 268
 366 345 0 +.1016 .0127 0 0 0 1 1 0 0 50 366 3 0 157 0 313 0 +.1016 .0127 .00254
 0 0 1 1 0 0 83 3 404 .615686274509804 .811764705882353 .929411764705882 83 3 40
0 .615686274509804 .811764705882353 .929411764705882 83 3 397 .615686274509804 .
811764705882353 .929411764705882 83 3 394 .615686274509804 .811764705882353 .929
411764705882 83 3 391 .615686274509804 .811764705882353 .929411764705882 81 1 34
2 549 351 272 374 341 347 355 433 83 3 386 .615686274509804 .811764705882353 .92
9411764705882 83 3 433 .615686274509804 .811764705882353 .929411764705882 81 1 3
78 523 349 163 0 195 434 374 435 82 3 379 6 0 2 81 1 195 571 12 163 378 0 341 18
4 436 81 1 434 522 349 231 0 184 183 378 437 82 3 435 6 35 1 81 1 184 572 12 231
 434 0 195 179 438 81 1 183 521 349 160 0 179 439 434 440 82 3 437 6 34 1 81 1 4
39 520 349 225 0 185 441 183 442 82 3 440 6 33 1 81 1 185 574 12 225 439 0 179 1
65 443 81 1 441 519 349 155 0 165 444 439 445 82 3 442 6 32 1 81 1 165 575 12 15
5 441 0 185 235 446 81 1 444 518 349 171 0 235 447 441 448 82 3 445 6 31 1 81 1
 235 576 12 171 444 0 165 187 449 81 1 447 517 349 180 0 187 450 444 451 82 3 44
8 6 30 1 81 1 187 577 12 180 447 0 235 229 452 81 1 450 516 349 227 0 229 453 44
7 454 82 3 451 6 29 1 81 1 229 578 12 227 450 0 187 189 455 81 1 453 515 349 181
 0 189 456 450 457 82 3 454 6 28 1 81 1 189 579 12 181 453 0 229 223 458 81 1 45
6 514 349 221 0 223 459 453 460 82 3 457 6 27 1 81 1 223 580 12 221 456 0 189 29
0 461 81 1 459 513 349 289 0 290 462 456 463 82 3 460 6 26 1 81 1 290 581 12 289
 459 0 223 216 464 81 1 462 512 349 214 0 216 292 459 465 82 3 463 6 25 1 81 1 2
16 582 12 214 462 0 290 291 466 81 1 292 511 349 191 0 291 467 462 468 82 3 465
 6 24 1 81 1 467 510 349 217 0 219 469 292 470 82 3 468 6 23 1 81 1 219 584 12 2
17 467 0 291 287 471 81 1 469 509 349 285 0 287 472 467 473 82 3 470 6 22 1 81 1
 287 585 12 285 469 0 219 212 474 81 1 472 508 349 210 0 212 475 469 476 82 3 47
3 6 21 1 81 1 212 586 12 210 472 0 287 198 477 81 1 475 507 349 42 0 198 478 472
 479 82 3 476 6 20 1 81 1 198 587 12 42 475 0 212 238 480 81 1 478 506 349 236 0
 238 280 475 481 82 3 479 6 19 1 81 1 238 588 12 236 478 0 198 278 482 81 1 280
 505 349 239 0 278 483 478 484 82 3 481 6 18 1 81 1 483 504 349 200 0 202 485 28
0 486 82 3 484 6 17 1 81 1 202 590 12 200 483 0 278 284 487 81 1 485 503 349 275
 0 284 488 483 489 82 3 486 6 16 1 81 1 284 591 12 275 485 0 202 208 490 81 1 48
8 502 349 206 0 208 491 485 492 82 3 489 6 15 1 81 1 208 592 12 206 488 0 284 27
4 493 81 1 491 501 349 273 0 274 494 488 495 82 3 492 6 14 1 81 1 274 593 12 273
 491 0 208 205 496 81 1 494 500 349 95 0 205 497 491 498 82 3 495 6 13 1 81 1 20
5 594 12 95 494 0 274 175 499 81 1 497 499 349 168 0 175 500 494 501 82 3 498 6
 12 1 81 1 175 595 12 168 497 0 205 246 502 81 1 500 498 349 176 0 246 503 497 5
04 82 3 501 6 11 1 81 1 246 596 12 176 500 0 175 26 505 81 1 503 497 349 10 0 26
 506 500 507 82 3 504 6 10 1 81 1 26 597 12 10 503 0 246 247 508 81 1 506 496 34
9 28 0 247 509 503 510 82 3 507 6 9 1 81 1 247 598 12 28 506 0 26 254 511 81 1 5
09 495 349 252 0 254 512 506 513 82 3 510 6 8 1 81 1 254 599 12 252 509 0 247 25
7 514 81 1 512 494 349 255 0 257 515 509 516 82 3 513 6 7 1 81 1 257 600 12 255
 512 0 254 259 517 81 1 515 493 349 177 0 259 518 512 519 82 3 516 6 6 1 81 1 25
9 601 12 177 515 0 257 251 520 81 1 518 492 349 249 0 251 521 515 522 82 3 519 6
 5 1 81 1 251 602 12 249 518 0 259 241 523 81 1 521 491 349 104 0 241 524 518 52
5 82 3 522 6 4 1 81 1 241 603 12 104 521 0 251 243 526 81 1 524 490 349 242 0 24
3 262 521 527 82 3 525 6 3 1 81 1 243 604 12 242 524 0 241 261 528 81 1 262 489
 349 199 0 261 529 524 530 82 3 527 6 2 1 81 1 529 488 349 21 0 149 148 262 531
 82 3 530 6 1 1 16 21 374 149 ?52 249 242 7 0 0 1 81 1 149 606 12 21 529 0 261 1
46 532 81 1 148 487 349 45 0 146 533 529 534 82 3 531 6 0 1 81 1 533 486 349 83
 0 84 535 148 536 82 3 534 6 23 0 81 1 84 608 12 83 533 0 146 144 537 81 1 535 4
85 349 143 0 144 538 533 539 82 3 536 6 22 0 81 1 144 609 12 143 535 0 84 81 540
 81 1 538 484 349 79 0 81 541 535 542 82 3 539 6 21 0 81 1 81 610 12 79 538 0 14
4 137 543 81 1 541 483 349 135 0 137 544 538 545 82 3 542 6 20 0 81 1 137 611 12
 135 541 0 81 74 546 81 1 544 482 349 72 0 74 547 541 548 82 3 545 6 19 0 81 1 7
4 612 12 72 544 0 137 141 549 81 1 547 481 349 139 0 141 550 544 551 82 3 548 6
 18 0 81 1 141 613 12 139 547 0 74 77 552 81 1 550 480 349 75 0 77 553 547 554 8
2 3 551 6 17 0 81 1 77 614 12 75 550 0 141 129 555 81 1 553 479 349 127 0 129 55
6 550 557 82 3 554 6 16 0 81 1 129 615 12 127 553 0 77 67 558 81 1 556 478 349 6
5 0 67 559 553 560 82 3 557 6 15 0 81 1 67 616 12 65 556 0 129 125 561 81 1 559
 477 349 123 0 125 562 556 563 82 3 560 6 14 0 81 1 125 617 12 123 559 0 67 63 5
64 81 1 562 476 349 61 0 63 565 559 566 82 3 563 6 13 0 81 1 63 618 12 61 562 0
 125 121 567 81 1 565 475 349 117 0 121 568 562 569 82 3 566 6 12 0 81 1 121 619
 12 117 565 0 63 59 570 81 1 568 474 349 57 0 59 571 565 572 82 3 569 6 11 0 81
 1 59 620 12 57 568 0 121 133 573 81 1 571 473 349 131 0 133 574 568 575 82 3 57
2 6 10 0 81 1 133 621 12 131 571 0 59 35 576 81 1 574 472 349 69 0 35 34 571 577
 82 3 575 6 9 0 81 1 35 622 12 69 574 0 133 30 578 81 1 34 471 349 11 0 30 99 57
4 579 82 3 577 6 8 0 81 1 99 470 349 23 0 36 580 34 581 82 3 579 6 7 0 81 1 580
 469 349 32 0 44 89 99 582 82 3 581 6 6 0 81 1 44 625 12 32 580 0 36 87 583 81 1
 89 468 349 86 0 87 584 580 585 82 3 582 6 5 0 81 1 584 467 349 108 0 90 586 89
 587 82 3 585 6 4 0 81 1 90 627 12 108 584 0 87 55 588 81 1 586 466 349 53 0 55
 110 584 589 82 3 587 6 3 0 81 1 55 628 12 53 586 0 90 106 590 81 1 110 465 349
 98 0 106 591 586 592 82 3 589 6 2 0 81 1 591 464 349 49 0 51 0 110 593 82 3 592
 6 1 0 81 1 51 630 12 49 591 0 106 0 594 82 3 593 6 0 0 84 2 594 IH84 3 590 JHI8
4 3 588 JHM84 3 583 JHU84 3 578 JHg84 3 576 JHk84 3 573 JHo84 3 570 JHs84 3 567
 JHw84 3 564 JH084 3 561 JH484 3 558 JH884 4 555 KHAB84 4 552 KHEB84 4 549 KHIB8
4 4 546 KHMB84 4 543 KHQB84 4 540 KHUB84 4 537 KHYB84 3 532 JHB84 3 528 JHJ84 3
 526 JHN84 3 523 JHR84 3 520 JHV84 3 517 JHZ84 3 514 JHd84 3 511 JHh84 3 508 JHl
84 3 505 JHp84 3 502 JHt84 3 499 JHx84 3 496 JH184 3 493 JH584 3 490 JH984 4 487
 KHBB84 4 482 KHJB84 4 480 KHNB84 4 477 KHRB84 4 474 KHVB84 4 471 KHZB84 4 466 K
HhB84 4 464 KHlB84 4 461 KHpB84 4 458 KHtB84 4 455 KHxB84 4 452 KH1B84 4 449 KH5
B84 4 446 KH9B84 4 443 KHBC84 4 438 KHJC84 4 436 KHNC79 9 377 BTI/DetId79 15 373
 SDL/TYSA_COLOUR83 3 369 .615686274509804 .811764705882353 .929411764705882 83 3
 363 .615686274509804 .811764705882353 .929411764705882 84 3 356 JHW83 3 354 .61
5686274509804 .811764705882353 .929411764705882 79 12 350 BTI/ExportId84 3 343 J
HC84 3 332 JHy84 3 323 JH284 4 293 KHdB17 103 0 101 97 116 11 39 275 0 0 +84 4 2
81 KHFB84 3 263 JHF84 4 186 KHFC84 4 150 KHcB84 3 111 JHE84 3 100 JHY84 3 91 JHQ
84 3 37 JHc19 18 424 0 1 0 9 5 S0 74 4 CI16 index_map_offset0 0 1 dCCZ20 16 6 0
 0 411 414 417 13 368 51 0 0 0 0 0 0 0 0 0 0 0 0 0 0 84 3 15 JHD1 0 
