**ABCDEFGHIJKLMNOPQRSTUVWXYZabcdefghijklmnopqrstuvwxyz**************************
**PARASOLID !"#$%&'()*+,-./:;<=>?@[\]^_`{|}~0123456789**************************
**PART1;
MC=unknown;
MC_MODEL=unknown;
MC_ID=unknown;
OS=unknown;
OS_RELEASE=unknown;
FRU=Parasolid 32.0.170;
APPL=Onshape;
SITE=unknown;
USER=unknown;
FORMAT=text;
GUISE=transmit;
KEY=BTGapi::writeModels_.xmt;
FILE=BTGapi::writeModels_.xmt;
DATE=2019-12-04T09:03:42 (UTC);
**PART2;
SCH=SCH_3200170_32001;
USFLD_SIZE=0;
**PART3;
**END_OF_HEADER*****************************************************************
T51 : TRANSMIT FILE created by modeller version 320017023 SCH_3200170_32001_1300
6227 0 12 34 CCCCCCI4 mesh1006 0 I8 polyline1008 0 CCCCCCCDI5 owner1040 0 CCCCCC
I13 boundary_mesh1006 0 I17 boundary_polyline1008 0 CCCA16 index_map_offset0 0 1
 dA9 index_map82 0 A17 node_id_index_map82 0 A20 schema_embedding_map82 0 A5 chi
ld12 0 A14 lowest_node_id0 0 1 dA16 mesh_offset_data206 0 Z1 881 2 3 0 0 0 0 0 0
 1e3 1e-8 0 4 0 1 0 1 1 5 6 7 8 0 0 9 10 11 0 0 0 0 0 0 0 81 255 1 2 812 12 1 13
 0 14 15 16 70 11 CI9 list_type0 0 1 uI10 notransmit0 0 1 lCCCDCCDI12 finger_ind
ex0 0 1 dI12 finger_block1012 0 CZ3 0 4 T1 0 0 7 20 1 17 17 13 255 5 551 0 1 0 1
8 0 0 19 0 50 255 6 738 20 21 22 0 0 +.0633718529082948 -.0508 .00508 -.34202014
3325669 -.939692620785908 0 0 0 1 30 255 7 717 0 10 23 0 0 +-.00891370671716695
 -.02449020792905715 .00508 .939692620785909 -.342020143325669 0 29 255 8 709 0
 11 24 0 -.0762 919225330796264e-33 .00508 19 8 CCCCCCCA5 owner12 0 Z9 156 0 1 1
9 0 25 V0 16 255 10 715 26 ?27 0 28 7 0 0 1 18 255 11 706 29 30 0 31 8 ?1 81 1 2
9 808 12 11 32 0 33 34 35 17 255 30 0 36 37 38 11 39 28 0 40 +18 31 697 41 42 11
 43 24 ?1 81 1 41 810 12 31 44 0 34 14 45 17 42 0 46 47 48 31 49 50 0 38 +18 43
 688 34 27 31 51 52 ?1 29 24 700 0 31 52 8 -.0762 919225330796264e-33 0 29 52 69
1 0 43 53 24 .0633718529082948 -.0508 .00508 29 53 687 0 51 54 52 .0633718529082
948 -.0508 0 18 51 684 14 49 43 55 53 ?1 29 54 437 0 56 57 53 .0762 -.0508 0 18
 56 398 58 59 60 61 54 ?1 29 57 439 0 61 62 54 -.0762 .0508 0 18 61 406 63 64 56
 65 57 ?1 29 62 440 0 65 66 57 .0762 .0508 0 18 65 410 67 68 61 0 62 ?1 29 66 15
2 0 55 69 62 .0762 -.0508 .00508 18 55 150 70 71 51 72 66 ?1 29 69 142 0 72 73 6
6 -.0762 .0508 .00508 18 72 140 74 75 55 60 69 ?1 29 73 137 0 60 0 69 .0762 .050
8 .00508 18 60 135 76 77 72 56 73 ?1 81 1 76 880 12 60 78 0 63 67 79 17 77 0 80
 81 82 60 68 83 0 84 -15 255 80 523 0 82 18 0 17 81 0 80 59 77 55 85 86 0 87 +17
 82 0 80 77 59 65 88 89 0 0 -17 68 0 90 64 84 65 77 83 0 91 +16 83 444 92 ?68 93
 94 95 0 0 1 17 84 0 90 68 96 60 75 97 0 85 -15 90 521 0 64 98 0 17 96 0 90 84 6
4 72 99 94 0 37 -17 75 0 100 40 85 72 84 97 0 96 +16 97 30 101 ?75 102 86 103 0
 0 1 17 85 0 100 75 87 60 81 86 0 0 -15 100 6 0 40 104 105 17 87 0 100 85 27 55
 106 107 0 0 -16 86 25 108 ?81 97 109 110 0 0 1 81 1 108 869 12 86 111 0 112 113
 114 16 109 310 115 ?116 86 117 118 0 0 1 30 110 27 0 86 0 103 0 +.0762 -6938893
90390723e-32 .00508 0 -1 0 30 103 32 0 97 110 119 0 +-1387778780781446e-32 .0508
 .00508 -1 0 0 30 119 37 0 102 103 120 0 +-.0762 -693889390390723e-32 .00508 0 -
1 0 16 102 35 121 ?40 107 97 119 0 0 1 30 120 42 0 107 119 122 0 +-1387778780781
446e-32 -.0508 .00508 -1 0 0 16 107 40 123 ?106 124 102 120 0 0 1 31 255 122 47
 0 124 120 125 0 +.0676916316151619 .0402429662644863 .00508 0 0 1 1 0 0 .00254
 16 124 45 126 ?127 128 107 122 0 0 1 31 125 52 0 128 122 129 0 +.06769163161516
19 .0313529662644863 .00508 0 0 1 1 0 0 .00254 16 128 50 130 ?131 132 124 125 0
 0 1 31 129 57 0 132 125 133 0 +.0549916316151619 .0402429662644863 .00508 0 0 1
 1 0 0 .00254 16 132 55 134 ?135 136 128 129 0 0 1 31 133 62 0 136 129 137 0 +.0
549916316151619 .0313529662644863 .00508 0 0 1 1 0 0 .00254 16 136 60 138 ?139 1
40 132 133 0 0 1 31 137 67 0 140 133 141 0 +.0676916316151619 .0224629662644863
 .00508 0 0 1 1 0 0 .00254 16 140 65 142 ?143 144 136 137 0 0 1 31 141 72 0 144
 137 145 0 +.0676916316151619 .0135729662644863 .00508 0 0 1 1 0 0 .00254 16 144
 70 146 ?147 148 140 141 0 0 1 31 145 77 0 148 141 149 0 +.0676916316151619 .004
68296626448631 .00508 0 0 1 1 0 0 .00254 16 148 75 150 ?151 152 144 145 0 0 1 31
 149 82 0 152 145 153 0 +.0676916316151619 -.0042070337355137 .00508 0 0 1 1 0 0
 .00254 16 152 80 154 ?155 156 148 149 0 0 1 31 153 87 0 156 149 157 0 +.0676916
316151619 -.0130970337355137 .00508 0 0 1 1 0 0 .00254 16 156 85 158 ?159 160 15
2 153 0 0 1 31 157 92 0 160 153 161 0 +.0676916316151619 -.0219870337355137 .005
08 0 0 1 1 0 0 .00254 16 160 90 162 ?163 164 156 157 0 0 1 31 161 97 0 164 157 1
65 0 +.0549916316151619 .0224629662644863 .00508 0 0 1 1 0 0 .00254 16 164 95 16
6 ?167 168 160 161 0 0 1 31 165 102 0 168 161 169 0 +.0549916316151619 .01357296
62644863 .00508 0 0 1 1 0 0 .00254 16 168 100 170 ?171 172 164 165 0 0 1 31 169
 107 0 172 165 173 0 +.0549916316151619 .00468296626448631 .00508 0 0 1 1 0 0 .0
0254 16 172 105 174 ?175 176 168 169 0 0 1 31 173 112 0 176 169 177 0 +.05499163
16151619 -.0042070337355137 .00508 0 0 1 1 0 0 .00254 16 176 110 178 ?179 180 17
2 173 0 0 1 31 177 117 0 180 173 181 0 +.0549916316151619 -.0130970337355137 .00
508 0 0 1 1 0 0 .00254 16 180 115 182 ?183 184 176 177 0 0 1 31 181 122 0 184 17
7 185 0 +.0549916316151619 -.0219870337355137 .00508 0 0 1 1 0 0 .00254 16 184 1
20 186 ?187 188 180 181 0 0 1 31 185 127 0 188 181 189 0 +-.06858 .04318 .00508
 0 0 1 1 0 0 .00381 16 188 125 190 ?191 192 184 185 0 0 1 31 189 132 0 192 185 1
93 0 +-.06858 .03048 .00508 0 0 1 1 0 0 .00381 16 192 130 194 ?195 196 188 189 0
 0 1 30 193 436 0 89 189 197 0 +.0762 -693889390390723e-32 0 0 -1 0 16 89 394 11
3 ?88 198 0 193 0 0 1 30 197 435 0 198 193 199 0 +-1387778780781446e-32 .0508 0
 -1 0 0 16 198 390 200 ?64 201 89 197 0 0 1 30 199 434 0 201 197 202 0 +-.0762 -
693889390390723e-32 0 0 -1 0 16 201 386 203 ?38 204 198 199 0 0 1 30 202 433 0 2
04 199 205 0 +-1387778780781446e-32 -.0508 0 -1 0 0 16 204 382 206 ?48 207 201 2
02 0 0 1 31 205 432 0 207 202 208 0 +.0676916316151619 .0402429662644863 0 0 0 1
 1 0 0 .00254 16 207 378 112 ?209 210 204 205 0 0 1 31 208 431 0 210 205 211 0 +
.0676916316151619 .0313529662644863 0 0 0 1 1 0 0 .00254 16 210 374 212 ?213 214
 207 208 0 0 1 31 211 430 0 214 208 215 0 +.0549916316151619 .0402429662644863 0
 0 0 1 1 0 0 .00254 16 214 370 216 ?217 218 210 211 0 0 1 31 215 429 0 218 211 2
19 0 +.0549916316151619 .0313529662644863 0 0 0 1 1 0 0 .00254 16 218 366 220 ?2
21 222 214 215 0 0 1 31 219 428 0 222 215 223 0 +.0676916316151619 .022462966264
4863 0 0 0 1 1 0 0 .00254 16 222 362 224 ?225 226 218 219 0 0 1 31 223 427 0 226
 219 227 0 +.0676916316151619 .0135729662644863 0 0 0 1 1 0 0 .00254 16 226 358
 228 ?229 230 222 223 0 0 1 31 227 426 0 230 223 231 0 +.0676916316151619 .00468
296626448631 0 0 0 1 1 0 0 .00254 16 230 354 232 ?233 234 226 227 0 0 1 31 231 4
25 0 234 227 235 0 +.0676916316151619 -.0042070337355137 0 0 0 1 1 0 0 .00254 16
 234 350 236 ?237 238 230 231 0 0 1 31 235 424 0 238 231 239 0 +.067691631615161
9 -.0130970337355137 0 0 0 1 1 0 0 .00254 16 238 346 240 ?241 242 234 235 0 0 1
 31 239 423 0 242 235 243 0 +.0676916316151619 -.0219870337355137 0 0 0 1 1 0 0
 .00254 16 242 342 244 ?245 246 238 239 0 0 1 31 243 422 0 246 239 247 0 +.05499
16316151619 .0224629662644863 0 0 0 1 1 0 0 .00254 16 246 338 248 ?249 250 242 2
43 0 0 1 31 247 421 0 250 243 251 0 +.0549916316151619 .0135729662644863 0 0 0 1
 1 0 0 .00254 16 250 334 252 ?253 254 246 247 0 0 1 31 251 420 0 254 247 255 0 +
.0549916316151619 .00468296626448631 0 0 0 1 1 0 0 .00254 16 254 330 256 ?257 25
8 250 251 0 0 1 31 255 419 0 258 251 259 0 +.0549916316151619 -.0042070337355137
 0 0 0 1 1 0 0 .00254 16 258 326 260 ?261 262 254 255 0 0 1 31 259 418 0 262 255
 263 0 +.0549916316151619 -.0130970337355137 0 0 0 1 1 0 0 .00254 16 262 322 264
 ?265 266 258 259 0 0 1 31 263 417 0 266 259 267 0 +.0549916316151619 -.02198703
37355137 0 0 0 1 1 0 0 .00254 16 266 318 268 ?269 117 262 263 0 0 1 31 267 416 0
 117 263 118 0 +-.06858 .04318 0 0 0 1 1 0 0 .00381 16 117 314 270 ?271 109 266
 267 0 0 1 31 118 415 0 109 267 272 0 +-.06858 .03048 0 0 0 1 1 0 0 .00381 30 27
2 547 0 196 118 273 0 +.0762 -.0508 .00508 0 0 -1 16 196 441 274 ?59 94 192 272
 0 0 1 30 273 549 0 94 272 95 0 +-.0762 .0508 .00508 0 0 -1 16 94 443 275 ?99 83
 196 273 0 0 1 30 95 550 0 83 273 276 0 +.0762 .0508 .00508 0 0 -1 30 276 694 0
 93 95 277 0 +.0633718529082948 -.0508 0 0 0 -1 16 93 692 278 ?279 50 83 276 0 0
 1 30 277 703 0 50 276 23 0 +.0633718529082948 -.0508 0 -.939692620785909 .34202
0143325669 0 16 50 701 33 ?42 28 93 277 0 0 1 30 23 712 0 28 277 7 0 +-.0762 919
225330796264e-33 .00508 0 0 1 16 28 710 280 ?30 10 50 23 0 0 1 81 1 280 804 12 2
8 281 0 206 278 282 80 255 1 12 283 284 9000 0 0 0 0 3 5 0 0 0 FFTFTFTTFFFFFF3 8
1 1 281 757 283 28 0 280 285 286 287 81 1 206 803 12 204 286 0 123 280 288 81 1
 278 805 12 93 285 0 280 26 289 84 255 3 282 JIN81 1 285 756 283 93 0 278 290 28
1 291 81 1 26 806 12 10 290 0 278 33 292 84 3 289 JIJ81 1 290 755 283 10 0 26 29
3 285 294 81 1 33 807 12 50 293 0 26 29 295 84 3 292 JIF81 1 293 754 283 50 0 33
 32 290 296 84 3 295 JIB80 1 283 297 298 9000 0 0 0 0 3 6 0 0 0 FFTFTFTTFFFFFF1
 81 1 32 753 283 11 0 29 299 293 300 82 255 3 296 7 0 1 81 1 299 752 283 43 0 34
 44 32 301 82 3 300 7 3 0 81 1 34 809 12 43 299 0 29 41 302 81 1 44 751 283 31 0
 41 303 299 304 82 3 301 7 2 0 81 1 303 750 283 51 0 14 305 44 306 82 3 304 7 1
 0 81 1 14 811 12 51 303 0 41 2 307 81 1 305 682 283 1 0 308 309 303 310 82 3 30
6 7 0 0 81 1 308 767 311 1 305 312 0 0 313 81 1 309 681 283 314 0 315 316 305 31
7 82 3 310 6 0 3 14 255 314 446 15 ?104 318 319 5 320 +0 0 104 318 25 81 1 315 7
91 321 314 309 15 322 323 324 81 1 316 680 283 325 0 326 327 309 328 82 3 317 6
 23 2 14 325 450 329 ?330 331 332 5 333 +0 0 330 331 25 81 1 326 773 321 325 316
 329 334 335 336 81 1 327 679 283 330 0 335 337 316 338 82 3 328 6 22 2 14 330 4
54 339 ?340 325 341 5 342 +0 0 340 325 25 81 1 335 774 321 330 327 339 326 343 3
44 81 1 337 678 283 340 0 343 345 327 346 82 3 338 6 21 2 14 340 458 347 ?348 33
0 349 5 350 +0 0 348 330 25 81 1 343 775 321 340 337 347 335 351 352 81 1 345 67
7 283 348 0 351 353 337 354 82 3 346 6 20 2 14 348 462 355 ?356 340 357 5 358 +0
 0 356 340 25 81 1 351 776 321 348 345 355 343 359 360 81 1 353 676 283 356 0 35
9 361 345 362 82 3 354 6 19 2 14 356 466 363 ?364 348 365 5 366 +0 0 364 348 25
 81 1 359 777 321 356 353 363 351 367 368 81 1 361 675 283 364 0 367 369 353 370
 82 3 362 6 18 2 14 364 470 371 ?372 356 373 5 374 +0 0 372 356 25 81 1 367 778
 321 364 361 371 359 375 376 81 1 369 674 283 372 0 375 377 361 378 82 3 370 6 1
7 2 14 372 474 379 ?380 364 381 5 382 +0 0 380 364 25 81 1 375 779 321 372 369 3
79 367 383 384 81 1 377 673 283 380 0 383 385 369 386 82 3 378 6 16 2 14 380 478
 387 ?388 372 389 5 390 +0 0 388 372 25 81 1 383 780 321 380 377 387 375 391 392
 81 1 385 672 283 388 0 391 393 377 394 82 3 386 6 15 2 14 388 482 395 ?396 380
 397 5 398 +0 0 396 380 25 81 1 391 781 321 388 385 395 383 399 400 81 1 393 671
 283 396 0 399 401 385 402 82 3 394 6 14 2 14 396 486 403 ?404 388 405 5 406 +0
 0 404 388 25 81 1 399 782 321 396 393 403 391 407 408 81 1 401 670 283 404 0 40
7 409 393 410 82 3 402 6 13 2 14 404 490 411 ?412 396 413 5 414 +0 0 412 396 25
 81 1 407 783 321 404 401 411 399 415 416 81 1 409 669 283 412 0 415 417 401 418
 82 3 410 6 12 2 14 412 494 419 ?420 404 421 5 422 +0 0 420 404 25 81 1 415 784
 321 412 409 419 407 423 424 81 1 417 668 283 420 0 423 425 409 426 82 3 418 6 1
1 2 14 420 498 427 ?428 412 429 5 430 +0 0 428 412 25 81 1 423 785 321 420 417 4
27 415 431 432 81 1 425 667 283 428 0 431 433 417 434 82 3 426 6 10 2 14 428 502
 435 ?436 420 437 5 438 +0 0 436 420 25 81 1 431 786 321 428 425 435 423 439 440
 81 1 433 666 283 436 0 439 441 425 442 82 3 434 6 9 2 14 436 506 443 ?444 428 4
45 5 446 +0 0 444 428 25 81 1 439 787 321 436 433 443 431 447 448 81 1 441 665 2
83 444 0 447 449 433 450 82 3 442 6 8 2 14 444 510 451 ?452 436 453 5 454 +0 0 4
52 436 25 81 1 447 788 321 444 441 451 439 455 456 81 1 449 664 283 452 0 455 45
7 441 458 82 3 450 6 7 2 14 452 514 459 ?318 444 460 5 461 +0 0 318 444 25 81 1
 455 789 321 452 449 459 447 322 462 81 1 457 662 283 18 0 463 464 449 465 82 3
 458 6 6 2 14 18 524 466 ?98 0 80 5 22 +0 0 98 0 25 81 1 463 770 321 18 457 466
 0 467 468 81 1 464 658 283 98 0 467 469 457 470 82 3 465 6 4 2 14 98 522 471 ?3
31 18 90 5 472 -0 0 331 18 25 81 1 467 771 321 98 464 471 463 334 473 81 1 469 6
57 283 192 0 194 474 464 475 82 3 470 6 0 2 81 1 194 833 12 192 469 0 471 115 47
6 81 1 474 656 283 109 0 115 477 469 478 82 3 475 6 47 1 81 1 115 834 12 109 474
 0 194 190 479 81 1 477 655 283 188 0 190 480 474 481 82 3 478 6 46 1 81 1 190 8
35 12 188 477 0 115 270 482 81 1 480 654 283 117 0 270 483 477 484 82 3 481 6 45
 1 81 1 270 836 12 117 480 0 190 186 485 81 1 483 653 283 184 0 186 486 480 487
 82 3 484 6 44 1 81 1 186 837 12 184 483 0 270 268 488 81 1 486 652 283 266 0 26
8 489 483 490 82 3 487 6 43 1 81 1 268 838 12 266 486 0 186 182 491 81 1 489 651
 283 180 0 182 492 486 493 82 3 490 6 42 1 81 1 182 839 12 180 489 0 268 264 494
 81 1 492 650 283 262 0 264 495 489 496 82 3 493 6 41 1 81 1 264 840 12 262 492
 0 182 178 497 81 1 495 649 283 176 0 178 498 492 499 82 3 496 6 40 1 81 1 178 8
41 12 176 495 0 264 260 500 81 1 498 648 283 258 0 260 501 495 502 82 3 499 6 39
 1 81 1 260 842 12 258 498 0 178 174 503 81 1 501 647 283 172 0 174 504 498 505
 82 3 502 6 38 1 81 1 174 843 12 172 501 0 260 256 506 81 1 504 646 283 254 0 25
6 507 501 508 82 3 505 6 37 1 81 1 256 844 12 254 504 0 174 170 509 81 1 507 645
 283 168 0 170 510 504 511 82 3 508 6 36 1 81 1 170 845 12 168 507 0 256 252 512
 81 1 510 644 283 250 0 252 513 507 514 82 3 511 6 35 1 81 1 252 846 12 250 510
 0 170 166 515 81 1 513 643 283 164 0 166 516 510 517 82 3 514 6 34 1 81 1 166 8
47 12 164 513 0 252 248 518 81 1 516 642 283 246 0 248 519 513 520 82 3 517 6 33
 1 81 1 248 848 12 246 516 0 166 162 521 81 1 519 641 283 160 0 162 522 516 523
 82 3 520 6 32 1 81 1 162 849 12 160 519 0 248 244 524 81 1 522 640 283 242 0 24
4 525 519 526 82 3 523 6 31 1 81 1 244 850 12 242 522 0 162 158 527 81 1 525 639
 283 156 0 158 528 522 529 82 3 526 6 30 1 81 1 158 851 12 156 525 0 244 240 530
 81 1 528 638 283 238 0 240 531 525 532 82 3 529 6 29 1 81 1 240 852 12 238 528
 0 158 154 533 81 1 531 637 283 152 0 154 534 528 535 82 3 532 6 28 1 81 1 154 8
53 12 152 531 0 240 236 536 81 1 534 636 283 234 0 236 537 531 538 82 3 535 6 27
 1 81 1 236 854 12 234 534 0 154 150 539 81 1 537 635 283 148 0 150 540 534 541
 82 3 538 6 26 1 81 1 150 855 12 148 537 0 236 232 542 81 1 540 634 283 230 0 23
2 543 537 544 82 3 541 6 25 1 81 1 232 856 12 230 540 0 150 146 545 81 1 543 633
 283 144 0 146 546 540 547 82 3 544 6 24 1 81 1 146 857 12 144 543 0 232 228 548
 81 1 546 632 283 226 0 228 549 543 550 82 3 547 6 23 1 81 1 228 858 12 226 546
 0 146 142 551 81 1 549 631 283 140 0 142 552 546 553 82 3 550 6 22 1 81 1 142 8
59 12 140 549 0 228 224 554 81 1 552 630 283 222 0 224 555 549 556 82 3 553 6 21
 1 81 1 224 860 12 222 552 0 142 138 557 81 1 555 629 283 136 0 138 558 552 559
 82 3 556 6 20 1 81 1 138 861 12 136 555 0 224 220 560 81 1 558 628 283 218 0 22
0 561 555 562 82 3 559 6 19 1 81 1 220 862 12 218 558 0 138 134 563 81 1 561 627
 283 132 0 134 564 558 565 82 3 562 6 18 1 81 1 134 863 12 132 561 0 220 216 566
 81 1 564 626 283 214 0 216 567 561 568 82 3 565 6 17 1 81 1 216 864 12 214 564
 0 134 130 569 81 1 567 625 283 128 0 130 570 564 571 82 3 568 6 16 1 81 1 130 8
65 12 128 567 0 216 212 572 81 1 570 624 283 210 0 212 573 567 574 82 3 571 6 15
 1 81 1 212 866 12 210 570 0 130 126 575 81 1 573 623 283 124 0 126 576 570 577
 82 3 574 6 14 1 81 1 126 867 12 124 573 0 212 112 578 81 1 576 622 283 207 0 11
2 111 573 579 82 3 577 6 13 1 81 1 112 868 12 207 576 0 126 108 580 81 1 111 619
 283 86 0 108 581 576 582 82 3 579 6 12 1 81 1 581 618 283 89 0 113 583 111 584
 82 3 582 6 9 1 81 1 113 870 12 89 581 0 108 101 585 81 1 583 615 283 97 0 101 5
86 581 587 82 3 584 6 8 1 81 1 101 871 12 97 583 0 113 200 588 81 1 586 614 283
 198 0 200 589 583 590 82 3 587 6 5 1 81 1 200 872 12 198 586 0 101 274 591 81 1
 589 612 283 196 0 274 592 586 593 82 3 590 6 4 1 81 1 274 873 12 196 589 0 200
 275 594 81 1 592 611 283 94 0 275 595 589 596 82 3 593 6 2 1 81 1 275 874 12 94
 592 0 274 92 597 81 1 595 610 283 83 0 92 598 592 599 82 3 596 6 1 1 81 1 92 87
5 12 83 595 0 275 70 600 81 1 598 607 283 55 0 70 601 595 602 82 3 599 6 0 1 81
 1 70 876 12 55 598 0 92 58 603 81 1 601 606 283 56 0 58 604 598 605 82 3 602 6
 5 0 81 1 58 877 12 56 601 0 70 74 606 81 1 604 605 283 72 0 74 607 601 608 82 3
 605 6 4 0 81 1 74 878 12 72 604 0 58 63 609 81 1 607 604 283 61 0 63 78 604 610
 82 3 608 6 3 0 81 1 63 879 12 61 607 0 74 76 611 81 1 78 603 283 60 0 76 612 60
7 613 82 3 610 6 2 0 81 1 612 602 283 65 0 67 0 78 614 82 3 613 6 1 0 81 1 67 88
1 12 65 612 0 76 0 615 82 3 614 6 0 0 84 2 615 IH84 3 611 JHI84 3 609 JHM84 3 60
6 JHQ84 3 603 JHU84 3 600 JHB84 3 597 JHF84 3 594 JHJ84 3 591 JHR84 3 588 JHV84
 3 585 JHh84 3 580 JHx84 3 578 JH184 3 575 JH584 3 572 JH984 4 569 KHBB84 4 566
 KHFB84 4 563 KHJB84 4 560 KHNB84 4 557 KHRB84 4 554 KHVB84 4 551 KHZB84 4 548 K
HdB84 4 545 KHhB84 4 542 KHlB84 4 539 KHpB84 4 536 KHtB84 4 533 KHxB84 4 530 KH1
B84 4 527 KH5B84 4 524 KH9B84 4 521 KHBC84 4 518 KHFC84 4 515 KHJC84 4 512 KHNC8
4 4 509 KHRC84 4 506 KHVC84 4 503 KHZC84 4 500 KHdC84 4 497 KHhC84 4 494 KHlC84
 4 491 KHpC84 4 488 KHtC84 4 485 KHxC84 4 482 KH1C84 4 479 KH5C81 1 471 832 12 9
8 467 0 466 194 616 84 4 476 KH9C81 1 466 831 12 18 463 0 459 471 617 84 3 616 J
HC81 1 459 830 12 452 455 0 451 466 618 84 3 617 JHS81 1 451 829 12 444 447 0 44
3 459 619 84 3 618 JHa81 1 443 828 12 436 439 0 435 451 620 84 3 619 JHe81 1 435
 827 12 428 431 0 427 443 621 84 3 620 JHi81 1 427 826 12 420 423 0 419 435 622
 84 3 621 JHm81 1 419 825 12 412 415 0 411 427 623 84 3 622 JHq81 1 411 824 12 4
04 407 0 403 419 624 84 3 623 JHu81 1 403 823 12 396 399 0 395 411 625 84 3 624
 JHy81 1 395 822 12 388 391 0 387 403 626 84 3 625 JH281 1 387 821 12 380 383 0
 379 395 627 84 3 626 JH681 1 379 820 12 372 375 0 371 387 628 84 3 627 JH+81 1
 371 819 12 364 367 0 363 379 629 84 4 628 KHCB81 1 363 818 12 356 359 0 355 371
 630 84 4 629 KHGB81 1 355 817 12 348 351 0 347 363 631 84 4 630 KHKB81 1 347 81
6 12 340 343 0 339 355 632 84 4 631 KHOB81 1 339 815 12 330 335 0 329 347 633 84
 4 632 KHSB81 1 329 814 12 325 326 0 15 339 634 84 4 633 KHWB81 1 15 813 12 314
 315 0 2 329 635 84 4 634 KHaB84 4 635 KHeB80 1 321 0 636 8001 0 0 0 0 3 5 0 0 0
 FFFFTFTFFFFFFF2 81 1 334 772 321 331 637 638 467 326 639 83 255 3 473 .34117647
05882355 .776470588235294 .741176470588235 14 331 520 638 ?325 98 36 5 640 -0 0
 325 98 25 81 1 637 766 283 331 0 334 641 0 642 81 1 638 795 12 331 334 0 0 643
 644 83 3 639 .3411764705882355 .776470588235294 .741176470588235 81 1 643 796 1
2 318 322 0 638 645 646 84 3 644 JIS14 318 518 643 ?314 452 647 5 648 +0 0 314 4
52 25 81 1 322 790 321 318 641 643 455 315 649 81 1 645 797 12 104 323 0 643 650
 651 84 3 646 JIO14 104 1 645 ?652 314 100 5 653 +0 0 652 314 25 81 1 323 792 32
1 104 654 645 315 655 656 81 1 650 798 12 652 655 0 645 657 658 84 3 651 JIK14 6
52 266 650 ?21 104 46 5 659 -0 0 21 104 25 81 1 655 793 321 652 660 650 323 661
 662 81 1 657 799 12 21 661 0 650 121 663 84 3 658 JIG14 21 726 657 ?0 652 664 5
 6 +0 0 0 652 25 81 1 661 794 321 21 665 657 655 0 666 81 1 121 800 12 102 667 0
 657 203 668 84 3 663 JIC81 1 667 761 283 102 0 121 669 665 670 81 1 203 801 12
 201 669 0 121 123 671 84 3 668 JId81 1 669 760 283 201 0 203 672 667 673 81 1 1
23 802 12 107 672 0 203 206 674 84 3 671 JIZ81 1 672 759 283 107 0 123 286 669 6
75 84 3 674 JIV81 1 286 758 283 204 0 206 281 672 676 82 3 675 7 5 1 82 3 676 7
 4 1 82 3 673 7 6 1 81 1 665 762 283 21 0 661 667 660 677 82 3 670 7 7 1 81 1 66
0 763 283 652 0 655 665 654 678 82 3 677 7 0 2 81 1 654 764 283 104 0 323 660 64
1 679 82 3 678 7 1 2 81 1 641 765 283 318 0 322 654 637 680 82 3 679 7 2 2 82 3
 680 7 3 2 83 3 666 .3411764705882355 .776470588235294 .741176470588235 15 664 7
27 0 681 21 0 13 25 157 0 0 0 0 0 0 9 18 17 681 0 664 39 682 11 27 10 0 0 -17 39
 0 664 49 681 31 30 28 0 0 -17 682 0 664 681 49 43 279 93 0 0 -17 27 0 100 87 40
 43 681 10 0 106 +17 40 0 100 27 75 11 37 102 0 681 +17 106 0 647 279 71 43 87 1
07 0 682 +15 647 517 0 106 318 0 17 279 0 647 683 106 51 682 93 0 48 +17 71 0 64
7 106 683 55 59 196 0 81 -17 683 0 647 71 279 56 48 204 0 0 -17 59 0 80 82 81 56
 71 196 0 88 +17 88 0 46 48 91 56 82 89 0 683 +15 46 291 0 48 652 684 17 48 0 46
 42 88 51 683 204 0 0 +17 91 0 46 88 47 65 64 198 0 82 -17 47 0 46 91 42 61 38 2
01 0 0 -17 64 0 90 96 68 61 91 198 0 99 +17 99 0 36 38 37 61 96 94 0 47 +15 36 5
19 0 38 331 0 17 38 0 36 30 99 31 47 201 0 39 +17 37 0 36 99 30 72 40 102 0 0 -1
5 684 292 0 209 652 685 17 209 0 684 209 209 0 686 207 0 0 +15 685 293 0 213 652
 687 17 213 0 685 213 213 0 688 210 0 0 +15 687 294 0 217 652 689 17 217 0 687 2
17 217 0 690 214 0 0 +15 689 295 0 221 652 691 17 221 0 689 221 221 0 692 218 0
 0 +15 691 296 0 225 652 693 17 225 0 691 225 225 0 694 222 0 0 +15 693 297 0 22
9 652 695 17 229 0 693 229 229 0 696 226 0 0 +15 695 298 0 233 652 697 17 233 0
 695 233 233 0 698 230 0 0 +15 697 299 0 237 652 699 17 237 0 697 237 237 0 700
 234 0 0 +15 699 300 0 241 652 701 17 241 0 699 241 241 0 702 238 0 0 +15 701 30
1 0 245 652 703 17 245 0 701 245 245 0 704 242 0 0 +15 703 302 0 249 652 705 17
 249 0 703 249 249 0 706 246 0 0 +15 705 303 0 253 652 707 17 253 0 705 253 253
 0 708 250 0 0 +15 707 304 0 257 652 709 17 257 0 707 257 257 0 710 254 0 0 +15
 709 305 0 261 652 711 17 261 0 709 261 261 0 712 258 0 0 +15 711 306 0 265 652
 713 17 265 0 711 265 265 0 714 262 0 0 +15 713 307 0 269 652 715 17 269 0 713 2
69 269 0 716 266 0 0 +15 715 308 0 271 652 717 17 271 0 715 271 271 0 718 117 0
 0 +15 717 309 0 116 652 0 17 116 0 717 116 116 0 719 109 0 0 +17 719 0 720 719
 719 0 116 109 0 0 -15 720 447 0 719 314 0 17 718 0 721 718 718 0 271 117 0 0 -1
5 721 451 0 718 325 0 17 716 0 722 716 716 0 269 266 0 0 -15 722 455 0 716 330 0
 17 714 0 723 714 714 0 265 262 0 0 -15 723 459 0 714 340 0 17 712 0 724 712 712
 0 261 258 0 0 -15 724 463 0 712 348 0 17 710 0 725 710 710 0 257 254 0 0 -15 72
5 467 0 710 356 0 17 708 0 726 708 708 0 253 250 0 0 -15 726 471 0 708 364 0 17
 706 0 727 706 706 0 249 246 0 0 -15 727 475 0 706 372 0 17 704 0 728 704 704 0
 245 242 0 0 -15 728 479 0 704 380 0 17 702 0 729 702 702 0 241 238 0 0 -15 729
 483 0 702 388 0 17 700 0 730 700 700 0 237 234 0 0 -15 730 487 0 700 396 0 17 6
98 0 731 698 698 0 233 230 0 0 -15 731 491 0 698 404 0 17 696 0 732 696 696 0 22
9 226 0 0 -15 732 495 0 696 412 0 17 694 0 733 694 694 0 225 222 0 0 -15 733 499
 0 694 420 0 17 692 0 734 692 692 0 221 218 0 0 -15 734 503 0 692 428 0 17 690 0
 735 690 690 0 217 214 0 0 -15 735 507 0 690 436 0 17 688 0 736 688 688 0 213 21
0 0 0 -15 736 511 0 688 444 0 17 686 0 737 686 686 0 209 207 0 0 -15 737 515 0 6
86 452 0 17 49 0 664 682 39 51 42 50 0 279 -83 3 662 .3411764705882355 .77647058
8235294 .741176470588235 50 659 414 0 652 653 320 0 +0 0 0 0 0 1 1 0 0 50 653 3
 0 104 0 659 0 +0 0 .00508 0 0 1 1 0 0 51 255 320 525 0 314 659 333 0 --.06858 .
03048 .00508 0 0 -1 .00381 -1 0 0 51 333 526 0 325 320 342 0 --.06858 .04318 .00
508 0 0 -1 .00381 -1 0 0 51 342 527 0 330 333 350 0 -.0549916316151619 -.0219870
337355137 .00508 0 0 -1 .00254 -1 0 0 51 350 528 0 340 342 358 0 -.0549916316151
619 -.0130970337355137 .00508 0 0 -1 .00254 -1 0 0 51 358 529 0 348 350 366 0 -.
0549916316151619 -.0042070337355137 .00508 0 0 -1 .00254 -1 0 0 51 366 530 0 356
 358 374 0 -.0549916316151619 .00468296626448631 .00508 0 0 -1 .00254 -1 0 0 51
 374 531 0 364 366 382 0 -.0549916316151619 .0135729662644863 .00508 0 0 -1 .002
54 -1 0 0 51 382 532 0 372 374 390 0 -.0549916316151619 .0224629662644863 .00508
 0 0 -1 .00254 -1 0 0 51 390 533 0 380 382 398 0 -.0676916316151619 -.0219870337
355137 .00508 0 0 -1 .00254 -1 0 0 51 398 534 0 388 390 406 0 -.0676916316151619
 -.0130970337355137 .00508 0 0 -1 .00254 -1 0 0 51 406 535 0 396 398 414 0 -.067
6916316151619 -.0042070337355137 .00508 0 0 -1 .00254 -1 0 0 51 414 536 0 404 40
6 422 0 -.0676916316151619 .00468296626448631 .00508 0 0 -1 .00254 -1 0 0 51 422
 537 0 412 414 430 0 -.0676916316151619 .0135729662644863 .00508 0 0 -1 .00254 -
1 0 0 51 430 538 0 420 422 438 0 -.0676916316151619 .0224629662644863 .00508 0 0
 -1 .00254 -1 0 0 51 438 539 0 428 430 446 0 -.0549916316151619 .031352966264486
3 .00508 0 0 -1 .00254 -1 0 0 51 446 540 0 436 438 454 0 -.0549916316151619 .040
2429662644863 .00508 0 0 -1 .00254 -1 0 0 51 454 541 0 444 446 461 0 -.067691631
6151619 .0313529662644863 .00508 0 0 -1 .00254 -1 0 0 51 461 542 0 452 454 648 0
 -.0676916316151619 .0402429662644863 .00508 0 0 -1 .00254 -1 0 0 50 648 543 0 3
18 461 640 0 +-1387778780781446e-32 -.0508 .00508 0 -1 0 0 0 -1 50 640 544 0 331
 648 472 0 +-.0762 -693889390390723e-32 .00508 1 0 0 0 0 -1 50 472 545 0 98 640
 22 0 +-1387778780781446e-32 .0508 .00508 0 -1 0 0 0 -1 50 22 546 0 18 472 6 0 +
.0762 -693889390390723e-32 .00508 1 0 0 0 0 -1 83 3 656 .3411764705882355 .77647
0588235294 .741176470588235 83 3 649 .3411764705882355 .776470588235294 .7411764
70588235 82 3 642 7 4 2 79 255 15 636 SDL/TYSA_COLOUR83 3 468 .3411764705882355
 .776470588235294 .741176470588235 83 3 462 .3411764705882355 .776470588235294 .
741176470588235 15 460 513 0 127 452 737 17 127 0 460 127 127 0 738 124 0 0 +17
 738 0 105 738 738 0 127 124 0 0 -15 105 7 0 738 104 739 15 739 8 0 740 104 741
 17 740 0 739 740 740 0 131 128 0 0 -15 741 9 0 742 104 743 17 742 0 741 742 742
 0 135 132 0 0 -15 743 10 0 744 104 745 17 744 0 743 744 744 0 139 136 0 0 -15 7
45 11 0 746 104 747 17 746 0 745 746 746 0 143 140 0 0 -15 747 12 0 748 104 749
 17 748 0 747 748 748 0 147 144 0 0 -15 749 13 0 750 104 751 17 750 0 749 750 75
0 0 151 148 0 0 -15 751 14 0 752 104 753 17 752 0 751 752 752 0 155 152 0 0 -15
 753 15 0 754 104 755 17 754 0 753 754 754 0 159 156 0 0 -15 755 16 0 756 104 75
7 17 756 0 755 756 756 0 163 160 0 0 -15 757 17 0 758 104 759 17 758 0 757 758 7
58 0 167 164 0 0 -15 759 18 0 760 104 761 17 760 0 759 760 760 0 171 168 0 0 -15
 761 19 0 762 104 763 17 762 0 761 762 762 0 175 172 0 0 -15 763 20 0 764 104 76
5 17 764 0 763 764 764 0 179 176 0 0 -15 765 21 0 766 104 767 17 766 0 765 766 7
66 0 183 180 0 0 -15 767 22 0 768 104 769 17 768 0 767 768 768 0 187 184 0 0 -15
 769 23 0 770 104 771 17 770 0 769 770 770 0 191 188 0 0 -15 771 24 0 772 104 0
 17 772 0 771 772 772 0 195 192 0 0 -17 195 0 319 195 195 0 772 192 0 0 +15 319
 445 0 195 314 720 17 191 0 332 191 191 0 770 188 0 0 +15 332 449 0 191 325 721
 17 187 0 341 187 187 0 768 184 0 0 +15 341 453 0 187 330 722 17 183 0 349 183 1
83 0 766 180 0 0 +15 349 457 0 183 340 723 17 179 0 357 179 179 0 764 176 0 0 +1
5 357 461 0 179 348 724 17 175 0 365 175 175 0 762 172 0 0 +15 365 465 0 175 356
 725 17 171 0 373 171 171 0 760 168 0 0 +15 373 469 0 171 364 726 17 167 0 381 1
67 167 0 758 164 0 0 +15 381 473 0 167 372 727 17 163 0 389 163 163 0 756 160 0
 0 +15 389 477 0 163 380 728 17 159 0 397 159 159 0 754 156 0 0 +15 397 481 0 15
9 388 729 17 155 0 405 155 155 0 752 152 0 0 +15 405 485 0 155 396 730 17 151 0
 413 151 151 0 750 148 0 0 +15 413 489 0 151 404 731 17 147 0 421 147 147 0 748
 144 0 0 +15 421 493 0 147 412 732 17 143 0 429 143 143 0 746 140 0 0 +15 429 49
7 0 143 420 733 17 139 0 437 139 139 0 744 136 0 0 +15 437 501 0 139 428 734 17
 135 0 445 135 135 0 742 132 0 0 +15 445 505 0 135 436 735 17 131 0 453 131 131
 0 740 128 0 0 +15 453 509 0 131 444 736 83 3 456 .3411764705882355 .77647058823
5294 .741176470588235 83 3 448 .3411764705882355 .776470588235294 .7411764705882
35 83 3 440 .3411764705882355 .776470588235294 .741176470588235 83 3 432 .341176
4705882355 .776470588235294 .741176470588235 83 3 424 .3411764705882355 .7764705
88235294 .741176470588235 83 3 416 .3411764705882355 .776470588235294 .741176470
588235 83 3 408 .3411764705882355 .776470588235294 .741176470588235 83 3 400 .34
11764705882355 .776470588235294 .741176470588235 83 3 392 .3411764705882355 .776
470588235294 .741176470588235 83 3 384 .3411764705882355 .776470588235294 .74117
6470588235 83 3 376 .3411764705882355 .776470588235294 .741176470588235 83 3 368
 .3411764705882355 .776470588235294 .741176470588235 83 3 360 .3411764705882355
 .776470588235294 .741176470588235 83 3 352 .3411764705882355 .776470588235294 .
741176470588235 83 3 344 .3411764705882355 .776470588235294 .741176470588235 83
 3 336 .3411764705882355 .776470588235294 .741176470588235 83 3 324 .34117647058
82355 .776470588235294 .741176470588235 80 1 311 773 774 8038 0 0 0 0 0 0 0 0 0
 TTTTTTTTTTTTTF10 81 1 312 768 773 1 308 13 0 0 775 98 255 6 313 80 97 114 116 3
2 49 80 1 773 776 777 8017 0 0 0 0 0 0 0 0 0 TTTTTTTTTTTTTF3 81 1 13 769 778 1 3
12 2 0 0 779 84 6 775 Part 180 1 778 321 780 8040 0 0 0 0 3 5 0 0 0 TTTFFFFFFFFF
FF2 83 3 779 .3411764705882355 .776470588235294 .741176470588235 79 17 780 SDL/T
YSA_COLOUR_279 13 777 SDL/TYSA_NAME79 14 774 SDL/TYSA_UNAME84 2 307 II84 3 302 J
II79 9 298 BTI/DetId82 3 294 7 1 1 82 3 291 7 2 1 84 3 288 JIR82 3 287 7 3 1 79
 12 284 BTI/ExportId84 3 114 JHl84 3 79 JHE84 3 45 JIE84 3 35 JIM19 19 552 0 1 0
 9 5 S0 81 2 20 739 781 6 0 0 0 0 782 783 80 2 781 784 785 8044 0 0 0 0 3 5 0 0
 0 FFFFTFFFTTFFFF3 2 84 6 782 BACAAB83 4 783 0 .1485292635282848 .0508 .13957185
29082948 79 17 785 SDL/TYSA_BLEND_ID74 4 CI16 index_map_offset0 0 1 dCCZ20 17 7
 0 0 637 20 308 312 13 661 67 0 0 0 0 0 0 0 0 0 0 0 0 0 84 3 16 JHD1 0 
