**ABCDEFGHIJKLMNOPQRSTUVWXYZabcdefghijklmnopqrstuvwxyz**************************
**PARASOLID !"#$%&'()*+,-./:;<=>?@[\]^_`{|}~0123456789**************************
**PART1;
MC=unknown;
MC_MODEL=unknown;
MC_ID=unknown;
OS=unknown;
OS_RELEASE=unknown;
FRU=Parasolid 32.0.170;
APPL=Onshape;
SITE=unknown;
USER=unknown;
FORMAT=text;
GUISE=transmit;
KEY=BTGapi::writeModels_.xmt;
FILE=BTGapi::writeModels_.xmt;
DATE=2019-12-04T09:03:35 (UTC);
**PART2;
SCH=SCH_3200170_32001;
USFLD_SIZE=0;
**PART3;
**END_OF_HEADER*****************************************************************
T51 : TRANSMIT FILE created by modeller version 320017023 SCH_3200170_32001_1300
6227 0 12 34 CCCCCCI4 mesh1006 0 I8 polyline1008 0 CCCCCCCDI5 owner1040 0 CCCCCC
I13 boundary_mesh1006 0 I17 boundary_polyline1008 0 CCCA16 index_map_offset0 0 1
 dA9 index_map82 0 A17 node_id_index_map82 0 A20 schema_embedding_map82 0 A5 chi
ld12 0 A14 lowest_node_id0 0 1 dA16 mesh_offset_data206 0 Z1 61 2 3 0 0 0 0 0 0
 1e3 1e-8 0 4 0 1 0 1 1 5 6 7 0 0 0 8 9 0 0 0 0 0 0 0 0 81 255 1 2 56 10 1 11 0
 0 12 13 70 11 CI9 list_type0 0 1 uI10 notransmit0 0 1 lCCCDCCDI12 finger_index0
 0 1 dI12 finger_block1012 0 CZ3 0 4 T1 0 0 6 20 1 14 14 13 255 5 39 0 1 0 15 0
 0 16 0 51 255 6 38 0 15 17 0 0 -0 233295215237571e-33 .127 0 0 -1 .00381 -1 0 0
 31 255 7 33 0 18 19 0 0 +0 233295215237571e-33 0 0 0 1 1 0 0 .00381 19 8 CCCCCC
CA5 owner12 0 Z8 13 0 1 16 0 20 V0 16 255 9 7 21 ?22 0 18 19 0 0 1 81 1 21 60 10
 9 23 0 24 25 26 17 255 22 0 27 22 22 0 28 9 0 0 +16 18 28 25 ?29 9 0 7 0 0 1 31
 19 9 0 9 0 7 0 +0 233295215237571e-33 .127 0 0 1 1 0 0 .00381 81 1 25 61 10 18
 30 0 21 0 31 17 29 0 32 29 29 0 33 18 0 0 +15 255 32 36 0 29 15 0 17 33 0 34 33
 33 0 29 18 0 0 -15 34 27 0 33 35 0 14 255 35 23 36 ?0 37 34 5 17 -0 0 0 37 20 8
1 1 36 58 10 35 38 0 12 24 39 14 37 1 12 ?35 15 27 5 40 +0 0 35 15 20 50 255 17
 32 0 35 40 6 0 +0 0 0 0 0 1 1 0 0 13 20 14 0 0 0 0 0 0 8 15 14 15 35 24 ?37 0 4
1 5 6 -0 0 37 0 20 81 1 24 59 10 15 42 0 36 21 43 15 41 34 0 28 15 32 17 28 0 41
 28 28 0 22 9 0 0 -80 255 1 10 44 45 9000 0 0 0 0 3 5 0 0 0 FFTFTFTTFFFFFF3 81 1
 42 53 46 15 47 24 0 48 49 84 255 3 43 JHC80 1 46 0 50 8001 0 0 0 0 3 5 0 0 0 FF
FFTFTFFFFFFF2 81 1 47 46 44 15 0 42 23 51 52 81 1 48 54 46 37 53 12 42 38 54 83
 255 3 49 .1058823529411764 .3333333333333335 0 81 1 53 48 44 37 0 48 51 55 56 8
1 1 12 57 10 37 48 0 2 36 57 81 1 38 55 46 35 51 36 48 0 58 83 3 54 .10588235294
11764 .3333333333333335 0 81 1 51 47 44 35 0 38 47 53 59 83 3 58 .10588235294117
64 .3333333333333335 0 80 1 44 60 61 9000 0 0 0 0 3 6 0 0 0 FFTFTFTTFFFFFF1 82 2
55 3 59 6 1 2 79 255 9 61 BTI/DetId84 3 57 JHK81 1 55 49 44 1 0 62 53 0 63 82 3
 56 6 2 2 81 1 62 50 64 1 55 65 0 0 66 82 3 63 6 0 3 80 1 64 67 68 8038 0 0 0 0
 0 0 0 0 0 TTTTTTTTTTTTTF10 81 1 65 51 67 1 62 11 0 0 69 98 255 6 66 80 97 114 1
16 32 49 80 1 67 70 71 8017 0 0 0 0 0 0 0 0 0 TTTTTTTTTTTTTF3 81 1 11 52 72 1 65
 2 0 0 73 84 6 69 Part 180 1 72 46 74 8040 0 0 0 0 3 5 0 0 0 TTTFFFFFFFFFFF2 83
 3 73 .1058823529411764 .3333333333333335 0 79 17 74 SDL/TYSA_COLOUR_279 13 71 S
DL/TYSA_NAME79 14 68 SDL/TYSA_UNAME81 1 23 45 44 9 0 21 30 47 75 82 3 52 6 0 2 8
1 1 30 44 44 18 0 25 0 23 76 82 3 75 6 1 1 82 3 76 6 0 1 79 15 50 SDL/TYSA_COLOU
R79 12 45 BTI/ExportId50 40 3 0 37 0 17 0 +0 0 .127 0 0 1 1 0 0 15 27 6 0 22 37
 0 84 3 39 JHG84 3 31 JHB84 3 26 JHF19 16 40 0 1 0 8 5 S0 74 4 CI16 index_map_of
fset0 0 1 dCCZ20 14 6 0 0 55 62 65 11 38 25 0 0 0 0 0 0 0 0 0 0 0 0 0 0 84 3 13
 JHD1 0 
