**ABCDEFGHIJKLMNOPQRSTUVWXYZabcdefghijklmnopqrstuvwxyz**************************
**PARASOLID !"#$%&'()*+,-./:;<=>?@[\]^_`{|}~0123456789**************************
**PART1;
MC=unknown;
MC_MODEL=unknown;
MC_ID=unknown;
OS=unknown;
OS_RELEASE=unknown;
FRU=Parasolid 32.0.170;
APPL=Onshape;
SITE=unknown;
USER=unknown;
FORMAT=text;
GUISE=transmit;
KEY=BTGapi::writeModels_.xmt;
FILE=BTGapi::writeModels_.xmt;
DATE=2019-12-04T09:04:07 (UTC);
**PART2;
SCH=SCH_3200170_32001;
USFLD_SIZE=0;
**PART3;
**END_OF_HEADER*****************************************************************
T51 : TRANSMIT FILE created by modeller version 320017023 SCH_3200170_32001_1300
6227 0 12 34 CCCCCCI4 mesh1006 0 I8 polyline1008 0 CCCCCCCDI5 owner1040 0 CCCCCC
I13 boundary_mesh1006 0 I17 boundary_polyline1008 0 CCCA16 index_map_offset0 0 1
 dA9 index_map82 0 A17 node_id_index_map82 0 A20 schema_embedding_map82 0 A5 chi
ld12 0 A14 lowest_node_id0 0 1 dA16 mesh_offset_data206 0 Z1 336 2 3 0 0 0 0 0 0
 1e3 1e-8 0 4 0 1 0 1 1 5 6 7 8 0 0 9 10 11 0 0 0 0 0 0 0 81 255 1 2 295 12 1 13
 0 0 14 15 70 11 CI9 list_type0 0 1 uI10 notransmit0 0 1 lCCCDCCDI12 finger_inde
x0 0 1 dI12 finger_block1012 0 CZ3 0 4 T1 0 0 6 20 1 16 16 13 255 5 218 0 1 0 17
 0 0 18 0 51 255 6 211 0 19 20 0 0 -.0471008329927921 .0568112962506752 .00762 0
 0 -1 .003317117281821685 -1 0 0 30 255 7 217 0 10 21 0 0 +-1387778780781446e-32
 693889390390723e-32 .00762 0 0 -1 29 255 8 177 0 22 23 0 -.0635 -60715321659188
2e-32 0 19 8 CCCCCCCA5 owner12 0 Z9 74 0 1 18 0 24 V0 16 255 10 188 25 ?26 0 27
 7 0 0 1 18 255 11 68 28 29 0 30 31 ?1 81 1 28 331 12 11 32 0 33 34 35 17 255 29
 0 36 37 38 11 39 40 0 41 -18 30 63 42 43 11 44 45 ?1 29 31 70 0 11 45 46 -.0635
 -607153216591882e-32 .00762 29 45 65 0 30 47 31 -.0635 .00867089815437794 .0076
2 29 46 182 0 48 31 49 -1387778780781446e-32 693889390390723e-32 0 18 48 165 50
 26 51 0 46 ?1 29 49 181 0 51 46 52 .0508 .0508 0 18 51 161 53 54 55 48 49 ?1 29
 52 180 0 55 49 56 .04340166598558425 .0508 0 18 55 157 57 58 59 51 52 ?1 29 56
 179 0 59 52 23 723250368707242e-33 .00867089815437794 0 18 59 153 60 61 62 55 5
6 ?1 29 23 178 0 62 56 8 -.0635 .00867089815437794 0 18 62 149 33 63 22 59 23 ?1
 81 1 33 330 12 62 64 0 42 28 65 17 63 0 36 38 37 62 43 66 0 67 +18 22 145 34 39
 68 62 8 ?1 81 1 34 332 12 22 69 0 28 70 71 17 39 0 72 73 41 22 29 40 0 74 +18 6
8 43 75 76 77 22 78 ?1 81 1 75 335 12 68 79 0 53 50 80 17 76 0 72 41 73 68 26 10
 0 81 -18 77 48 70 82 83 68 84 ?1 29 78 45 0 68 0 84 -1387778780781446e-32 69388
9390390723e-32 .00762 29 84 50 0 77 78 85 .0508 .0508 .00762 29 85 55 0 83 84 47
 .04340166598558425 .0508 .00762 18 83 53 86 87 44 77 85 ?1 29 47 60 0 44 85 45
 723250368707242e-33 .00867089815437794 .00762 18 44 58 88 89 30 83 47 ?1 81 1 8
8 327 12 44 90 0 57 60 91 17 89 0 92 93 94 44 61 95 0 96 -15 255 92 193 0 94 97
 0 17 93 0 92 58 89 83 96 98 0 0 +17 94 0 92 89 58 59 99 100 0 101 -17 61 0 102
 67 103 59 89 95 0 94 +16 95 185 104 ?61 105 66 106 0 0 1 17 96 0 107 108 87 44
 93 98 0 103 -15 107 7 0 109 110 0 17 108 0 107 111 96 30 103 112 0 37 -17 87 0
 107 96 113 83 82 114 0 115 +16 98 28 116 ?93 112 114 117 0 0 1 17 103 0 102 61
 43 44 108 112 0 0 +15 102 191 0 67 118 0 17 43 0 102 103 67 30 63 66 0 108 -16
 112 33 119 ?103 120 98 121 0 0 1 81 1 119 311 12 112 122 0 123 124 125 16 120 3
8 126 ?37 40 112 127 0 0 1 30 121 35 0 112 117 127 0 +-.03175 .00867089815437794
 .00762 1 0 0 31 255 117 30 0 98 128 121 0 +1488157318525358e-32 .05209178386480
05 .00762 0 0 1 1 0 0 .0434208857104226 30 127 40 0 120 121 129 0 +-.0635 .00433
544907718895 .00762 0 1 0 31 129 176 0 130 127 131 0 +.0471008329927921 .0568112
962506752 0 0 0 1 1 0 0 .003317117281821685 16 130 141 132 ?133 134 0 129 0 0 1
 30 131 175 0 134 129 135 0 +-.03175 98649104119827e-31 0 -1 921580002543457e-31
 0 16 134 137 136 ?74 137 130 131 0 0 1 31 135 174 0 137 131 138 0 +-69388939039
0723e-32 .0508 0 0 0 1 1 0 0 .0508 16 137 133 139 ?140 141 134 135 0 0 1 31 138
 173 0 141 135 142 0 +.0471008329927921 .0568112962506751 0 0 0 1 1 0 0 .0070582
9435207943 16 141 129 143 ?144 100 137 138 0 0 1 31 142 172 0 100 138 145 0 +148
8157318525358e-32 .0520917838648005 0 0 0 1 1 0 0 .0434208857104226 16 100 125 1
23 ?99 146 141 142 0 0 1 30 145 171 0 146 142 147 0 +-.03175 .00867089815437794
 0 1 0 0 16 146 121 124 ?101 148 100 145 0 0 1 30 147 170 0 148 145 149 0 +-.063
5 .00433544907718895 0 0 1 0 16 148 117 150 ?151 152 146 147 0 0 1 30 149 212 0
 40 147 153 0 +-.0635 -607153216591882e-32 .00762 0 0 -1 16 40 183 154 ?39 66 12
0 149 0 0 1 30 153 213 0 66 149 106 0 +-.0635 .00867089815437794 .00762 0 0 -1 1
6 66 184 155 ?63 95 40 153 0 0 1 30 106 214 0 95 153 156 0 +723250368707242e-33
 .00867089815437794 .00762 0 0 -1 30 156 215 0 105 106 21 0 +.04340166598558425
 .0508 .00762 0 0 -1 16 105 186 157 ?58 27 95 156 0 0 1 30 21 216 0 27 156 7 0 +
.0508 .0508 .00762 0 0 -1 16 27 187 158 ?159 10 105 21 0 0 1 81 1 158 323 12 27
 160 0 154 25 161 17 159 0 162 144 82 51 163 27 0 140 +15 162 195 0 144 164 0 17
 144 0 162 115 159 55 54 141 0 99 +17 82 0 162 159 115 77 87 114 0 113 -17 163 0
 165 81 140 77 159 27 0 0 -17 140 0 165 163 26 51 166 137 0 0 +15 165 197 0 140
 167 0 17 26 0 165 140 81 48 76 10 0 166 +17 166 0 168 74 54 48 140 137 0 73 -15
 168 116 0 74 169 0 17 74 0 168 151 166 22 73 134 0 38 +17 54 0 168 166 99 51 14
4 141 0 159 -17 73 0 72 76 39 48 74 134 0 0 -15 72 199 0 73 17 0 14 255 17 200 1
70 ?167 0 72 5 20 +0 0 167 0 24 81 1 170 301 12 17 171 0 172 173 174 14 167 198
 175 ?164 17 165 5 176 -0 0 164 17 24 50 255 20 210 0 17 176 6 0 +-.03175 986491
04119827e-31 .00762 -921580002543457e-31 -1 0 1 -921580002543457e-31 0 13 24 75
 0 0 0 0 0 0 9 17 51 176 209 0 167 177 20 0 --693889390390723e-32 .0508 .00762 0
 0 -1 .0508 -1 0 0 51 177 208 0 164 178 176 0 -.0471008329927921 .05681129625067
51 .00762 0 0 -1 .00705829435207943 -1 0 0 14 164 196 179 ?97 167 162 5 177 -0 0
 97 167 24 51 178 207 0 97 180 177 0 -1488157318525358e-32 .0520917838648005 .00
762 0 0 -1 .0434208857104226 -1 0 0 14 97 194 181 ?118 164 92 5 178 +0 0 118 164
 24 50 180 206 0 118 182 178 0 +-.03175 .00867089815437794 .00762 0 1 0 0 0 1 14
 118 192 183 ?19 97 102 5 180 +0 0 19 97 24 50 182 205 0 184 185 180 0 +-.0635 .
00433544907718895 .00762 -1 0 0 0 0 1 14 184 190 172 ?110 19 36 5 182 +0 0 110 1
9 24 50 185 169 0 169 186 182 0 +-.00467043632756422 .0319347953013773 0 0 0 1 1
 0 0 14 169 105 187 ?0 110 188 5 185 -0 0 0 110 24 50 186 3 0 110 0 185 0 +-.004
67043632756422 .0319347953013773 .00762 0 0 1 1 0 0 14 110 1 173 ?169 184 189 5
 186 +0 0 169 184 24 81 1 173 302 12 110 190 0 170 187 191 15 189 6 0 192 110 10
7 17 192 0 189 192 192 0 193 152 0 0 -17 193 0 194 193 193 0 192 152 0 0 +16 152
 8 195 ?193 196 148 197 0 0 1 81 1 195 305 12 152 198 0 175 132 199 16 196 13 20
0 ?41 201 152 202 0 0 1 31 197 10 0 152 0 202 0 +.0471008329927921 .056811296250
6752 .00762 0 0 1 1 0 0 .003317117281821685 30 202 15 0 196 197 203 0 +-.03175 9
8649104119827e-31 .00762 -1 921580002543457e-31 0 31 203 20 0 201 202 128 0 +-69
3889390390723e-32 .0508 .00762 0 0 1 1 0 0 .0508 16 201 18 204 ?113 114 196 203
 0 0 1 31 128 25 0 114 203 117 0 +.0471008329927921 .0568112962506751 .00762 0 0
 1 1 0 0 .00705829435207943 16 114 23 205 ?87 98 201 128 0 0 1 81 1 205 307 12 1
14 206 0 132 143 207 80 255 1 12 208 209 9000 0 0 0 0 3 5 0 0 0 FFTFTFTTFFFFFF3
 81 1 206 270 208 114 0 205 210 211 212 81 1 132 306 12 130 211 0 195 205 213 81
 1 143 308 12 141 210 0 205 116 214 84 255 4 207 KHFB81 1 210 269 208 141 0 143
 215 206 216 81 1 116 309 12 98 215 0 143 123 217 84 4 214 KHBB81 1 215 268 208
 98 0 116 218 210 219 81 1 123 310 12 100 218 0 116 119 220 84 3 217 JH981 1 218
 267 208 100 0 123 122 215 221 84 3 220 JH580 1 208 222 223 9000 0 0 0 0 3 6 0 0
 0 FFTFTFTTFFFFFF1 81 1 122 266 208 112 0 119 224 218 225 82 255 3 221 6 14 1 81
 1 224 265 208 146 0 124 226 122 227 82 3 225 6 13 1 81 1 124 312 12 146 224 0 1
19 126 228 81 1 226 264 208 120 0 126 229 224 230 82 3 227 6 12 1 81 1 126 313 1
2 120 226 0 124 150 231 81 1 229 263 208 148 0 150 232 226 233 82 3 230 6 11 1 8
1 1 150 314 12 148 229 0 126 200 234 81 1 232 262 208 196 0 200 235 229 236 82 3
 233 6 10 1 81 1 200 315 12 196 232 0 150 136 237 81 1 235 261 208 134 0 136 238
 232 239 82 3 236 6 9 1 81 1 136 316 12 134 235 0 200 204 240 81 1 238 260 208 2
01 0 204 241 235 242 82 3 239 6 8 1 81 1 204 317 12 201 238 0 136 139 243 81 1 2
41 259 208 137 0 139 244 238 245 82 3 242 6 7 1 81 1 139 318 12 137 241 0 204 15
7 246 81 1 244 258 208 105 0 157 247 241 248 82 3 245 6 6 1 81 1 157 319 12 105
 244 0 139 104 249 81 1 247 257 208 95 0 104 250 244 251 82 3 248 6 5 1 81 1 104
 320 12 95 247 0 157 155 252 81 1 250 256 208 66 0 155 253 247 254 82 3 251 6 4
 1 81 1 155 321 12 66 250 0 104 154 255 81 1 253 255 208 40 0 154 160 250 256 82
 3 254 6 3 1 81 1 154 322 12 40 253 0 155 158 257 81 1 160 254 208 27 0 158 258
 253 259 82 3 256 6 2 1 81 1 258 253 208 10 0 25 260 160 261 82 3 259 6 1 1 81 1
 25 324 12 10 258 0 158 86 262 81 1 260 252 208 83 0 86 263 258 264 82 3 261 6 0
 1 81 1 86 325 12 83 260 0 25 57 265 81 1 263 251 208 55 0 57 90 260 266 82 3 26
4 6 11 0 81 1 57 326 12 55 263 0 86 88 267 81 1 90 250 208 44 0 88 268 263 269 8
2 3 266 6 10 0 81 1 268 249 208 59 0 60 270 90 271 82 3 269 6 9 0 81 1 60 328 12
 59 268 0 88 42 272 81 1 270 248 208 30 0 42 64 268 273 82 3 271 6 8 0 81 1 42 3
29 12 30 270 0 60 33 274 81 1 64 247 208 62 0 33 32 270 275 82 3 273 6 7 0 81 1
 32 246 208 11 0 28 69 64 276 82 3 275 6 6 0 81 1 69 245 208 22 0 34 277 32 278
 82 3 276 6 5 0 81 1 277 244 208 77 0 70 279 69 280 82 3 278 6 4 0 81 1 70 333 1
2 77 277 0 34 53 281 81 1 279 243 208 51 0 53 79 277 282 82 3 280 6 3 0 81 1 53
 334 12 51 279 0 70 75 283 81 1 79 242 208 68 0 75 284 279 285 82 3 282 6 2 0 81
 1 284 241 208 48 0 50 0 79 286 82 3 285 6 1 0 81 1 50 336 12 48 284 0 75 0 287
 82 3 286 6 0 0 84 2 287 IH84 3 283 JHI84 3 281 JHM84 3 274 JHc84 3 272 JHg84 3
 267 JHo84 3 265 JHs84 3 262 JHB84 3 257 JHJ84 3 255 JHN84 3 252 JHR84 3 249 JHV
84 3 246 JHZ84 3 243 JHd84 3 240 JHh84 3 237 JHl84 3 234 JHp84 3 231 JHt84 3 228
 JHx79 255 9 223 BTI/DetId82 3 219 6 15 1 82 3 216 6 16 1 81 1 211 271 208 130 0
 132 206 198 288 84 4 213 KHJB81 1 198 272 208 152 0 195 211 289 290 82 3 288 6
 18 1 81 1 289 273 208 167 0 291 198 292 293 82 3 290 6 19 1 81 1 291 287 294 16
7 289 175 171 295 296 81 1 292 274 208 169 0 297 289 298 299 82 3 293 6 0 2 81 1
 297 294 294 169 292 187 190 0 300 81 1 298 275 208 110 0 190 292 301 302 82 3 2
99 6 1 2 81 1 190 293 294 110 298 173 303 297 304 81 1 301 276 208 17 0 171 298
 305 306 82 3 302 6 2 2 81 1 171 286 294 17 301 170 0 291 307 81 1 305 277 208 1
84 0 303 301 308 309 82 3 306 6 3 2 81 1 303 292 294 184 305 172 310 190 311 81
 1 308 278 208 118 0 312 305 313 314 82 3 309 6 4 2 81 1 312 290 294 118 308 183
 315 310 316 81 1 313 279 208 97 0 315 308 317 318 82 3 314 6 5 2 81 1 315 289 2
94 97 313 181 295 312 319 81 1 317 280 208 164 0 295 313 320 321 82 3 318 6 6 2
 81 1 295 288 294 164 317 179 291 315 322 81 1 320 281 208 19 0 310 317 323 324
 82 3 321 6 7 2 14 19 202 14 ?184 118 194 5 6 +0 0 184 118 24 81 1 310 291 294 1
9 320 14 312 303 325 81 1 323 282 208 1 0 326 320 0 327 82 3 324 6 8 2 81 1 326
 283 328 1 323 329 0 0 330 82 3 327 6 0 3 80 1 328 331 332 8038 0 0 0 0 0 0 0 0
 0 TTTTTTTTTTTTTF10 81 1 329 284 331 1 326 13 0 0 333 98 255 6 330 80 97 114 116
 32 49 80 1 331 334 335 8017 0 0 0 0 0 0 0 0 0 TTTTTTTTTTTTTF3 81 1 13 285 336 1
 329 2 0 0 337 84 6 333 Part 180 1 336 294 338 8040 0 0 0 0 3 5 0 0 0 TTTFFFFFFF
FFFF2 83 255 3 337 .615686274509804 .811764705882353 .929411764705882 79 17 338
 SDL/TYSA_COLOUR_279 13 335 SDL/TYSA_NAME79 14 332 SDL/TYSA_UNAME80 1 294 0 339
 8001 0 0 0 0 3 5 0 0 0 FFFFTFTFFFFFFF2 81 1 14 296 12 19 310 0 2 179 340 83 3 3
25 .615686274509804 .811764705882353 .929411764705882 81 1 179 297 12 164 295 0
 14 181 341 84 3 340 JHi81 1 181 298 12 97 315 0 179 183 342 84 3 341 JHe81 1 18
3 299 12 118 312 0 181 172 343 84 3 342 JHa81 1 172 300 12 184 303 0 183 170 344
 84 3 343 JHW84 3 344 JHS79 15 339 SDL/TYSA_COLOUR15 194 201 0 193 19 345 15 345
 203 0 346 19 0 17 346 0 345 346 346 0 133 130 0 0 -17 133 0 188 133 133 0 346 1
30 0 0 +15 188 115 0 133 169 168 83 3 322 .615686274509804 .811764705882353 .929
411764705882 83 3 319 .615686274509804 .811764705882353 .929411764705882 83 3 31
6 .615686274509804 .811764705882353 .929411764705882 83 3 311 .615686274509804 .
811764705882353 .929411764705882 83 3 307 .615686274509804 .811764705882353 .929
411764705882 83 3 304 .615686274509804 .811764705882353 .929411764705882 81 1 18
7 303 12 169 297 0 173 175 347 83 3 300 .615686274509804 .811764705882353 .92941
1764705882 81 1 175 304 12 167 291 0 187 195 348 84 3 347 JHG84 3 348 JHC83 3 29
6 .615686274509804 .811764705882353 .929411764705882 82 3 212 6 17 1 79 12 209 B
TI/ExportId17 113 0 107 87 109 77 81 201 0 163 +17 109 0 107 113 111 68 41 196 0
 0 -17 81 0 165 26 163 68 113 201 0 109 -17 111 0 107 109 108 11 37 120 0 0 -17
 41 0 72 39 76 11 109 196 0 111 +17 37 0 36 63 29 30 111 120 0 0 +15 36 189 0 38
 184 0 17 38 0 36 29 63 22 151 148 0 0 -17 151 0 168 101 74 62 38 148 0 0 +17 10
1 0 168 99 151 59 67 146 0 0 +17 99 0 168 54 101 55 94 100 0 0 +17 67 0 102 43 6
1 62 101 146 0 151 -84 4 199 KHNB84 3 191 JHK84 3 174 JHO17 115 0 162 82 144 83
 58 105 0 93 -17 58 0 92 94 93 55 115 105 0 144 +84 3 161 JHF84 3 125 JH184 3 91
 JHk84 3 80 JHE84 3 71 JHQ84 3 65 JHY84 3 35 JHU19 18 219 0 1 0 9 5 S0 74 4 CI16
 index_map_offset0 0 1 dCCZ20 16 6 0 0 323 326 329 13 297 50 0 0 0 0 0 0 0 0 0 0
 0 0 0 0 84 3 15 JHD1 0 
