**ABCDEFGHIJKLMNOPQRSTUVWXYZabcdefghijklmnopqrstuvwxyz**************************
**PARASOLID !"#$%&'()*+,-./:;<=>?@[\]^_`{|}~0123456789**************************
**PART1;
MC=unknown;
MC_MODEL=unknown;
MC_ID=unknown;
OS=unknown;
OS_RELEASE=unknown;
FRU=Parasolid 32.0.170;
APPL=Onshape;
SITE=unknown;
USER=unknown;
FORMAT=text;
GUISE=transmit;
KEY=BTGapi::writeModels_.xmt;
FILE=BTGapi::writeModels_.xmt;
DATE=2019-10-19T14:44:14 (UTC);
**PART2;
SCH=SCH_3200170_32001;
USFLD_SIZE=0;
**PART3;
**END_OF_HEADER*****************************************************************
T51 : TRANSMIT FILE created by modeller version 320017023 SCH_3200170_32001_1300
6227 0 12 34 CCCCCCI4 mesh1006 0 I8 polyline1008 0 CCCCCCCDI5 owner1040 0 CCCCCC
I13 boundary_mesh1006 0 I17 boundary_polyline1008 0 CCCA16 index_map_offset0 0 1
 dA9 index_map82 0 A17 node_id_index_map82 0 A20 schema_embedding_map82 0 A5 chi
ld12 0 A14 lowest_node_id0 0 1 dA16 mesh_offset_data206 0 Z1 209 2 3 0 0 0 0 0 0
 1e3 1e-8 0 4 5 1 0 1 1 6 7 8 9 0 0 10 11 12 0 0 0 0 0 0 0 81 255 1 2 183 13 1 1
4 0 0 15 16 70 11 CI9 list_type0 0 1 uI10 notransmit0 0 1 lCCCDCCDI12 finger_ind
ex0 0 1 dI12 finger_block1012 0 CZ3 0 4 T1 0 0 6 20 1 17 17 13 255 6 132 0 1 0 1
8 0 0 19 0 50 255 7 127 0 18 20 0 0 +.0048 .0677186712324619 -.0199821473836899
 0 1 0 0 0 1 30 255 8 131 0 11 21 0 0 +.0048 .0677186712324619 -.007032147383689
88 -1 0 0 29 255 9 108 0 22 23 0 0 .0677186712324619 -.0329321473836899 19 8 CCC
CCCCA5 owner12 0 Z10 43 0 1 19 0 24 V0 16 255 11 115 25 ?26 0 27 8 0 0 1 18 255
 12 37 28 29 0 30 31 ?1 81 1 28 204 13 12 32 0 33 34 35 17 255 29 0 36 37 38 12
 39 40 0 41 -18 30 32 42 43 12 44 45 ?1 29 31 39 0 12 45 46 .0048 .0677186712324
619 -.0329321473836899 29 45 34 0 30 47 31 .0048 .0482186712324619 -.03293214738
36899 29 46 111 0 48 31 49 0 .0677186712324619 -.00703214738368988 18 48 99 50 2
6 51 0 46 ?1 29 49 110 0 51 46 23 0 .0482186712324619 -.00703214738368988 18 51
 95 52 53 54 48 49 ?1 29 23 109 0 54 49 9 0 .0482186712324619 -.0329321473836899
 18 54 91 33 55 22 51 23 ?1 81 1 33 203 13 54 56 0 42 28 57 17 55 0 36 38 37 54
 58 59 0 60 +18 22 87 34 39 61 54 9 ?1 81 1 34 205 13 22 62 0 28 63 64 17 39 0 6
5 66 41 22 29 40 0 67 +18 61 22 68 69 44 22 70 ?1 81 1 68 208 13 61 71 0 52 50 7
2 17 69 0 65 41 66 61 26 11 0 73 -18 44 27 63 74 30 61 47 ?1 29 70 24 0 61 0 47
 .0048 .0677186712324619 -.00703214738368988 29 47 29 0 44 70 45 .0048 .04821867
12324619 -.00703214738368988 81 1 63 206 13 44 75 0 34 52 76 17 74 0 77 43 78 44
 73 79 0 80 +15 255 77 5 0 78 81 0 17 43 0 77 82 74 30 83 84 0 58 +17 78 0 77 74
 82 61 41 85 0 0 -17 73 0 86 26 80 61 74 79 0 78 -16 79 10 87 ?74 84 85 88 0 0 1
 17 80 0 86 73 53 44 89 27 0 83 -15 86 120 0 53 90 0 17 53 0 86 80 26 51 91 92 0
 89 +17 89 0 93 60 83 51 80 27 0 94 +16 27 114 95 ?89 11 59 21 0 0 1 17 83 0 93
 89 58 44 43 84 0 0 -15 93 118 0 60 96 0 17 58 0 93 83 60 30 55 59 0 37 -16 84 1
4 97 ?43 98 79 99 0 0 1 81 1 97 190 13 84 100 0 101 102 103 16 98 18 104 ?37 40
 84 105 0 0 1 30 99 15 0 84 88 105 0 +.0048 .0482186712324619 -.0199821473836899
 0 0 -1 30 88 11 0 79 106 99 0 +.0048 .0579686712324619 -.00703214738368988 0 -1
 -1334402673828312e-31 30 105 19 0 98 99 107 0 +.0048 .0579686712324619 -.032932
1473836899 0 -1 0 30 107 107 0 108 105 109 0 +0 .0677186712324619 -.019982147383
6899 0 0 -1 16 108 83 110 ?67 92 0 107 0 0 1 30 109 106 0 92 107 111 0 +0 .05796
86712324619 -.00703214738368988 0 -1 -1334402673828312e-31 16 92 79 112 ?53 113
 108 109 0 0 1 30 111 105 0 113 109 114 0 +0 .0482186712324619 -.019982147383689
9 0 0 -1 16 113 75 102 ?60 115 92 111 0 0 1 30 114 104 0 115 111 116 0 +0 .05796
86712324619 -.0329321473836899 0 -1 0 16 115 71 117 ?118 85 113 114 0 0 1 30 116
 128 0 40 114 119 0 +.0048 .0677186712324619 -.0329321473836899 -1 0 0 16 40 112
 120 ?39 59 98 116 0 0 1 30 119 129 0 59 116 21 0 +.0048 .0482186712324619 -.032
9321473836899 -1 0 0 16 59 113 121 ?55 27 40 119 0 0 1 30 21 130 0 27 119 8 0 +.
0048 .0482186712324619 -.00703214738368988 -1 0 0 81 1 121 198 13 59 122 0 112 1
20 123 80 255 1 13 124 125 9000 0 0 0 0 3 5 0 0 0 FFTFTFTTFFFFFF3 81 1 122 158 1
24 59 0 121 126 127 128 81 1 112 197 13 92 127 0 87 121 129 81 1 120 199 13 40 1
26 0 121 95 130 84 255 3 123 JKN81 1 126 157 124 40 0 120 131 122 132 81 1 95 20
0 13 27 131 0 120 25 133 84 3 130 JKJ81 1 131 156 124 27 0 95 134 126 135 81 1 2
5 201 13 11 134 0 95 42 136 84 3 133 JKF81 1 134 155 124 11 0 25 137 131 138 81
 1 42 202 13 30 137 0 25 33 139 84 3 136 JKB81 1 137 154 124 30 0 42 56 134 140
 84 3 139 JKc80 1 124 141 142 9000 0 0 0 0 3 6 0 0 0 FFTFTFTTFFFFFF1 81 1 56 153
 124 54 0 33 32 137 143 82 255 3 140 9 7 0 81 1 32 152 124 12 0 28 62 56 144 82
 3 143 9 6 0 81 1 62 151 124 22 0 34 75 32 145 82 3 144 9 5 0 81 1 75 150 124 44
 0 63 146 62 147 82 3 145 9 4 0 81 1 146 149 124 51 0 52 71 75 148 82 3 147 9 3
 0 81 1 52 207 13 51 146 0 63 68 149 81 1 71 148 124 61 0 68 150 146 151 82 3 14
8 9 2 0 81 1 150 147 124 48 0 50 0 71 152 82 3 151 9 1 0 81 1 50 209 13 48 150 0
 68 0 153 82 3 152 9 0 0 84 2 153 IK84 3 149 JKI79 255 9 142 BTI/DetId82 3 138 9
 0 1 82 3 135 9 1 1 82 3 132 9 2 1 81 1 127 159 124 92 0 112 122 154 155 81 1 87
 196 13 79 154 0 117 112 156 84 3 129 JKR81 1 154 160 124 79 0 87 127 157 158 81
 1 117 195 13 115 157 0 104 87 159 84 3 156 JKV81 1 157 161 124 115 0 117 154 16
0 161 81 1 104 194 13 98 160 0 110 117 162 84 3 159 JKZ81 1 160 162 124 98 0 104
 157 163 164 81 1 110 193 13 108 163 0 165 104 166 84 3 162 JKd81 1 163 163 124
 108 0 110 160 167 168 81 1 165 192 13 85 167 0 102 110 169 84 3 166 JKh16 85 6
 165 ?41 79 115 106 0 0 1 81 1 167 164 124 85 0 165 163 170 171 81 1 102 191 13
 113 170 0 97 165 172 84 3 169 JKl81 1 170 165 124 113 0 102 167 100 173 84 3 17
2 JKp81 1 100 166 124 84 0 97 170 174 175 82 3 173 9 10 1 81 1 174 167 124 90 0
 176 100 177 178 82 3 175 9 11 1 14 255 90 121 101 ?96 18 86 6 20 -0 0 96 18 24
 81 1 176 178 179 90 174 101 180 181 182 81 1 177 168 124 183 0 184 174 185 186
 82 3 178 9 0 2 14 183 63 187 ?0 81 188 6 189 -0 0 0 81 24 81 1 184 182 179 183
 177 187 190 0 191 81 1 185 169 124 81 0 190 177 192 193 82 3 186 9 1 2 14 81 1
 194 ?183 195 77 6 196 +0 0 183 195 24 81 1 190 181 179 81 185 194 197 184 198 8
1 1 192 170 124 195 0 197 185 199 200 82 3 193 9 2 2 14 195 117 201 ?81 96 36 6
 202 +0 0 81 96 24 81 1 197 180 179 195 192 201 181 190 203 81 1 199 171 124 18
 0 180 192 204 205 82 3 200 9 3 2 14 18 123 206 ?90 0 65 6 7 +0 0 90 0 24 81 1 1
80 177 179 18 199 206 0 176 207 81 1 204 172 124 96 0 181 199 208 209 82 3 205 9
 4 2 14 96 119 15 ?195 90 93 6 210 -0 0 195 90 24 81 1 181 179 179 96 204 15 176
 197 211 81 1 208 173 124 1 0 212 204 0 213 82 3 209 9 5 2 81 1 212 174 214 1 20
8 215 0 0 216 82 3 213 9 0 3 80 1 214 217 218 8038 0 0 0 0 0 0 0 0 0 TTTTTTTTTTT
TTF10 81 1 215 175 217 1 212 14 0 0 219 98 255 10 216 84 114 97 110 115 105 115
 116 111 114 80 1 217 220 221 8017 0 0 0 0 0 0 0 0 0 TTTTTTTTTTTTTF3 81 1 14 176
 222 1 215 2 0 0 223 84 10 219 Transistor80 1 222 179 224 8040 0 0 0 0 3 5 0 0 0
 TTTFFFFFFFFFFF2 83 255 3 223 .647058823529412 .647058823529412 .647058823529412
 79 17 224 SDL/TYSA_COLOUR_279 13 221 SDL/TYSA_NAME79 14 218 SDL/TYSA_UNAME80 1
 179 0 225 8001 0 0 0 0 3 5 0 0 0 FFFFTFTFFFFFFF2 81 1 15 184 13 96 181 0 2 206
 226 83 3 211 .647058823529412 .647058823529412 .647058823529412 81 1 206 185 13
 18 180 0 15 201 227 84 3 226 JKW81 1 201 186 13 195 197 0 206 194 228 84 3 227
 JKS81 1 194 187 13 81 190 0 201 187 229 84 3 228 JKO81 1 187 188 13 183 184 0 1
94 101 230 84 3 229 JKK81 1 101 189 13 90 176 0 187 97 231 84 3 230 JKG84 3 231
 JKC79 15 225 SDL/TYSA_COLOUR50 210 125 0 96 202 20 0 +.0048 .0482186712324619 -
.0199821473836899 0 1 0 0 0 1 13 24 44 0 0 0 0 0 0 10 18 50 202 124 0 195 189 21
0 0 +.0048 .0579686712324619 -.0329321473836899 0 0 -1 -1 0 0 50 20 126 0 90 210
 7 0 +.0048 .0579686712324619 -.00703214738368988 0 1334402673828312e-31 -1 0 1
 1334402673828312e-31 50 189 103 0 183 196 202 0 +0 .0579686712324619 -.01998214
73836899 1 0 0 0 1 0 50 196 2 0 81 0 189 0 +.0048 .0579686712324619 -.0199821473
836899 1 0 0 0 1 0 83 3 207 .647058823529412 .647058823529412 .647058823529412 1
5 65 122 0 66 18 0 17 66 0 65 69 39 48 67 108 0 0 -17 67 0 188 118 91 22 66 108
 0 38 +15 188 70 0 67 183 0 17 118 0 188 94 67 54 38 115 0 0 +17 91 0 188 67 94
 48 53 92 0 66 -17 38 0 36 29 55 22 118 115 0 0 -15 36 116 0 38 195 0 17 94 0 18
8 91 118 51 60 113 0 0 -17 60 0 93 58 89 54 94 113 0 118 +83 3 203 .647058823529
412 .647058823529412 .647058823529412 83 3 198 .647058823529412 .647058823529412
 .647058823529412 83 3 191 .647058823529412 .647058823529412 .647058823529412 83
 3 182 .647058823529412 .647058823529412 .647058823529412 82 3 171 9 9 1 17 41 0
 65 39 69 12 78 85 0 82 +30 106 7 0 85 0 88 0 +.0048 .0677186712324619 -.0199821
473836899 0 0 -1 17 82 0 77 78 43 12 37 98 0 0 -17 37 0 36 55 29 30 82 98 0 0 +8
2 3 168 9 8 1 82 3 164 9 7 1 82 3 161 9 6 1 82 3 158 9 5 1 82 3 155 9 4 1 82 3 1
28 9 3 1 79 12 125 BTI/ExportId84 3 103 JKt17 26 0 86 53 73 48 69 11 0 91 +84 3
 76 JKM84 3 72 JKE84 3 64 JKQ84 3 57 JKY84 3 35 JKU19 19 133 0 1 0 10 6 S0 74 4
 CI16 index_map_offset0 0 1 dCCZ20 17 6 0 0 208 212 215 14 184 50 0 0 0 0 0 0 0
 0 0 0 0 0 0 0 84 3 16 JKD1 0 
