**ABCDEFGHIJKLMNOPQRSTUVWXYZabcdefghijklmnopqrstuvwxyz**************************
**PARASOLID !"#$%&'()*+,-./:;<=>?@[\]^_`{|}~0123456789**************************
**PART1;
MC=unknown;
MC_MODEL=unknown;
MC_ID=unknown;
OS=unknown;
OS_RELEASE=unknown;
FRU=Parasolid 32.0.170;
APPL=Onshape;
SITE=unknown;
USER=unknown;
FORMAT=text;
GUISE=transmit;
KEY=BTGapi::writeModels_.xmt;
FILE=BTGapi::writeModels_.xmt;
DATE=2019-12-04T09:04:04 (UTC);
**PART2;
SCH=SCH_3200170_32001;
USFLD_SIZE=0;
**PART3;
**END_OF_HEADER*****************************************************************
T51 : TRANSMIT FILE created by modeller version 320017023 SCH_3200170_32001_1300
6227 0 12 34 CCCCCCI4 mesh1006 0 I8 polyline1008 0 CCCCCCCDI5 owner1040 0 CCCCCC
I13 boundary_mesh1006 0 I17 boundary_polyline1008 0 CCCA16 index_map_offset0 0 1
 dA9 index_map82 0 A17 node_id_index_map82 0 A20 schema_embedding_map82 0 A5 chi
ld12 0 A14 lowest_node_id0 0 1 dA16 mesh_offset_data206 0 Z1 682 2 3 0 0 0 0 0 0
 1e3 1e-8 0 4 0 1 0 1 1 5 6 7 8 0 0 9 10 11 0 0 0 0 0 0 0 81 255 1 2 622 12 1 13
 0 14 15 16 70 11 CI9 list_type0 0 1 uI10 notransmit0 0 1 lCCCDCCDI12 finger_ind
ex0 0 1 dI12 finger_block1012 0 CZ3 0 4 T1 0 0 6 20 1 17 17 13 255 5 311 0 1 0 1
8 0 0 19 0 51 255 6 302 0 20 21 0 0 --.0844409316778183 129017321983144e-33 .012
7 0 0 -1 .002107012766014995 -1 0 0 30 255 7 310 0 10 22 0 0 +.0715279206633568
 .00635 .0127 0 0 -1 29 255 8 412 0 11 23 0 .0715279206633568 .00635 .00508 19 8
 CCCCCCCA5 owner12 0 Z9 109 0 1 19 0 24 V0 16 255 10 268 25 ?26 0 27 7 0 0 1 18
 255 11 408 14 28 0 29 8 ?1 81 1 14 621 12 11 30 0 31 2 32 17 255 28 0 33 34 35
 11 36 37 0 26 -18 29 103 38 39 11 40 41 ?1 81 1 38 669 12 29 42 0 43 44 45 17 3
9 0 46 47 48 29 49 50 0 51 -18 40 98 52 53 29 54 55 ?1 29 41 105 0 29 55 56 -.01
278640888631344 -.0413975827395916 .0127 29 55 100 0 40 57 41 -.0378528311848640
5 -.0413975827395916 .0127 29 56 259 0 58 41 59 -.0889 .00635 0 18 58 234 60 61
 62 63 56 ?1 29 59 258 0 62 56 64 -.0889 -.00635 0 18 62 230 65 66 67 58 59 ?1 2
9 64 257 0 67 59 68 -.03785283118486405 -.00635 0 18 67 226 69 70 71 62 64 ?1 29
 68 256 0 71 64 72 .02468663267791275 -.00635 0 18 71 222 73 74 75 67 68 ?1 29 7
2 254 0 75 68 23 -.03785283118486405 -.0413975827395916 0 18 75 214 76 77 78 71
 72 ?1 29 23 253 0 78 72 8 -.01278640888631344 -.0413975827395916 0 18 78 210 44
 79 80 75 23 ?1 81 1 44 670 12 78 81 0 38 52 82 17 79 0 83 77 84 78 85 86 0 47 -
18 80 68 87 34 88 78 89 ?1 81 1 87 682 12 80 90 0 73 0 91 17 34 0 33 92 28 80 26
 10 0 93 -18 88 73 94 95 96 80 97 ?1 29 89 70 0 80 98 97 .0715279206633568 .0063
5 .0127 29 98 553 0 99 100 89 .0889 -.00635 0 29 97 75 0 88 89 101 -.0889 .00635
 .0127 29 101 80 0 96 97 102 -.0889 -.00635 .0127 18 96 78 103 104 105 88 101 ?1
 29 102 85 0 105 101 106 -.03785283118486405 -.00635 .0127 18 105 83 107 108 109
 96 102 ?1 29 106 90 0 109 102 57 .02468663267791275 -.00635 .0127 18 109 88 110
 49 54 105 106 ?1 29 57 95 0 54 106 55 .0715279206633568 -.00635 .0127 18 54 93
 111 112 40 109 57 ?1 81 1 111 679 12 54 113 0 60 110 114 17 112 0 115 116 117 5
4 35 118 0 119 -15 255 115 279 0 120 121 0 17 116 0 115 74 112 109 119 122 0 0 +
17 117 0 115 112 123 124 125 126 0 0 +17 35 0 33 28 92 124 112 118 0 36 +16 118
 263 127 ?35 128 129 130 0 0 1 17 119 0 131 132 49 54 116 122 0 92 -15 131 7 0 1
32 133 134 17 132 0 131 135 119 80 92 136 0 0 -17 49 0 131 119 51 109 39 50 0 48
 +16 122 43 137 ?116 138 139 140 0 0 1 17 92 0 33 35 34 54 132 136 0 0 +15 33 41
9 0 28 18 0 16 136 18 141 ?92 142 143 144 0 0 1 81 1 141 646 12 136 145 0 146 14
7 148 16 142 23 149 ?135 150 136 151 0 0 1 16 143 13 147 ?152 136 153 154 0 0 1
 30 144 20 0 136 154 151 0 +.0715279206633568 520417042793042e-32 .0127 0 -1 0 3
1 255 154 15 0 143 155 144 0 +-.0844409316778183 129017321983144e-33 .0127 0 0 1
 1 0 0 .002107012766014995 30 151 25 0 142 144 156 0 +-.00868603966832161 .00635
 .0127 -1 0 0 30 156 30 0 150 151 157 0 +-.0889 520417042793042e-32 .0127 0 -1 0
 16 150 28 158 ?104 139 142 156 0 0 1 30 157 35 0 139 156 140 0 +-.0633764155924
32 -.00635 .0127 -1 0 0 16 139 33 159 ?160 122 150 157 0 0 1 30 140 45 0 122 157
 161 0 +.0481072766706348 -.00635 .0127 -1 0 0 31 161 50 0 138 140 162 0 +-.0310
165360569954 -.0355740673840046 .0127 0 0 1 1 0 0 .003797945380210895 16 138 48
 163 ?164 50 122 161 0 0 1 30 162 55 0 50 161 165 0 +.00595011189579964 -.023873
7913697958 .0127 .730347671480442 .683075602523685 0 16 50 53 166 ?49 167 138 16
2 0 0 1 30 165 60 0 167 162 168 0 +-.03785283118486405 -.0238737913697958 .0127
 0 -1 0 16 167 58 169 ?170 129 50 165 0 0 1 30 168 65 0 129 165 171 0 +-.0253196
2003558875 -.0413975827395916 .0127 1 0 0 16 129 63 172 ?51 118 167 168 0 0 1 31
 171 252 0 173 168 174 0 +-.0844409316778183 129017321983144e-33 0 0 0 1 1 0 0 .
002107012766014995 16 173 206 175 ?176 177 178 171 0 0 1 30 174 250 0 177 171 17
9 0 +-.00868603966832161 .00635 0 -1 0 0 16 177 198 180 ?181 182 173 174 0 0 1 3
0 179 249 0 182 174 183 0 +-.0889 520417042793042e-32 0 0 -1 0 16 182 194 184 ?1
85 186 177 179 0 0 1 30 183 248 0 186 179 187 0 +-.063376415592432 -.00635 0 -1
 0 0 16 186 190 188 ?189 190 182 183 0 0 1 30 187 247 0 190 183 191 0 +.04810727
66706348 -.00635 0 -1 0 0 16 190 186 192 ?84 193 186 187 0 0 1 31 191 246 0 193
 187 194 0 +-.0310165360569954 -.0355740673840046 0 0 0 1 1 0 0 .003797945380210
895 16 193 182 195 ?196 86 190 191 0 0 1 30 194 245 0 86 191 197 0 +.00595011189
579964 -.0238737913697958 0 .730347671480442 .683075602523685 0 16 86 178 198 ?8
5 199 193 194 0 0 1 30 197 244 0 199 194 200 0 +-.03785283118486405 -.0238737913
697958 0 0 -1 0 16 199 174 201 ?202 153 86 197 0 0 1 30 200 243 0 153 197 203 0
 +-.02531962003558875 -.0413975827395916 0 1 0 0 16 153 170 204 ?205 143 199 200
 0 0 1 30 203 303 0 206 200 207 0 +-.01278640888631344 -.0413975827395916 .0127
 0 0 -1 16 206 261 208 ?47 209 128 203 0 0 1 30 207 304 0 209 203 130 0 +-.03785
283118486405 -.0413975827395916 .0127 0 0 -1 16 209 262 210 ?211 212 206 207 0 0
 1 30 130 305 0 118 207 213 0 +.0715279206633568 -.00635 .0127 0 0 -1 30 213 306
 0 128 130 214 0 +.02468663267791275 -.00635 .0127 0 0 -1 16 128 264 43 ?74 206
 118 213 0 0 1 30 214 307 0 212 213 215 0 +-.03785283118486405 -.00635 .0127 0 0
 -1 16 212 265 216 ?70 217 209 214 0 0 1 30 215 308 0 217 214 22 0 +-.0889 -.006
35 .0127 0 0 -1 16 217 266 218 ?66 27 212 215 0 0 1 30 22 309 0 27 215 7 0 +-.08
89 .00635 .0127 0 0 -1 16 27 267 219 ?220 10 217 22 0 0 1 81 1 219 667 12 27 221
 0 218 43 222 17 220 0 223 185 95 58 224 27 0 181 +15 223 283 0 185 225 0 17 185
 0 223 226 220 62 61 182 0 189 +17 95 0 223 220 226 88 104 150 0 135 -17 224 0 2
27 93 181 88 220 27 0 0 -17 181 0 227 224 228 58 229 177 0 0 +15 227 285 0 181 2
30 0 17 228 0 227 181 231 232 233 178 0 234 +17 229 0 83 235 61 232 181 177 0 22
8 -15 83 168 0 229 236 237 17 235 0 83 84 229 99 234 238 0 0 +17 61 0 83 229 189
 58 185 182 0 220 -18 232 489 239 229 99 0 100 ?1 81 1 239 627 12 232 240 0 241
 242 243 18 99 485 242 120 244 232 98 ?1 29 100 556 0 232 245 98 .0889 .00635 0
 29 245 557 0 63 246 100 .0889 -.00635 .00508 18 63 491 241 123 58 124 245 ?1 29
 246 558 0 124 247 245 .0715279206633568 -.00635 .00508 18 124 497 31 35 63 244
 246 ?1 29 247 560 0 244 0 246 .0889 .00635 .00508 18 244 483 248 233 124 99 247
 ?1 81 1 248 629 12 244 249 0 242 250 251 17 233 0 252 253 234 244 228 178 0 231
 -15 252 502 0 234 254 0 17 253 0 252 255 233 63 256 257 0 125 +17 234 0 252 233
 255 232 235 238 0 0 -16 178 442 258 ?228 173 259 155 0 0 1 17 231 0 227 228 26
 244 260 261 0 256 -17 26 0 227 231 93 11 34 10 0 260 +17 260 0 262 36 256 11 23
1 261 0 0 +16 261 466 263 ?260 37 257 264 0 0 1 17 256 0 262 260 125 244 253 257
 0 0 -15 262 523 0 256 265 266 17 125 0 262 256 36 63 117 126 0 0 -16 257 433 26
7 ?253 261 268 269 0 0 1 81 1 267 637 12 257 270 0 271 272 273 16 268 480 250 ?2
74 257 238 275 0 0 1 30 269 552 0 257 0 264 0 +.0889 520417042793042e-32 .00508
 0 -1 0 30 264 551 0 261 269 276 0 +.0802139603316784 .00635 .00508 -1 0 0 30 27
6 550 0 37 264 277 0 +.0715279206633568 520417042793042e-32 .00508 0 -1 0 16 37
 469 278 ?36 126 261 276 0 0 1 30 277 549 0 126 276 279 0 +.0802139603316784 -.0
0635 .00508 -1 0 0 16 126 455 280 ?117 281 37 277 0 0 1 31 279 548 0 281 277 282
 0 +.0821621716022492 22533881600156e-32 .00508 0 0 1 1 0 0 .00368006213968712 1
6 281 463 283 ?284 259 126 279 0 0 1 30 282 547 0 238 279 275 0 +.0889 520417042
793042e-32 0 0 -1 0 16 238 474 285 ?235 268 0 282 0 0 1 31 275 543 0 268 282 286
 0 +.0821621716022492 22533881600156e-32 0 0 0 1 1 0 0 .00368006213968712 30 286
 542 0 259 275 155 0 +.0889 -.00635 .00508 0 0 -1 16 259 436 271 ?255 178 281 28
6 0 0 1 30 155 539 0 178 286 154 0 +.0889 .00635 .00508 0 0 -1 81 1 271 636 12 2
59 287 0 258 267 288 17 255 0 252 234 253 99 123 259 0 235 +17 123 0 115 117 120
 63 255 259 0 253 -17 120 0 115 123 74 99 84 190 0 255 -17 74 0 115 120 116 71 4
8 128 0 85 +17 84 0 83 79 235 71 120 190 0 0 +17 48 0 46 39 85 109 74 128 0 116
 -17 85 0 46 48 47 71 79 86 0 84 +15 46 273 0 85 289 0 17 47 0 46 85 39 78 290 2
06 0 205 +17 290 0 291 53 205 29 47 206 0 0 -17 205 0 291 290 211 78 77 153 0 0
 +15 291 269 0 205 292 0 17 211 0 291 205 53 75 293 209 0 202 +17 77 0 83 294 79
 75 205 153 0 211 -17 294 0 83 189 77 67 202 199 0 295 -17 189 0 83 61 294 62 29
5 186 0 0 +17 202 0 296 293 70 75 294 199 0 0 +17 295 0 297 108 66 67 189 186 0
 0 -15 297 281 0 295 298 0 17 108 0 297 160 295 105 70 212 0 299 -17 66 0 297 29
5 160 62 226 217 0 185 +17 160 0 297 66 108 96 300 139 0 0 +17 226 0 223 95 185
 96 66 217 0 160 -17 300 0 131 170 104 105 160 139 0 0 -17 170 0 131 51 300 40 2
99 167 0 293 +17 104 0 131 300 135 96 95 150 0 226 +17 135 0 131 104 132 88 93 1
42 0 224 +17 93 0 227 26 224 80 135 142 0 132 -17 51 0 131 49 170 29 53 129 0 29
0 +17 299 0 296 70 293 105 170 167 0 300 -17 293 0 296 299 202 40 211 209 0 0 -1
5 296 271 0 202 301 0 14 255 301 272 302 ?292 298 296 5 303 -0 0 292 298 24 81 1
 302 642 12 301 304 0 305 306 307 14 292 270 305 ?289 301 291 5 308 -0 0 289 301
 24 14 298 282 309 ?301 225 297 5 310 +0 0 301 225 24 50 255 303 294 0 301 308 3
11 0 +-.03785283118486405 -.0238737913697958 .0127 1 0 0 0 0 -1 13 24 110 0 0 0
 0 0 0 9 18 14 18 288 312 ?230 0 33 5 21 +0 0 230 0 24 81 1 312 611 12 18 313 0
 0 314 315 14 230 286 316 ?225 18 227 5 317 -0 0 225 18 24 50 21 301 0 18 317 6
 0 +.0715279206633568 520417042793042e-32 .0127 1 0 0 0 0 -1 50 317 300 0 230 31
8 21 0 +-.00868603966832161 .00635 .0127 0 -1 0 0 0 -1 50 318 299 0 225 310 317
 0 +-.0889 520417042793042e-32 .0127 1 0 0 0 0 -1 14 225 284 306 ?298 230 223 5
 318 -0 0 298 230 24 50 310 298 0 298 319 318 0 +-.063376415592432 -.00635 .0127
 0 -1 0 0 0 -1 50 319 297 0 121 320 310 0 +.0481072766706348 -.00635 .0127 0 -1
 0 0 0 -1 14 121 280 314 ?20 289 115 5 319 +0 0 20 289 24 51 320 296 0 321 311 3
19 0 --.0310165360569954 -.0355740673840046 .0127 0 0 -1 .003797945380210895 -1
 0 0 14 321 276 322 ?133 20 323 5 320 +0 0 133 20 24 50 311 295 0 289 303 320 0
 +.00595011189579964 -.0238737913697958 .0127 -.683075602523685 .730347671480442
 0 -.730347671480442 -.683075602523685 0 14 289 274 324 ?121 292 46 5 311 -0 0 1
21 292 24 81 1 324 640 12 289 325 0 322 305 326 80 255 1 12 327 328 9000 0 0 0 0
 3 5 0 0 0 FFTFTFTTFFFFFF3 81 1 325 602 329 289 330 324 331 332 333 81 1 322 639
 12 321 334 0 272 324 335 81 1 305 641 12 292 331 0 324 302 336 84 255 3 326 JHi
81 1 331 601 329 292 337 305 304 325 338 84 3 336 JHe80 1 329 0 339 8001 0 0 0 0
 3 5 0 0 0 FFFFTFTFFFFFFF2 81 1 337 393 327 292 0 331 340 330 341 81 1 304 600 3
29 301 340 302 342 331 343 83 255 3 338 .615686274509804 .811764705882353 .92941
1764705882 81 1 340 392 327 301 0 304 344 337 345 81 1 342 599 329 298 346 309 3
47 304 348 83 3 343 .615686274509804 .811764705882353 .929411764705882 81 1 346
 389 327 298 0 342 349 344 350 81 1 309 644 12 298 342 0 306 146 351 81 1 347 59
8 329 225 344 306 352 342 353 83 3 348 .615686274509804 .811764705882353 .929411
764705882 81 1 344 391 327 225 0 347 346 340 354 81 1 306 643 12 225 347 0 302 3
09 355 81 1 352 597 329 230 356 316 313 347 357 83 3 353 .615686274509804 .81176
4705882353 .929411764705882 81 1 356 589 327 230 0 352 358 359 360 81 1 316 614
 12 230 352 0 361 278 362 81 1 313 596 329 18 363 312 0 352 364 83 3 357 .615686
274509804 .811764705882353 .929411764705882 81 1 363 592 327 18 0 313 365 0 366
 83 3 364 .615686274509804 .811764705882353 .929411764705882 80 1 327 367 368 90
00 0 0 0 0 3 6 0 0 0 FFTFTFTTFFFFFF1 81 1 365 591 327 121 0 332 359 363 369 82 2
55 3 366 8 3 2 81 1 332 603 329 121 365 314 325 370 371 81 1 359 590 327 236 0 3
72 356 365 373 82 3 369 8 2 2 14 236 153 361 ?254 133 374 5 375 -0 0 254 133 24
 81 1 372 607 329 236 359 361 376 377 378 82 3 373 8 1 2 81 1 361 613 12 236 372
 0 314 316 379 81 1 376 606 329 133 349 146 334 372 380 81 1 377 608 329 254 381
 382 372 383 384 83 3 378 .615686274509804 .811764705882353 .929411764705882 14
 254 499 382 ?385 236 252 5 386 +0 0 385 236 24 81 1 381 501 327 254 0 377 387 3
88 389 81 1 382 625 12 254 377 0 390 241 391 81 1 383 609 329 385 388 390 377 39
2 393 83 3 384 .615686274509804 .811764705882353 .929411764705882 14 385 515 390
 ?265 254 394 5 395 +0 0 265 254 24 81 1 388 517 327 385 0 383 381 396 397 81 1
 390 624 12 385 383 0 15 382 398 81 1 392 610 329 265 396 15 383 0 399 83 3 393
 .615686274509804 .811764705882353 .929411764705882 14 265 520 15 ?0 385 262 5 4
00 +0 0 0 385 24 81 1 396 522 327 265 0 392 388 401 402 81 1 15 623 12 265 392 0
 2 390 403 83 3 399 .615686274509804 .811764705882353 .929411764705882 84 3 403
 JIK81 1 401 581 327 1 0 404 396 30 405 82 3 402 7 2 2 81 1 404 593 406 1 401 40
7 0 0 408 81 1 30 582 327 11 0 14 401 409 410 82 3 405 6 0 3 81 1 409 583 327 12
4 0 31 30 411 412 82 3 410 8 0 0 81 1 31 620 12 124 409 0 180 14 413 81 1 411 58
4 327 177 0 180 409 414 415 82 3 412 8 1 0 81 1 180 619 12 177 411 0 192 31 416
 81 1 414 585 327 190 0 192 411 417 418 82 3 415 8 0 1 81 1 192 618 12 190 414 0
 25 180 419 81 1 417 586 327 10 0 25 414 420 421 82 3 418 8 1 1 81 1 25 617 12 1
0 417 0 127 192 422 81 1 420 587 327 118 0 127 417 358 423 82 3 421 8 2 1 81 1 1
27 616 12 118 420 0 278 25 424 81 1 358 588 327 37 0 278 420 356 425 82 3 423 8
 3 1 81 1 278 615 12 37 358 0 316 127 426 82 3 425 8 4 1 84 3 426 JJR84 3 424 JJ
N84 3 422 JJJ84 3 419 JJF84 3 416 JJB84 3 413 JJE80 1 406 427 428 8038 0 0 0 0 0
 0 0 0 0 TTTTTTTTTTTTTF10 81 1 407 594 427 1 404 13 0 0 429 98 255 6 408 80 97 1
14 116 32 49 80 1 427 430 431 8017 0 0 0 0 0 0 0 0 0 TTTTTTTTTTTTTF3 81 1 13 595
 432 1 407 2 0 0 433 84 6 429 Part 180 1 432 329 434 8040 0 0 0 0 3 5 0 0 0 TTTF
FFFFFFFFFF2 83 3 433 .615686274509804 .811764705882353 .929411764705882 79 255 1
7 434 SDL/TYSA_COLOUR_279 13 431 SDL/TYSA_NAME79 14 428 SDL/TYSA_UNAME50 400 538
 0 265 0 395 0 +0 -.0175237913697958 .00508 0 0 1 1 0 0 51 395 536 0 385 400 386
 0 -.0821621716022492 22533881600156e-32 .00508 0 0 -1 .00368006213968712 -1 0 0
 50 386 532 0 254 395 435 0 +.0889 520417042793042e-32 .00508 1 0 0 0 0 -1 50 43
5 3 0 133 386 375 0 +0 -.0175237913697958 .0127 0 0 1 1 0 0 14 133 1 146 ?236 32
1 436 5 435 +0 0 236 321 24 50 375 242 0 236 435 308 0 +0 -.0175237913697958 0 0
 0 1 1 0 0 50 308 293 0 292 375 303 0 +-.02531962003558875 -.0413975827395916 .0
127 0 1 0 0 0 1 81 1 146 645 12 133 376 0 309 141 437 15 436 6 0 438 133 131 17
 438 0 436 438 438 0 152 143 0 0 -17 152 0 439 152 152 0 438 143 0 0 +15 439 289
 0 152 20 440 14 20 290 272 ?321 121 439 5 6 +0 0 321 121 24 15 440 291 0 441 20
 0 17 441 0 440 441 441 0 176 173 0 0 -17 176 0 374 176 176 0 441 173 0 0 +15 37
4 167 0 176 236 83 81 1 272 638 12 20 370 0 267 322 442 81 1 370 604 329 20 443
 272 332 334 444 84 3 442 JHq81 1 443 396 327 20 0 370 445 270 446 81 1 334 605
 329 321 445 322 370 376 447 83 3 444 .615686274509804 .811764705882353 .9294117
64705882 81 1 445 395 327 321 0 334 330 443 448 83 3 447 .615686274509804 .81176
4705882353 .929411764705882 81 1 330 394 327 289 0 325 337 445 449 82 3 448 6 9
 2 82 3 449 6 8 2 81 1 270 435 327 257 0 267 443 287 450 82 3 446 6 10 2 81 1 28
7 438 327 259 0 271 270 451 452 82 3 450 7 9 1 81 1 451 444 327 178 0 258 287 45
3 454 82 3 452 7 3 1 81 1 258 635 12 178 451 0 280 271 455 81 1 453 457 327 126
 0 280 451 456 457 82 3 454 7 2 1 81 1 280 634 12 126 453 0 283 258 458 81 1 456
 465 327 281 0 283 453 459 460 82 3 457 7 7 1 81 1 283 633 12 281 456 0 263 280
 461 81 1 459 468 327 261 0 263 456 462 463 82 3 460 7 11 1 81 1 263 632 12 261
 459 0 285 283 464 81 1 462 476 327 238 0 285 459 465 466 82 3 463 7 5 1 81 1 28
5 631 12 238 462 0 250 263 467 81 1 465 482 327 268 0 250 462 249 468 82 3 466 7
 8 1 81 1 250 630 12 268 465 0 248 285 469 81 1 249 484 327 244 0 248 465 470 47
1 82 3 468 7 10 1 81 1 470 486 327 99 0 242 249 240 472 82 3 471 7 5 0 81 1 242
 628 12 99 470 0 239 248 473 81 1 240 490 327 232 0 239 470 387 474 82 3 472 7 6
 0 81 1 387 492 327 63 0 241 240 381 475 82 3 474 7 4 0 81 1 241 626 12 63 387 0
 382 239 476 82 3 475 7 7 0 84 3 476 JIc84 3 473 JIY84 3 469 JIp84 3 467 JIh84 3
 464 JIV84 3 461 JIt84 3 458 JId84 3 455 JIJ84 3 437 JHK84 3 398 JIW82 3 397 7 5
 2 15 394 518 0 284 385 477 17 284 0 394 284 284 0 478 281 0 0 +15 477 519 0 479
 385 0 17 479 0 477 479 479 0 274 268 0 0 -17 274 0 480 274 274 0 479 268 0 0 +1
5 480 529 0 274 236 0 17 478 0 266 478 478 0 284 281 0 0 -15 266 524 0 478 265 0
 84 3 391 JIS82 3 389 7 4 2 81 1 349 388 327 133 0 376 145 346 481 83 3 380 .615
686274509804 .811764705882353 .929411764705882 81 1 145 385 327 136 0 141 482 34
9 483 82 3 481 6 2 2 81 1 482 383 327 143 0 147 484 145 485 82 3 483 6 27 1 81 1
 147 647 12 143 482 0 141 175 486 81 1 484 382 327 173 0 175 487 482 488 82 3 48
5 6 25 1 81 1 175 648 12 173 484 0 147 163 489 81 1 487 381 327 138 0 163 490 48
4 491 82 3 488 6 24 1 81 1 163 649 12 138 487 0 175 195 492 81 1 490 380 327 193
 0 195 493 487 494 82 3 491 6 23 1 81 1 195 650 12 193 490 0 163 166 495 81 1 49
3 379 327 50 0 166 496 490 497 82 3 494 6 22 1 81 1 166 651 12 50 493 0 195 198
 498 81 1 496 378 327 86 0 198 499 493 500 82 3 497 6 21 1 81 1 198 652 12 86 49
6 0 166 172 501 81 1 499 377 327 129 0 172 502 496 503 82 3 500 6 20 1 81 1 172
 653 12 129 499 0 198 204 504 81 1 502 376 327 153 0 204 505 499 506 82 3 503 6
 19 1 81 1 204 654 12 153 502 0 172 169 507 81 1 505 375 327 167 0 169 508 502 5
09 82 3 506 6 18 1 81 1 169 655 12 167 505 0 204 201 510 81 1 508 374 327 199 0
 201 511 505 512 82 3 509 6 17 1 81 1 201 656 12 199 508 0 169 158 513 81 1 511
 373 327 150 0 158 514 508 515 82 3 512 6 16 1 81 1 158 657 12 150 511 0 201 184
 516 81 1 514 372 327 182 0 184 517 511 518 82 3 515 6 15 1 81 1 184 658 12 182
 514 0 158 137 519 81 1 517 371 327 122 0 137 520 514 521 82 3 518 6 14 1 81 1 1
37 659 12 122 517 0 184 159 522 81 1 520 369 327 139 0 159 523 517 524 82 3 521
 6 13 1 81 1 159 660 12 139 520 0 137 188 525 81 1 523 368 327 186 0 188 526 520
 527 82 3 524 6 11 1 81 1 188 661 12 186 523 0 159 149 528 81 1 526 367 327 142
 0 149 529 523 530 82 3 527 6 10 1 81 1 149 662 12 142 526 0 188 208 531 81 1 52
9 365 327 206 0 208 532 526 533 82 3 530 6 9 1 81 1 208 663 12 206 529 0 149 210
 534 81 1 532 364 327 209 0 210 535 529 536 82 3 533 6 7 1 81 1 210 664 12 209 5
32 0 208 216 537 81 1 535 363 327 212 0 216 538 532 539 82 3 536 6 6 1 81 1 216
 665 12 212 535 0 210 218 540 81 1 538 362 327 217 0 218 221 535 541 82 3 539 6
 5 1 81 1 218 666 12 217 538 0 216 219 542 81 1 221 361 327 27 0 219 543 538 544
 82 3 541 6 4 1 81 1 543 359 327 128 0 43 42 221 545 82 3 544 6 3 1 81 1 43 668
 12 128 543 0 219 38 546 81 1 42 357 327 29 0 38 81 543 547 82 3 545 6 1 1 81 1
 81 356 327 78 0 44 548 42 549 82 3 547 6 15 0 81 1 548 355 327 40 0 52 550 81 5
51 82 3 549 6 14 0 81 1 52 671 12 40 548 0 44 76 552 81 1 550 354 327 75 0 76 55
3 548 554 82 3 551 6 13 0 81 1 76 672 12 75 550 0 52 107 555 81 1 553 353 327 10
5 0 107 556 550 557 82 3 554 6 12 0 81 1 107 673 12 105 553 0 76 69 558 81 1 556
 352 327 67 0 69 559 553 560 82 3 557 6 11 0 81 1 69 674 12 67 556 0 107 103 561
 81 1 559 351 327 96 0 103 562 556 563 82 3 560 6 10 0 81 1 103 675 12 96 559 0
 69 65 564 81 1 562 350 327 62 0 65 565 559 566 82 3 563 6 9 0 81 1 65 676 12 62
 562 0 103 94 567 81 1 565 349 327 88 0 94 568 562 569 82 3 566 6 8 0 81 1 94 67
7 12 88 565 0 65 60 570 81 1 568 348 327 58 0 60 113 565 571 82 3 569 6 7 0 81 1
 60 678 12 58 568 0 94 111 572 81 1 113 347 327 54 0 111 573 568 574 82 3 571 6
 6 0 81 1 573 345 327 109 0 110 575 113 576 82 3 574 6 5 0 81 1 110 680 12 109 5
73 0 111 73 577 81 1 575 344 327 71 0 73 90 573 578 82 3 576 6 3 0 81 1 73 681 1
2 71 575 0 110 87 579 81 1 90 343 327 80 0 87 0 575 580 82 3 578 6 2 0 82 3 580
 6 1 0 84 3 579 JHI84 3 577 JHM84 3 572 JHY84 3 570 JHc84 3 567 JHg84 3 564 JHk8
4 3 561 JHo84 3 558 JHs84 3 555 JHw84 3 552 JH084 3 546 JHF84 3 542 JHR84 3 540
 JHV84 3 537 JHZ84 3 534 JHd84 3 531 JHl84 3 528 JHp84 3 525 JHt84 3 522 JH184 3
 519 JH584 3 516 JH984 4 513 KHBB84 4 510 KHFB84 4 507 KHJB84 4 504 KHNB84 4 501
 KHRB84 4 498 KHVB84 4 495 KHZB84 4 492 KHdB84 4 489 KHhB84 4 486 KHlB81 1 314 6
12 12 121 332 0 312 361 581 84 3 379 JJG84 3 581 JJK83 3 371 .615686274509804 .8
11764705882353 .929411764705882 79 9 368 BTI/DetId84 3 362 JJC82 3 360 8 0 2 84
 3 355 JHW82 3 354 6 5 2 84 3 351 JHO82 3 350 6 3 2 82 3 345 6 6 2 82 3 341 6 7
 2 79 15 339 SDL/TYSA_COLOUR84 3 335 JHm83 3 333 .615686274509804 .8117647058823
53 .929411764705882 79 12 328 BTI/ExportId15 323 275 0 164 321 582 17 164 0 323
 164 164 0 583 138 0 0 +15 582 277 0 584 321 0 17 584 0 582 584 584 0 196 193 0
 0 -17 196 0 237 196 196 0 584 193 0 0 +15 237 169 0 196 236 480 17 583 0 134 58
3 583 0 164 138 0 0 -15 134 11 0 583 133 0 84 3 315 JJO84 3 307 JHa17 70 0 296 2
02 299 67 108 212 0 294 +17 53 0 291 211 290 40 51 129 0 170 -84 3 288 JIN17 36
 0 262 125 260 124 28 37 0 117 +84 3 273 JIl84 3 251 JIU84 3 243 JIQ84 3 222 JHN
84 4 148 KHtB84 3 114 JHU84 3 91 JHE84 3 82 JH484 3 45 JH884 2 32 IJ19 19 312 0
 1 0 9 5 S0 74 4 CI16 index_map_offset0 0 1 dCCZ20 17 6 0 0 363 404 407 13 392 8
7 0 0 0 0 0 0 0 0 0 0 0 0 0 0 84 3 16 JHD1 0 
