**ABCDEFGHIJKLMNOPQRSTUVWXYZabcdefghijklmnopqrstuvwxyz**************************
**PARASOLID !"#$%&'()*+,-./:;<=>?@[\]^_`{|}~0123456789**************************
**PART1;
MC=unknown;
MC_MODEL=unknown;
MC_ID=unknown;
OS=unknown;
OS_RELEASE=unknown;
FRU=Parasolid 32.0.170;
APPL=Onshape;
SITE=unknown;
USER=unknown;
FORMAT=text;
GUISE=transmit;
KEY=BTGapi::writeModels_.xmt;
FILE=BTGapi::writeModels_.xmt;
DATE=2019-12-04T09:03:50 (UTC);
**PART2;
SCH=SCH_3200170_32001;
USFLD_SIZE=0;
**PART3;
**END_OF_HEADER*****************************************************************
T51 : TRANSMIT FILE created by modeller version 320017023 SCH_3200170_32001_1300
6227 0 12 34 CCCCCCI4 mesh1006 0 I8 polyline1008 0 CCCCCCCDI5 owner1040 0 CCCCCC
I13 boundary_mesh1006 0 I17 boundary_polyline1008 0 CCCA16 index_map_offset0 0 1
 dA9 index_map82 0 A17 node_id_index_map82 0 A20 schema_embedding_map82 0 A5 chi
ld12 0 A14 lowest_node_id0 0 1 dA16 mesh_offset_data206 0 Z1 369 2 3 0 0 0 0 0 0
 1e3 1e-8 0 4 0 1 0 1 1 5 6 7 8 0 0 9 10 11 0 0 0 0 0 0 0 81 255 1 2 348 12 1 13
 0 14 15 16 70 11 CI9 list_type0 0 1 uI10 notransmit0 0 1 lCCCDCCDI12 finger_ind
ex0 0 1 dI12 finger_block1012 0 CZ3 0 4 T1 0 0 7 20 1 17 17 13 255 5 183 0 1 0 1
8 0 0 19 0 50 255 6 290 20 21 22 0 0 +-.0304928147091705 -.009525 .00254 -.34202
0143325669 -.939692620785908 0 0 0 1 30 255 7 269 0 10 23 0 0 +-.006628257714209
05 -.01821098840011525 .00254 .939692620785909 -.342020143325669 0 29 255 8 261
 0 11 24 0 -.04445 -.004445 .00254 19 8 CCCCCCCA5 owner12 0 Z9 60 0 1 19 0 25 V0
 16 255 10 267 26 ?27 0 28 7 0 0 1 18 255 11 258 29 30 0 31 8 ?1 81 1 29 344 12
 11 32 0 33 34 35 17 255 30 0 36 37 38 11 39 28 0 40 +18 31 249 41 42 11 43 24 ?
1 81 1 41 346 12 31 44 0 34 14 45 17 42 0 46 47 48 31 49 50 0 38 +18 43 240 34 2
7 31 51 52 ?1 29 24 252 0 31 52 8 -.04445 -.004445 0 29 52 243 0 43 53 24 -.0304
928147091705 -.009525 .00254 29 53 239 0 51 54 52 -.0304928147091705 -.009525 0
 18 51 236 14 49 43 55 53 ?1 29 54 149 0 56 57 53 .04445 -.009525 0 18 56 126 58
 59 60 61 54 ?1 29 57 151 0 61 62 54 -.04445 .009525 0 18 61 134 63 64 56 65 57
 ?1 29 62 152 0 65 66 57 .04445 .009525 0 18 65 138 67 68 61 0 62 ?1 29 66 56 0
 55 69 62 .04445 -.009525 .00254 18 55 54 70 71 51 72 66 ?1 29 69 46 0 72 73 66
 -.04445 .009525 .00254 18 72 44 74 75 55 60 69 ?1 29 73 41 0 60 0 69 .04445 .00
9525 .00254 18 60 39 76 77 72 56 73 ?1 81 1 76 368 12 60 78 0 63 67 79 17 77 0 8
0 81 82 60 68 83 0 84 -15 255 80 171 0 82 18 0 17 81 0 80 59 77 55 85 86 0 87 +1
7 82 0 80 77 59 65 88 89 0 0 -17 68 0 90 64 84 65 77 83 0 91 +16 83 156 92 ?68 9
3 94 95 0 0 1 17 84 0 90 68 96 60 75 97 0 85 -15 90 169 0 64 98 0 17 96 0 90 84
 64 72 99 94 0 37 -17 75 0 100 40 85 72 84 97 0 96 +16 97 14 101 ?75 102 86 103
 0 0 1 17 85 0 100 75 87 60 81 86 0 0 -15 100 6 0 40 104 105 17 87 0 100 85 27 5
5 106 107 0 0 -16 86 9 108 ?81 97 109 110 0 0 1 81 1 108 357 12 86 111 0 112 113
 114 16 109 102 115 ?116 86 117 118 0 0 1 30 110 11 0 86 0 103 0 +.04445 1734723
475976805e-33 .00254 0 -1 0 30 103 16 0 97 110 119 0 +693889390390723e-32 .00952
5 .00254 -1 0 0 30 119 21 0 102 103 120 0 +-.04445 1734723475976805e-33 .00254 0
 -1 0 16 102 19 121 ?40 107 97 119 0 0 1 30 120 26 0 107 119 122 0 +693889390390
723e-32 -.009525 .00254 -1 0 0 16 107 24 123 ?106 124 102 120 0 0 1 31 255 122 3
1 0 124 120 125 0 +-.0381 .003175 .00254 0 0 1 1 0 0 .003175 16 124 29 126 ?127
 128 107 122 0 0 1 31 125 36 0 128 122 129 0 +.0381 .003175 .00254 0 0 -1 1 0 0
 .003175 16 128 34 130 ?131 132 124 125 0 0 1 30 129 148 0 89 125 133 0 +.04445
 1734723475976805e-33 0 0 -1 0 16 89 122 113 ?88 134 0 129 0 0 1 30 133 147 0 13
4 129 135 0 +693889390390723e-32 .009525 0 -1 0 0 16 134 118 136 ?64 137 89 133
 0 0 1 30 135 146 0 137 133 138 0 +-.04445 1734723475976805e-33 0 0 -1 0 16 137
 114 139 ?38 140 134 135 0 0 1 30 138 145 0 140 135 141 0 +693889390390723e-32 -
.009525 0 -1 0 0 16 140 110 142 ?48 117 137 138 0 0 1 31 141 144 0 117 138 118 0
 +-.0381 .003175 0 0 0 1 1 0 0 .003175 16 117 106 112 ?143 109 140 141 0 0 1 31
 118 143 0 109 141 144 0 +.0381 .003175 0 0 0 -1 1 0 0 .003175 30 144 179 0 132
 118 145 0 +.04445 -.009525 .00254 0 0 -1 16 132 153 146 ?59 94 128 144 0 0 1 30
 145 181 0 94 144 95 0 +-.04445 .009525 .00254 0 0 -1 16 94 155 147 ?99 83 132 1
45 0 0 1 30 95 182 0 83 145 148 0 +.04445 .009525 .00254 0 0 -1 30 148 246 0 93
 95 149 0 +-.0304928147091705 -.009525 0 0 0 -1 16 93 244 150 ?151 50 83 148 0 0
 1 30 149 255 0 50 148 23 0 +-.0304928147091705 -.009525 0 -.939692620785909 .34
2020143325669 0 16 50 253 33 ?42 28 93 149 0 0 1 30 23 264 0 28 149 7 0 +-.04445
 -.004445 .00254 0 0 1 16 28 262 152 ?30 10 50 23 0 0 1 81 1 152 340 12 28 153 0
 142 150 154 80 255 1 12 155 156 9000 0 0 0 0 3 5 0 0 0 FFTFTFTTFFFFFF3 81 1 153
 309 155 28 0 152 157 158 159 81 1 142 339 12 140 158 0 123 152 160 81 1 150 341
 12 93 157 0 152 26 161 84 255 3 154 JIN81 1 157 308 155 93 0 150 162 153 163 81
 1 26 342 12 10 162 0 150 33 164 84 3 161 JIJ81 1 162 307 155 10 0 26 165 157 16
6 81 1 33 343 12 50 165 0 26 29 167 84 3 164 JIF81 1 165 306 155 50 0 33 32 162
 168 84 3 167 JIB80 1 155 169 170 9000 0 0 0 0 3 6 0 0 0 FFTFTFTTFFFFFF1 81 1 32
 305 155 11 0 29 171 165 172 82 255 3 168 7 0 1 81 1 171 304 155 43 0 34 44 32 1
73 82 3 172 7 3 0 81 1 34 345 12 43 171 0 29 41 174 81 1 44 303 155 31 0 41 175
 171 176 82 3 173 7 2 0 81 1 175 302 155 51 0 14 177 44 178 82 3 176 7 1 0 81 1
 14 347 12 51 175 0 41 2 179 81 1 177 234 155 1 0 180 181 175 182 82 3 178 7 0 0
 81 1 180 319 183 1 177 184 0 0 185 81 1 181 233 155 186 0 187 188 177 189 82 3
 182 6 0 3 14 255 186 158 15 ?104 190 191 5 192 -0 0 104 190 25 81 1 187 327 193
 186 181 15 194 195 196 81 1 188 232 155 197 0 198 199 181 200 82 3 189 6 7 2 14
 197 162 201 ?190 202 203 5 204 +0 0 190 202 25 81 1 198 325 193 197 188 201 205
 194 206 81 1 199 230 155 18 0 207 208 188 209 82 3 200 6 6 2 14 18 172 210 ?98
 0 80 5 22 +0 0 98 0 25 81 1 207 322 193 18 199 210 0 211 212 81 1 208 226 155 9
8 0 211 213 199 214 82 3 209 6 4 2 14 98 170 215 ?202 18 90 5 216 -0 0 202 18 25
 81 1 211 323 193 98 208 215 207 205 217 81 1 213 225 155 128 0 130 218 208 219
 82 3 214 6 0 2 81 1 130 353 12 128 213 0 215 115 220 81 1 218 224 155 109 0 115
 221 213 222 82 3 219 6 15 1 81 1 115 354 12 109 218 0 130 126 223 81 1 221 223
 155 124 0 126 224 218 225 82 3 222 6 14 1 81 1 126 355 12 124 221 0 115 112 226
 81 1 224 222 155 117 0 112 111 221 227 82 3 225 6 13 1 81 1 112 356 12 117 224
 0 126 108 228 81 1 111 219 155 86 0 108 229 224 230 82 3 227 6 12 1 81 1 229 21
8 155 89 0 113 231 111 232 82 3 230 6 9 1 81 1 113 358 12 89 229 0 108 101 233 8
1 1 231 215 155 97 0 101 234 229 235 82 3 232 6 8 1 81 1 101 359 12 97 231 0 113
 136 236 81 1 234 214 155 134 0 136 237 231 238 82 3 235 6 5 1 81 1 136 360 12 1
34 234 0 101 146 239 81 1 237 212 155 132 0 146 240 234 241 82 3 238 6 4 1 81 1
 146 361 12 132 237 0 136 147 242 81 1 240 211 155 94 0 147 243 237 244 82 3 241
 6 2 1 81 1 147 362 12 94 240 0 146 92 245 81 1 243 210 155 83 0 92 246 240 247
 82 3 244 6 1 1 81 1 92 363 12 83 243 0 147 70 248 81 1 246 207 155 55 0 70 249
 243 250 82 3 247 6 0 1 81 1 70 364 12 55 246 0 92 58 251 81 1 249 206 155 56 0
 58 252 246 253 82 3 250 6 5 0 81 1 58 365 12 56 249 0 70 74 254 81 1 252 205 15
5 72 0 74 255 249 256 82 3 253 6 4 0 81 1 74 366 12 72 252 0 58 63 257 81 1 255
 204 155 61 0 63 78 252 258 82 3 256 6 3 0 81 1 63 367 12 61 255 0 74 76 259 81
 1 78 203 155 60 0 76 260 255 261 82 3 258 6 2 0 81 1 260 202 155 65 0 67 0 78 2
62 82 3 261 6 1 0 81 1 67 369 12 65 260 0 76 0 263 82 3 262 6 0 0 84 2 263 IH84
 3 259 JHI84 3 257 JHM84 3 254 JHQ84 3 251 JHU84 3 248 JHB84 3 245 JHF84 3 242 J
HJ84 3 239 JHR84 3 236 JHV84 3 233 JHh84 3 228 JHx84 3 226 JH184 3 223 JH581 1 2
15 352 12 98 211 0 210 130 264 84 3 220 JH981 1 210 351 12 18 207 0 201 215 265
 84 3 264 JHC81 1 201 350 12 197 198 0 15 210 266 84 3 265 JHS81 1 15 349 12 186
 187 0 2 201 267 84 3 266 JHa84 3 267 JHe80 1 193 0 268 8001 0 0 0 0 3 5 0 0 0 F
FFFTFTFFFFFFF2 81 1 205 324 193 202 269 270 211 198 271 83 255 3 217 .6156862745
09804 .811764705882353 .929411764705882 14 202 168 270 ?197 98 36 5 272 -0 0 197
 98 25 81 1 269 318 155 202 0 205 273 0 274 81 1 270 331 12 202 205 0 0 275 276
 83 3 271 .615686274509804 .811764705882353 .929411764705882 81 1 275 332 12 190
 194 0 270 277 278 84 3 276 JIS14 190 166 275 ?186 197 279 5 280 +0 0 186 197 25
 81 1 194 326 193 190 273 275 198 187 281 81 1 277 333 12 104 195 0 275 282 283
 84 3 278 JIO14 104 1 277 ?284 186 100 5 285 +0 0 284 186 25 81 1 195 328 193 10
4 286 277 187 287 288 81 1 282 334 12 284 287 0 277 289 290 84 3 283 JIK14 284 9
0 282 ?21 104 46 5 291 -0 0 21 104 25 81 1 287 329 193 284 292 282 195 293 294 8
1 1 289 335 12 21 293 0 282 121 295 84 3 290 JIG14 21 278 289 ?0 284 296 5 6 +0
 0 0 284 25 81 1 293 330 193 21 297 289 287 0 298 81 1 121 336 12 102 299 0 289
 139 300 84 3 295 JIC81 1 299 313 155 102 0 121 301 297 302 81 1 139 337 12 137
 301 0 121 123 303 84 3 300 JId81 1 301 312 155 137 0 139 304 299 305 81 1 123 3
38 12 107 304 0 139 142 306 84 3 303 JIZ81 1 304 311 155 107 0 123 158 301 307 8
4 3 306 JIV81 1 158 310 155 140 0 142 153 304 308 82 3 307 7 5 1 82 3 308 7 4 1
 82 3 305 7 6 1 81 1 297 314 155 21 0 293 299 292 309 82 3 302 7 7 1 81 1 292 31
5 155 284 0 287 297 286 310 82 3 309 7 0 2 81 1 286 316 155 104 0 195 292 273 31
1 82 3 310 7 1 2 81 1 273 317 155 190 0 194 286 269 312 82 3 311 7 2 2 82 3 312
 7 3 2 83 3 298 .615686274509804 .811764705882353 .929411764705882 15 296 279 0
 313 21 0 13 25 61 0 0 0 0 0 0 9 18 17 313 0 296 39 314 11 27 10 0 0 -17 39 0 29
6 49 313 31 30 28 0 0 -17 314 0 296 313 49 43 151 93 0 0 -17 27 0 100 87 40 43 3
13 10 0 106 +17 40 0 100 27 75 11 37 102 0 313 +17 106 0 279 151 71 43 87 107 0
 314 +15 279 165 0 106 190 0 17 151 0 279 315 106 51 314 93 0 48 +17 71 0 279 10
6 315 55 59 132 0 81 -17 315 0 279 71 151 56 48 140 0 0 -17 59 0 80 82 81 56 71
 132 0 88 +17 88 0 46 48 91 56 82 89 0 315 +15 46 99 0 48 284 316 17 48 0 46 42
 88 51 315 140 0 0 +17 91 0 46 88 47 65 64 134 0 82 -17 47 0 46 91 42 61 38 137
 0 0 -17 64 0 90 96 68 61 91 134 0 99 +17 99 0 36 38 37 61 96 94 0 47 +15 36 167
 0 38 202 0 17 38 0 36 30 99 31 47 137 0 39 +17 37 0 36 99 30 72 40 102 0 0 -15
 316 100 0 143 284 317 17 143 0 316 143 143 0 318 117 0 0 +15 317 101 0 319 284
 0 17 319 0 317 319 319 0 116 109 0 0 -17 116 0 320 116 116 0 319 109 0 0 +15 32
0 159 0 116 186 0 17 318 0 321 318 318 0 143 117 0 0 -15 321 163 0 318 197 0 17
 49 0 296 314 39 51 42 50 0 151 -83 3 294 .615686274509804 .811764705882353 .929
411764705882 50 291 142 0 284 285 192 0 +693889390390723e-32 3469446951953615e-3
3 0 0 0 1 1 0 0 50 285 3 0 104 0 291 0 +693889390390723e-32 3469446951953615e-33
 .00254 0 0 1 1 0 0 51 255 192 173 0 186 291 204 0 +.0381 .003175 .00254 0 0 -1
 .003175 -1 0 0 51 204 174 0 197 192 280 0 --.0381 .003175 .00254 0 0 -1 .003175
 -1 0 0 50 280 175 0 190 204 272 0 +693889390390723e-32 -.009525 .00254 0 -1 0 0
 0 -1 50 272 176 0 202 280 216 0 +-.04445 1734723475976805e-33 .00254 1 0 0 0 0
 -1 50 216 177 0 98 272 22 0 +693889390390723e-32 .009525 .00254 0 -1 0 0 0 -1 5
0 22 178 0 18 216 6 0 +.04445 1734723475976805e-33 .00254 1 0 0 0 0 -1 83 3 288
 .615686274509804 .811764705882353 .929411764705882 83 3 281 .615686274509804 .8
11764705882353 .929411764705882 82 3 274 7 4 2 79 255 15 268 SDL/TYSA_COLOUR83 3
 212 .615686274509804 .811764705882353 .929411764705882 83 3 206 .61568627450980
4 .811764705882353 .929411764705882 15 203 161 0 127 197 321 17 127 0 203 127 12
7 0 322 124 0 0 +17 322 0 105 322 322 0 127 124 0 0 -15 105 7 0 322 104 323 15 3
23 8 0 131 104 0 17 131 0 323 131 131 0 324 128 0 0 +17 324 0 191 324 324 0 131
 128 0 0 -15 191 157 0 324 186 320 83 3 196 .615686274509804 .811764705882353 .9
29411764705882 80 1 183 325 326 8038 0 0 0 0 0 0 0 0 0 TTTTTTTTTTTTTF10 81 1 184
 320 325 1 180 13 0 0 327 98 255 6 185 80 97 114 116 32 49 80 1 325 328 329 8017
 0 0 0 0 0 0 0 0 0 TTTTTTTTTTTTTF3 81 1 13 321 330 1 184 2 0 0 331 84 6 327 Part
 180 1 330 193 332 8040 0 0 0 0 3 5 0 0 0 TTTFFFFFFFFFFF2 83 3 331 .615686274509
804 .811764705882353 .929411764705882 79 17 332 SDL/TYSA_COLOUR_279 13 329 SDL/T
YSA_NAME79 14 326 SDL/TYSA_UNAME84 2 179 II84 3 174 JII79 9 170 BTI/DetId82 3 16
6 7 1 1 82 3 163 7 2 1 84 3 160 JIR82 3 159 7 3 1 79 12 156 BTI/ExportId84 3 114
 JHl84 3 79 JHE84 3 45 JIE84 3 35 JIM19 19 184 0 1 0 9 5 S0 81 2 20 291 333 6 0
 0 0 0 334 335 80 2 333 336 337 8044 0 0 0 0 3 5 0 0 0 FFFFTFFFTTFFFF3 2 84 6 33
4 BACAAB83 4 335 0 .01485292635282848 .00508 .01395718529082948 79 17 337 SDL/TY
SA_BLEND_ID74 4 CI16 index_map_offset0 0 1 dCCZ20 17 7 0 0 269 20 180 184 13 293
 67 0 0 0 0 0 0 0 0 0 0 0 0 0 84 3 16 JHD1 0 
