**ABCDEFGHIJKLMNOPQRSTUVWXYZabcdefghijklmnopqrstuvwxyz**************************
**PARASOLID !"#$%&'()*+,-./:;<=>?@[\]^_`{|}~0123456789**************************
**PART1;
MC=unknown;
MC_MODEL=unknown;
MC_ID=unknown;
OS=unknown;
OS_RELEASE=unknown;
FRU=Parasolid 32.0.170;
APPL=Onshape;
SITE=unknown;
USER=unknown;
FORMAT=text;
GUISE=transmit;
KEY=BTGapi::writeModels_.xmt;
FILE=BTGapi::writeModels_.xmt;
DATE=2019-12-04T09:03:59 (UTC);
**PART2;
SCH=SCH_3200170_32001;
USFLD_SIZE=0;
**PART3;
**END_OF_HEADER*****************************************************************
T51 : TRANSMIT FILE created by modeller version 320017023 SCH_3200170_32001_1300
6227 0 12 34 CCCCCCI4 mesh1006 0 I8 polyline1008 0 CCCCCCCDI5 owner1040 0 CCCCCC
I13 boundary_mesh1006 0 I17 boundary_polyline1008 0 CCCA16 index_map_offset0 0 1
 dA9 index_map82 0 A17 node_id_index_map82 0 A20 schema_embedding_map82 0 A5 chi
ld12 0 A14 lowest_node_id0 0 1 dA16 mesh_offset_data206 0 Z1 356 2 3 0 0 0 0 0 0
 1e3 1e-8 0 4 0 1 0 1 1 5 6 7 8 0 0 9 10 11 0 0 0 0 0 0 0 81 255 1 2 324 12 1 13
 0 0 14 15 70 11 CI9 list_type0 0 1 uI10 notransmit0 0 1 lCCCDCCDI12 finger_inde
x0 0 1 dI12 finger_block1012 0 CZ3 0 4 T1 0 0 6 20 1 16 16 13 255 5 259 0 1 0 17
 0 0 18 0 50 255 6 254 0 17 19 0 0 +693889390390723e-32 -.00508 .00254 0 -1 0 0
 0 -1 30 255 7 258 0 10 20 0 0 +.0508 -.00508 .00254 0 0 -1 29 255 8 225 0 21 22
 0 -.0508 -.00508 0 19 8 CCCCCCCA5 owner12 0 Z9 116 0 1 18 0 23 V0 16 255 10 232
 24 ?25 0 26 7 0 0 1 18 255 11 110 27 28 0 29 30 ?1 81 1 27 349 12 11 31 0 32 33
 34 17 255 28 0 35 36 37 11 38 39 0 40 +18 29 95 41 37 11 42 43 ?1 29 30 112 0 1
1 43 44 -.0508 -.00508 .00254 29 43 97 0 29 45 30 -.0508 .00508 .00254 29 44 228
 0 46 30 47 .0508 -.00508 0 18 46 214 48 25 49 0 44 ?1 29 47 227 0 49 44 22 .050
8 .00508 0 18 49 210 50 51 52 46 47 ?1 29 22 226 0 52 47 8 -.0508 .00508 0 18 52
 206 53 54 21 49 22 ?1 81 1 53 354 12 52 55 0 41 56 57 17 54 0 58 59 60 52 61 62
 0 63 +18 21 202 33 64 65 52 8 ?1 81 1 33 350 12 21 66 0 27 67 68 17 64 0 69 70
 71 21 40 72 0 73 +18 65 75 67 74 42 21 75 ?1 81 1 67 351 12 65 76 0 33 48 77 17
 74 0 69 71 70 65 25 10 0 78 -18 42 90 56 79 29 65 45 ?1 29 75 77 0 65 0 45 .050
8 -.00508 .00254 29 45 92 0 42 75 43 .0508 .00508 .00254 81 1 56 355 12 42 80 0
 53 50 81 17 79 0 35 37 36 42 78 82 0 83 +15 255 35 123 0 36 84 85 17 37 0 35 28
 79 29 86 87 0 59 +17 36 0 35 79 28 65 71 88 0 0 -17 78 0 89 25 83 65 79 82 0 36
 -16 82 65 90 ?79 72 39 91 0 0 1 17 83 0 89 78 51 42 60 26 0 86 -15 89 233 0 51
 92 0 17 51 0 89 83 25 49 93 94 0 60 +17 60 0 58 54 86 49 83 26 0 61 +16 26 231
 32 ?60 10 95 20 0 0 1 17 86 0 58 60 59 42 37 87 0 0 -15 58 241 0 54 96 0 17 59
 0 58 86 54 29 63 95 0 38 -16 87 35 97 ?37 98 99 100 0 0 1 81 1 97 343 12 87 101
 0 102 103 104 16 98 45 105 ?106 39 87 107 0 0 1 16 99 25 108 ?109 87 88 110 0 0
 1 30 100 37 0 87 110 107 0 +693889390390723e-32 .00508 .00254 -1 0 0 31 255 110
 27 0 99 111 100 0 +.0508 0 .00254 0 0 1 1 0 0 .003175 31 107 47 0 98 100 112 0
 +-.0508 0 .00254 0 0 -1 1 0 0 .003175 31 112 62 0 39 107 91 0 +-.0508 0 .00254
 0 0 1 1 0 0 .00508 16 39 60 113 ?28 82 98 112 0 0 1 31 91 67 0 82 112 114 0 +.0
508 0 .00254 0 0 1 1 0 0 .00508 30 114 224 0 115 91 116 0 +693889390390723e-32 -
.00508 0 -1 0 0 16 115 198 102 ?117 118 0 114 0 0 1 31 116 223 0 118 114 119 0 +
.0508 0 0 0 0 1 1 0 0 .003175 16 118 192 120 ?121 62 115 116 0 0 1 30 119 222 0
 62 116 122 0 +693889390390723e-32 .00508 0 -1 0 0 16 62 188 103 ?54 123 118 119
 0 0 1 31 122 221 0 123 119 124 0 +-.0508 0 0 0 0 -1 1 0 0 .003175 16 123 182 12
5 ?126 127 62 122 0 0 1 31 124 220 0 127 122 128 0 +-.0508 0 0 0 0 1 1 0 0 .0050
8 16 127 178 129 ?73 94 123 124 0 0 1 31 128 219 0 94 124 130 0 +.0508 0 0 0 0 1
 1 0 0 .00508 16 94 174 131 ?51 88 127 128 0 0 1 30 130 255 0 72 128 132 0 +-.05
08 -.00508 .00254 0 0 -1 16 72 229 133 ?64 95 82 130 0 0 1 30 132 256 0 95 130 2
0 0 +-.0508 .00508 .00254 0 0 -1 16 95 230 134 ?63 26 72 132 0 0 1 30 20 257 0 2
6 132 7 0 +.0508 .00508 .00254 0 0 -1 81 1 134 347 12 95 135 0 24 32 136 17 63 0
 137 73 38 52 59 95 0 138 +15 137 235 0 73 139 0 17 73 0 137 40 63 21 138 127 0
 117 +17 38 0 137 63 40 29 28 39 0 0 -17 138 0 140 61 117 52 73 127 0 0 -15 140
 171 0 117 141 142 17 61 0 140 93 138 49 54 62 0 0 -17 117 0 140 138 93 21 70 11
5 0 0 +17 93 0 140 117 61 46 51 94 0 70 -17 70 0 69 74 64 46 117 115 0 0 -15 69
 247 0 70 17 0 14 255 17 248 143 ?92 0 69 5 6 +0 0 92 0 23 81 1 143 329 12 17 14
4 0 145 146 147 14 92 234 148 ?96 17 89 5 149 -0 0 96 17 23 13 23 117 0 0 0 0 0
 0 9 17 81 1 148 327 12 92 150 0 151 145 152 14 96 242 153 ?154 92 58 5 155 -0 0
 154 92 23 51 255 149 249 0 92 156 157 0 -.0508 0 .00254 0 0 -1 .00508 -1 0 0 50
 156 218 0 141 158 149 0 +693889390390723e-32 0 0 0 0 1 1 0 0 51 157 250 0 139 1
49 159 0 --.0508 0 .00254 0 0 -1 .00508 -1 0 0 14 139 236 145 ?160 154 137 5 157
 -0 0 160 154 23 51 159 251 0 154 157 155 0 +-.0508 0 .00254 0 0 -1 .003175 -1 0
 0 14 154 238 14 ?139 96 161 5 159 -0 0 139 96 23 50 155 252 0 96 159 19 0 +6938
89390390723e-32 .00508 .00254 0 -1 0 0 0 -1 51 19 253 0 160 155 6 0 -.0508 0 .00
254 0 0 -1 .003175 -1 0 0 14 160 244 151 ?84 139 162 5 19 +0 0 84 139 23 81 1 15
1 326 12 160 163 0 14 148 164 14 84 1 146 ?141 160 35 5 158 +0 0 141 160 23 15 1
62 243 0 109 160 165 17 109 0 162 109 109 0 166 99 0 0 +15 165 245 0 167 160 0 1
7 167 0 165 167 167 0 121 118 0 0 -17 121 0 168 121 121 0 167 118 0 0 +15 168 17
3 0 121 141 0 14 141 158 169 ?0 84 140 5 156 -0 0 0 84 23 81 1 169 331 12 141 17
0 0 146 153 171 80 255 1 12 172 173 9000 0 0 0 0 3 5 0 0 0 FFTFTFTTFFFFFF3 81 1
 170 323 174 141 175 169 176 0 177 81 1 146 330 12 84 176 0 143 169 178 81 1 153
 332 12 96 179 0 169 105 180 84 255 3 171 JHG81 1 179 318 174 96 181 153 150 182
 183 81 1 105 333 12 98 184 0 153 125 185 84 3 180 JHC81 1 184 303 172 98 0 105
 186 181 187 81 1 125 334 12 123 186 0 105 108 188 84 3 185 JH981 1 186 302 172
 123 0 125 189 184 190 81 1 108 335 12 99 189 0 125 120 191 84 3 188 JH581 1 189
 301 172 99 0 108 192 186 193 81 1 120 336 12 118 192 0 108 90 194 84 3 191 JH18
1 1 192 300 172 118 0 120 195 189 196 81 1 90 337 12 82 195 0 120 131 197 84 3 1
94 JHx81 1 195 299 172 82 0 90 198 192 199 81 1 131 338 12 94 198 0 90 113 200 8
4 3 197 JHt81 1 198 298 172 94 0 131 201 195 202 81 1 113 339 12 39 201 0 131 12
9 203 84 3 200 JHp81 1 201 297 172 39 0 113 204 198 205 81 1 129 340 12 127 204
 0 113 206 207 84 3 203 JHl81 1 204 296 172 127 0 129 208 201 209 81 1 206 341 1
2 88 208 0 129 102 210 84 3 207 JHh16 88 15 206 ?71 99 94 111 0 0 1 81 1 208 295
 172 88 0 206 211 204 212 81 1 102 342 12 115 211 0 206 97 213 84 3 210 JHd81 1
 211 294 172 115 0 102 101 208 214 84 3 213 JHZ80 1 172 215 216 9000 0 0 0 0 3 6
 0 0 0 FFTFTFTTFFFFFF1 81 1 101 293 172 87 0 97 217 211 218 82 255 3 214 6 6 1 8
1 1 217 292 172 62 0 103 219 101 220 82 3 218 6 5 1 81 1 103 344 12 62 217 0 97
 133 221 81 1 219 291 172 72 0 133 222 217 223 82 3 220 6 4 1 81 1 133 345 12 72
 219 0 103 24 224 81 1 222 290 172 10 0 24 135 219 225 82 3 223 6 3 1 81 1 24 34
6 12 10 222 0 133 134 226 81 1 135 289 172 95 0 134 227 222 228 82 3 225 6 2 1 8
1 1 227 288 172 26 0 32 31 135 229 82 3 228 6 1 1 81 1 32 348 12 26 227 0 134 27
 230 81 1 31 287 172 11 0 27 66 227 231 82 3 229 6 0 1 81 1 66 286 172 21 0 33 7
6 31 232 82 3 231 6 7 0 81 1 76 285 172 65 0 67 233 66 234 82 3 232 6 6 0 81 1 2
33 284 172 46 0 48 235 76 236 82 3 234 6 5 0 81 1 48 352 12 46 233 0 67 41 237 8
1 1 235 283 172 29 0 41 55 233 238 82 3 236 6 4 0 81 1 41 353 12 29 235 0 48 53
 239 81 1 55 282 172 52 0 53 80 235 240 82 3 238 6 3 0 81 1 80 281 172 42 0 56 2
41 55 242 82 3 240 6 2 0 81 1 241 280 172 49 0 50 0 80 243 82 3 242 6 1 0 81 1 5
0 356 12 49 241 0 56 0 244 82 3 243 6 0 0 84 2 244 IH84 3 239 JHM84 3 237 JHQ84
 3 230 JHB84 3 226 JHJ84 3 224 JHN84 3 221 JHR79 255 9 216 BTI/DetId82 3 212 6 7
 1 17 71 0 69 64 74 11 36 88 0 0 +30 111 17 0 88 0 110 0 +693889390390723e-32 -.
00508 .00254 -1 0 0 82 3 209 6 8 1 82 3 205 6 9 1 82 3 202 6 10 1 82 3 199 6 11
 1 82 3 196 6 12 1 82 3 193 6 13 1 82 3 190 6 14 1 81 1 181 304 172 96 0 179 184
 175 245 82 3 187 6 15 1 81 1 175 305 172 141 0 170 181 246 247 82 3 245 6 0 2 8
1 1 246 306 172 84 0 176 175 248 249 82 3 247 6 1 2 81 1 176 322 174 84 246 146
 163 170 250 81 1 248 307 172 17 0 144 246 251 252 82 3 249 6 2 2 81 1 144 316 1
74 17 248 143 0 150 253 81 1 251 308 172 139 0 254 248 255 256 82 3 252 6 3 2 81
 1 254 320 174 139 251 145 182 163 257 81 1 255 309 172 92 0 150 251 258 259 82
 3 256 6 4 2 81 1 150 317 174 92 255 148 144 179 260 81 1 258 310 172 160 0 163
 255 261 262 82 3 259 6 5 2 81 1 163 321 174 160 258 151 254 176 263 81 1 261 31
1 172 154 0 182 258 264 265 82 3 262 6 6 2 81 1 182 319 174 154 261 14 179 254 2
66 81 1 264 312 172 1 0 267 261 0 268 82 3 265 6 7 2 81 1 267 313 269 1 264 270
 0 0 271 82 3 268 6 0 3 80 1 269 272 273 8038 0 0 0 0 0 0 0 0 0 TTTTTTTTTTTTTF10
 81 1 270 314 272 1 267 13 0 0 274 98 255 6 271 80 97 114 116 32 49 80 1 272 275
 276 8017 0 0 0 0 0 0 0 0 0 TTTTTTTTTTTTTF3 81 1 13 315 277 1 270 2 0 0 278 84 6
 274 Part 180 1 277 174 279 8040 0 0 0 0 3 5 0 0 0 TTTFFFFFFFFFFF2 83 255 3 278
 .615686274509804 .811764705882353 .929411764705882 79 17 279 SDL/TYSA_COLOUR_27
9 13 276 SDL/TYSA_NAME79 14 273 SDL/TYSA_UNAME80 1 174 0 280 8001 0 0 0 0 3 5 0
 0 0 FFFFTFTFFFFFFF2 81 1 14 325 12 154 182 0 2 151 281 83 3 266 .61568627450980
4 .811764705882353 .929411764705882 84 3 281 JHe79 15 280 SDL/TYSA_COLOUR83 3 26
3 .615686274509804 .811764705882353 .929411764705882 83 3 260 .615686274509804 .
811764705882353 .929411764705882 81 1 145 328 12 139 254 0 148 143 282 83 3 257
 .615686274509804 .811764705882353 .929411764705882 84 3 282 JHS83 3 253 .615686
274509804 .811764705882353 .929411764705882 83 3 250 .615686274509804 .811764705
882353 .929411764705882 83 3 183 .615686274509804 .811764705882353 .929411764705
882 84 3 178 JHK83 3 177 .615686274509804 .811764705882353 .929411764705882 79 1
2 173 BTI/ExportId17 166 0 283 166 166 0 109 99 0 0 -15 283 6 0 166 84 0 50 158
 3 0 84 0 156 0 +693889390390723e-32 0 .00254 0 0 1 1 0 0 84 3 164 JHa15 161 237
 0 284 154 285 17 284 0 161 284 284 0 106 98 0 0 -15 285 239 0 126 154 0 17 126
 0 285 126 126 0 286 123 0 0 +17 286 0 142 286 286 0 126 123 0 0 -15 142 172 0 2
86 141 168 17 106 0 85 106 106 0 284 98 0 0 +15 85 120 0 106 84 283 84 3 152 JHW
84 3 147 JHO17 40 0 137 38 73 11 64 72 0 71 -84 3 136 JHF84 3 104 JHV17 25 0 89
 51 78 46 74 10 0 93 +84 3 81 JHE84 3 77 JHU84 3 68 JHY84 3 57 JHI84 3 34 JHc19
 18 260 0 1 0 9 5 S0 74 4 CI16 index_map_offset0 0 1 dCCZ20 16 6 0 0 264 267 270
 13 170 50 0 0 0 0 0 0 0 0 0 0 0 0 0 0 84 3 15 JHD1 0 
