**ABCDEFGHIJKLMNOPQRSTUVWXYZabcdefghijklmnopqrstuvwxyz**************************
**PARASOLID !"#$%&'()*+,-./:;<=>?@[\]^_`{|}~0123456789**************************
**PART1;
MC=unknown;
MC_MODEL=unknown;
MC_ID=unknown;
OS=unknown;
OS_RELEASE=unknown;
FRU=Parasolid 32.0.170;
APPL=Onshape;
SITE=unknown;
USER=unknown;
FORMAT=text;
GUISE=transmit;
KEY=BTGapi::writeModels_.xmt;
FILE=BTGapi::writeModels_.xmt;
DATE=2019-12-04T09:03:38 (UTC);
**PART2;
SCH=SCH_3200170_32001;
USFLD_SIZE=0;
**PART3;
**END_OF_HEADER*****************************************************************
T51 : TRANSMIT FILE created by modeller version 320017023 SCH_3200170_32001_1300
6227 0 12 34 CCCCCCI4 mesh1006 0 I8 polyline1008 0 CCCCCCCDI5 owner1040 0 CCCCCC
I13 boundary_mesh1006 0 I17 boundary_polyline1008 0 CCCA16 index_map_offset0 0 1
 dA9 index_map82 0 A17 node_id_index_map82 0 A20 schema_embedding_map82 0 A5 chi
ld12 0 A14 lowest_node_id0 0 1 dA16 mesh_offset_data206 0 Z1 1125 2 3 0 0 0 0 0
 0 1e3 1e-8 0 4 5 1 0 1 1 6 7 8 9 0 0 10 11 12 0 0 0 0 0 0 0 81 255 1 2 1097 13
 1 14 0 15 16 17 70 11 CI9 list_type0 0 1 uI10 notransmit0 0 1 lCCCDCCDI12 finge
r_index0 0 1 dI12 finger_block1012 0 CZ3 0 4 T1 0 0 6 20 1 18 18 13 255 6 212 0
 1 0 19 0 0 20 0 50 255 7 207 0 19 21 0 0 +-.01016 .009525 .0762 -1 -18212319957
76175e-31 0 1821231995776175e-31 -1 0 30 255 8 211 0 11 22 0 0 +-.01016 12442411
4793371e-32 .0762 0 0 -1 29 255 9 183 0 23 24 0 -.01016 .01905 0 19 8 CCCCCCCA5
 owner12 0 Z10 91 0 1 20 0 25 V0 16 255 11 190 26 ?27 0 28 8 0 0 1 18 255 12 75
 29 30 0 31 32 ?1 81 1 29 1120 13 12 33 0 34 35 36 17 255 30 0 37 38 39 12 40 41
 0 42 +18 31 70 43 39 12 44 45 ?1 29 32 77 0 12 45 46 -.01016 .01905 .0762 29 45
 72 0 31 47 32 .01016 .01905 .0762 29 46 186 0 48 32 49 -.01016 124424114793371e
-32 0 18 48 173 50 27 51 0 46 ?1 29 49 185 0 51 46 24 .01016 0 0 18 51 169 34 52
 53 48 49 ?1 29 24 184 0 53 49 9 .01016 .01905 0 18 53 165 54 55 23 51 24 ?1 81
 1 54 1123 13 53 56 0 43 57 58 17 55 0 59 60 61 53 62 63 0 64 +18 23 161 35 65 6
6 53 9 ?1 81 1 35 1121 13 23 67 0 29 43 68 17 65 0 69 70 71 23 42 72 0 73 +18 66
 60 57 74 44 23 75 ?1 81 1 57 1124 13 66 76 0 54 50 77 17 74 0 69 71 70 66 27 11
 0 78 -18 44 65 79 80 31 66 47 ?1 29 75 62 0 66 0 47 -.01016 124424114793371e-32
 .0762 29 47 67 0 44 75 45 .01016 0 .0762 81 1 79 1118 13 44 81 0 26 34 82 17 80
 0 37 39 38 44 78 83 0 84 +15 255 37 6 0 38 85 86 17 39 0 37 30 80 31 87 88 0 60
 +17 38 0 37 80 30 66 71 89 0 0 -17 78 0 90 27 84 66 80 83 0 38 -16 83 55 91 ?80
 72 92 93 0 0 1 17 84 0 90 78 52 44 61 28 0 87 -15 90 191 0 52 94 0 17 52 0 90 8
4 27 51 95 96 0 61 +17 61 0 59 55 87 51 84 28 0 62 +16 28 189 97 ?61 11 98 22 0
 0 1 17 87 0 59 61 60 44 39 88 0 0 -15 59 199 0 55 99 0 17 60 0 59 87 55 31 64 9
8 0 40 -16 88 25 100 ?39 41 89 101 0 0 1 81 1 100 1108 13 88 102 0 103 104 105 1
6 41 30 106 ?30 92 88 107 0 0 1 16 89 15 108 ?71 88 96 109 0 0 1 30 101 27 0 88
 109 107 0 +.01016 .009525 .0762 0 1 0 30 109 17 0 89 110 101 0 +-.01016 .009525
 .0762 -1821231995776175e-31 1 0 30 107 32 0 41 101 111 0 +-3469446951953615e-33
 .01905 .0762 -1 0 0 31 255 111 42 0 92 107 93 0 +0 233295215237571e-33 .0762 0
 0 1 1 0 0 .00381 16 92 40 112 ?113 83 41 111 0 0 1 31 93 57 0 83 111 114 0 +0 6
22120573966856e-33 .0762 0 0 1 1 0 0 .01016 30 114 182 0 115 93 116 0 +-.01016 .
009525 0 -1821231995776175e-31 1 0 16 115 157 103 ?117 63 118 114 0 0 1 30 116 1
81 0 63 114 119 0 +.01016 .009525 0 0 1 0 16 63 153 104 ?55 120 115 116 0 0 1 30
 119 180 0 120 116 121 0 +-3469446951953615e-33 .01905 0 -1 0 0 16 120 149 122 ?
73 123 63 119 0 0 1 31 121 179 0 123 119 124 0 +0 233295215237571e-33 0 0 0 1 1
 0 0 .00381 16 123 143 125 ?126 96 120 121 0 0 1 31 124 178 0 96 121 127 0 +0 62
2120573966856e-33 0 0 0 1 1 0 0 .01016 16 96 139 128 ?52 89 123 124 0 0 1 30 127
 208 0 72 124 129 0 +-.01016 .01905 .0762 0 0 -1 16 72 187 130 ?65 98 83 127 0 0
 1 30 129 209 0 98 127 22 0 +.01016 .01905 .0762 0 0 -1 16 98 188 131 ?64 28 72
 129 0 0 1 30 22 210 0 28 129 8 0 +.01016 0 .0762 0 0 -1 81 1 131 1116 13 98 132
 0 130 26 133 17 64 0 134 73 40 53 60 98 0 135 +15 134 197 0 73 136 0 17 73 0 13
4 42 64 23 135 120 0 117 +17 40 0 134 64 42 31 30 41 0 0 -17 135 0 137 62 117 53
 73 120 0 0 -15 137 137 0 117 138 139 17 62 0 137 95 135 51 55 63 0 0 -17 117 0
 137 135 95 23 70 115 0 0 +17 95 0 137 117 62 48 52 96 0 70 -17 70 0 69 74 65 48
 117 115 0 0 -15 69 201 0 70 19 0 14 255 19 202 140 ?94 0 69 6 7 +0 0 94 0 25 81
 1 140 1099 13 19 141 0 16 142 143 14 94 192 144 ?99 19 90 6 145 -0 0 99 19 25 1
3 25 92 0 0 0 0 0 0 10 19 81 1 144 1103 13 94 146 0 147 112 148 14 99 200 142 ?1
36 94 59 6 21 -0 0 136 94 25 51 255 145 203 0 94 149 150 0 -0 622120573966856e-3
3 .0762 0 0 -1 .01016 -1 0 0 50 149 177 0 138 151 145 0 +0 .004445 0 0 0 1 1 0 0
 51 150 204 0 152 145 153 0 -0 233295215237571e-33 .0762 0 0 -1 .00381 -1 0 0 14
 152 194 16 ?85 136 154 6 150 +0 0 85 136 25 50 153 205 0 136 150 21 0 +-3469446
951953615e-33 .01905 .0762 0 -1 0 0 0 -1 14 136 198 155 ?152 99 156 6 153 -0 0 1
52 99 25 50 21 206 0 99 153 7 0 +.01016 .009525 .0762 -1 0 0 0 0 1 81 1 155 1032
 13 136 157 0 0 158 159 15 156 408 0 160 136 161 17 160 0 156 160 160 0 162 163
 0 0 -15 161 401 0 164 136 165 17 164 0 161 164 164 0 166 167 0 0 -15 165 394 0
 168 136 169 17 168 0 165 168 168 0 170 171 0 0 -15 169 387 0 172 136 173 17 172
 0 169 172 172 0 174 175 0 0 -15 173 380 0 176 136 177 17 176 0 173 176 176 0 17
8 179 0 0 -15 177 373 0 180 136 181 17 180 0 177 180 180 0 182 183 0 0 -15 181 3
66 0 184 136 185 17 184 0 181 184 184 0 186 187 0 0 -15 185 359 0 188 136 189 17
 188 0 185 188 188 0 190 191 0 0 -15 189 352 0 192 136 193 17 192 0 189 192 192
 0 194 195 0 0 -15 193 345 0 196 136 197 17 196 0 193 196 196 0 198 199 0 0 -15
 197 338 0 200 136 201 17 200 0 197 200 200 0 202 203 0 0 -15 201 331 0 204 136
 205 17 204 0 201 204 204 0 206 207 0 0 -15 205 324 0 208 136 209 17 208 0 205 2
08 208 0 210 211 0 0 -15 209 317 0 212 136 213 17 212 0 209 212 212 0 214 215 0
 0 -15 213 310 0 216 136 217 17 216 0 213 216 216 0 218 219 0 0 -15 217 303 0 22
0 136 134 17 220 0 217 220 220 0 221 222 0 0 -17 221 0 223 221 221 0 220 222 0 0
 +16 222 780 15 ?221 118 224 110 0 0 1 81 1 15 1096 13 222 225 0 226 2 227 16 11
8 777 226 ?228 115 222 229 0 0 1 16 224 601 230 ?231 222 191 232 0 0 1 31 110 87
8 0 222 229 109 0 +.00635 .01905 .06985 0 1 0 0 0 1 .00254 31 229 879 0 118 233
 110 0 +.00635 .00635 .06985 0 1 0 0 0 1 .00254 31 233 880 0 179 234 229 0 +.006
35 .01905 .05207 0 1 0 0 0 1 .00254 16 179 538 235 ?178 236 237 233 0 0 1 31 234
 881 0 236 238 233 0 +.00635 .00635 .05207 0 1 0 0 0 1 .00254 16 236 535 239 ?24
0 183 179 234 0 0 1 31 238 882 0 183 241 234 0 +.00635 .01905 .06096 0 1 0 0 0 1
 .00254 16 183 560 242 ?182 243 236 238 0 0 1 31 241 883 0 243 244 238 0 +.00635
 .00635 .06096 0 1 0 0 0 1 .00254 16 243 557 245 ?246 187 183 241 0 0 1 31 244 8
84 0 187 247 241 0 +-.00635 .01905 .06096 0 1 0 0 0 1 .00254 16 187 582 248 ?186
 249 243 244 0 0 1 31 247 885 0 249 250 244 0 +-.00635 .00635 .06096 0 1 0 0 0 1
 .00254 16 249 579 251 ?252 191 187 247 0 0 1 31 250 886 0 191 232 247 0 +-.0063
5 .01905 .06985 0 1 0 0 0 1 .00254 16 191 604 253 ?190 224 249 250 0 0 1 31 232
 887 0 224 254 250 0 +-.00635 .00635 .06985 0 1 0 0 0 1 .00254 31 254 888 0 167
 255 232 0 +.00635 .01905 .04318 0 1 0 0 0 1 .00254 16 167 472 256 ?166 257 258
 254 0 0 1 31 255 889 0 257 259 254 0 +.00635 .00635 .04318 0 1 0 0 0 1 .00254 1
6 257 469 260 ?261 163 167 255 0 0 1 31 259 890 0 163 262 255 0 +-.00635 .01905
 .04318 0 1 0 0 0 1 .00254 16 163 450 263 ?162 237 257 259 0 0 1 31 262 891 0 23
7 264 259 0 +-.00635 .00635 .04318 0 1 0 0 0 1 .00254 16 237 447 265 ?266 179 16
3 262 0 0 1 31 264 892 0 175 267 262 0 +-.00635 .01905 .03429 0 1 0 0 0 1 .00254
 16 175 516 268 ?174 269 270 264 0 0 1 31 267 893 0 269 271 264 0 +-.00635 .0063
5 .03429 0 1 0 0 0 1 .00254 16 269 513 272 ?273 171 175 267 0 0 1 31 271 894 0 1
71 274 267 0 +-.00635 .01905 .05207 0 1 0 0 0 1 .00254 16 171 494 275 ?170 258 2
69 271 0 0 1 31 274 895 0 258 276 271 0 +-.00635 .00635 .05207 0 1 0 0 0 1 .0025
4 16 258 491 277 ?278 167 171 274 0 0 1 31 276 896 0 207 279 274 0 +-.00635 .019
05 .01651 0 1 0 0 0 1 .00254 16 207 692 280 ?206 281 282 276 0 0 1 31 279 897 0
 281 283 276 0 +-.00635 .00635 .01651 0 1 0 0 0 1 .00254 16 281 689 284 ?285 211
 207 279 0 0 1 31 283 898 0 211 286 279 0 +-.00635 .01905 .0254 0 1 0 0 0 1 .002
54 16 211 714 287 ?210 288 281 283 0 0 1 31 286 899 0 288 289 283 0 +-.00635 .00
635 .0254 0 1 0 0 0 1 .00254 16 288 711 290 ?291 215 211 286 0 0 1 31 289 900 0
 215 292 286 0 +.00635 .01905 .0254 0 1 0 0 0 1 .00254 16 215 736 293 ?214 294 2
88 289 0 0 1 31 292 901 0 294 295 289 0 +.00635 .00635 .0254 0 1 0 0 0 1 .00254
 16 294 733 296 ?297 219 215 292 0 0 1 31 295 902 0 219 298 292 0 +.00635 .01905
 .03429 0 1 0 0 0 1 .00254 16 219 758 299 ?218 270 294 295 0 0 1 31 298 903 0 27
0 300 295 0 +.00635 .00635 .03429 0 1 0 0 0 1 .00254 16 270 755 301 ?302 175 219
 298 0 0 1 31 300 904 0 195 303 298 0 +-.00635 .01905 .00762 0 1 0 0 0 1 .00254
 16 195 626 304 ?194 305 0 300 0 0 1 31 303 905 0 305 306 300 0 +-.00635 .00635
 .00762 0 1 0 0 0 1 .00254 16 305 623 307 ?308 199 195 303 0 0 1 31 306 906 0 19
9 309 303 0 +.00635 .01905 .00762 0 1 0 0 0 1 .00254 16 199 648 310 ?198 311 305
 306 0 0 1 31 309 907 0 311 312 306 0 +.00635 .00635 .00762 0 1 0 0 0 1 .00254 1
6 311 645 313 ?314 203 199 309 0 0 1 31 312 908 0 203 315 309 0 +.00635 .01905 .
01651 0 1 0 0 0 1 .00254 16 203 670 316 ?202 282 311 312 0 0 1 31 315 909 0 282
 0 312 0 +.00635 .00635 .01651 0 1 0 0 0 1 .00254 16 282 667 317 ?318 207 203 31
5 0 0 1 81 1 317 1083 13 282 319 0 310 316 320 17 318 0 321 318 318 0 322 282 0
 0 +15 321 683 0 318 323 0 17 322 0 324 322 322 0 318 282 0 0 -15 324 678 0 322
 325 326 14 325 675 327 ?323 328 324 6 329 -0 0 323 328 25 15 326 679 0 202 325
 0 17 202 0 326 202 202 0 200 203 0 0 +81 1 327 1052 13 325 330 0 331 332 333 14
 323 680 331 ?334 325 321 6 335 +0 0 334 325 25 14 328 702 336 ?325 337 338 6 33
9 +0 0 325 337 25 51 329 875 0 325 335 340 0 +.00635 .00635 .01651 0 1 0 .00254
 0 0 1 50 335 877 0 323 0 329 0 +0 .00635 .0381 0 1 0 -1 0 0 50 340 874 0 341 32
9 342 0 +0 .00635 .0381 0 1 0 -1 0 0 14 341 658 343 ?344 334 345 6 340 +0 0 344
 334 25 51 342 872 0 334 340 346 0 +.00635 .00635 .00762 0 1 0 .00254 0 0 1 14 3
34 653 347 ?341 323 348 6 342 -0 0 341 323 25 50 346 871 0 349 342 350 0 +0 .006
35 .0381 0 1 0 -1 0 0 14 349 636 158 ?351 344 352 6 346 +0 0 351 344 25 51 350 8
69 0 344 346 353 0 +-.00635 .00635 .00762 0 1 0 .00254 0 0 1 14 344 631 354 ?349
 341 355 6 350 -0 0 349 341 25 50 353 868 0 356 350 357 0 +0 .00635 .0381 0 1 0
 -1 0 0 14 356 768 358 ?359 360 361 6 353 +0 0 359 360 25 51 357 866 0 360 353 3
62 0 +.00635 .00635 .03429 0 1 0 .00254 0 0 1 14 360 763 363 ?356 364 365 6 357
 -0 0 356 364 25 50 362 865 0 366 357 367 0 +0 .00635 .0381 0 1 0 -1 0 0 14 366
 746 332 ?368 359 369 6 362 +0 0 368 359 25 51 367 863 0 359 362 370 0 +.00635 .
00635 .0254 0 1 0 .00254 0 0 1 14 359 741 371 ?366 356 372 6 367 -0 0 366 356 25
 50 370 862 0 373 367 374 0 +0 .00635 .0381 0 1 0 -1 0 0 14 373 724 375 ?337 368
 376 6 370 +0 0 337 368 25 51 374 860 0 368 370 339 0 +-.00635 .00635 .0254 0 1
 0 .00254 0 0 1 14 368 719 377 ?373 366 378 6 374 -0 0 373 366 25 50 339 859 0 3
28 374 379 0 +0 .00635 .0381 0 1 0 -1 0 0 51 379 857 0 337 339 380 0 +-.00635 .0
0635 .01651 0 1 0 .00254 0 0 1 14 337 697 381 ?328 373 382 6 379 -0 0 328 373 25
 50 380 856 0 383 379 384 0 +0 .00635 .0381 0 1 0 -1 0 0 14 383 504 385 ?386 387
 388 6 380 +0 0 386 387 25 51 384 854 0 387 380 389 0 +-.00635 .00635 .05207 0 1
 0 .00254 0 0 1 14 387 499 390 ?383 391 392 6 384 -0 0 383 391 25 50 389 853 0 3
91 384 393 0 +0 .00635 .0381 0 1 0 -1 0 0 14 391 526 394 ?387 395 396 6 389 +0 0
 387 395 25 51 393 851 0 395 389 397 0 +-.00635 .00635 .03429 0 1 0 .00254 0 0 1
 14 395 521 398 ?391 399 400 6 393 -0 0 391 399 25 50 397 850 0 401 393 402 0 +0
 .00635 .0381 0 1 0 -1 0 0 14 401 460 403 ?0 404 405 6 397 +0 0 0 404 25 51 402
 848 0 404 397 406 0 +-.00635 .00635 .04318 0 1 0 .00254 0 0 1 14 404 455 407 ?4
01 408 409 6 402 -0 0 401 408 25 50 406 847 0 408 402 410 0 +0 .00635 .0381 0 1
 0 -1 0 0 14 408 482 411 ?404 386 412 6 406 +0 0 404 386 25 51 410 845 0 386 406
 413 0 +.00635 .00635 .04318 0 1 0 .00254 0 0 1 14 386 477 414 ?408 383 415 6 41
0 -0 0 408 383 25 50 413 844 0 416 410 417 0 +0 .00635 .0381 0 1 0 -1 0 0 14 416
 614 418 ?419 351 420 6 413 +0 0 419 351 25 51 417 842 0 351 413 421 0 +-.00635
 .00635 .06985 0 1 0 .00254 0 0 1 14 351 609 422 ?416 349 423 6 417 -0 0 416 349
 25 50 421 841 0 424 417 425 0 +0 .00635 .0381 0 1 0 -1 0 0 14 424 592 426 ?427
 419 428 6 421 +0 0 427 419 25 51 425 839 0 419 421 429 0 +-.00635 .00635 .06096
 0 1 0 .00254 0 0 1 14 419 587 430 ?424 416 431 6 425 -0 0 424 416 25 50 429 838
 0 432 425 433 0 +0 .00635 .0381 0 1 0 -1 0 0 14 432 570 434 ?435 427 436 6 429
 +0 0 435 427 25 51 433 836 0 427 429 437 0 +.00635 .00635 .06096 0 1 0 .00254 0
 0 1 14 427 565 438 ?432 424 439 6 433 -0 0 432 424 25 50 437 835 0 399 433 440
 0 +0 .00635 .0381 0 1 0 -1 0 0 14 399 548 441 ?395 435 442 6 437 +0 0 395 435 2
5 51 440 833 0 435 437 443 0 +.00635 .00635 .05207 0 1 0 .00254 0 0 1 14 435 543
 444 ?399 432 445 6 440 -0 0 399 432 25 50 443 832 0 364 440 446 0 +0 .00635 .03
81 0 1 0 -1 0 0 14 364 790 447 ?360 448 449 6 443 +0 0 360 448 25 51 446 830 0 4
48 443 151 0 +.00635 .00635 .06985 0 1 0 .00254 0 0 1 14 448 785 450 ?364 138 45
1 6 446 -0 0 364 138 25 50 151 3 0 85 446 149 0 +0 .004445 .0762 0 0 1 1 0 0 14
 85 1 452 ?138 152 37 6 151 +0 0 138 152 25 81 1 452 1101 13 85 453 0 142 147 45
4 14 138 126 147 ?448 85 137 6 149 -0 0 448 85 25 81 1 147 1102 13 138 455 0 452
 144 456 80 255 1 13 457 458 9000 0 0 0 0 3 5 0 0 0 FFTFTFTTFFFFFF3 81 1 455 999
 459 138 460 147 453 461 462 84 255 3 456 JHG80 1 459 0 463 8001 0 0 0 0 3 5 0 0
 0 FFFFTFTFFFFFFF2 81 1 460 253 457 138 0 455 464 465 466 81 1 453 998 459 85 46
5 452 467 455 468 81 1 461 1000 459 448 469 450 455 470 471 83 255 3 462 1 .7568
62745098039 .0549019607843137 81 1 469 957 457 448 0 461 472 473 474 81 1 450 10
64 13 448 461 0 447 307 475 81 1 470 1001 459 364 473 447 461 476 477 83 3 471 1
 .756862745098039 .0549019607843137 81 1 473 958 457 364 0 470 469 478 479 81 1
 447 1063 13 364 470 0 438 450 480 81 1 476 1002 459 360 481 363 470 482 483 83
 3 477 1 .756862745098039 .0549019607843137 81 1 481 965 457 360 0 476 484 485 4
86 81 1 363 1056 13 360 476 0 358 411 487 81 1 482 1003 459 356 485 358 476 488
 489 83 3 483 1 .756862745098039 .0549019607843137 81 1 485 966 457 356 0 482 48
1 490 491 81 1 358 1055 13 356 482 0 371 363 492 81 1 488 1004 459 359 490 371 4
82 493 494 83 3 489 1 .756862745098039 .0549019607843137 81 1 490 967 457 359 0
 488 485 495 496 81 1 371 1054 13 359 488 0 332 358 497 81 1 493 1005 459 366 49
5 332 488 498 499 83 3 494 1 .756862745098039 .0549019607843137 81 1 495 968 457
 366 0 493 490 500 501 81 1 332 1053 13 366 493 0 327 371 502 81 1 498 1006 459
 368 503 377 493 504 505 83 3 499 1 .756862745098039 .0549019607843137 81 1 503
 983 457 368 0 498 506 507 508 81 1 377 1038 13 368 498 0 375 394 509 81 1 504 1
007 459 373 507 375 498 510 511 83 3 505 1 .756862745098039 .0549019607843137 81
 1 507 984 457 373 0 504 503 512 513 81 1 375 1037 13 373 504 0 381 377 514 81 1
 510 1008 459 337 512 381 504 515 516 83 3 511 1 .756862745098039 .0549019607843
137 81 1 512 985 457 337 0 510 507 517 518 81 1 381 1036 13 337 510 0 336 375 51
9 81 1 515 1009 459 328 517 336 510 330 520 83 3 516 1 .756862745098039 .0549019
607843137 81 1 517 986 457 328 0 515 512 521 522 81 1 336 1035 13 328 515 0 354
 381 523 81 1 330 1010 459 325 500 327 515 524 525 83 3 520 1 .756862745098039 .
0549019607843137 81 1 500 969 457 325 0 330 495 526 527 81 1 524 1011 459 323 52
6 331 330 528 529 83 3 525 1 .756862745098039 .0549019607843137 81 1 526 970 457
 323 0 524 500 530 531 81 1 331 1051 13 323 524 0 347 327 532 81 1 528 1012 459
 334 530 347 524 533 534 83 3 529 1 .756862745098039 .0549019607843137 81 1 530
 971 457 334 0 528 526 535 536 81 1 347 1050 13 334 528 0 343 331 537 81 1 533 1
013 459 341 535 343 528 538 539 83 3 534 1 .756862745098039 .0549019607843137 81
 1 535 972 457 341 0 533 530 540 541 81 1 343 1049 13 341 533 0 422 347 542 81 1
 538 1014 459 344 521 354 533 543 544 83 3 539 1 .756862745098039 .0549019607843
137 81 1 521 987 457 344 0 538 517 545 546 81 1 354 1034 13 344 538 0 158 336 54
7 81 1 543 1015 459 349 545 158 538 548 549 83 3 544 1 .756862745098039 .0549019
607843137 81 1 545 988 457 349 0 543 521 550 551 81 1 158 1033 13 349 543 0 155
 354 552 81 1 548 1016 459 351 540 422 543 553 554 83 3 549 1 .756862745098039 .
0549019607843137 81 1 540 973 457 351 0 548 535 555 556 81 1 422 1048 13 351 548
 0 418 343 557 81 1 553 1017 459 416 555 418 548 558 559 83 3 554 1 .75686274509
8039 .0549019607843137 81 1 555 974 457 416 0 553 540 560 561 81 1 418 1047 13 4
16 553 0 430 422 562 81 1 558 1018 459 419 560 430 553 563 564 83 3 559 1 .75686
2745098039 .0549019607843137 81 1 560 975 457 419 0 558 555 565 566 81 1 430 104
6 13 419 558 0 426 418 567 81 1 563 1019 459 424 565 426 558 568 569 83 3 564 1
 .756862745098039 .0549019607843137 81 1 565 976 457 424 0 563 560 570 571 81 1
 426 1045 13 424 563 0 390 430 572 81 1 568 1020 459 427 478 438 563 573 574 83
 3 569 1 .756862745098039 .0549019607843137 81 1 478 959 457 427 0 568 473 575 5
76 81 1 438 1062 13 427 568 0 434 447 577 81 1 573 1021 459 432 575 434 568 578
 579 83 3 574 1 .756862745098039 .0549019607843137 81 1 575 960 457 432 0 573 47
8 580 581 81 1 434 1061 13 432 573 0 444 438 582 81 1 578 1022 459 435 580 444 5
73 583 584 83 3 579 1 .756862745098039 .0549019607843137 81 1 580 961 457 435 0
 578 575 585 586 81 1 444 1060 13 435 578 0 441 434 587 81 1 583 1023 459 399 58
5 441 578 588 589 83 3 584 1 .756862745098039 .0549019607843137 81 1 585 962 457
 399 0 583 580 590 591 81 1 441 1059 13 399 583 0 414 444 592 81 1 588 1024 459
 395 593 398 583 594 595 83 3 589 1 .756862745098039 .0549019607843137 81 1 593
 981 457 395 0 588 596 506 597 81 1 398 1040 13 395 588 0 394 403 598 81 1 594 1
025 459 391 506 394 588 599 600 83 3 595 1 .756862745098039 .0549019607843137 81
 1 506 982 457 391 0 594 593 503 601 81 1 394 1039 13 391 594 0 377 398 602 81 1
 599 1026 459 387 570 390 594 603 604 83 3 600 1 .756862745098039 .0549019607843
137 81 1 570 977 457 387 0 599 565 605 606 81 1 390 1044 13 387 599 0 385 426 60
7 81 1 603 1027 459 383 605 385 599 608 609 83 3 604 1 .756862745098039 .0549019
607843137 81 1 605 978 457 383 0 603 570 610 611 81 1 385 1043 13 383 603 0 407
 390 612 81 1 608 1028 459 386 590 414 603 613 614 83 3 609 1 .756862745098039 .
0549019607843137 81 1 590 963 457 386 0 608 585 484 615 81 1 414 1058 13 386 608
 0 411 441 616 81 1 613 1029 459 408 484 411 608 617 618 83 3 614 1 .75686274509
8039 .0549019607843137 81 1 484 964 457 408 0 613 590 481 619 81 1 411 1057 13 4
08 613 0 363 414 620 81 1 617 1030 459 404 610 407 613 621 622 83 3 618 1 .75686
2745098039 .0549019607843137 81 1 610 979 457 404 0 617 605 596 623 81 1 407 104
2 13 404 617 0 403 385 624 81 1 621 1031 459 401 596 403 617 0 625 83 3 622 1 .7
56862745098039 .0549019607843137 81 1 596 980 457 401 0 621 610 593 626 81 1 403
 1041 13 401 621 0 398 407 627 83 3 625 1 .756862745098039 .0549019607843137 84
 4 627 KLeB80 1 457 628 629 9000 0 0 0 0 3 6 0 0 0 FFTFTFTTFFFFFF1 82 255 3 626
 10 23 2 79 255 9 629 BTI/DetId84 4 624 KLaB82 3 623 10 22 2 84 3 620 JLe82 3 61
9 10 7 2 84 3 616 JLa82 3 615 10 6 2 84 4 612 KLWB82 3 611 10 21 2 84 4 607 KLSB
82 3 606 10 20 2 84 4 602 KLmB82 3 601 10 25 2 84 4 598 KLiB82 3 597 10 24 2 84
 3 592 JLW82 3 591 10 5 2 84 3 587 JLS82 3 586 10 4 2 84 3 582 JLO82 3 581 10 3
 2 84 3 577 JLK82 3 576 10 2 2 84 4 572 KLOB82 3 571 10 19 2 84 4 567 KLKB82 3 5
66 10 18 2 84 4 562 KLGB82 3 561 10 17 2 84 4 557 KLCB82 3 556 10 16 2 84 4 552
 KL+B81 1 550 989 457 136 0 157 545 0 630 82 3 551 10 31 2 81 1 157 996 459 136
 550 155 631 467 632 82 3 630 10 32 2 81 1 631 995 459 99 633 142 146 157 634 81
 1 467 997 459 152 635 16 157 453 636 83 3 632 1 .756862745098039 .0549019607843
137 81 1 635 258 457 152 0 467 637 638 639 81 1 16 1098 13 152 467 0 2 140 640 8
3 3 636 1 .756862745098039 .0549019607843137 84 3 640 JHa81 1 637 257 457 19 0 1
41 633 635 641 81 1 638 259 457 1 0 642 635 225 643 82 3 639 6 6 2 81 1 642 990
 644 1 638 645 0 0 646 81 1 225 925 457 222 0 15 638 647 648 82 3 643 6 0 3 81 1
 647 926 457 118 0 226 225 649 650 82 3 648 10 0 1 81 1 226 1095 13 118 647 0 24
2 15 651 81 1 649 927 457 183 0 242 647 652 653 82 3 650 10 1 1 81 1 242 1094 13
 183 649 0 245 226 654 81 1 652 928 457 243 0 245 649 655 656 82 3 653 10 2 1 81
 1 245 1093 13 243 652 0 235 242 657 81 1 655 929 457 179 0 235 652 658 659 82 3
 656 10 3 1 81 1 235 1092 13 179 655 0 239 245 660 81 1 658 930 457 236 0 239 65
5 661 662 82 3 659 10 4 1 81 1 239 1091 13 236 658 0 256 235 663 81 1 661 931 45
7 167 0 256 658 664 665 82 3 662 10 5 1 81 1 256 1090 13 167 661 0 260 239 666 8
1 1 664 932 457 257 0 260 661 667 668 82 3 665 10 6 1 81 1 260 1089 13 257 664 0
 299 256 669 81 1 667 933 457 219 0 299 664 670 671 82 3 668 10 7 1 81 1 299 108
8 13 219 667 0 301 260 672 81 1 670 934 457 270 0 301 667 673 674 82 3 671 10 8
 1 81 1 301 1087 13 270 670 0 293 299 675 81 1 673 935 457 215 0 293 670 676 677
 82 3 674 10 9 1 81 1 293 1086 13 215 673 0 296 301 678 81 1 676 936 457 294 0 2
96 673 679 680 82 3 677 10 10 1 81 1 296 1085 13 294 676 0 316 293 681 81 1 679
 937 457 203 0 316 676 319 682 82 3 680 10 11 1 81 1 316 1084 13 203 679 0 317 2
96 683 81 1 319 938 457 282 0 317 679 684 685 82 3 682 10 12 1 81 1 684 939 457
 199 0 310 319 686 687 82 3 685 10 13 1 81 1 310 1082 13 199 684 0 313 317 688 8
1 1 686 940 457 311 0 313 684 689 690 82 3 687 10 14 1 81 1 313 1081 13 311 686
 0 253 310 691 81 1 689 941 457 191 0 253 686 692 693 82 3 690 10 15 1 81 1 253
 1080 13 191 689 0 230 313 694 81 1 692 942 457 224 0 230 689 695 696 82 3 693 1
0 16 1 81 1 230 1079 13 224 692 0 248 253 697 81 1 695 943 457 187 0 248 692 698
 699 82 3 696 10 17 1 81 1 248 1078 13 187 695 0 251 230 700 81 1 698 944 457 24
9 0 251 695 701 702 82 3 699 10 18 1 81 1 251 1077 13 249 698 0 275 248 703 81 1
 701 945 457 171 0 275 698 704 705 82 3 702 10 19 1 81 1 275 1076 13 171 701 0 2
77 251 706 81 1 704 946 457 258 0 277 701 707 708 82 3 705 10 20 1 81 1 277 1075
 13 258 704 0 263 275 709 81 1 707 947 457 163 0 263 704 710 711 82 3 708 10 21
 1 81 1 263 1074 13 163 707 0 265 277 712 81 1 710 948 457 237 0 265 707 713 714
 82 3 711 10 22 1 81 1 265 1073 13 237 710 0 268 263 715 81 1 713 949 457 175 0
 268 710 716 717 82 3 714 10 23 1 81 1 268 1072 13 175 713 0 272 265 718 81 1 71
6 950 457 269 0 272 713 719 720 82 3 717 10 24 1 81 1 272 1071 13 269 716 0 287
 268 721 81 1 719 951 457 211 0 287 716 722 723 82 3 720 10 25 1 81 1 287 1070 1
3 211 719 0 290 272 724 81 1 722 952 457 288 0 290 719 725 726 82 3 723 10 26 1
 81 1 290 1069 13 288 722 0 280 287 727 81 1 725 953 457 207 0 280 722 728 729 8
2 3 726 10 27 1 81 1 280 1068 13 207 725 0 284 290 730 81 1 728 954 457 281 0 28
4 725 731 732 82 3 729 10 28 1 81 1 284 1067 13 281 728 0 304 280 733 81 1 731 9
55 457 195 0 304 728 472 734 82 3 732 10 29 1 81 1 304 1066 13 195 731 0 307 284
 735 81 1 472 956 457 305 0 307 731 469 736 82 3 734 10 30 1 81 1 307 1065 13 30
5 472 0 450 304 737 82 3 736 10 31 1 84 4 737 KL9B84 4 735 KL5B84 4 733 KL1B84 4
 730 KLxB84 4 727 KLtB84 4 724 KLpB84 4 721 KLlB84 4 718 KLhB84 4 715 KLdB84 4 7
12 KLZB84 4 709 KLVB84 4 706 KLRB84 4 703 KLNB84 4 700 KLJB84 4 697 KLFB84 4 694
 KLBB84 3 691 JL984 3 688 JL584 3 683 JLx84 3 681 JLt84 3 678 JLp84 3 675 JLl84
 3 672 JLh84 3 669 JLd84 3 666 JLZ84 3 663 JLV84 3 660 JLR84 3 657 JLN84 3 654 J
LJ84 3 651 JLF80 1 644 738 739 8038 0 0 0 0 0 0 0 0 0 TTTTTTTTTTTTTF10 81 1 645
 991 738 1 642 14 0 0 740 98 255 6 646 80 97 114 116 32 49 80 1 738 741 742 8017
 0 0 0 0 0 0 0 0 0 TTTTTTTTTTTTTF3 81 1 14 992 743 1 645 2 0 0 744 84 6 740 Part
 180 1 743 459 745 8040 0 0 0 0 3 5 0 0 0 TTTFFFFFFFFFFF2 83 3 744 1 .7568627450
98039 .0549019607843137 79 17 745 SDL/TYSA_COLOUR_279 13 742 SDL/TYSA_NAME79 14
 739 SDL/TYSA_UNAME81 1 141 993 459 19 637 140 0 146 746 81 1 633 256 457 99 0 6
31 465 637 747 82 3 641 6 5 2 81 1 465 254 457 85 0 453 460 633 748 82 3 747 6 4
 2 82 3 748 6 2 2 81 1 146 994 459 94 464 144 141 631 749 83 3 746 1 .7568627450
98039 .0549019607843137 81 1 464 252 457 94 0 146 750 460 751 83 3 749 1 .756862
745098039 .0549019607843137 81 1 750 251 457 92 0 112 752 464 753 82 3 751 6 0 2
 81 1 112 1104 13 92 750 0 144 125 754 81 1 752 250 457 123 0 125 755 750 756 82
 3 753 6 13 1 81 1 125 1105 13 123 752 0 112 108 757 81 1 755 249 457 89 0 108 7
58 752 759 82 3 756 6 12 1 81 1 108 1106 13 89 755 0 125 103 760 81 1 758 248 45
7 115 0 103 102 755 761 82 3 759 6 11 1 81 1 103 1107 13 115 758 0 108 100 762 8
1 1 102 247 457 88 0 100 763 758 764 82 3 761 6 10 1 81 1 763 246 457 63 0 104 7
65 102 766 82 3 764 6 9 1 81 1 104 1109 13 63 763 0 100 106 767 81 1 765 245 457
 41 0 106 768 763 769 82 3 766 6 8 1 81 1 106 1110 13 41 765 0 104 122 770 81 1
 768 244 457 120 0 122 771 765 772 82 3 769 6 7 1 81 1 122 1111 13 120 768 0 106
 91 773 81 1 771 243 457 83 0 91 774 768 775 82 3 772 6 6 1 81 1 91 1112 13 83 7
71 0 122 128 776 81 1 774 242 457 96 0 128 777 771 778 82 3 775 6 5 1 81 1 128 1
113 13 96 774 0 91 97 779 81 1 777 241 457 28 0 97 780 774 781 82 3 778 6 4 1 81
 1 97 1114 13 28 777 0 128 130 782 81 1 780 240 457 72 0 130 132 777 783 82 3 78
1 6 3 1 81 1 130 1115 13 72 780 0 97 131 784 81 1 132 239 457 98 0 131 785 780 7
86 82 3 783 6 2 1 81 1 785 238 457 11 0 26 81 132 787 82 3 786 6 1 1 81 1 26 111
7 13 11 785 0 131 79 788 81 1 81 237 457 44 0 79 789 785 790 82 3 787 6 0 1 81 1
 789 236 457 51 0 34 33 81 791 82 3 790 6 7 0 81 1 34 1119 13 51 789 0 79 29 792
 81 1 33 235 457 12 0 29 67 789 793 82 3 791 6 6 0 81 1 67 234 457 23 0 35 794 3
3 795 82 3 793 6 5 0 81 1 794 233 457 31 0 43 56 67 796 82 3 795 6 4 0 81 1 43 1
122 13 31 794 0 35 54 797 81 1 56 232 457 53 0 54 76 794 798 82 3 796 6 3 0 81 1
 76 231 457 66 0 57 799 56 800 82 3 798 6 2 0 81 1 799 230 457 48 0 50 0 76 801
 82 3 800 6 1 0 81 1 50 1125 13 48 799 0 57 0 802 82 3 801 6 0 0 84 2 802 IH84 3
 797 JHM84 3 792 JHY84 3 788 JHB84 3 784 JHJ84 3 782 JHN84 3 779 JHR84 3 776 JHV
84 3 773 JHZ84 3 770 JHd84 3 767 JHh84 3 762 JHp84 3 760 JHt84 3 757 JHx84 3 754
 JH181 1 142 1100 13 99 631 0 140 452 803 83 3 634 1 .756862745098039 .054901960
7843137 84 3 803 JHS84 4 547 KL6B82 3 546 10 30 2 84 3 542 JL+82 3 541 10 15 2 8
4 3 537 JL682 3 536 10 14 2 84 3 532 JL282 3 531 10 13 2 82 3 527 10 12 2 84 4 5
23 KL2B82 3 522 10 29 2 84 4 519 KLyB82 3 518 10 28 2 84 4 514 KLuB82 3 513 10 2
7 2 84 4 509 KLqB82 3 508 10 26 2 84 3 502 JLu82 3 501 10 11 2 84 3 497 JLq82 3
 496 10 10 2 84 3 492 JLm82 3 491 10 9 2 84 3 487 JLi82 3 486 10 8 2 84 3 480 JL
G82 3 479 10 1 2 84 3 475 JLC82 3 474 10 0 2 83 3 468 1 .756862745098039 .054901
9607843137 82 3 466 6 1 2 79 15 463 SDL/TYSA_COLOUR79 12 458 BTI/ExportId84 3 45
4 JHK15 451 788 0 804 448 223 17 804 0 451 804 804 0 228 118 0 0 -15 223 789 0 2
21 448 0 17 228 0 449 228 228 0 804 118 0 0 +15 449 793 0 228 364 0 15 445 546 0
 805 435 806 17 805 0 445 805 805 0 240 236 0 0 -15 806 547 0 178 435 0 17 178 0
 806 178 178 0 176 179 0 0 +17 240 0 442 240 240 0 805 236 0 0 +15 442 551 0 240
 399 0 15 439 568 0 807 427 808 17 807 0 439 807 807 0 246 243 0 0 -15 808 569 0
 182 427 0 17 182 0 808 182 182 0 180 183 0 0 +17 246 0 436 246 246 0 807 243 0
 0 +15 436 573 0 246 432 0 15 431 590 0 809 419 810 17 809 0 431 809 809 0 252 2
49 0 0 -15 810 591 0 186 419 0 17 186 0 810 186 186 0 184 187 0 0 +17 252 0 428
 252 252 0 809 249 0 0 +15 428 595 0 252 424 0 15 423 612 0 811 351 812 17 811 0
 423 811 811 0 231 224 0 0 -15 812 613 0 190 351 0 17 190 0 812 190 190 0 188 19
1 0 0 +17 231 0 420 231 231 0 811 224 0 0 +15 420 617 0 231 416 0 15 415 480 0 8
13 386 814 17 813 0 415 813 813 0 261 257 0 0 -15 814 481 0 166 386 0 17 166 0 8
14 166 166 0 164 167 0 0 +17 261 0 412 261 261 0 813 257 0 0 +15 412 485 0 261 4
08 0 15 409 458 0 815 404 816 17 815 0 409 815 815 0 266 237 0 0 -15 816 459 0 1
62 404 0 17 162 0 816 162 162 0 160 163 0 0 +17 266 0 405 266 266 0 815 237 0 0
 +15 405 463 0 266 401 0 15 400 524 0 817 395 818 17 817 0 400 817 817 0 273 269
 0 0 -15 818 525 0 174 395 0 17 174 0 818 174 174 0 172 175 0 0 +17 273 0 396 27
3 273 0 817 269 0 0 +15 396 529 0 273 391 0 15 392 502 0 819 387 820 17 819 0 39
2 819 819 0 278 258 0 0 -15 820 503 0 170 387 0 17 170 0 820 170 170 0 168 171 0
 0 +17 278 0 388 278 278 0 819 258 0 0 +15 388 507 0 278 383 0 15 382 700 0 821
 337 822 17 821 0 382 821 821 0 285 281 0 0 -15 822 701 0 206 337 0 17 206 0 822
 206 206 0 204 207 0 0 +17 285 0 338 285 285 0 821 281 0 0 +15 338 705 0 285 328
 0 15 378 722 0 823 368 824 17 823 0 378 823 823 0 291 288 0 0 -15 824 723 0 210
 368 0 17 210 0 824 210 210 0 208 211 0 0 +17 291 0 376 291 291 0 823 288 0 0 +1
5 376 727 0 291 373 0 15 372 744 0 825 359 826 17 825 0 372 825 825 0 297 294 0
 0 -15 826 745 0 214 359 0 17 214 0 826 214 214 0 212 215 0 0 +17 297 0 369 297
 297 0 825 294 0 0 +15 369 749 0 297 366 0 15 365 766 0 827 360 828 17 827 0 365
 827 827 0 302 270 0 0 -15 828 767 0 218 360 0 17 218 0 828 218 218 0 216 219 0
 0 +17 302 0 361 302 302 0 827 270 0 0 +15 361 771 0 302 356 0 15 355 634 0 829
 344 830 17 829 0 355 829 829 0 308 305 0 0 -15 830 635 0 194 344 0 17 194 0 830
 194 194 0 192 195 0 0 +17 308 0 352 308 308 0 829 305 0 0 +15 352 639 0 308 349
 0 15 348 656 0 831 334 832 17 831 0 348 831 831 0 314 311 0 0 -15 832 657 0 198
 334 0 17 198 0 832 198 198 0 196 199 0 0 +17 314 0 345 314 314 0 831 311 0 0 +1
5 345 661 0 314 341 0 84 3 333 JLy84 3 320 JL184 3 227 JLB84 4 159 KLCC15 154 19
3 0 113 152 833 17 113 0 154 113 113 0 834 92 0 0 +15 833 195 0 835 152 0 17 835
 0 833 835 835 0 126 123 0 0 -17 126 0 139 126 126 0 835 123 0 0 +15 139 138 0 1
26 138 0 17 834 0 86 834 834 0 113 92 0 0 -15 86 10 0 834 85 0 84 3 148 JHC84 3
 143 JHW17 42 0 134 40 73 12 65 72 0 71 -17 71 0 69 65 74 12 38 89 0 0 +84 3 133
 JHF84 3 105 JHl17 27 0 90 52 78 48 74 11 0 95 +84 3 82 JHc84 3 77 JHE84 3 68 JH
Q84 3 58 JHI84 3 36 JHU19 20 213 0 1 0 10 6 S0 74 4 CI16 index_map_offset0 0 1 d
CCZ20 18 6 0 0 550 642 645 14 621 50 0 0 0 0 0 0 0 0 0 0 0 0 0 0 84 3 17 JHD1 0
 
