**ABCDEFGHIJKLMNOPQRSTUVWXYZabcdefghijklmnopqrstuvwxyz**************************
**PARASOLID !"#$%&'()*+,-./:;<=>?@[\]^_`{|}~0123456789**************************
**PART1;
MC=unknown;
MC_MODEL=unknown;
MC_ID=unknown;
OS=unknown;
OS_RELEASE=unknown;
FRU=Parasolid 32.0.170;
APPL=Onshape;
SITE=unknown;
USER=unknown;
FORMAT=text;
GUISE=transmit;
KEY=BTGapi::writeModels_.xmt;
FILE=BTGapi::writeModels_.xmt;
DATE=2019-12-04T09:03:25 (UTC);
**PART2;
SCH=SCH_3200170_32001;
USFLD_SIZE=0;
**PART3;
**END_OF_HEADER*****************************************************************
T51 : TRANSMIT FILE created by modeller version 320017023 SCH_3200170_32001_1300
6227 0 12 34 CCCCCCI4 mesh1006 0 I8 polyline1008 0 CCCCCCCDI5 owner1040 0 CCCCCC
I13 boundary_mesh1006 0 I17 boundary_polyline1008 0 CCCA16 index_map_offset0 0 1
 dA9 index_map82 0 A17 node_id_index_map82 0 A20 schema_embedding_map82 0 A5 chi
ld12 0 A14 lowest_node_id0 0 1 dA16 mesh_offset_data206 0 Z1 1291 2 3 0 0 0 0 0
 0 1e3 1e-8 0 4 5 1 0 1 1 6 7 8 9 0 0 10 11 12 0 0 0 0 0 0 0 81 255 1 2 1280 13
 1 14 0 15 16 17 70 11 CI9 list_type0 0 1 uI10 notransmit0 0 1 lCCCDCCDI12 finge
r_index0 0 1 dI12 finger_block1012 0 CZ3 0 4 T1 0 0 7 20 1 18 18 13 255 6 166 0
 1 0 19 0 0 20 0 51 255 7 1149 0 21 22 0 0 +.0212328108729188 -.04445 .003048 0
 0 -1 .00635 -1 0 0 31 255 8 1104 0 11 23 0 0 +.0212328108729188 -.04445 .003048
 0 0 1 1 0 0 .00635 29 255 9 1096 0 12 24 0 .0212328108729188 -.0508 .003048 19
 8 CCCCCCCA5 owner12 0 Z10 58 0 1 20 0 25 V0 16 255 11 1102 26 ?27 0 28 8 0 0 1
 18 255 12 1093 29 30 0 31 9 ?1 81 1 29 1248 13 12 32 0 33 34 35 17 255 30 0 36
 37 38 12 39 28 0 40 +18 31 1084 34 41 12 42 24 ?1 81 1 34 1249 13 31 43 0 29 44
 45 17 41 0 46 47 48 31 49 50 0 38 +18 42 1070 51 52 31 53 54 ?1 29 24 1087 0 31
 54 9 .0212328108729188 -.0508 0 29 54 1073 0 42 55 24 .0212328108729188 .094976
4677060403 -.01764265485096015 29 55 1064 0 53 56 54 .0212328108729188 .09551391
23432397 -.01459465485096012 18 53 1061 57 58 42 59 55 ?1 29 56 1050 0 59 60 55
 .0275828108729188 -.04445 .003048 18 59 1047 61 27 53 62 56 ?1 29 60 1046 0 62
 63 56 .0275828108729188 .0892603831116122 -.01349198892277512 18 62 1043 64 65
 59 66 60 ?1 29 63 1042 0 66 67 60 .0275828108729188 .0887229384744128 -.0165399
889227751 18 66 1039 68 69 62 70 63 ?1 29 67 1038 0 70 71 63 .0275828108729188 -
.04445 0 18 70 1035 33 49 66 72 67 ?1 29 71 611 0 72 73 67 -.0209154728800058 .0
949764677060403 -.01764265485096015 18 72 607 74 75 70 76 71 ?1 29 73 225 0 76 7
7 71 -.0486171891270812 -.00454255536280061 .003048 18 76 222 78 79 72 80 73 ?1
 29 77 137 0 81 82 73 -.00400350242331793 -.0508 0 18 81 114 83 47 84 85 77 ?1 2
9 82 138 0 85 86 77 -.0486171891270812 -.0254 0 18 85 118 87 88 81 89 82 ?1 29 8
6 49 0 80 90 82 -.00400350242331793 -.0508 .003048 18 80 47 91 37 76 84 86 ?1 29
 90 44 0 84 92 86 -.0486171891270812 -.0254 .003048 18 84 42 93 94 80 81 90 ?1 2
9 92 465 0 89 95 90 .0275828108729188 -.0045425553628006 .003048 18 89 405 96 97
 85 98 92 ?1 29 95 467 0 98 99 92 -.0486171891270812 -.00508 0 18 98 413 100 101
 89 102 95 ?1 29 99 468 0 102 103 95 .0275828108729188 -.00508 0 18 102 409 15 1
04 98 105 99 ?1 29 103 961 0 105 106 99 -.0486171891270812 .0615429216527966 -.0
1174741862101424 18 105 746 107 108 102 109 103 ?1 29 106 962 0 109 110 103 -.02
09154728800058 .0955139123432397 -.01459465485096012 18 109 751 111 112 105 113
 106 ?1 29 110 964 0 113 0 106 -.0486171891270813 .062080366289996 -.00869941862
101425 18 113 747 114 115 109 0 110 ?1 81 1 114 1272 13 113 116 0 117 111 118 17
 115 0 119 120 108 113 121 122 0 123 +15 255 119 773 0 115 124 0 17 120 0 119 75
 115 109 123 125 0 126 -17 108 0 119 115 75 105 127 128 0 121 -17 121 0 129 101
 130 105 115 122 0 131 -16 122 727 132 ?115 133 125 134 0 0 1 17 123 0 135 79 11
2 113 120 125 0 130 +15 135 434 0 136 137 0 17 79 0 135 138 123 76 130 139 0 140
 +17 112 0 135 123 58 109 141 142 0 120 +16 125 714 143 ?123 122 144 145 0 0 1 1
7 130 0 129 121 146 113 79 139 0 0 -15 129 642 0 121 147 0 17 146 0 129 130 94 7
6 148 149 0 0 +16 139 380 150 ?79 151 152 153 0 0 1 81 1 150 1263 13 139 154 0 1
55 156 157 16 151 374 156 ?101 158 139 159 0 0 1 16 152 1044 160 ?97 139 142 161
 0 0 1 30 255 153 455 0 139 161 159 0 +-.0486171891270812 .0955139123432397 -.01
459465485096012 1640034363335275e-31 -.984807753012208 .1736481776669305 30 161
 456 0 152 162 153 0 +.0275828108729188 .0955139123432398 -.01459465485096012 16
40034363335275e-31 -.984807753012208 .1736481776669305 30 159 454 0 151 153 163
 0 +-.0486171891270812 .0949764677060403 -.01764265485096015 1640034363335275e-3
1 -.984807753012208 .1736481776669305 30 163 453 0 158 159 164 0 +.0275828108729
188 .0949764677060404 -.01764265485096015 1640034363335275e-31 -.984807753012208
 .1736481776669305 16 158 1040 165 ?104 166 151 163 0 0 1 30 164 9 0 167 163 168
 0 +.0275828108729188 -.0254 .003048 136592399683213e-30 -1 0 16 167 219 169 ?17
0 149 171 164 0 0 1 30 168 19 0 149 164 172 0 +-.0486171891270812 -.0127 .003048
 0 1 0 16 149 17 16 ?146 173 167 168 0 0 1 31 172 24 0 173 168 174 0 +-.00400350
2423317935 .00108072915947926 .003048 0 0 1 1 0 0 .0518807291594793 16 173 22 17
5 ?176 177 149 172 0 0 1 30 174 29 0 177 172 178 0 +.01178965422480042 -.0508 .0
03048 -1 0 0 16 177 1094 179 ?37 180 173 174 0 0 1 30 178 135 0 166 174 181 0 +.
0275828108729188 -.0254 0 136592399683213e-30 -1 0 16 166 241 182 ?48 183 158 17
8 0 0 1 30 181 133 0 183 178 184 0 +-.0486171891270812 -.0127 0 0 1 0 16 183 98
 185 ?186 187 166 181 0 0 1 31 184 132 0 187 181 188 0 +-.004003502423317935 .00
108072915947926 0 0 0 1 1 0 0 .0518807291594793 16 187 94 189 ?190 171 183 184 0
 0 1 30 188 131 0 171 184 191 0 +.01178965422480042 -.0508 0 -1 0 0 16 171 1085
 192 ?47 167 187 188 0 0 1 30 191 162 0 180 188 193 0 +-.00400350242331793 -.050
8 .003048 0 0 -1 16 180 142 194 ?195 196 177 191 0 0 1 30 193 163 0 196 191 197
 0 +-.0486171891270812 -.0254 .003048 0 0 -1 16 196 143 198 ?88 199 180 193 0 0
 1 30 197 228 0 199 193 200 0 --.0105171891270812 -.00454255536280061 .003048 1
 1665334536937735e-31 0 16 199 226 201 ?140 202 196 197 0 0 1 30 200 246 0 202 1
97 203 0 +-.0105171891270812 -.00508 0 1 1665334536937735e-31 0 16 202 244 204 ?
205 206 199 200 0 0 1 30 203 1053 0 206 200 207 0 +.0275828108729188 -.04445 .00
3048 0 0 -1 16 206 1051 208 ?209 210 202 203 0 0 1 30 207 1058 0 210 203 211 0 -
.0275828108729188 .088631454200026 -.0170588220248862 2371902128814295e-32 -.173
6481776669305 -.984807753012208 16 210 1056 212 ?213 214 206 207 0 0 1 31 211 10
67 0 214 207 215 0 +.0212328108729188 .0892603831116122 -.01349198892277512 -289
182307545039e-31 .1736481776669305 .984807753012208 0 -.984807753012208 .1736481
776669305 .00635 16 214 1065 216 ?58 217 210 211 0 0 1 30 215 1076 0 217 211 218
 0 -.0212328108729188 .1000564677060404 .01116745679269782 -2371902128814295e-32
 .1736481776669305 .984807753012208 16 217 1074 219 ?52 220 214 215 0 0 1 31 218
 1081 0 220 215 221 0 +.0212328108729188 .0887229384744128 -.0165399889227751 28
9182307545039e-31 -.1736481776669305 -.984807753012208 0 .984807753012208 -.1736
481776669305 .00635 16 220 1079 222 ?69 50 217 218 0 0 1 31 221 1090 0 50 218 23
 0 -.0212328108729188 -.04445 0 0 0 1 1 0 0 .00635 16 50 1088 223 ?41 28 220 221
 0 0 1 30 23 1099 0 28 221 8 0 -.0212328108729188 -.0508 .003048 0 0 -1 16 28 10
97 224 ?30 11 50 23 0 0 1 81 1 224 1241 13 28 225 0 223 57 226 80 255 1 13 227 2
28 9000 0 0 0 0 3 5 0 0 0 FFTFTFTTFFFFFF3 81 1 225 1173 227 28 0 224 229 230 231
 81 1 223 1240 13 50 230 0 26 224 232 81 1 57 1242 13 53 229 0 224 51 233 84 255
 3 226 JPB81 1 229 1172 227 53 0 57 234 225 235 81 1 51 1243 13 42 234 0 57 64 2
36 84 3 233 JPc81 1 234 1171 227 42 0 51 237 229 238 81 1 64 1244 13 62 237 0 51
 68 239 84 3 236 JPY81 1 237 1170 227 62 0 64 240 234 241 81 1 68 1245 13 66 240
 0 64 61 242 84 3 239 JPU81 1 240 1169 227 66 0 68 243 237 244 81 1 61 1246 13 5
9 243 0 68 33 245 84 3 242 JPQ81 1 243 1168 227 59 0 61 246 240 247 81 1 33 1247
 13 70 246 0 61 29 248 84 3 245 JPM81 1 246 1167 227 70 0 33 32 243 249 84 3 248
 JPI80 1 227 250 251 9000 0 0 0 0 3 6 0 0 0 FFTFTFTTFFFFFF1 81 1 32 1166 227 12
 0 29 43 246 252 82 255 3 249 14 2 0 81 1 43 1165 227 31 0 34 253 32 254 82 3 25
2 14 1 0 81 1 253 1032 227 128 0 44 255 43 256 82 3 254 14 0 0 16 128 706 44 ?12
7 257 258 259 0 0 1 81 1 44 1250 13 128 253 0 34 260 261 81 1 255 1031 227 262 0
 260 263 253 264 82 3 256 13 15 1 16 262 884 260 ?265 266 133 267 0 0 1 81 1 260
 1251 13 262 255 0 44 268 269 81 1 263 1030 227 258 0 268 270 255 271 82 3 264 1
3 14 1 16 258 794 268 ?272 128 273 274 0 0 1 81 1 268 1252 13 258 263 0 260 275
 276 81 1 270 1029 227 266 0 275 277 263 278 82 3 271 13 13 1 16 266 854 275 ?27
9 273 262 280 0 0 1 81 1 275 1253 13 266 270 0 268 281 282 81 1 277 1028 227 273
 0 281 283 270 284 82 3 278 13 12 1 16 273 824 281 ?285 258 266 286 0 0 1 81 1 2
81 1254 13 273 277 0 275 107 287 81 1 283 1027 227 105 0 107 288 277 289 82 3 28
4 13 11 1 81 1 107 1255 13 105 283 0 281 74 290 81 1 288 1026 227 72 0 74 291 28
3 292 82 3 289 13 3 0 81 1 74 1256 13 72 288 0 107 293 294 81 1 291 1025 227 147
 0 295 296 288 297 82 3 292 13 2 0 14 255 147 151 293 ?298 299 129 6 300 +0 0 29
8 299 25 81 1 295 1205 301 147 291 293 302 303 304 81 1 296 1021 227 305 0 306 3
07 291 308 82 3 297 13 8 2 14 305 897 309 ?310 311 312 6 313 -0 0 310 311 25 81
 1 306 1210 301 305 296 309 314 315 316 81 1 307 1020 227 317 0 318 319 296 320
 82 3 308 13 4 2 14 317 807 321 ?124 322 323 6 324 -0 0 124 322 25 81 1 318 1213
 301 317 307 321 325 326 327 81 1 319 1019 227 310 0 315 328 307 329 82 3 320 13
 3 2 14 310 867 330 ?322 305 331 6 332 -0 0 322 305 25 81 1 315 1211 301 310 319
 330 306 325 333 81 1 328 1018 227 322 0 325 334 319 335 82 3 329 13 2 2 14 322
 837 336 ?317 310 337 6 338 -0 0 317 310 25 81 1 325 1212 301 322 328 336 315 31
8 339 81 1 334 1017 227 124 0 326 154 328 340 82 3 335 13 1 2 14 124 770 155 ?34
1 317 119 6 342 +0 0 341 317 25 81 1 326 1214 301 124 334 155 318 343 344 81 1 1
54 1014 227 139 0 150 345 334 346 82 3 340 13 0 2 81 1 345 1013 227 151 0 156 34
7 154 348 82 3 346 13 8 1 81 1 156 1264 13 151 345 0 150 349 350 81 1 347 1012 2
27 351 0 349 352 345 353 82 3 348 13 7 1 16 351 887 349 ?354 355 0 356 0 0 1 81
 1 349 1265 13 351 347 0 156 357 358 81 1 352 1011 227 144 0 357 359 347 360 82
 3 353 13 6 1 16 144 797 357 ?361 125 362 363 0 0 1 81 1 357 1266 13 144 352 0 3
49 364 365 81 1 359 1010 227 355 0 364 366 352 367 82 3 360 13 5 1 16 355 857 36
4 ?368 362 351 369 0 0 1 81 1 364 1267 13 355 359 0 357 370 371 81 1 366 1009 22
7 362 0 370 372 359 373 82 3 367 13 4 1 16 362 827 370 ?374 144 355 375 0 0 1 81
 1 370 1268 13 362 366 0 364 143 376 81 1 372 1008 227 125 0 143 377 366 378 82
 3 373 13 3 1 81 1 143 1269 13 125 372 0 370 132 379 81 1 377 1007 227 122 0 132
 380 372 381 82 3 378 13 2 1 81 1 132 1270 13 122 377 0 143 117 382 81 1 380 100
6 227 133 0 117 116 377 383 82 3 381 13 1 1 16 133 703 117 ?126 262 122 384 0 0
 1 81 1 117 1271 13 133 380 0 132 114 385 81 1 116 1005 227 113 0 114 386 380 38
7 82 3 383 13 0 1 81 1 386 1004 227 109 0 111 388 116 389 82 3 387 13 1 0 81 1 1
11 1273 13 109 386 0 114 201 390 81 1 388 496 227 199 0 201 391 386 392 82 3 389
 13 0 0 81 1 201 1274 13 199 388 0 111 204 393 81 1 391 495 227 202 0 204 394 38
8 395 82 3 392 9 1 1 81 1 204 1275 13 202 391 0 201 78 396 81 1 394 494 227 76 0
 78 397 391 398 82 3 395 9 0 1 81 1 78 1276 13 76 394 0 204 100 399 81 1 397 493
 227 98 0 100 400 394 401 82 3 398 9 3 0 81 1 100 1277 13 98 397 0 78 96 402 81
 1 400 492 227 89 0 96 403 397 404 82 3 401 9 2 0 81 1 96 1278 13 89 400 0 100 1
5 405 81 1 403 491 227 102 0 15 406 400 407 82 3 404 9 1 0 81 1 15 1279 13 102 4
03 0 96 2 408 81 1 406 490 227 1 0 409 410 403 411 82 3 407 9 0 0 81 1 409 1198
 412 1 406 413 0 0 414 81 1 410 298 227 149 0 16 415 406 416 82 3 411 6 0 3 81 1
 16 1281 13 149 410 0 2 185 417 81 1 415 297 227 183 0 185 418 410 419 82 3 416
 7 7 1 81 1 185 1282 13 183 415 0 16 420 421 81 1 418 213 227 298 0 303 422 415
 423 82 3 419 7 6 1 14 298 149 420 ?424 147 425 6 426 -0 0 424 147 25 81 1 303 1
206 301 298 418 420 295 427 428 81 1 422 204 227 173 0 175 429 418 430 82 3 423
 6 4 2 81 1 175 1284 13 173 422 0 420 189 431 81 1 429 203 227 187 0 189 432 422
 433 82 3 430 6 10 1 81 1 189 1285 13 187 429 0 175 198 434 81 1 432 197 227 196
 0 198 435 429 436 82 3 433 6 9 1 81 1 198 1286 13 196 432 0 189 194 437 81 1 43
5 196 227 180 0 194 438 432 439 82 3 436 6 3 1 81 1 194 1287 13 180 435 0 198 93
 440 81 1 438 191 227 84 0 93 441 435 442 82 3 439 6 2 1 81 1 93 1288 13 84 438
 0 194 87 443 81 1 441 190 227 85 0 87 444 438 445 82 3 442 6 7 0 81 1 87 1289 1
3 85 441 0 93 91 446 81 1 444 189 227 80 0 91 447 441 448 82 3 445 6 6 0 81 1 91
 1290 13 80 444 0 87 83 449 81 1 447 188 227 81 0 83 0 444 450 82 3 448 6 5 0 81
 1 83 1291 13 81 447 0 91 0 451 82 3 450 6 4 0 84 3 451 JHQ84 3 449 JHU84 3 446
 JHY84 3 443 JHc84 3 440 JHJ84 3 437 JHN84 3 434 JHl81 1 420 1283 13 298 303 0 1
85 175 452 84 3 431 JHp84 3 452 JHS80 1 301 0 453 8001 0 0 0 0 3 5 0 0 0 FFFFTFT
FFFFFFF2 81 1 427 1207 301 424 454 455 303 456 457 83 255 3 428 .615686274509804
 .811764705882353 .929411764705882 14 424 147 455 ?458 298 36 6 459 +0 0 458 298
 25 81 1 454 1191 227 424 0 427 460 461 462 81 1 455 1223 13 424 427 0 463 464 4
65 81 1 456 1208 301 458 466 467 427 314 468 83 3 457 .615686274509804 .81176470
5882353 .929411764705882 14 458 1 467 ?311 424 469 6 470 +0 0 311 424 25 81 1 46
6 1193 227 458 0 456 461 471 472 81 1 467 1221 13 458 456 0 473 463 474 81 1 314
 1209 301 311 461 463 456 306 475 83 3 468 .615686274509804 .811764705882353 .92
9411764705882 14 311 81 463 ?305 458 46 6 476 -0 0 305 458 25 81 1 461 1192 227
 311 0 314 454 466 477 81 1 463 1222 13 311 314 0 467 455 478 83 3 475 .61568627
4509804 .811764705882353 .929411764705882 84 3 478 JPO82 3 477 14 3 2 15 46 89 0
 48 311 0 50 255 476 130 0 311 470 459 0 +-.0105171891270812 -.0254 0 0 0 1 1 0
 0 13 25 59 0 0 0 0 0 0 10 19 14 19 435 479 ?480 0 481 6 482 +0 0 480 0 25 81 1
 479 1217 13 19 483 0 0 484 485 14 480 423 486 ?137 19 487 6 488 +0 0 137 19 25
 15 481 438 0 141 19 0 50 482 451 489 19 313 490 0 --.01051718912708122 .1000564
677060404 .01116745679269782 1640034363335275e-31 -.984807753012208 .17364817766
69305 -1 -1665334536937735e-31 0 81 2 489 452 491 482 0 0 0 0 492 493 51 313 920
 0 305 332 482 0 +-.004167189127081225 .0598356024723621 -.0340954421365452 -289
182307545039e-31 .1736481776669305 .984807753012208 .00254 0 -.984807753012208 .
1736481776669305 50 490 448 0 137 482 488 0 +-.01051718912708122 .09551391234323
97 -.01459465485096012 -289182307545039e-31 .1736481776669305 .984807753012208 0
 -.984807753012208 .1736481776669305 14 137 431 484 ?299 480 494 6 490 +0 0 299
 480 25 50 488 446 0 480 490 470 0 +-.01051718912708122 .0949764677060403 -.0176
4265485096015 289182307545039e-31 -.1736481776669305 -.984807753012208 0 .984807
753012208 -.1736481776669305 50 470 3 0 458 488 476 0 +-.0105171891270812 -.0254
 .003048 0 0 1 1 0 0 81 1 484 1218 13 137 495 0 479 486 496 14 299 155 473 ?147
 137 497 6 498 +0 0 147 137 25 15 494 592 0 499 137 500 17 499 0 494 499 499 0 3
61 144 0 0 -15 500 585 0 501 137 502 17 501 0 500 501 501 0 374 362 0 0 -15 502
 578 0 503 137 504 17 503 0 502 503 503 0 368 355 0 0 -15 504 571 0 505 137 135
 17 505 0 504 505 505 0 354 351 0 0 -17 354 0 506 354 354 0 505 351 0 0 +15 506
 901 0 354 305 0 17 368 0 507 368 368 0 503 355 0 0 +15 507 871 0 368 310 0 17 3
74 0 508 374 374 0 501 362 0 0 +15 508 841 0 374 322 0 17 361 0 509 361 361 0 49
9 144 0 0 +15 509 811 0 361 317 0 81 1 473 1220 13 299 302 0 486 467 510 15 497
 154 0 511 299 0 50 498 160 0 299 300 22 0 +.0275828108729188 -.0254 .003048 1 1
36592399683213e-30 0 -136592399683213e-30 1 0 50 300 158 0 147 426 498 0 +-.0486
171891270812 -.0127 .003048 -1 0 0 0 0 1 51 22 1128 0 341 498 7 0 +.021232810872
9188 .088631454200026 -.0170588220248862 2371902128814295e-32 -.1736481776669305
 -.984807753012208 .00635 0 .984807753012208 -.1736481776669305 14 341 1116 464
 ?21 124 512 6 22 +0 0 21 124 25 81 1 464 1224 13 341 343 0 455 513 514 14 21 11
37 513 ?0 341 515 6 7 +0 0 0 341 25 15 512 1117 0 516 341 0 17 516 0 512 517 518
 42 69 220 0 0 -17 517 0 512 65 516 53 52 217 0 0 -17 518 0 512 516 65 66 213 21
0 0 0 -17 69 0 519 104 520 66 516 220 0 511 +15 519 426 0 520 480 0 17 104 0 519
 521 69 102 511 158 0 205 +17 520 0 519 69 127 42 522 257 0 516 +17 511 0 497 21
3 523 66 104 158 0 518 -17 213 0 497 97 511 62 518 210 0 136 +17 523 0 497 511 2
09 102 48 166 0 0 -17 209 0 497 523 170 70 524 206 0 48 +17 48 0 46 41 205 70 52
3 166 0 0 +17 205 0 46 48 186 102 521 202 0 523 +17 186 0 46 205 525 98 526 183
 0 0 +17 521 0 519 131 104 98 205 202 0 186 -17 131 0 519 127 521 105 101 151 0
 0 -17 127 0 519 520 131 72 108 128 0 522 +17 101 0 129 526 121 98 131 151 0 521
 +17 526 0 129 94 101 85 186 183 0 0 -17 94 0 129 146 526 84 88 196 0 527 -17 88
 0 425 190 527 85 94 196 0 525 +17 527 0 425 88 528 84 176 173 0 148 -15 425 148
 0 190 298 0 17 528 0 425 527 190 80 195 180 0 0 -17 176 0 469 40 148 80 527 173
 0 528 +17 148 0 469 176 140 84 146 149 0 0 -15 469 6 0 40 458 0 17 140 0 469 14
8 529 76 138 199 0 146 +17 529 0 469 140 27 89 170 167 0 0 -17 138 0 135 136 79
 89 140 199 0 529 -17 136 0 135 58 138 62 97 152 0 0 -17 58 0 135 112 136 53 65
 214 0 141 +17 97 0 497 170 213 89 136 152 0 138 +17 170 0 497 209 97 59 529 167
 0 524 +17 524 0 515 530 49 59 209 206 0 0 -15 515 1138 0 530 21 0 17 530 0 515
 39 524 12 27 11 0 0 -17 49 0 515 524 39 70 41 50 0 209 -17 39 0 515 49 530 31 3
0 28 0 0 -17 27 0 469 529 40 59 530 11 0 170 +17 40 0 469 27 176 12 37 177 0 530
 -17 37 0 36 195 30 80 40 177 0 176 +15 36 146 0 38 424 0 17 195 0 36 38 37 81 5
28 180 0 190 +17 38 0 36 30 195 31 47 171 0 39 -17 190 0 425 528 88 81 525 187 0
 0 +17 525 0 46 186 47 85 190 187 0 526 -17 47 0 46 525 41 81 38 171 0 195 +17 6
5 0 512 518 517 62 58 214 0 213 -17 141 0 481 52 126 53 112 142 0 517 -17 52 0 4
81 522 141 42 517 217 0 520 +17 126 0 481 141 522 109 75 133 0 0 +16 142 1062 53
1 ?112 152 257 162 0 0 1 81 1 531 1229 13 142 532 0 182 219 533 16 257 365 534 ?
520 142 128 535 0 0 1 30 162 461 0 142 535 161 0 --.01051718912708122 .095513912
3432397 -.01459465485096012 1 1665334536937735e-31 0 30 535 463 0 257 259 162 0
 +-.01051718912708122 .0949764677060403 -.01764265485096015 1 1665334536937735e-
31 0 31 259 937 0 128 274 535 0 +-.0116470006696777 .059681547326461 -.011419208
10608324 289182307545039e-31 -.1736481776669305 -.984807753012208 0 .98480775301
2208 -.1736481776669305 .0370184720254738 31 274 938 0 258 286 259 0 +-.00416718
9127081225 .0824694092427853 -.0154373229945901 289182307545039e-31 -.1736481776
669305 -.984807753012208 0 .984807753012208 -.1736481776669305 .00254 31 286 939
 0 273 280 274 0 +.01488281087291878 .0824694092427853 -.0154373229945901 289182
307545039e-31 -.1736481776669305 -.984807753012208 0 .984807753012208 -.17364817
76669305 .00254 31 280 940 0 266 267 286 0 +.01488281087291878 .0637088215479027
 -.0121293252100351 289182307545039e-31 -.1736481776669305 -.984807753012208 0 .
984807753012208 -.1736481776669305 .00254 31 267 941 0 262 356 280 0 +-.00416718
9127081225 .0637088215479027 -.0121293252100351 289182307545039e-31 -.1736481776
669305 -.984807753012208 0 .984807753012208 -.1736481776669305 .00254 31 356 942
 0 351 369 267 0 +-.004167189127081225 .0642462661851021 -.00908132521003509 -28
9182307545039e-31 .1736481776669305 .984807753012208 0 -.984807753012208 .173648
1776669305 .00254 31 369 944 0 355 375 356 0 +.01488281087291878 .06424626618510
21 -.00908132521003509 -289182307545039e-31 .1736481776669305 .984807753012208 0
 -.984807753012208 .1736481776669305 .00254 31 375 946 0 362 363 369 0 +.0148828
1087291878 .0830068538799847 -.0123893229945901 -289182307545039e-31 .1736481776
669305 .984807753012208 0 -.984807753012208 .1736481776669305 .00254 31 363 948
 0 144 134 375 0 +-.004167189127081225 .0830068538799847 -.0123893229945901 -289
182307545039e-31 .1736481776669305 .984807753012208 0 -.984807753012208 .1736481
776669305 .00254 30 134 950 0 122 384 363 0 +-.0486171891270813 .057669702577256
 -.03371353554752435 -289182307545039e-31 .1736481776669305 .984807753012208 30
 384 952 0 133 145 134 0 +-.0209154728800058 .0911032486304997 -.039608771777470
2 -289182307545039e-31 .1736481776669305 .984807753012208 31 145 953 0 125 0 384
 0 +-.0116470006696777 .0602189919636604 -.00837120810608324 -289182307545039e-3
1 .1736481776669305 .984807753012208 0 -.984807753012208 .1736481776669305 .0370
184720254738 81 1 534 1226 13 257 536 0 513 169 537 81 1 536 1188 227 257 0 534
 538 539 540 81 1 513 1225 13 21 541 0 464 534 542 81 1 169 1227 13 167 538 0 53
4 182 543 84 3 537 JP981 1 538 1187 227 167 0 169 544 536 545 81 1 182 1228 13 1
66 544 0 169 531 546 84 3 543 JP581 1 544 1186 227 166 0 182 532 538 547 84 3 54
6 JP181 1 532 1185 227 142 0 531 548 544 549 82 3 547 14 13 1 81 1 548 1184 227
 217 0 219 550 532 551 82 3 549 14 12 1 81 1 219 1230 13 217 548 0 531 216 552 8
1 1 550 1183 227 214 0 216 553 548 554 82 3 551 14 11 1 81 1 216 1231 13 214 550
 0 219 222 555 81 1 553 1182 227 220 0 222 556 550 557 82 3 554 14 10 1 81 1 222
 1232 13 220 553 0 216 212 558 81 1 556 1181 227 210 0 212 559 553 560 82 3 557
 14 9 1 81 1 212 1233 13 210 556 0 222 160 561 81 1 559 1180 227 152 0 160 562 5
56 563 82 3 560 14 8 1 81 1 160 1234 13 152 559 0 212 165 564 81 1 562 1179 227
 158 0 165 565 559 566 82 3 563 14 7 1 81 1 165 1235 13 158 562 0 160 179 567 81
 1 565 1178 227 177 0 179 568 562 569 82 3 566 14 6 1 81 1 179 1236 13 177 565 0
 165 192 570 81 1 568 1177 227 171 0 192 571 565 572 82 3 569 14 5 1 81 1 192 12
37 13 171 568 0 179 208 573 81 1 571 1176 227 206 0 208 574 568 575 82 3 572 14
 4 1 81 1 208 1238 13 206 571 0 192 26 576 81 1 574 1175 227 11 0 26 230 571 577
 82 3 575 14 3 1 81 1 26 1239 13 11 574 0 208 223 578 81 1 230 1174 227 50 0 223
 225 574 579 82 3 577 14 2 1 82 3 579 14 1 1 84 3 578 JPJ84 3 576 JPN84 3 573 JP
R84 3 570 JPV84 3 567 JPZ84 3 564 JPd84 3 561 JPh84 3 558 JPl84 3 555 JPp84 3 55
2 JPt82 3 545 14 14 1 81 1 541 1216 301 21 539 513 343 0 580 84 3 542 JPC81 1 53
9 1189 227 21 0 541 536 460 581 81 1 343 1215 301 341 460 464 326 541 582 83 3 5
80 .615686274509804 .811764705882353 .929411764705882 81 1 460 1190 227 341 0 34
3 539 454 583 83 3 582 .615686274509804 .811764705882353 .929411764705882 82 3 5
83 14 1 2 82 3 581 14 0 2 82 3 540 14 15 1 84 3 533 JPx17 522 0 481 126 52 72 52
0 257 0 0 -17 75 0 119 108 120 72 126 133 0 127 -84 3 514 JPG51 426 157 0 298 45
9 300 0 --.004003502423317935 .00108072915947926 .003048 0 0 -1 .051880729159479
3 -1 0 0 50 459 156 0 424 476 426 0 +.01178965422480042 -.0508 .003048 0 -1 0 0
 0 -1 81 1 302 1204 301 299 471 473 495 295 584 81 1 486 1219 13 480 585 0 484 4
73 586 84 3 510 JPW81 1 585 1202 301 480 587 486 483 495 588 84 3 586 JPa81 1 58
7 1195 227 480 0 585 471 589 590 81 1 483 1201 301 19 591 479 0 585 592 81 1 495
 1203 301 137 589 484 585 302 593 83 3 588 .615686274509804 .811764705882353 .92
9411764705882 81 1 589 1196 227 137 0 495 587 591 594 83 3 593 .615686274509804
 .811764705882353 .929411764705882 81 1 591 1197 227 19 0 483 589 0 595 82 3 594
 14 7 2 82 3 595 14 8 2 83 3 592 .615686274509804 .811764705882353 .929411764705
882 81 1 471 1194 227 299 0 302 466 587 596 82 3 590 14 6 2 82 3 596 14 5 2 83 3
 584 .615686274509804 .811764705882353 .929411764705882 84 3 496 JPe51 332 923 0
 310 338 313 0 +.01488281087291878 .0598356024723621 -.0340954421365452 -2891823
07545039e-31 .1736481776669305 .984807753012208 .00254 0 -.984807753012208 .1736
481776669305 51 338 926 0 322 324 332 0 +.01488281087291878 .0785961901672447 -.
0374034399211002 -289182307545039e-31 .1736481776669305 .984807753012208 .00254
 0 -.984807753012208 .1736481776669305 51 324 929 0 317 342 338 0 +-.00416718912
7081225 .0785961901672447 -.0374034399211002 -289182307545039e-31 .1736481776669
305 .984807753012208 .00254 0 -.984807753012208 .1736481776669305 51 342 934 0 1
24 0 324 0 +-.0116470006696777 .0558083282509204 -.03338532503259335 -2891823075
45039e-31 .1736481776669305 .984807753012208 .0370184720254738 0 -.9848077530122
08 .1736481776669305 80 2 491 597 598 8044 0 0 0 0 3 5 0 0 0 FFFFTFFFTTFFFF3 2 8
4 6 492 BACAAB83 4 493 0 .02925455405436965 .00508 .02881011164365795 79 255 17
 598 SDL/TYSA_BLEND_ID15 487 632 0 599 480 600 17 599 0 487 599 599 0 272 258 0
 0 -15 600 626 0 601 480 602 17 601 0 600 601 601 0 285 273 0 0 -15 602 620 0 60
3 480 604 17 603 0 602 603 603 0 279 266 0 0 -15 604 614 0 605 480 519 17 605 0
 604 605 605 0 265 262 0 0 -17 265 0 312 265 265 0 605 262 0 0 +15 312 900 0 265
 305 506 17 279 0 331 279 279 0 603 266 0 0 +15 331 870 0 279 310 507 17 285 0 3
37 285 285 0 601 273 0 0 +15 337 840 0 285 322 508 17 272 0 323 272 272 0 599 25
8 0 0 +15 323 810 0 272 317 509 84 3 485 JPi84 3 474 JPS82 3 472 14 4 2 84 3 465
 JPK82 3 462 14 2 2 79 15 453 SDL/TYSA_COLOUR84 3 421 JIZ84 3 417 JId80 1 412 60
6 607 8038 0 0 0 0 0 0 0 0 0 TTTTTTTTTTTTTF10 81 1 413 1199 606 1 409 14 0 0 608
 98 255 6 414 80 97 114 116 32 49 80 1 606 609 610 8017 0 0 0 0 0 0 0 0 0 TTTTTT
TTTTTTTF3 81 1 14 1200 611 1 413 2 0 0 612 84 6 608 Part 180 1 611 301 613 8040
 0 0 0 0 3 5 0 0 0 TTTFFFFFFFFFFF2 83 3 612 .615686274509804 .811764705882353 .9
29411764705882 79 17 613 SDL/TYSA_COLOUR_279 13 610 SDL/TYSA_NAME79 14 607 SDL/T
YSA_UNAME84 2 408 IK84 3 405 JKE84 3 402 JKI84 3 399 JKM84 3 396 JKB84 3 393 JKF
84 2 390 IO84 3 385 JOB84 3 382 JOF84 3 379 JOJ84 3 376 JON84 3 371 JOR84 3 365
 JOV84 3 358 JOZ84 3 350 JOd81 1 155 1262 13 124 326 0 336 150 614 83 3 344 .615
686274509804 .811764705882353 .929411764705882 81 1 336 1261 13 322 325 0 330 15
5 615 84 3 614 JOC81 1 330 1260 13 310 315 0 321 336 616 84 3 615 JOG81 1 321 12
59 13 317 318 0 309 330 617 84 3 616 JOK81 1 309 1258 13 305 306 0 293 321 618 8
4 3 617 JOO81 1 293 1257 13 147 295 0 74 309 619 84 3 618 JOS84 3 619 JOi83 3 33
9 .615686274509804 .811764705882353 .929411764705882 83 3 333 .615686274509804 .
811764705882353 .929411764705882 83 3 327 .615686274509804 .811764705882353 .929
411764705882 83 3 316 .615686274509804 .811764705882353 .929411764705882 83 3 30
4 .615686274509804 .811764705882353 .929411764705882 84 3 294 JOI84 3 290 JOM84
 3 287 JOt84 3 282 JOx84 3 276 JO184 3 269 JO584 3 261 JO979 9 251 BTI/DetId82 3
 247 14 3 0 82 3 244 14 4 0 82 3 241 14 5 0 82 3 238 14 6 0 82 3 235 14 7 0 84 3
 232 JPF82 3 231 14 0 1 79 12 228 BTI/ExportId84 3 157 JOh84 3 118 JOE84 2 45 IP
84 3 35 JPE19 20 167 0 1 0 10 6 S0 74 4 CI16 index_map_offset0 0 1 dCCZ20 18 7 0
 0 591 489 409 413 14 541 83 0 0 0 0 0 0 0 0 0 0 0 0 0 84 3 17 JHD1 0 
