**ABCDEFGHIJKLMNOPQRSTUVWXYZabcdefghijklmnopqrstuvwxyz**************************
**PARASOLID !"#$%&'()*+,-./:;<=>?@[\]^_`{|}~0123456789**************************
**PART1;
MC=unknown;
MC_MODEL=unknown;
MC_ID=unknown;
OS=unknown;
OS_RELEASE=unknown;
FRU=Parasolid 32.0.170;
APPL=Onshape;
SITE=unknown;
USER=unknown;
FORMAT=text;
GUISE=transmit;
KEY=BTGapi::writeModels_.xmt;
FILE=BTGapi::writeModels_.xmt;
DATE=2019-12-04T09:03:29 (UTC);
**PART2;
SCH=SCH_3200170_32001;
USFLD_SIZE=0;
**PART3;
**END_OF_HEADER*****************************************************************
T51 : TRANSMIT FILE created by modeller version 320017023 SCH_3200170_32001_1300
6227 0 12 34 CCCCCCI4 mesh1006 0 I8 polyline1008 0 CCCCCCCDI5 owner1040 0 CCCCCC
I13 boundary_mesh1006 0 I17 boundary_polyline1008 0 CCCA16 index_map_offset0 0 1
 dA9 index_map82 0 A17 node_id_index_map82 0 A20 schema_embedding_map82 0 A5 chi
ld12 0 A14 lowest_node_id0 0 1 dA16 mesh_offset_data206 0 Z1 1495 2 3 0 0 0 0 0
 0 1e3 1e-8 0 4 5 1 0 1 1 6 7 8 9 0 0 10 11 12 0 0 0 0 0 0 0 81 255 1 2 1477 13
 1 14 0 15 16 17 70 11 CI9 list_type0 0 1 uI10 notransmit0 0 1 lCCCDCCDI12 finge
r_index0 0 1 dI12 finger_block1012 0 CZ3 0 4 T1 0 0 6 20 1 18 18 13 255 6 229 0
 1 0 19 0 0 20 0 51 255 7 1299 0 21 22 0 23 +1387778780781444e-33 .04572 .01016
 1 273184799366426e-30 0 .00508 -273184799366426e-30 1 0 38 12 CCCCCCCCCCCA17 in
tersection_data204 0 Z8 1238 0 11 24 0 0 +7 25 26 27 28 29 29 255 9 1230 0 12 30
 0 -.0254 .0502366189852526 .00783480045113211 19 8 CCCCCCCA5 owner12 0 Z10 72 0
 1 20 0 31 V0 16 255 11 1211 32 ?33 0 34 8 0 0 1 18 255 12 1227 35 36 0 37 9 ?1
 81 1 35 1429 13 12 38 0 39 40 41 17 255 36 0 42 33 43 12 44 45 0 46 -18 37 1223
 47 48 12 49 30 ?1 81 1 47 1431 13 37 50 0 40 51 52 17 48 0 53 54 55 37 56 57 0
 58 +18 49 1219 59 60 37 61 62 ?1 29 30 1226 0 37 62 9 .0254 .0502366189852526 .
00783480045113211 29 62 1222 0 49 63 30 -.0254 -.0502366189852526 .0078348004511
3211 29 63 1218 0 61 64 62 .0254 -.0502366189852526 .00783480045113211 18 61 121
5 65 66 49 67 63 ?1 29 64 1177 0 67 68 63 .0252866956807166 .0508 .01016 18 67 1
174 40 69 61 70 64 ?1 29 68 1173 0 70 71 64 -.0252866956807166 .0508 .01016 18 7
0 1170 39 33 67 72 68 ?1 29 71 1164 0 72 73 68 .0252866956807166 -.0508 .01016 1
8 72 1161 74 75 70 76 71 ?1 29 73 1160 0 76 77 71 -.0252866956807166 -.0508 .010
16 18 76 1157 78 79 72 80 73 ?1 29 77 1146 0 80 81 73 .0254 -.04572 .00508 18 80
 1143 82 83 76 84 77 ?1 29 81 1142 0 84 85 77 .0254 .04572 .00508 18 84 1139 86
 54 80 87 81 ?1 29 85 1138 0 87 88 81 -.0254 -.04572 .00508 18 87 1135 51 89 84
 90 85 ?1 29 88 1134 0 90 91 85 -.0254 .04572 .00508 18 90 1131 92 93 87 94 88 ?
1 29 91 926 0 94 95 88 .001484800451132126 .0508 .03175 18 94 923 96 97 90 98 91
 ?1 29 95 922 0 98 99 91 -.001484800451132126 .0508 .03175 18 98 919 100 101 94
 102 95 ?1 29 99 918 0 102 103 95 -.001484800451132126 .0635 .03175 18 102 915 1
04 105 98 106 99 ?1 29 103 914 0 106 107 99 .001484800451132126 .0635 .03175 18
 106 911 108 109 102 110 103 ?1 29 107 896 0 110 111 103 .0254 .0635 .0078348004
5113211 18 110 893 112 113 106 114 107 ?1 29 111 868 0 114 115 107 -.0254 .0635
 .00783480045113211 18 114 865 116 44 110 117 111 ?1 29 115 846 0 117 118 111 -.
0254 -.0635 .00783480045113211 18 117 843 119 120 114 121 115 ?1 29 118 842 0 12
1 122 115 .0254 -.0635 .00783480045113211 18 121 839 123 124 117 125 118 ?1 29 1
22 828 0 125 126 118 -.001484800451132126 -.0635 .03175 18 125 825 127 128 121 1
29 122 ?1 29 126 824 0 129 130 122 .001484800451132126 -.0635 .03175 18 129 821
 131 132 125 133 126 ?1 29 130 820 0 133 134 126 .001484800451132126 -.0508 .031
75 18 133 817 135 136 129 137 130 ?1 29 134 816 0 137 138 130 -.0014848004511321
26 -.0508 .03175 18 137 813 139 140 133 141 134 ?1 29 138 450 0 141 142 134 .025
4 .0635 0 18 141 389 143 144 137 145 138 ?1 29 142 451 0 145 146 138 -.0254 .063
5 0 18 145 387 147 148 141 149 142 ?1 29 146 607 0 149 150 142 .0254 -.0635 0 18
 149 544 151 152 145 153 146 ?1 29 150 608 0 153 0 146 -.0254 -.0635 0 18 153 55
3 16 154 149 0 150 ?1 81 1 16 1478 13 153 155 0 2 151 156 17 154 0 157 158 120 1
53 159 160 0 161 +15 255 157 576 0 162 163 0 17 158 0 157 164 154 149 165 166 0
 0 -17 120 0 157 154 162 117 128 167 0 159 +17 159 0 168 60 161 117 154 160 0 16
9 -16 160 844 170 ?154 171 172 173 0 0 1 17 161 0 168 159 148 153 174 175 0 165
 +15 168 213 0 159 19 0 17 148 0 168 161 44 145 176 177 0 174 +17 174 0 178 179
 165 145 161 175 0 180 -16 175 152 181 ?161 182 183 184 0 0 1 17 165 0 178 174 1
85 153 158 166 0 0 +15 178 123 0 174 186 187 17 185 0 178 165 179 149 188 182 0
 158 +16 166 531 189 ?165 190 191 192 0 0 1 81 1 189 1480 13 166 193 0 151 143 1
94 16 190 814 195 ?196 197 166 198 0 0 1 16 191 740 199 ?200 166 201 202 0 0 1 3
0 255 192 597 0 166 203 204 0 +0 -.0635 0 -1 0 0 30 203 601 0 197 198 192 0 +0 -
.0635 .03175 -1 0 0 30 204 596 0 172 192 173 0 +.0254 -.0635 .03175 0 0 -1 16 17
2 840 205 ?152 160 197 204 0 0 1 30 173 595 0 160 204 206 0 +-.0254 -.0635 .0317
5 0 0 -1 30 206 447 0 207 173 208 0 +0 .0508 .03175 1 273184799366426e-30 0 16 2
07 920 209 ?210 211 171 206 0 0 1 30 208 445 0 211 206 212 0 +0 .0635 .03175 -1
 0 0 16 211 912 213 ?214 177 207 208 0 0 1 30 212 441 0 171 208 215 0 +0 .0635 0
 -1 0 0 16 171 348 216 ?180 207 160 212 0 0 1 30 215 439 0 183 212 217 0 +.0254
 .0635 .03175 0 0 -1 16 183 894 218 ?144 175 177 215 0 0 1 30 217 438 0 177 215
 219 0 +-.0254 .0635 .03175 0 0 -1 16 177 866 220 ?148 183 211 217 0 0 1 30 219
 18 0 221 217 222 0 +-.0254 -693889390390723e-32 .00508 0 -1 0 16 221 1132 223 ?
224 225 226 219 0 0 1 30 222 28 0 225 219 227 0 +.0254 693889390390723e-32 .0050
8 0 -1 0 16 225 1140 228 ?229 230 221 222 0 0 1 31 255 227 33 0 230 222 231 0 +-
.00889 .0254 .00508 0 0 1 1 0 0 .00254 16 230 31 232 ?233 234 225 227 0 0 1 31 2
31 38 0 234 227 235 0 +-.00889 .00635 .00508 0 0 1 1 0 0 .00254 16 234 36 236 ?2
37 238 230 231 0 0 1 31 235 43 0 238 231 239 0 +.01016 .0254 .00508 0 0 1 1 0 0
 .00254 16 238 41 240 ?241 242 234 235 0 0 1 31 239 48 0 242 235 184 0 +.01016 .
00635 .00508 0 0 1 1 0 0 .00254 16 242 46 243 ?244 245 238 239 0 0 1 30 184 183
 0 175 239 246 0 +-.0254 -693889390390723e-32 0 0 -1 0 30 246 181 0 182 184 247
 0 +.0254 693889390390723e-32 0 0 -1 0 16 182 144 15 ?185 248 175 246 0 0 1 31 2
47 180 0 248 246 249 0 +-.00889 .0254 0 0 0 1 1 0 0 .00254 16 248 140 250 ?251 2
52 182 247 0 0 1 31 249 179 0 252 247 253 0 +-.00889 .00635 0 0 0 1 1 0 0 .00254
 16 252 136 254 ?255 256 248 249 0 0 1 31 253 178 0 256 249 257 0 +.01016 .0254
 0 0 0 1 1 0 0 .00254 16 256 132 258 ?259 226 252 253 0 0 1 31 257 177 0 226 253
 260 0 +.01016 .00635 0 0 0 1 1 0 0 .00254 16 226 128 261 ?262 221 256 257 0 0 1
 30 260 831 0 245 257 263 0 -.001484800451132126 1387778780781446e-32 .03175 0 -
1 0 16 245 829 264 ?136 265 242 260 0 0 1 30 263 836 0 265 260 266 0 +-.00148480
0451132126 -.0635 .03175 0 -1 0 16 265 834 267 ?268 269 245 263 0 0 1 31 266 849
 0 269 263 270 0 +.001484800451132126 -.0635 .00783480045113211 0 -1 0 0 0 -1 .0
239151995488679 16 269 847 271 ?132 167 265 266 0 0 1 31 270 854 0 167 266 272 0
 +-.001484800451132126 -.0635 .00783480045113211 0 -1 0 0 0 -1 .0239151995488679
 16 167 852 273 ?120 45 269 270 0 0 1 30 272 871 0 45 270 274 0 --.0254 .0635 .0
0783480045113211 0 -1 0 16 45 869 275 ?44 276 167 272 0 0 1 30 274 876 0 276 272
 277 0 --.0254 -.0508 .00783480045113211 0 -1 0 16 276 874 278 ?60 279 45 274 0
 0 1 31 277 885 0 279 274 280 0 +.001484800451132126 -.0508 .00783480045113211 -
273184799366426e-30 1 0 -1 -273184799366426e-30 0 .0239151995488679 16 279 883 2
81 ?282 283 276 277 0 0 1 31 280 890 0 283 277 284 0 +-.001484800451132126 -.050
8 .00783480045113211 -273184799366426e-30 1 0 -1 -273184799366426e-30 0 .0239151
995488679 16 283 1158 285 ?140 57 279 280 0 0 1 30 284 903 0 57 280 286 0 +.0254
 693889390390723e-32 .00783480045113211 0 -1 0 16 57 901 287 ?48 288 283 284 0 0
 1 30 286 908 0 288 284 289 0 +.0254 693889390390723e-32 .00783480045113211 0 -1
 0 16 288 906 290 ?291 292 57 286 0 0 1 30 289 929 0 292 286 293 0 -.00148480045
1132126 1387778780781446e-32 .03175 0 -1 0 16 292 927 294 ?109 295 288 289 0 0 1
 30 293 934 0 295 289 296 0 +-.001484800451132126 .0508 .03175 0 -1 0 16 295 932
 297 ?298 299 292 293 0 0 1 31 296 939 0 299 293 300 0 -.001484800451132126 .050
8 .00783480045113211 -273184799366426e-30 1 0 -1 -273184799366426e-30 0 .0239151
995488679 16 299 1175 301 ?97 302 295 296 0 0 1 31 300 944 0 302 296 303 0 --.00
1484800451132126 .0508 .00783480045113211 -273184799366426e-30 1 0 -1 -273184799
366426e-30 0 .0239151995488679 16 302 942 304 ?305 306 299 300 0 0 1 31 303 949
 0 306 300 307 0 -.001484800451132126 .0635 .00783480045113211 0 -1 0 0 0 -1 .02
39151995488679 16 306 947 308 ?113 309 302 303 0 0 1 31 307 954 0 309 303 310 0
 --.001484800451132126 .0635 .00783480045113211 0 -1 0 0 0 -1 .0239151995488679
 16 309 952 311 ?105 312 306 307 0 0 1 30 310 1149 0 312 307 313 0 --12490009027
033e-30 .04572 .00508 1 273184799366426e-30 0 16 312 1147 314 ?93 315 309 310 0
 0 1 30 313 1154 0 315 310 316 0 +.0254 -.04572 .00508 1 273184799366426e-30 0 1
6 315 1152 317 ?318 319 312 313 0 0 1 30 316 1167 0 319 313 320 0 --.0254 -.0508
 .01016 1 273184799366426e-30 0 16 319 1165 321 ?79 322 315 316 0 0 1 30 320 118
0 0 322 316 323 0 +0 .0508 .01016 1 273184799366426e-30 0 16 322 1178 324 ?325 3
26 319 320 0 0 1 31 323 1231 0 326 320 327 0 -.0254 -.04572 .01016 1 0 0 0 0 -1
 .00508 16 326 1183 328 ?329 330 322 323 0 0 1 38 327 1232 0 330 323 331 0 +22 3
32 333 334 335 336 16 330 1187 337 ?75 338 326 327 0 0 1 38 331 1233 0 338 327 3
39 0 +22 340 341 342 343 344 51 22 1272 0 345 346 7 347 +12490009027033e-30 -.04
572 .01016 -1 -273184799366426e-30 0 .00508 273184799366426e-30 -1 0 51 332 1005
 0 348 340 25 349 +.001484800451132126 693889390390723e-32 .00783480045113211 0
 -1 0 .0239151995488679 0 0 -1 40 255 3 333 0 1 3 .0002817893317496335 .33756416
5319934 ??.0254 -.0502366189852526 .00783480045113211 .025346726855902 -.0507473
018206451 .00943018056744238 .0252866956807166 -.0508 .01016 41 3 CI8 term_use0
 0 1 cCZ1 334 L?.0254 -.0502366189852526 .00783480045113211 41 1 335 L?.02528669
56807166 -.0508 .01016 204 2 17 INTERSECTION_DATA17 Intersection data7 uv_type0
 0 1 u6 values0 1 1 fT12 336 4 5.80776020442756 -.0254 1.570796326794895 .050236
6189852526 6.13902121598106 -.02534672685590195 1.637555785967445 .0507473018206
451 6.28318530717959 -.0252866956807166 1.668177015226395 .0508 14 255 348 993 3
50 ?351 352 353 6 332 +0 0 351 352 31 51 340 984 0 352 354 332 355 +-.0014848004
51132126 1387778780781446e-32 .00783480045113211 0 1 0 .0239151995488679 0 0 1 5
1 25 1026 0 351 332 346 356 +-.001484800451132126 1387778780781446e-32 .00783480
045113211 0 1 0 .0239151995488679 0 0 1 141 255 349 327 349 349 332 14 351 1014
 357 ?358 348 42 6 25 +0 0 358 348 31 51 346 1047 0 358 25 22 359 +.001484800451
132126 693889390390723e-32 .00783480045113211 0 -1 0 .0239151995488679 0 0 -1 14
1 356 8 356 356 25 14 358 1035 360 ?345 351 361 6 346 +0 0 345 351 31 141 359 36
2 359 359 346 38 362 1235 0 363 339 364 0 +7 346 365 366 367 368 16 363 1199 369
 ?58 370 371 362 0 0 1 31 339 1234 0 371 331 362 0 +-.0254 -.04572 .01016 1 0 0
 0 0 -1 .00508 31 364 1236 0 370 362 24 0 -.0254 .04572 .01016 1 0 0 0 0 -1 .005
08 40 3 365 0 1 3 .00028179325059239 .3375626902314625 ??.0252866956807166 .0508
 .01016 .02539046451358835 .050524596363997 .00851007461409093 .0254 .0502366189
852526 .00783480045113211 41 1 366 L?.0252866956807166 .0508 .01016 41 1 367 L?.
0254 .0502366189852526 .00783480045113211 204 12 368 4 0 .0252866956807166 1.668
177015226395 -.0508 5.95239725144293 .02539046451358835 1.59903627204407 -.05052
4596363997 5.80776020442756 .0254 1.570796326794895 -.0502366189852526 16 370 12
03 372 ?54 34 363 364 0 0 1 31 24 1237 0 34 364 8 0 +-.0254 .04572 .01016 1 0 0
 0 0 -1 .00508 16 34 1207 373 ?46 11 370 24 0 0 1 81 1 373 1416 13 34 374 0 324
 372 375 17 46 0 168 44 376 12 377 34 0 378 +17 44 0 168 148 46 114 36 45 0 176
 +17 376 0 168 46 89 90 224 221 0 377 -17 377 0 379 380 378 90 46 34 0 0 -17 378
 0 379 377 381 12 33 11 0 0 -15 379 1284 0 377 21 0 17 381 0 379 378 69 70 325 3
22 0 0 -17 33 0 42 101 36 70 378 11 0 305 +15 42 1015 0 43 351 0 17 101 0 42 382
 33 98 305 302 0 298 -17 305 0 383 325 384 70 101 302 0 381 +15 383 403 0 305 38
5 0 17 325 0 383 97 305 67 381 322 0 386 +17 384 0 383 305 97 98 210 207 0 0 -17
 97 0 383 384 325 94 386 299 0 210 +17 210 0 387 109 298 94 384 207 0 388 +15 38
7 423 0 214 389 0 17 109 0 387 214 210 106 388 292 0 390 +17 298 0 387 210 214 9
8 382 295 0 384 +17 388 0 361 386 391 94 109 292 0 0 -15 361 1036 0 391 358 0 17
 386 0 361 58 388 67 97 299 0 0 -17 391 0 361 388 56 106 113 306 0 0 -17 56 0 36
1 391 58 110 48 57 0 0 -17 113 0 392 144 390 110 391 306 0 55 +15 392 411 0 176
 393 0 17 144 0 392 180 113 141 55 183 0 188 +17 390 0 392 113 105 106 214 211 0
 391 -17 55 0 53 48 188 110 144 183 0 56 -15 53 209 0 229 394 0 17 188 0 53 55 1
52 141 185 182 0 179 -17 152 0 53 188 291 149 164 172 0 185 +17 179 0 178 185 17
4 141 180 171 0 0 -17 180 0 392 176 144 145 179 171 0 0 +17 176 0 392 105 180 11
4 148 177 0 43 -17 105 0 392 390 176 102 43 309 0 214 +17 43 0 42 36 382 114 105
 309 0 0 -17 382 0 42 43 101 102 298 295 0 0 -17 214 0 387 298 109 102 390 211 0
 382 +17 291 0 53 152 329 121 66 288 0 164 +17 164 0 157 132 158 121 152 172 0 0
 -17 132 0 157 162 164 129 124 269 0 395 +17 162 0 157 120 132 125 395 197 0 0 +
17 124 0 353 66 396 121 132 269 0 291 -17 395 0 397 136 268 129 162 197 0 396 -1
5 397 580 0 398 399 0 17 136 0 397 398 395 133 396 245 0 196 +17 268 0 397 395 3
98 125 400 265 0 162 +16 197 822 401 ?162 172 190 203 0 0 1 17 396 0 353 124 402
 129 136 245 0 0 -15 353 994 0 402 348 0 17 402 0 353 396 75 133 282 279 0 0 -17
 75 0 353 402 66 72 403 330 0 282 +17 282 0 404 79 196 72 402 279 0 405 +15 404
 560 0 282 406 0 17 79 0 404 140 282 76 405 319 0 407 +17 196 0 404 282 140 133
 398 190 0 402 +17 405 0 408 403 409 72 79 319 0 0 -15 408 1257 0 409 345 0 17 4
03 0 408 83 405 61 75 330 0 0 -17 409 0 408 405 410 76 411 338 0 0 -17 410 0 408
 409 412 49 89 371 0 0 -17 411 0 413 169 407 49 409 338 0 410 +16 338 1191 414 ?
411 371 330 331 0 0 1 81 1 414 1413 13 338 415 0 328 337 416 16 371 1195 417 ?89
 363 338 339 0 0 1 81 1 417 1411 13 371 418 0 321 328 419 17 89 0 168 376 60 87
 410 371 0 224 +17 60 0 168 89 159 49 169 276 0 411 +17 224 0 420 318 93 87 376
 221 0 412 +15 420 6 0 224 421 422 17 318 0 420 423 224 80 412 315 0 229 +17 93
 0 420 224 423 90 380 312 0 376 +17 412 0 408 410 83 87 318 315 0 0 -17 83 0 408
 412 403 80 329 326 0 318 -17 329 0 53 291 229 61 83 326 0 403 +17 229 0 53 329
 54 80 423 225 0 0 +17 54 0 53 229 48 84 424 370 0 423 +17 423 0 420 93 318 84 2
29 225 0 380 -17 380 0 379 424 377 84 93 312 0 0 -17 424 0 379 69 380 37 54 370
 0 0 -17 69 0 379 381 424 67 58 363 0 325 -17 58 0 361 56 386 37 69 363 0 424 +1
4 421 1 425 ?186 426 420 6 427 +0 0 186 426 31 15 422 7 0 428 421 429 17 428 0 4
22 428 428 0 233 230 0 0 -15 429 8 0 430 421 431 17 430 0 429 430 430 0 237 234
 0 0 -15 431 9 0 432 421 433 17 432 0 431 432 432 0 241 238 0 0 -15 433 10 0 434
 421 0 17 434 0 433 434 434 0 244 242 0 0 -17 244 0 435 244 244 0 434 242 0 0 +1
5 435 193 0 244 426 436 14 426 194 437 ?421 394 435 6 438 +0 0 421 394 31 15 436
 195 0 439 426 0 17 439 0 436 439 439 0 262 226 0 0 -17 262 0 440 262 262 0 439
 226 0 0 +15 440 127 0 262 186 0 14 186 112 441 ?385 421 178 6 442 -0 0 385 421
 31 81 1 441 1474 13 186 443 0 444 181 445 14 385 416 446 ?393 186 447 6 448 -0
 0 393 186 31 50 255 442 176 0 186 427 438 0 +0 1387778780781446e-32 0 0 0 1 1 0
 0 13 31 73 0 0 0 0 0 0 10 19 14 19 214 449 ?450 0 168 6 354 -0 0 450 0 31 81 1
 449 1393 13 19 451 0 446 452 453 14 450 198 454 ?455 19 456 6 457 +0 0 455 19 3
1 50 354 223 0 19 458 340 0 +-.0254 -693889390390723e-32 .00508 1 0 0 0 0 -1 50
 458 221 0 394 459 354 0 +.0254 693889390390723e-32 .00508 1 0 0 0 0 -1 14 394 2
10 452 ?426 460 53 6 458 +0 0 426 460 31 51 459 220 0 460 461 458 0 --.00889 .02
54 .00508 0 0 -1 .00254 -1 0 0 14 460 206 462 ?394 455 463 6 459 +0 0 394 455 31
 51 461 219 0 455 457 459 0 --.00889 .00635 .00508 0 0 -1 .00254 -1 0 0 14 455 2
02 464 ?460 450 465 6 461 +0 0 460 450 31 51 457 218 0 450 438 461 0 -.01016 .02
54 .00508 0 0 -1 .00254 -1 0 0 51 438 217 0 426 442 457 0 -.01016 .00635 .00508
 0 0 -1 .00254 -1 0 0 81 1 464 1486 13 455 466 0 454 462 467 15 465 201 0 237 45
5 468 17 237 0 465 237 237 0 430 234 0 0 +15 468 203 0 469 455 0 17 469 0 468 46
9 469 0 255 252 0 0 -17 255 0 470 255 255 0 469 252 0 0 +15 470 125 0 255 186 47
1 15 471 126 0 259 186 440 17 259 0 471 259 259 0 472 256 0 0 +17 472 0 473 472
 472 0 259 256 0 0 -15 473 199 0 472 450 0 80 255 1 13 474 475 9000 0 0 0 0 3 5
 0 0 0 FFTFTFTTFFFFFF3 81 1 466 1371 476 455 477 464 478 479 480 81 1 454 1485 1
3 450 478 0 437 464 481 81 1 462 1487 13 460 479 0 464 243 482 84 255 3 467 JHe8
1 1 479 1372 476 460 483 462 466 484 485 81 1 243 1488 13 242 486 0 462 261 487
 84 3 482 JHa81 1 486 279 474 242 0 243 488 483 489 81 1 261 1489 13 226 488 0 2
43 240 490 84 4 487 KHNB81 1 488 278 474 226 0 261 491 486 492 81 1 240 1490 13
 238 491 0 261 258 493 84 4 490 KHJB81 1 491 277 474 238 0 240 494 488 495 81 1
 258 1491 13 256 494 0 240 236 496 84 4 493 KHFB81 1 494 276 474 256 0 258 497 4
91 498 81 1 236 1492 13 234 497 0 258 254 499 84 4 496 KHBB81 1 497 275 474 234
 0 236 500 494 501 81 1 254 1493 13 252 500 0 236 232 502 84 3 499 JH981 1 500 2
74 474 252 0 254 503 497 504 81 1 232 1494 13 230 503 0 254 250 505 84 3 502 JH5
81 1 503 273 474 230 0 232 506 500 507 81 1 250 1495 13 248 506 0 232 0 508 84 3
 505 JH181 1 506 272 474 248 0 250 0 503 509 84 3 508 JHx80 1 474 510 511 9000 0
 0 0 0 3 6 0 0 0 FFTFTFTTFFFFFF1 82 255 3 509 6 12 1 79 255 9 511 BTI/DetId82 3
 507 6 13 1 82 3 504 6 14 1 82 3 501 6 15 1 82 3 498 6 16 1 82 3 495 6 17 1 82 3
 492 6 18 1 81 1 483 286 474 460 0 479 486 477 512 82 3 489 6 19 1 81 1 477 287
 474 455 0 466 483 513 514 82 3 512 6 6 2 81 1 513 288 474 450 0 478 477 515 516
 82 3 514 6 7 2 81 1 478 1370 476 450 513 454 451 466 517 81 1 515 289 474 426 0
 518 513 519 520 82 3 516 6 8 2 81 1 518 1374 476 426 515 437 484 521 522 81 1 5
19 350 474 171 0 216 515 523 524 82 3 520 6 9 2 81 1 216 1483 13 171 519 0 147 4
37 525 81 1 523 388 474 145 0 147 519 526 527 82 3 524 7 8 1 81 1 147 1482 13 14
5 523 0 143 216 528 81 1 526 390 474 141 0 143 523 193 529 82 3 527 7 2 0 81 1 1
43 1481 13 141 526 0 189 147 530 81 1 193 533 474 166 0 189 526 531 532 82 3 529
 7 0 0 81 1 531 545 474 149 0 151 193 155 533 82 3 532 7 10 1 81 1 151 1479 13 1
49 531 0 16 189 534 81 1 155 554 474 153 0 16 531 535 536 82 3 533 7 4 0 81 1 53
5 635 474 1 0 537 155 538 539 82 3 536 7 6 0 81 1 537 1366 540 1 535 541 0 0 542
 81 1 538 640 474 182 0 15 535 543 544 82 3 539 6 0 3 81 1 15 1476 13 182 538 0
 181 2 545 81 1 543 641 474 175 0 181 538 546 547 82 3 544 8 0 1 81 1 181 1475 1
3 175 543 0 441 15 548 81 1 546 649 474 186 0 443 543 549 550 82 3 547 8 1 1 81
 1 443 1376 476 186 546 441 521 551 552 81 1 549 799 474 553 0 444 546 554 555 8
2 3 550 8 1 2 16 553 749 444 ?556 557 0 558 0 0 1 81 1 444 1473 13 553 549 0 559
 441 560 81 1 554 804 474 201 0 559 549 561 562 82 3 555 12 0 1 16 201 737 559 ?
563 191 557 564 0 0 1 81 1 559 1472 13 201 554 0 199 444 565 81 1 561 805 474 19
1 0 199 554 566 567 82 3 562 12 1 1 81 1 199 1471 13 191 561 0 568 559 569 81 1
 566 806 474 557 0 568 561 570 571 82 3 567 12 2 1 16 557 743 568 ?572 201 553 5
73 0 0 1 81 1 568 1470 13 557 566 0 574 199 575 81 1 570 807 474 576 0 577 566 5
78 579 82 3 571 12 3 1 14 576 769 574 ?580 399 581 6 582 -580 580 580 399 31 81
 1 577 1383 476 576 570 574 583 584 585 81 1 578 808 474 580 0 584 570 586 587 8
2 3 579 12 4 2 14 580 754 588 ?352 576 589 6 582 -576 576 352 576 31 81 1 584 13
84 476 580 578 588 577 590 591 81 1 586 1073 474 106 0 108 578 592 593 82 3 587
 12 5 2 81 1 108 1467 13 106 586 0 96 588 594 81 1 592 1074 474 94 0 96 586 595
 596 82 3 593 13 0 0 81 1 96 1466 13 94 592 0 112 108 597 81 1 595 1075 474 110
 0 112 592 598 599 82 3 596 13 1 0 81 1 112 1465 13 110 595 0 131 96 600 81 1 59
8 1077 474 129 0 131 595 601 602 82 3 599 13 2 0 81 1 131 1464 13 129 598 0 135
 112 603 81 1 601 1078 474 133 0 135 598 604 605 82 3 602 13 4 0 81 1 135 1463 1
3 133 601 0 123 131 606 81 1 604 1079 474 121 0 123 601 607 608 82 3 605 13 5 0
 81 1 123 1462 13 121 604 0 127 135 609 81 1 607 1081 474 125 0 127 604 610 611
 82 3 608 13 6 0 81 1 127 1461 13 125 607 0 139 123 612 81 1 610 1082 474 137 0
 139 607 613 614 82 3 611 13 8 0 81 1 139 1460 13 137 610 0 119 127 615 81 1 613
 1083 474 117 0 119 610 616 617 82 3 614 13 9 0 81 1 119 1459 13 117 613 0 104 1
39 618 81 1 616 1085 474 102 0 104 613 619 620 82 3 617 13 10 0 81 1 104 1458 13
 102 616 0 100 119 621 81 1 619 1086 474 98 0 100 616 622 623 82 3 620 13 12 0 8
1 1 100 1457 13 98 619 0 116 104 624 81 1 622 1087 474 114 0 116 619 625 626 82
 3 623 13 13 0 81 1 116 1456 13 114 622 0 218 100 627 81 1 625 1089 474 183 0 21
8 622 628 629 82 3 626 13 14 0 81 1 218 1455 13 183 625 0 220 116 630 81 1 628 1
090 474 177 0 220 625 631 632 82 3 629 13 0 1 81 1 220 1454 13 177 628 0 205 218
 633 81 1 631 1091 474 172 0 205 628 634 635 82 3 632 13 1 1 81 1 205 1453 13 17
2 631 0 170 220 636 81 1 634 1092 474 160 0 170 631 637 638 82 3 635 13 2 1 81 1
 170 1452 13 160 634 0 213 205 639 81 1 637 1093 474 211 0 213 634 640 641 82 3
 638 13 3 1 81 1 213 1451 13 211 637 0 401 170 642 81 1 640 1094 474 197 0 401 6
37 643 644 82 3 641 13 4 1 81 1 401 1450 13 197 640 0 294 213 645 81 1 643 1095
 474 292 0 294 640 646 647 82 3 644 13 5 1 81 1 294 1449 13 292 643 0 308 401 64
8 81 1 646 1097 474 306 0 308 643 649 650 82 3 647 13 6 1 81 1 308 1448 13 306 6
46 0 264 294 651 81 1 649 1099 474 245 0 264 646 652 653 82 3 650 13 8 1 81 1 26
4 1447 13 245 649 0 271 308 654 81 1 652 1101 474 269 0 271 649 655 656 82 3 653
 13 10 1 81 1 271 1446 13 269 652 0 267 264 657 81 1 655 1103 474 265 0 267 652
 658 659 82 3 656 13 12 1 81 1 267 1445 13 265 655 0 273 271 660 81 1 658 1105 4
74 167 0 273 655 661 662 82 3 659 13 14 1 81 1 273 1444 13 167 658 0 297 267 663
 81 1 661 1107 474 295 0 297 658 664 665 82 3 662 13 16 1 81 1 297 1443 13 295 6
61 0 311 273 666 81 1 664 1109 474 309 0 311 661 667 668 82 3 665 13 18 1 81 1 3
11 1442 13 309 664 0 209 297 669 81 1 667 1111 474 207 0 209 664 670 671 82 3 66
8 13 20 1 81 1 209 1441 13 207 667 0 195 311 672 81 1 670 1112 474 190 0 195 667
 673 674 82 3 671 13 22 1 81 1 195 1440 13 190 670 0 675 209 676 81 1 673 1121 4
74 389 0 677 670 678 679 82 3 674 13 23 1 14 389 420 675 ?406 393 387 6 680 +0 0
 406 393 31 81 1 677 1379 476 389 673 675 681 682 683 81 1 678 1122 474 399 0 58
3 673 684 685 82 3 679 13 4 2 14 399 577 686 ?576 163 397 6 687 +0 0 576 163 31
 81 1 583 1382 476 399 678 686 688 577 689 81 1 684 1125 474 393 0 681 678 690 6
91 82 3 685 13 5 2 14 393 408 692 ?389 385 693 6 694 -0 0 389 385 31 81 1 681 13
78 476 393 684 692 551 677 695 81 1 690 1126 474 163 0 688 684 696 697 82 3 691
 13 8 2 14 163 573 698 ?399 406 699 6 700 +0 0 399 406 31 81 1 688 1381 476 163
 690 698 682 583 701 81 1 696 1321 474 84 0 86 690 702 703 82 3 697 13 9 2 81 1
 86 1435 13 84 696 0 92 698 704 81 1 702 1322 474 90 0 92 696 705 706 82 3 703 1
4 0 0 81 1 92 1434 13 90 702 0 82 86 707 81 1 705 1323 474 80 0 82 702 708 709 8
2 3 706 14 1 0 81 1 82 1433 13 80 705 0 51 92 710 81 1 708 1324 474 87 0 51 705
 50 711 82 3 709 14 2 0 81 1 51 1432 13 87 708 0 47 82 712 81 1 50 1325 474 37 0
 47 708 713 714 82 3 711 14 3 0 81 1 713 1326 474 67 0 40 50 38 715 82 3 714 14
 4 0 81 1 40 1430 13 67 713 0 35 47 716 81 1 38 1327 474 12 0 35 713 717 718 82
 3 715 14 5 0 81 1 717 1328 474 70 0 39 38 719 720 82 3 718 14 6 0 81 1 39 1428
 13 70 717 0 65 35 721 81 1 719 1329 474 61 0 65 717 722 723 82 3 720 14 7 0 81
 1 65 1427 13 61 719 0 74 39 724 81 1 722 1330 474 72 0 74 719 725 726 82 3 723
 14 8 0 81 1 74 1426 13 72 722 0 59 65 727 81 1 725 1331 474 49 0 59 722 728 729
 82 3 726 14 9 0 81 1 59 1425 13 49 725 0 78 74 730 81 1 728 1332 474 76 0 78 72
5 731 732 82 3 729 14 10 0 81 1 78 1424 13 76 728 0 228 59 733 81 1 731 1333 474
 225 0 228 728 734 735 82 3 732 14 11 0 81 1 228 1423 13 225 731 0 223 78 736 81
 1 734 1334 474 221 0 223 731 737 738 82 3 735 14 0 1 81 1 223 1422 13 221 734 0
 314 228 739 81 1 737 1335 474 312 0 314 734 740 741 82 3 738 14 1 1 81 1 314 14
21 13 312 737 0 317 223 742 81 1 740 1336 474 315 0 317 737 743 744 82 3 741 14
 2 1 81 1 317 1420 13 315 740 0 369 314 745 81 1 743 1337 474 363 0 369 740 746
 747 82 3 744 14 3 1 81 1 369 1419 13 363 743 0 32 317 748 81 1 746 1338 474 11
 0 32 743 749 750 82 3 747 14 4 1 81 1 32 1418 13 11 746 0 372 369 751 81 1 749
 1339 474 370 0 372 746 374 752 82 3 750 14 5 1 81 1 372 1417 13 370 749 0 373 3
2 753 81 1 374 1340 474 34 0 373 749 754 755 82 3 752 14 6 1 81 1 754 1341 474 3
22 0 324 374 756 757 82 3 755 14 7 1 81 1 324 1415 13 322 754 0 337 373 758 81 1
 756 1342 474 330 0 337 754 415 759 82 3 757 14 8 1 81 1 337 1414 13 330 756 0 4
14 324 760 81 1 415 1343 474 338 0 414 756 761 762 82 3 759 14 9 1 81 1 761 1344
 474 326 0 328 415 418 763 82 3 762 14 10 1 81 1 328 1412 13 326 761 0 417 414 7
64 81 1 418 1345 474 371 0 417 761 765 766 82 3 763 14 11 1 81 1 765 1346 474 31
9 0 321 418 767 768 82 3 766 14 12 1 81 1 321 1410 13 319 765 0 301 417 769 81 1
 767 1347 474 299 0 301 765 770 771 82 3 768 14 13 1 81 1 301 1409 13 299 767 0
 285 321 772 81 1 770 1348 474 283 0 285 767 773 774 82 3 771 14 14 1 81 1 285 1
408 13 283 770 0 287 301 775 81 1 773 1349 474 57 0 287 770 776 777 82 3 774 14
 15 1 81 1 287 1407 13 57 773 0 290 285 778 81 1 776 1350 474 288 0 290 773 779
 780 82 3 777 14 16 1 81 1 290 1406 13 288 776 0 281 287 781 81 1 779 1351 474 2
79 0 281 776 782 783 82 3 780 14 17 1 81 1 281 1405 13 279 779 0 278 290 784 81
 1 782 1352 474 276 0 278 779 785 786 82 3 783 14 18 1 81 1 278 1404 13 276 782
 0 275 281 787 81 1 785 1353 474 45 0 275 782 788 789 82 3 786 14 19 1 81 1 275
 1403 13 45 785 0 304 278 790 81 1 788 1354 474 302 0 304 785 791 792 82 3 789 1
4 20 1 81 1 304 1402 13 302 788 0 793 275 794 81 1 791 1355 474 21 0 795 788 796
 797 82 3 792 14 21 1 14 21 1283 793 ?0 345 379 6 7 -0 0 0 345 31 81 1 795 1390
 476 21 791 793 798 0 799 81 1 796 1356 474 345 0 798 791 800 801 82 3 797 14 0
 2 14 345 1256 802 ?21 358 408 6 22 -0 0 21 358 31 81 1 798 1389 476 345 796 802
 803 795 804 81 1 800 1357 474 421 0 521 796 805 806 82 3 801 14 1 2 81 1 521 13
75 476 421 800 425 518 443 807 81 1 805 1358 474 358 0 803 800 808 809 82 3 806
 14 2 2 81 1 803 1388 476 358 805 360 810 798 811 81 1 808 1359 474 348 0 812 80
5 813 814 82 3 809 14 3 2 81 1 812 1386 476 348 808 350 590 810 815 81 1 813 136
0 474 352 0 590 808 816 817 82 3 814 14 4 2 14 352 972 818 ?348 580 413 6 340 +0
 0 348 580 31 81 1 590 1385 476 352 813 818 584 812 819 81 1 816 1361 474 351 0
 810 813 820 821 82 3 817 14 5 2 81 1 810 1387 476 351 816 357 812 803 822 81 1
 820 1362 474 394 0 484 816 823 824 82 3 821 14 6 2 81 1 484 1373 476 394 820 45
2 479 518 825 81 1 823 1363 474 19 0 451 820 826 827 82 3 824 14 7 2 81 1 451 13
69 476 19 823 449 0 478 828 81 1 826 1364 474 385 0 551 823 829 830 82 3 827 14
 8 2 81 1 551 1377 476 385 826 446 443 681 831 81 1 829 1365 474 406 0 682 826 0
 832 82 3 830 14 9 2 14 406 565 833 ?163 389 834 6 835 +0 0 163 389 31 81 1 682
 1380 476 406 829 833 677 688 836 82 3 832 14 10 2 80 1 476 0 837 8001 0 0 0 0 3
 5 0 0 0 FFFFTFTFFFFFFF2 81 1 833 1391 13 406 682 0 0 446 838 83 255 3 836 .6823
52941176471 .3333333333333335 .737254901960784 81 1 446 1392 13 385 551 0 833 44
9 839 84 3 838 JPq84 3 839 JPm79 15 837 SDL/TYSA_COLOUR15 834 712 0 840 406 404
 50 835 588 0 406 700 680 0 +0 -.0508 .03175 -273184799366426e-30 1 0 -1 -273184
799366426e-30 0 50 700 590 0 163 687 835 0 +0 -.0635 .03175 0 -1 0 0 0 -1 50 680
 435 0 389 835 694 0 +0 1387778780781446e-32 .03175 0 0 1 1 0 0 50 694 432 0 393
 680 448 0 +0 .0635 .03175 0 -1 0 0 0 -1 50 448 430 0 385 694 427 0 +0 .0508 .03
175 -273184799366426e-30 1 0 -1 -273184799366426e-30 0 50 427 3 0 421 448 442 0
 +0 1387778780781446e-32 .00508 0 0 1 1 0 0 50 687 592 0 399 582 700 0 +0 138777
8780781446e-32 .03175 0 0 1 1 0 0 51 582 784 0 576 0 687 0 +-1301042606982604e-3
3 .0889 .0254 0 -1 0 .00381 0 0 -1 17 840 0 834 840 840 0 572 557 0 0 -17 572 0
 581 572 572 0 840 557 0 0 +15 581 772 0 572 576 841 15 841 773 0 556 576 0 17 5
56 0 841 556 556 0 842 553 0 0 +17 842 0 699 842 842 0 556 553 0 0 -15 699 705 0
 842 163 157 83 3 831 .682352941176471 .3333333333333335 .737254901960784 83 3 8
28 .682352941176471 .3333333333333335 .737254901960784 81 1 452 1394 13 394 484
 0 449 357 843 83 3 825 .682352941176471 .3333333333333335 .737254901960784 81 1
 357 1395 13 351 810 0 452 818 844 84 3 843 JPe81 1 818 1396 13 352 590 0 357 35
0 845 84 3 844 JPa81 1 350 1397 13 348 812 0 818 360 846 84 3 845 JPW81 1 360 13
98 13 358 803 0 350 425 847 84 3 846 JPS81 1 425 1399 13 421 521 0 360 802 848 8
4 3 847 JPO81 1 802 1400 13 345 798 0 425 793 849 84 3 848 JPK81 1 793 1401 13 2
1 795 0 802 304 850 84 3 849 JPG84 3 850 JPC83 3 822 .682352941176471 .333333333
3333335 .737254901960784 83 3 819 .682352941176471 .3333333333333335 .7372549019
60784 15 413 973 0 407 352 0 17 407 0 413 411 400 76 140 283 0 409 -17 400 0 413
 407 128 137 268 265 0 0 -17 140 0 404 196 79 137 407 283 0 398 +17 398 0 397 26
8 136 137 196 190 0 400 -17 128 0 413 400 169 125 120 167 0 268 -17 169 0 413 12
8 411 117 60 276 0 0 -83 3 815 .682352941176471 .3333333333333335 .7372549019607
84 83 3 811 .682352941176471 .3333333333333335 .737254901960784 83 3 807 .682352
941176471 .3333333333333335 .737254901960784 83 3 804 .682352941176471 .33333333
33333335 .737254901960784 83 3 799 .682352941176471 .3333333333333335 .737254901
960784 84 4 794 KPVB84 4 790 KPRB84 4 787 KPNB84 4 784 KPJB84 4 781 KPFB84 4 778
 KPBB84 3 775 JP984 3 772 JP584 3 769 JP184 3 764 JPt84 3 760 JPl84 3 758 JPh84
 3 753 JPZ84 3 751 JPV84 3 748 JPR84 3 745 JPN84 3 742 JPJ84 3 739 JPF84 3 736 J
PB84 3 733 JPs84 3 730 JPo84 3 727 JPk84 3 724 JPg84 3 721 JPc84 3 716 JPU84 3 7
12 JPM84 3 710 JPI84 3 707 JPE81 1 698 1436 13 163 688 0 86 692 851 84 2 704 IP8
1 1 692 1437 13 393 681 0 698 686 852 84 3 851 JOm81 1 686 1438 13 399 583 0 692
 675 853 84 3 852 JOi81 1 675 1439 13 389 677 0 686 195 854 84 3 853 JOW84 3 854
 JOS83 3 701 .682352941176471 .3333333333333335 .737254901960784 83 3 695 .68235
2941176471 .3333333333333335 .737254901960784 15 693 717 0 563 393 392 17 563 0
 693 563 563 0 855 201 0 0 +17 855 0 589 855 855 0 563 201 0 0 -15 589 757 0 855
 580 856 15 856 758 0 857 580 0 17 857 0 856 857 857 0 200 191 0 0 -17 200 0 447
 200 200 0 857 191 0 0 +15 447 723 0 200 385 383 83 3 689 .682352941176471 .3333
333333333335 .737254901960784 83 3 683 .682352941176471 .3333333333333335 .73725
4901960784 84 4 676 KOdB84 4 672 KOZB84 4 669 KORB84 4 666 KOJB84 4 663 KOBB84 3
 660 JO584 3 657 JOx84 3 654 JOp84 3 651 JOh84 3 648 JOZ84 3 645 JOV84 3 642 JOR
84 3 639 JON84 3 636 JOJ84 3 633 JOF84 3 630 JOB84 3 627 JO484 3 624 JO084 3 621
 JOw84 3 618 JOo84 3 615 JOk84 3 612 JOg84 3 609 JOY84 3 606 JOU84 3 603 JOQ84 3
 600 JOI84 3 597 JOE81 1 588 1468 13 580 584 0 108 574 858 84 2 594 IO81 1 574 1
469 13 576 577 0 588 568 859 84 3 858 JNW84 3 859 JNS83 3 591 .682352941176471 .
3333333333333335 .737254901960784 83 3 585 .682352941176471 .3333333333333335 .7
37254901960784 84 3 575 JNN31 573 789 0 557 558 564 0 +-1301042606982604e-33 -.0
508 .0254 -273184799366426e-30 1 0 -1 -273184799366426e-30 0 .00381 31 558 790 0
 553 0 573 0 +-1301042606982604e-33 -.0635 .0254 0 -1 0 0 0 -1 .00381 31 564 788
 0 201 573 202 0 +-1301042606982604e-33 .0635 .0254 0 -1 0 0 0 -1 .00381 31 202
 787 0 191 564 198 0 +-1301042606982604e-33 .0508 .0254 -273184799366426e-30 1 0
 -1 -273184799366426e-30 0 .00381 30 198 603 0 190 202 203 0 +0 -.0508 .03175 1
 273184799366426e-30 0 84 3 569 JNJ84 3 565 JNF84 3 560 JNB83 3 552 .68235294117
6471 .3333333333333335 .737254901960784 84 3 548 JJF84 3 545 JJB80 1 540 860 861
 8038 0 0 0 0 0 0 0 0 0 TTTTTTTTTTTTTF10 81 1 541 1367 860 1 537 14 0 0 862 98 2
55 6 542 80 97 114 116 32 49 80 1 860 863 864 8017 0 0 0 0 0 0 0 0 0 TTTTTTTTTTT
TTF3 81 1 14 1368 865 1 541 2 0 0 866 84 6 862 Part 180 1 865 476 867 8040 0 0 0
 0 3 5 0 0 0 TTTFFFFFFFFFFF2 83 3 866 .682352941176471 .3333333333333335 .737254
901960784 79 17 867 SDL/TYSA_COLOUR_279 13 864 SDL/TYSA_NAME79 14 861 SDL/TYSA_U
NAME84 3 534 JIQ84 2 530 II84 3 528 JII81 1 437 1484 13 426 518 0 216 454 868 84
 3 525 JIh84 3 868 JHm83 3 522 .682352941176471 .3333333333333335 .7372549019607
84 83 3 517 .682352941176471 .3333333333333335 .737254901960784 83 3 485 .682352
941176471 .3333333333333335 .737254901960784 84 3 481 JHi83 3 480 .6823529411764
71 .3333333333333335 .737254901960784 79 12 475 BTI/ExportId15 463 205 0 233 460
 869 17 233 0 463 233 233 0 428 230 0 0 +15 869 207 0 870 460 0 17 870 0 869 870
 870 0 251 248 0 0 -17 251 0 187 251 251 0 870 248 0 0 +15 187 124 0 251 186 470
 15 456 197 0 241 450 473 17 241 0 456 241 241 0 432 238 0 0 +84 3 453 JPi84 3 4
45 JJG84 3 419 JPx84 3 416 JPp17 66 0 353 75 124 61 291 288 0 329 -84 3 375 JPd1
41 355 331 355 355 340 141 347 327 871 871 22 141 871 331 347 347 22 40 3 341 0
 1 3 .00028179325059239 .3375626902314625 ??-.0252866956807166 -.0508 .01016 -.0
2539046451358835 -.050524596363997 .00851007461409093 -.0254 -.0502366189852526
 .00783480045113211 41 1 342 L?-.0252866956807166 -.0508 .01016 41 1 343 L?-.025
4 -.0502366189852526 .00783480045113211 204 12 344 4 0 .0252866956807166 4.80976
966881619 -.0508 5.95239725144293 .02539046451358835 4.74062892563386 -.05052459
6363997 5.80776020442756 .0254 4.71238898038469 -.0502366189852527 84 3 194 JIp8
4 3 156 JIY84 3 52 JPQ84 3 41 JPY19 20 230 0 1 0 10 6 S0 40 3 26 0 1 3 .00028178
93317496335 .337564165319934 ??-.0254 .0502366189852526 .00783480045113211 -.025
346726855902 .0507473018206451 .00943018056744238 -.0252866956807166 .0508 .0101
6 41 1 27 L?-.0254 .0502366189852526 .00783480045113211 41 1 28 L?-.025286695680
7166 .0508 .01016 204 12 29 4 5.80776020442756 -.0254 4.71238898038469 .05023661
89852526 6.13902121598106 -.025346726855902 4.77914843955724 .0507473018206451 6
.28318530717959 -.0252866956807166 4.80976966881619 .0508 141 23 362 872 872 7 1
41 872 8 23 23 7 74 4 CI16 index_map_offset0 0 1 dCCZ20 18 6 0 0 829 537 541 14
 795 250 0 0 0 0 0 0 0 0 0 0 0 0 0 0 84 3 17 JHD1 0 
