**ABCDEFGHIJKLMNOPQRSTUVWXYZabcdefghijklmnopqrstuvwxyz**************************
**PARASOLID !"#$%&'()*+,-./:;<=>?@[\]^_`{|}~0123456789**************************
**PART1;
MC=unknown;
MC_MODEL=unknown;
MC_ID=unknown;
OS=unknown;
OS_RELEASE=unknown;
FRU=Parasolid 32.0.170;
APPL=Onshape;
SITE=unknown;
USER=unknown;
FORMAT=text;
GUISE=transmit;
KEY=BTGapi::writeModels_.xmt;
FILE=BTGapi::writeModels_.xmt;
DATE=2019-10-19T14:44:27 (UTC);
**PART2;
SCH=SCH_3200170_32001;
USFLD_SIZE=0;
**PART3;
**END_OF_HEADER*****************************************************************
T51 : TRANSMIT FILE created by modeller version 320017023 SCH_3200170_32001_1300
6227 0 12 34 CCCCCCI4 mesh1006 0 I8 polyline1008 0 CCCCCCCDI5 owner1040 0 CCCCCC
I13 boundary_mesh1006 0 I17 boundary_polyline1008 0 CCCA16 index_map_offset0 0 1
 dA9 index_map82 0 A17 node_id_index_map82 0 A20 schema_embedding_map82 0 A5 chi
ld12 0 A14 lowest_node_id0 0 1 dA16 mesh_offset_data206 0 Z1 209 2 3 0 0 0 0 0 0
 1e3 1e-8 0 4 0 1 0 1 1 5 6 7 8 0 0 9 10 11 0 0 0 0 0 0 0 81 255 1 2 183 12 1 13
 0 0 14 15 70 11 CI9 list_type0 0 1 uI10 notransmit0 0 1 lCCCDCCDI12 finger_inde
x0 0 1 dI12 finger_block1012 0 CZ3 0 4 T1 0 0 6 20 1 16 16 13 255 5 132 0 1 0 17
 0 0 18 0 50 255 6 127 0 17 19 0 0 +.02084543883800505 .00971991471946239 .005 0
 1 0 0 0 1 30 255 7 131 0 10 20 0 0 +.000845438838005063 .00971991471946239 .005
 0 0 -1 29 255 8 108 0 21 22 0 .04084543883800505 .0097199147194624 0 19 8 CCCCC
CCA5 owner12 0 Z9 43 0 1 18 0 23 V0 16 255 10 115 24 ?25 0 26 7 0 0 1 18 255 11
 37 27 28 0 29 30 ?1 81 1 27 206 12 11 31 0 32 33 34 17 255 28 0 35 36 37 11 38
 39 0 40 -18 29 32 41 42 11 43 44 ?1 29 30 39 0 11 44 45 .04084543883800505 .009
7199147194624 .005 29 44 34 0 29 46 30 .04084543883800505 -.0302800852805376 .00
5 29 45 111 0 47 30 48 .000845438838005063 .00971991471946239 0 18 47 99 49 25 5
0 0 45 ?1 29 48 110 0 50 45 22 .000845438838005065 -.0302800852805376 0 18 50 95
 32 51 52 47 48 ?1 29 22 109 0 52 48 8 .04084543883800505 -.0302800852805376 0 1
8 52 91 53 54 21 50 22 ?1 81 1 53 203 12 52 55 0 41 56 57 17 54 0 35 37 36 52 58
 59 0 60 +18 21 87 33 38 61 52 8 ?1 81 1 33 207 12 21 62 0 27 63 64 17 38 0 65 6
6 40 21 28 39 0 67 +18 61 22 63 68 43 21 69 ?1 81 1 63 208 12 61 70 0 33 49 71 1
7 68 0 65 40 66 61 25 10 0 72 -18 43 27 56 73 29 61 46 ?1 29 69 24 0 61 0 46 .00
0845438838005063 .00971991471946239 .005 29 46 29 0 43 69 44 .000845438838005065
 -.0302800852805376 .005 81 1 56 204 12 43 74 0 53 32 75 17 73 0 76 42 77 43 72
 78 0 79 +15 255 76 5 0 77 80 0 17 42 0 76 81 73 29 82 83 0 58 +17 77 0 76 73 81
 61 40 84 0 0 -17 72 0 85 25 79 61 73 78 0 77 -16 78 10 86 ?73 83 84 87 0 0 1 17
 79 0 85 72 51 43 88 26 0 82 -15 85 120 0 51 89 0 17 51 0 85 79 25 50 90 91 0 88
 +17 88 0 92 60 82 50 79 26 0 93 +16 26 114 94 ?88 10 59 20 0 0 1 17 82 0 92 88
 58 43 42 83 0 0 -15 92 118 0 60 95 0 17 58 0 92 82 60 29 54 59 0 36 -16 83 14 9
6 ?42 97 78 98 0 0 1 81 1 96 194 12 83 99 0 100 101 102 16 97 18 103 ?36 39 83 1
04 0 0 1 30 98 15 0 83 87 104 0 +.02084543883800505 -.0302800852805376 .005 1 0
 0 30 87 11 0 78 105 98 0 +.000845438838005065 -.0102800852805376 .005 596311194
867028e-31 -1 0 30 104 19 0 97 98 106 0 +.04084543883800505 -.0102800852805376 .
005 0 -1 0 30 106 107 0 107 104 108 0 +.02084543883800505 .00971991471946239 0 1
 0 0 16 107 83 109 ?67 91 0 106 0 0 1 30 108 106 0 91 106 110 0 +.00084543883800
5065 -.0102800852805376 0 596311194867028e-31 -1 0 16 91 79 100 ?51 111 107 108
 0 0 1 30 110 105 0 111 108 112 0 +.02084543883800505 -.0302800852805376 0 1 0 0
 16 111 75 101 ?60 113 91 110 0 0 1 30 112 104 0 113 110 114 0 +.040845438838005
05 -.0102800852805376 0 0 -1 0 16 113 71 115 ?116 84 111 112 0 0 1 30 114 128 0
 39 112 117 0 +.04084543883800505 .0097199147194624 .005 0 0 -1 16 39 112 118 ?3
8 59 97 114 0 0 1 30 117 129 0 59 114 20 0 +.04084543883800505 -.030280085280537
6 .005 0 0 -1 16 59 113 119 ?54 26 39 117 0 0 1 30 20 130 0 26 117 7 0 +.0008454
38838005065 -.0302800852805376 .005 0 0 -1 81 1 119 198 12 59 120 0 109 94 121 8
0 255 1 12 122 123 9000 0 0 0 0 3 5 0 0 0 FFTFTFTTFFFFFF3 81 1 120 158 122 59 0
 119 124 125 126 81 1 109 197 12 107 125 0 127 119 128 81 1 94 199 12 26 124 0 1
19 118 129 84 255 3 121 JHN81 1 124 157 122 26 0 94 130 120 131 81 1 118 200 12
 39 130 0 94 24 132 84 3 129 JHJ81 1 130 156 122 39 0 118 133 124 134 81 1 24 20
1 12 10 133 0 118 41 135 84 3 132 JHF81 1 133 155 122 10 0 24 136 130 137 81 1 4
1 202 12 29 136 0 24 53 138 84 3 135 JHB81 1 136 154 122 29 0 41 55 133 139 84 3
 138 JHc80 1 122 140 141 9000 0 0 0 0 3 6 0 0 0 FFTFTFTTFFFFFF1 81 1 55 153 122
 52 0 53 74 136 142 82 255 3 139 6 7 0 81 1 74 152 122 43 0 56 143 55 144 82 3 1
42 6 6 0 81 1 143 151 122 50 0 32 31 74 145 82 3 144 6 5 0 81 1 32 205 12 50 143
 0 56 27 146 81 1 31 150 122 11 0 27 62 143 147 82 3 145 6 4 0 81 1 62 149 122 2
1 0 33 70 31 148 82 3 147 6 3 0 81 1 70 148 122 61 0 63 149 62 150 82 3 148 6 2
 0 81 1 149 147 122 47 0 49 0 70 151 82 3 150 6 1 0 81 1 49 209 12 47 149 0 63 0
 152 82 3 151 6 0 0 84 2 152 IH84 3 146 JHQ79 255 9 141 BTI/DetId82 3 137 6 0 1
 82 3 134 6 1 1 82 3 131 6 2 1 81 1 125 159 122 107 0 109 120 153 154 81 1 127 1
96 12 84 153 0 101 109 155 84 3 128 JHR16 84 6 127 ?40 78 113 105 0 0 1 81 1 153
 160 122 84 0 127 125 156 157 81 1 101 195 12 111 156 0 96 127 158 84 3 155 JHV8
1 1 156 161 122 111 0 101 153 99 159 84 3 158 JHZ81 1 99 162 122 83 0 96 156 160
 161 82 3 159 6 6 1 81 1 160 163 122 91 0 100 99 162 163 82 3 161 6 7 1 81 1 100
 193 12 91 160 0 86 96 164 81 1 162 164 122 78 0 86 160 165 166 82 3 163 6 8 1 8
1 1 86 192 12 78 162 0 115 100 167 81 1 165 165 122 113 0 115 162 168 169 82 3 1
66 6 9 1 81 1 115 191 12 113 165 0 103 86 170 81 1 168 166 122 97 0 103 165 171
 172 82 3 169 6 10 1 81 1 103 190 12 97 168 0 173 115 174 81 1 171 167 122 17 0
 175 168 176 177 82 3 172 6 11 1 14 255 17 123 173 ?89 0 65 5 6 +0 0 89 0 23 81
 1 175 177 178 17 171 173 0 179 180 81 1 176 168 122 181 0 182 171 183 184 82 3
 177 6 0 2 14 181 63 185 ?0 80 186 5 187 -0 0 0 80 23 81 1 182 182 178 181 176 1
85 188 0 189 81 1 183 169 122 80 0 188 176 190 191 82 3 184 6 1 2 14 80 1 192 ?1
81 193 76 5 194 +0 0 181 193 23 81 1 188 181 178 80 183 192 195 182 196 81 1 190
 170 122 95 0 197 183 198 199 82 3 191 6 2 2 14 95 119 200 ?193 89 92 5 201 -0 0
 193 89 23 81 1 197 179 178 95 190 200 179 195 202 81 1 198 171 122 89 0 179 190
 203 204 82 3 199 6 3 2 14 89 121 205 ?95 17 85 5 19 -0 0 95 17 23 81 1 179 178
 178 89 198 205 175 197 206 81 1 203 172 122 193 0 195 198 207 208 82 3 204 6 4
 2 14 193 117 14 ?80 95 35 5 209 +0 0 80 95 23 81 1 195 180 178 193 203 14 197 1
88 210 81 1 207 173 122 1 0 211 203 0 212 82 3 208 6 5 2 81 1 211 174 213 1 207
 214 0 0 215 82 3 212 6 0 3 80 1 213 216 217 8038 0 0 0 0 0 0 0 0 0 TTTTTTTTTTTT
TF10 81 1 214 175 216 1 211 13 0 0 218 98 255 6 215 80 97 114 116 32 49 80 1 216
 219 220 8017 0 0 0 0 0 0 0 0 0 TTTTTTTTTTTTTF3 81 1 13 176 221 1 214 2 0 0 222
 84 6 218 Part 180 1 221 178 223 8040 0 0 0 0 3 5 0 0 0 TTTFFFFFFFFFFF2 83 255 3
 222 .615686274509804 .811764705882353 .929411764705882 79 17 223 SDL/TYSA_COLOU
R_279 13 220 SDL/TYSA_NAME79 14 217 SDL/TYSA_UNAME80 1 178 0 224 8001 0 0 0 0 3
 5 0 0 0 FFFFTFTFFFFFFF2 81 1 14 184 12 193 195 0 2 205 225 83 3 210 .6156862745
09804 .811764705882353 .929411764705882 81 1 205 185 12 89 179 0 14 200 226 84 3
 225 JHW81 1 200 186 12 95 197 0 205 192 227 84 3 226 JHS81 1 192 187 12 80 188
 0 200 185 228 84 3 227 JHO81 1 185 188 12 181 182 0 192 173 229 84 3 228 JHK81
 1 173 189 12 17 175 0 185 103 230 84 3 229 JHG84 3 230 JHC79 15 224 SDL/TYSA_CO
LOUR15 35 116 0 37 193 0 50 209 124 0 193 187 201 0 +.04084543883800505 -.010280
0852805376 .005 1 0 0 0 0 -1 13 23 44 0 0 0 0 0 0 9 17 50 187 103 0 181 194 209
 0 +.02084543883800505 -.0102800852805376 0 0 0 1 1 0 0 50 201 125 0 95 209 19 0
 +.02084543883800505 -.0302800852805376 .005 0 1 0 0 0 1 50 19 126 0 89 201 6 0
 +.000845438838005065 -.0102800852805376 .005 1 596311194867028e-31 0 -596311194
867028e-31 1 0 50 194 2 0 80 0 187 0 +.02084543883800505 -.0102800852805376 .005
 0 0 1 1 0 0 17 37 0 35 28 54 21 116 113 0 0 -17 116 0 186 93 67 52 37 113 0 0 +
15 186 70 0 67 181 0 17 93 0 186 90 116 50 60 111 0 0 -17 67 0 186 116 90 21 66
 107 0 37 +17 90 0 186 67 93 47 51 91 0 66 -17 66 0 65 68 38 47 67 107 0 0 -15 6
5 122 0 66 17 0 17 60 0 92 58 88 52 93 111 0 116 +83 3 206 .615686274509804 .811
764705882353 .929411764705882 83 3 202 .615686274509804 .811764705882353 .929411
764705882 83 3 196 .615686274509804 .811764705882353 .929411764705882 83 3 189 .
615686274509804 .811764705882353 .929411764705882 83 3 180 .615686274509804 .811
764705882353 .929411764705882 84 3 174 JHt84 3 170 JHp84 3 167 JHl84 3 164 JHh82
 3 157 6 5 1 17 40 0 65 38 68 11 77 84 0 81 +30 105 7 0 84 0 87 0 +.020845438838
00505 .00971991471946239 .005 1 0 0 17 81 0 76 77 42 11 36 97 0 0 -17 36 0 35 54
 28 29 81 97 0 0 +82 3 154 6 4 1 82 3 126 6 3 1 79 12 123 BTI/ExportId84 3 102 J
Hd17 25 0 85 51 72 47 68 10 0 90 +84 3 75 JHU84 3 71 JHE84 3 64 JHI84 3 57 JHY84
 3 34 JHM19 18 133 0 1 0 9 5 S0 74 4 CI16 index_map_offset0 0 1 dCCZ20 16 6 0 0
 207 211 214 13 182 49 0 0 0 0 0 0 0 0 0 0 0 0 0 0 84 3 15 JHD1 0 
