**ABCDEFGHIJKLMNOPQRSTUVWXYZabcdefghijklmnopqrstuvwxyz**************************
**PARASOLID !"#$%&'()*+,-./:;<=>?@[\]^_`{|}~0123456789**************************
**PART1;
MC=unknown;
MC_MODEL=unknown;
MC_ID=unknown;
OS=unknown;
OS_RELEASE=unknown;
FRU=Parasolid 32.0.170;
APPL=Onshape;
SITE=unknown;
USER=unknown;
FORMAT=text;
GUISE=transmit;
KEY=BTGapi::writeModels_.xmt;
FILE=BTGapi::writeModels_.xmt;
DATE=2019-12-04T09:04:10 (UTC);
**PART2;
SCH=SCH_3200170_32001;
USFLD_SIZE=0;
**PART3;
**END_OF_HEADER*****************************************************************
T51 : TRANSMIT FILE created by modeller version 320017023 SCH_3200170_32001_1300
6227 0 12 34 CCCCCCI4 mesh1006 0 I8 polyline1008 0 CCCCCCCDI5 owner1040 0 CCCCCC
I13 boundary_mesh1006 0 I17 boundary_polyline1008 0 CCCA16 index_map_offset0 0 1
 dA9 index_map82 0 A17 node_id_index_map82 0 A20 schema_embedding_map82 0 A5 chi
ld12 0 A14 lowest_node_id0 0 1 dA16 mesh_offset_data206 0 Z1 531 2 3 0 0 0 0 0 0
 1e3 1e-8 0 4 5 1 0 1 1 6 7 8 9 0 0 10 11 12 0 0 0 0 0 0 0 81 255 1 2 504 13 1 1
4 0 15 16 17 70 11 CI9 list_type0 0 1 uI10 notransmit0 0 1 lCCCDCCDI12 finger_in
dex0 0 1 dI12 finger_block1012 0 CZ3 0 4 T1 0 0 6 20 1 18 18 13 255 6 160 0 1 0
 19 0 0 20 0 51 255 7 155 0 21 22 0 0 -.02568954372489895 .0569208903477624 .025
4 0 0 -1 .004271612658965205 -1 0 0 30 255 8 238 0 11 23 0 0 +.0198593368659618
 .0508 .0254 0 0 -1 29 255 9 228 0 12 24 0 .03151975058383615 .0508 .019304 19 8
 CCCCCCCA5 owner12 0 Z10 54 0 1 20 0 25 V0 16 255 11 236 26 ?27 0 28 8 0 0 1 18
 255 12 226 29 30 0 31 9 ?1 81 1 29 488 13 12 32 0 26 33 34 17 255 30 0 35 36 37
 12 38 39 0 40 -18 31 48 41 42 12 43 44 ?1 81 1 41 526 13 31 45 0 46 47 48 17 42
 0 49 50 51 31 52 53 0 54 +18 43 43 55 56 31 57 58 ?1 29 44 50 0 31 58 59 .00605
295086279511 -.00722237816080451 .0254 29 58 45 0 43 60 44 -3469446951953615e-33
 -867361737988404e-33 .0254 29 59 134 0 61 44 62 .0311927318220623 .050504385735
8597 0 18 61 121 46 63 64 65 59 ?1 29 62 133 0 64 59 66 .02186175288453595 .0493
840058488622 0 18 64 117 67 68 69 61 62 ?1 29 66 132 0 69 62 24 -346944695195361
5e-33 -867361737988404e-33 0 18 69 113 70 71 72 64 66 ?1 29 24 131 0 72 66 9 .00
605295086279511 -.00722237816080451 0 18 72 109 47 73 74 69 24 ?1 81 1 47 527 13
 72 75 0 41 76 77 17 73 0 78 54 71 72 79 80 0 81 +18 74 33 82 83 57 72 84 ?1 81
 1 82 524 13 74 85 0 86 46 87 17 83 0 88 89 90 74 91 92 0 50 -18 57 38 76 91 43
 74 60 ?1 29 84 35 0 74 93 60 .0311927318220623 .0505043857358597 .0254 29 93 41
3 0 65 94 84 .0198593368659618 .0508 .006096 29 60 40 0 57 84 58 .02186175288453
595 .0493840058488622 .0254 18 65 321 95 96 61 97 93 ?1 29 94 414 0 97 98 93 .03
151975058383615 .0508 .006096 18 97 338 99 36 65 100 94 ?1 29 98 415 0 100 0 94
 .0198593368659618 .0508 .019304 18 100 323 33 37 97 0 98 ?1 81 1 33 489 13 100
 101 0 29 99 102 17 37 0 35 30 103 100 27 11 0 38 -15 255 35 344 0 30 104 0 17 1
03 0 35 37 36 65 105 106 0 27 +17 27 0 107 108 109 65 37 11 0 0 +17 38 0 110 40
 40 100 30 39 0 109 +15 110 362 0 38 111 0 17 40 0 110 38 38 12 109 112 0 113 -1
6 39 306 114 ?38 115 106 116 0 0 1 17 109 0 107 27 113 100 40 112 0 0 +15 107 22
4 0 109 117 88 17 113 0 107 109 108 12 36 28 0 0 +16 112 276 118 ?109 119 115 12
0 0 0 1 81 1 118 494 13 112 121 0 122 123 124 16 119 273 125 ?126 127 112 128 0
 0 1 16 115 279 129 ?130 112 39 131 0 0 1 31 255 120 400 0 112 116 132 0 +.02568
954372489895 .0569208903477624 .019304 0 0 1 1 0 0 .00845320120826002 30 116 403
 0 39 133 120 0 +.100076 .0508 .019304 -1 0 0 31 132 399 0 127 120 134 0 +.02568
954372489895 .0569208903477624 .006096 0 0 -1 -1 0 0 .00845320120826002 16 127 2
70 123 ?108 135 119 132 0 0 1 31 134 10 0 136 132 137 0 +.02568954372489895 .056
9208903477624 .0254 0 0 1 1 0 0 .004271612658965205 16 136 8 138 ?139 140 80 134
 0 0 1 31 137 15 0 140 134 141 0 +-.03061352063125825 .0430832477606253 .0254 0
 0 1 1 0 0 .0622501898083135 16 140 13 142 ?50 92 136 137 0 0 1 31 141 20 0 92 1
37 143 0 +.02568954372489895 .0569208903477624 .0254 0 0 1 1 0 0 .00845320120826
002 16 92 18 144 ?91 145 140 141 0 0 1 31 143 25 0 145 141 146 0 +-.030613520631
25825 .0430832477606253 .0254 0 0 1 1 0 0 .0528521890090079 16 145 23 147 ?148 5
3 92 143 0 0 1 31 146 30 0 53 143 149 0 +.004223803906903715 -.00260772868723214
 .0254 0 0 1 1 0 0 .0049639468520713 16 53 28 150 ?42 151 145 146 0 0 1 31 149 1
30 0 135 146 152 0 +.02568954372489895 .0569208903477624 0 0 0 1 1 0 0 .00427161
2658965205 16 135 105 153 ?154 155 127 149 0 0 1 31 152 129 0 155 149 156 0 +-.0
3061352063125825 .0430832477606253 0 0 0 1 1 0 0 .0622501898083135 16 155 101 15
7 ?158 159 135 152 0 0 1 31 156 128 0 159 152 160 0 +.02568954372489895 .0569208
903477624 0 0 0 1 1 0 0 .00845320120826002 16 159 97 161 ?162 163 155 156 0 0 1
 31 160 127 0 163 156 164 0 +-.03061352063125825 .0430832477606253 0 0 0 1 1 0 0
 .0528521890090079 16 163 93 165 ?166 80 159 160 0 0 1 31 164 126 0 80 160 167 0
 +.004223803906903715 -.00260772868723214 0 0 0 1 1 0 0 .0049639468520713 16 80
 89 168 ?73 136 163 164 0 0 1 30 167 156 0 151 164 169 0 +.00605295086279511 -.0
0722237816080451 .0254 0 0 -1 16 151 135 170 ?81 171 53 167 0 0 1 30 169 157 0 1
71 167 172 0 +-3469446951953615e-33 -867361737988404e-33 .0254 0 0 -1 16 171 136
 86 ?71 173 151 169 0 0 1 30 172 158 0 173 169 174 0 +.02186175288453595 .049384
0058488622 .0254 0 0 -1 16 173 137 175 ?68 176 171 172 0 0 1 30 174 159 0 176 17
2 131 0 +.0311927318220623 .0505043857358597 .0254 0 0 -1 16 176 138 177 ?89 28
 173 174 0 0 1 31 131 212 0 115 174 128 0 +.02568954372489895 .0569208903477624
 .019304 0 0 1 1 0 0 .004271612658965205 31 128 219 0 119 131 23 0 +.02568954372
489895 .0569208903477624 .006096 0 0 -1 -1 0 0 .004271612658965205 30 23 229 0 2
8 128 8 0 -.03151975058383615 .0508 .0254 0 0 -1 16 28 227 178 ?113 11 176 23 0
 0 1 81 1 178 486 13 28 179 0 0 26 180 80 255 1 13 181 182 9000 0 0 0 0 3 5 0 0
 0 FFTFTFTTFFFFFF3 81 1 179 471 181 28 0 178 183 0 184 81 1 26 487 13 11 183 0 1
78 29 185 84 255 3 180 JLd81 1 183 470 181 11 0 26 32 179 186 84 3 185 JLZ80 1 1
81 187 188 9000 0 0 0 0 3 6 0 0 0 FFTFTFTTFFFFFF1 81 1 32 469 181 12 0 29 101 18
3 189 82 255 3 186 10 6 1 81 1 101 468 181 100 0 33 190 32 191 82 3 189 10 3 0 8
1 1 190 467 181 97 0 99 192 101 193 82 3 191 10 2 0 81 1 99 490 13 97 190 0 33 9
5 194 81 1 192 466 181 65 0 95 195 190 196 82 3 193 10 1 0 81 1 95 491 13 65 192
 0 99 197 198 81 1 195 465 181 21 0 199 200 192 201 82 3 196 10 0 0 14 255 21 14
8 197 ?202 203 204 6 7 +19 19 202 203 25 81 1 199 479 205 21 195 197 206 207 208
 81 1 200 464 181 19 0 209 121 195 210 82 3 201 10 5 2 14 19 213 122 ?211 0 212
 6 7 +21 21 211 0 25 81 1 209 475 205 19 200 122 0 213 214 81 1 121 463 181 112
 0 118 215 200 216 82 3 210 10 4 2 81 1 215 462 181 127 0 123 217 121 218 82 3 2
16 10 5 1 81 1 123 495 13 127 215 0 118 129 219 81 1 217 461 181 115 0 129 220 2
15 221 82 3 218 10 4 1 81 1 129 496 13 115 217 0 123 125 222 81 1 220 460 181 11
9 0 125 223 217 224 82 3 221 10 3 1 81 1 125 497 13 119 220 0 129 225 226 81 1 2
23 459 181 117 0 227 228 220 229 82 3 224 10 2 1 14 117 144 225 ?203 211 107 6 2
30 -0 0 203 211 25 81 1 227 477 205 117 223 225 213 206 231 81 1 228 458 181 111
 0 232 233 223 234 82 3 229 10 3 2 14 111 375 235 ?0 236 237 6 238 -0 0 0 236 25
 81 1 232 485 205 111 228 235 239 0 240 81 1 233 457 181 104 0 241 242 228 243 8
2 3 234 10 2 2 14 104 379 244 ?236 245 35 6 246 -0 0 236 245 25 81 1 241 483 205
 104 233 244 247 239 248 81 1 242 456 181 236 0 239 249 233 250 82 3 243 10 1 2
 14 236 367 251 ?111 104 252 6 253 -0 0 111 104 25 81 1 239 484 205 236 242 251
 241 232 254 81 1 249 455 181 39 0 114 255 242 256 82 3 250 10 0 2 81 1 114 502
 13 39 249 0 251 15 257 81 1 255 454 181 106 0 15 258 249 259 82 3 256 10 1 1 16
 106 288 15 ?103 39 0 133 0 0 1 81 1 15 503 13 106 255 0 114 2 260 81 1 258 206
 181 1 0 261 262 255 263 82 3 259 10 0 1 81 1 261 472 264 1 258 265 0 0 266 81 1
 262 205 181 202 0 207 267 258 268 82 3 263 6 0 3 14 202 140 16 ?269 21 78 6 270
 -0 0 269 21 25 81 1 207 480 205 202 262 16 199 271 272 81 1 267 202 181 211 0 2
13 273 262 274 82 3 268 6 6 2 14 211 146 275 ?117 19 276 6 22 -0 0 117 19 25 81
 1 213 476 205 211 267 275 209 227 277 81 1 273 201 181 269 0 271 278 267 279 82
 3 274 6 3 2 14 269 1 280 ?245 202 281 6 282 +0 0 245 202 25 81 1 271 481 205 26
9 273 280 207 247 283 81 1 278 200 181 245 0 247 284 273 285 82 3 279 6 2 2 14 2
45 79 286 ?104 269 287 6 288 -0 0 104 269 25 81 1 247 482 205 245 278 286 271 24
1 289 81 1 284 199 181 203 0 206 290 278 291 82 3 285 6 1 2 14 203 142 292 ?21 1
17 293 6 294 +0 0 21 117 25 81 1 206 478 205 203 284 292 227 199 295 81 1 290 19
8 181 53 0 150 296 284 297 82 3 291 6 0 2 81 1 150 510 13 53 290 0 292 168 298 8
1 1 296 197 181 80 0 168 299 290 300 82 3 297 6 13 1 81 1 168 511 13 80 296 0 15
0 138 301 81 1 299 196 181 136 0 138 302 296 303 82 3 300 6 12 1 81 1 138 512 13
 136 299 0 168 153 304 81 1 302 195 181 135 0 153 305 299 306 82 3 303 6 11 1 81
 1 153 513 13 135 302 0 138 144 307 81 1 305 194 181 92 0 144 308 302 309 82 3 3
06 6 10 1 81 1 144 514 13 92 305 0 153 161 310 81 1 308 193 181 159 0 161 311 30
5 312 82 3 309 6 9 1 81 1 161 515 13 159 308 0 144 142 313 81 1 311 192 181 140
 0 142 314 308 315 82 3 312 6 8 1 81 1 142 516 13 140 311 0 161 157 316 81 1 314
 191 181 155 0 157 317 311 318 82 3 315 6 7 1 81 1 157 517 13 155 314 0 142 147
 319 81 1 317 190 181 145 0 147 320 314 321 82 3 318 6 6 1 81 1 147 518 13 145 3
17 0 157 165 322 81 1 320 189 181 163 0 165 323 317 324 82 3 321 6 5 1 81 1 165
 519 13 163 320 0 147 177 325 81 1 323 188 181 176 0 177 326 320 327 82 3 324 6
 4 1 81 1 177 520 13 176 323 0 165 170 328 81 1 326 187 181 151 0 170 329 323 33
0 82 3 327 6 3 1 81 1 170 521 13 151 326 0 177 175 331 81 1 329 186 181 173 0 17
5 332 326 333 82 3 330 6 2 1 81 1 175 522 13 173 329 0 170 86 334 81 1 332 185 1
81 171 0 86 85 329 335 82 3 333 6 1 1 81 1 86 523 13 171 332 0 175 82 336 81 1 8
5 184 181 74 0 82 337 332 338 82 3 335 6 0 1 81 1 337 183 181 61 0 46 45 85 339
 82 3 338 6 7 0 81 1 46 525 13 61 337 0 82 41 340 81 1 45 182 181 31 0 41 75 337
 341 82 3 339 6 6 0 81 1 75 181 181 72 0 47 342 45 343 82 3 341 6 5 0 81 1 342 1
80 181 57 0 76 344 75 345 82 3 343 6 4 0 81 1 76 528 13 57 342 0 47 67 346 81 1
 344 179 181 64 0 67 347 342 348 82 3 345 6 3 0 81 1 67 529 13 64 344 0 76 55 34
9 81 1 347 178 181 43 0 55 350 344 351 82 3 348 6 2 0 81 1 55 530 13 43 347 0 67
 70 352 81 1 350 177 181 69 0 70 0 347 353 82 3 351 6 1 0 81 1 70 531 13 69 350
 0 55 0 354 82 3 353 6 0 0 84 2 354 IH84 3 352 JHE84 3 349 JHI84 3 346 JHM84 3 3
40 JHY84 3 336 JHB84 3 334 JHF84 3 331 JHJ84 3 328 JHN84 3 325 JHR84 3 322 JHV84
 3 319 JHZ84 3 316 JHd84 3 313 JHh84 3 310 JHl84 3 307 JHp84 3 304 JHt84 3 301 J
Hx81 1 292 509 13 203 206 0 286 150 355 84 3 298 JH181 1 286 508 13 245 247 0 28
0 292 356 84 3 355 JHC81 1 280 507 13 269 271 0 275 286 357 84 3 356 JHG81 1 275
 506 13 211 213 0 16 280 358 84 3 357 JHK81 1 16 505 13 202 207 0 2 275 359 84 3
 358 JHO84 3 359 JHa80 1 205 0 360 8001 0 0 0 0 3 5 0 0 0 FFFFTFTFFFFFFF2 83 255
 3 295 .615686274509804 .811764705882353 .929411764705882 79 255 15 360 SDL/TYSA
_COLOUR15 293 141 0 361 203 0 51 294 152 0 203 270 230 0 --.03061352063125825 .0
430832477606253 .0254 0 0 -1 .0528521890090079 -1 0 0 13 25 55 0 0 0 0 0 0 10 19
 51 270 151 0 202 288 294 0 -.004223803906903715 -.00260772868723214 .0254 0 0 -
1 .0049639468520713 -1 0 0 51 230 153 0 117 294 22 0 -.02568954372489895 .056920
8903477624 .0254 0 0 -1 .00845320120826002 -1 0 0 51 22 154 0 211 230 7 0 --.030
61352063125825 .0430832477606253 .0254 0 0 -1 .0622501898083135 -1 0 0 50 255 28
8 125 0 245 282 270 0 +.0167013009939957 .02890120800835945 0 0 0 1 1 0 0 50 282
 3 0 269 253 288 0 +.0167013009939957 .02890120800835945 .0254 0 0 1 1 0 0 50 25
3 393 0 236 238 282 0 +.100076 .0635 .006096 0 0 -1 -1 0 0 50 238 395 0 111 246
 253 0 +.100076 .0635 .019304 0 0 1 1 0 0 50 246 396 0 104 0 238 0 +.100076 .050
8 .0127 0 -1 0 0 0 -1 17 361 0 293 56 68 69 166 163 0 0 -17 56 0 293 148 361 43
 71 171 0 52 -17 68 0 293 361 148 64 90 173 0 162 +17 166 0 362 63 79 64 361 163
 0 0 +15 362 88 0 363 245 0 17 63 0 362 363 166 61 162 159 0 89 -17 79 0 362 166
 363 69 73 80 0 361 -17 363 0 362 79 63 72 158 155 0 0 -17 158 0 276 364 81 61 3
63 155 0 0 +15 276 145 0 158 211 0 17 364 0 276 365 158 74 89 176 0 0 -17 81 0 2
76 158 365 72 54 151 0 363 +17 365 0 276 81 364 31 50 140 0 0 -17 54 0 78 52 73
 31 81 151 0 365 -15 78 139 0 73 202 0 17 52 0 78 71 54 43 42 53 0 51 -17 71 0 7
8 73 52 69 56 171 0 79 +17 51 0 49 42 91 43 148 145 0 0 -15 49 7 0 50 269 0 17 9
1 0 49 51 50 57 83 92 0 90 +17 148 0 293 68 56 57 51 145 0 0 +17 50 0 49 91 42 7
4 365 140 0 364 +17 90 0 88 83 162 57 68 173 0 148 -15 88 143 0 162 117 0 17 162
 0 88 90 89 64 63 159 0 166 +17 89 0 88 162 83 61 364 176 0 158 +83 3 289 .61568
6274509804 .811764705882353 .929411764705882 15 287 87 0 154 245 362 17 154 0 28
7 154 154 0 366 135 0 0 +17 366 0 367 366 366 0 154 135 0 0 -15 367 149 0 366 19
 0 83 3 283 .615686274509804 .811764705882353 .929411764705882 15 281 6 0 368 26
9 49 17 368 0 281 368 368 0 139 136 0 0 -17 139 0 369 139 139 0 368 136 0 0 +15
 369 147 0 139 21 0 83 3 277 .615686274509804 .811764705882353 .929411764705882
 83 3 272 .615686274509804 .811764705882353 .929411764705882 80 1 264 370 371 80
38 0 0 0 0 0 0 0 0 0 TTTTTTTTTTTTTF10 81 1 265 473 370 1 261 14 0 0 372 98 255 6
 266 80 97 114 116 32 49 80 1 370 373 374 8017 0 0 0 0 0 0 0 0 0 TTTTTTTTTTTTTF3
 81 1 14 474 375 1 265 2 0 0 376 84 6 372 Part 180 1 375 205 377 8040 0 0 0 0 3
 5 0 0 0 TTTFFFFFFFFFFF2 83 3 376 .615686274509804 .811764705882353 .92941176470
5882 79 17 377 SDL/TYSA_COLOUR_279 13 374 SDL/TYSA_NAME79 14 371 SDL/TYSA_UNAME8
4 3 260 JLB30 133 404 0 106 0 116 0 +.100076 .0508 .006096 -1 0 0 81 1 251 501 1
3 236 239 0 244 114 378 84 3 257 JLF81 1 244 500 13 104 241 0 235 251 379 84 3 3
78 JLC81 1 235 499 13 111 232 0 225 244 380 84 3 379 JLG81 1 225 498 13 117 227
 0 125 235 381 84 3 380 JLK84 3 381 JLO83 3 254 .615686274509804 .81176470588235
3 .929411764705882 15 252 352 0 126 236 382 17 126 0 252 126 126 0 383 119 0 0 +
15 382 353 0 105 236 0 17 105 0 382 96 96 97 103 106 0 108 -17 96 0 382 105 105
 65 108 127 0 103 -17 108 0 107 113 27 97 96 127 0 0 +17 383 0 212 383 383 0 126
 119 0 0 -15 212 218 0 383 19 367 83 3 248 .615686274509804 .811764705882353 .92
9411764705882 83 3 240 .615686274509804 .811764705882353 .929411764705882 15 237
 361 0 130 111 110 17 130 0 237 130 130 0 384 115 0 0 +17 384 0 204 384 384 0 13
0 115 0 0 -15 204 211 0 384 21 369 83 3 231 .615686274509804 .811764705882353 .9
29411764705882 84 3 226 JLJ84 3 222 JLN84 3 219 JLR81 1 122 493 13 19 209 0 197
 118 385 83 3 214 .615686274509804 .811764705882353 .929411764705882 81 1 197 49
2 13 21 199 0 95 122 386 84 3 385 JLS84 3 386 JLW83 3 208 .615686274509804 .8117
64705882353 .929411764705882 84 2 198 IL84 3 194 JLE79 9 188 BTI/DetId82 3 184 1
0 7 1 79 12 182 BTI/ExportId84 3 124 JLV17 36 0 35 103 30 97 113 28 0 105 -84 3
 102 JLI84 3 87 JHc84 3 77 JHQ84 3 48 JHU84 3 34 JLM19 20 161 0 1 0 10 6 S0 74 4
 CI16 index_map_offset0 0 1 dCCZ20 18 6 0 0 179 261 265 14 232 70 0 0 0 0 0 0 0
 0 0 0 0 0 0 0 84 3 17 JHD1 0 
