**ABCDEFGHIJKLMNOPQRSTUVWXYZabcdefghijklmnopqrstuvwxyz**************************
**PARASOLID !"#$%&'()*+,-./:;<=>?@[\]^_`{|}~0123456789**************************
**PART1;
MC=unknown;
MC_MODEL=unknown;
MC_ID=unknown;
OS=unknown;
OS_RELEASE=unknown;
FRU=Parasolid 32.0.170;
APPL=Onshape;
SITE=unknown;
USER=unknown;
FORMAT=text;
GUISE=transmit;
KEY=BTGapi::writeModels_.xmt;
FILE=BTGapi::writeModels_.xmt;
DATE=2019-12-06T02:31:35 (UTC);
**PART2;
SCH=SCH_3200170_32001;
USFLD_SIZE=0;
**PART3;
**END_OF_HEADER*****************************************************************
T51 : TRANSMIT FILE created by modeller version 320017023 SCH_3200170_32001_1300
6227 0 12 34 CCCCCCI4 mesh1006 0 I8 polyline1008 0 CCCCCCCDI5 owner1040 0 CCCCCC
I13 boundary_mesh1006 0 I17 boundary_polyline1008 0 CCCA16 index_map_offset0 0 1
 dA9 index_map82 0 A17 node_id_index_map82 0 A20 schema_embedding_map82 0 A5 chi
ld12 0 A14 lowest_node_id0 0 1 dA16 mesh_offset_data206 0 Z1 2543 2 3 0 0 0 0 0
 0 1e3 1e-8 0 4 5 1 0 1 1 6 7 8 9 0 0 10 11 12 0 0 0 0 0 0 0 81 255 1 2 2399 13
 1 14 0 15 16 17 70 11 CI9 list_type0 0 1 uI10 notransmit0 0 1 lCCCDCCDI12 finge
r_index0 0 1 dI12 finger_block1012 0 CZ3 0 4 T1 0 0 6 20 1 18 18 13 255 6 255 0
 1 0 19 0 0 20 0 50 255 7 246 0 21 22 0 0 +.01905 -.0142875 .00635 1 36424639915
52345e-31 0 -364246399155235e-30 1 0 31 255 8 703 0 11 23 0 0 -0 388825358729284
5e-34 -.00381 -1195183497228114e-31 0 1 1 0 1195183497228114e-31 .00635 29 255 9
 207 0 24 25 0 .02921 .009525 -.00635 19 8 CCCCCCCA5 owner12 0 Z10 87 0 1 20 0 2
6 V0 16 255 11 701 27 ?28 0 29 8 0 0 1 18 255 12 81 30 31 0 32 33 ?1 81 1 30 249
1 13 12 34 0 35 36 37 17 255 31 0 38 39 40 12 41 42 0 43 +18 32 71 44 45 12 46 4
7 ?1 29 33 83 0 12 47 48 .02921 .009525 .00635 29 47 73 0 32 49 33 .01905 -.0190
5 .00635 29 48 214 0 50 33 51 .01905 -.009525 -.00635 18 50 194 52 53 54 55 48 ?
1 29 51 213 0 54 48 56 .01905 .009525 -.00635 18 54 190 57 58 59 50 51 ?1 29 56
 212 0 59 51 60 .01905 .01905 -.00635 18 59 186 61 62 63 54 56 ?1 29 60 209 0 63
 56 25 .01905 -.01905 -.00635 18 63 174 64 65 66 59 60 ?1 29 25 208 0 66 60 9 .0
2921 -.009525 -.00635 18 66 170 35 67 24 63 25 ?1 81 1 35 2490 13 66 68 0 69 30
 70 17 67 0 71 72 53 66 73 74 0 75 +18 24 166 36 76 77 66 9 ?1 81 1 36 2492 13 2
4 78 0 30 79 80 17 76 0 81 75 82 24 83 84 0 85 +18 77 46 86 87 88 24 89 ?1 81 1
 86 2536 13 77 90 0 91 52 92 17 87 0 93 94 95 77 53 96 0 97 -18 88 51 98 40 46 7
7 99 ?1 29 89 48 0 77 100 99 .01905 -.009525 .00635 29 100 984 0 55 101 89 .0127
 -.01905 -.00381 29 99 53 0 88 89 49 .01905 .009525 .00635 29 49 58 0 46 99 47 .
01905 .01905 .00635 18 46 56 102 103 32 88 49 ?1 81 1 102 2542 13 46 104 0 64 61
 105 17 103 0 106 107 108 46 62 109 0 110 -15 255 106 235 0 108 111 0 17 107 0 1
06 58 103 88 110 112 0 0 +17 108 0 106 103 58 59 82 113 0 114 -17 62 0 115 116 1
17 59 103 109 0 108 +16 109 220 91 ?62 118 119 120 0 0 1 17 110 0 121 122 41 46
 107 112 0 117 -15 121 448 0 122 123 0 17 122 0 121 124 110 125 117 126 0 127 -1
7 41 0 121 110 43 88 31 42 0 107 -16 112 18 128 ?107 126 129 130 0 0 1 17 117 0
 115 62 127 46 122 126 0 0 +15 115 2297 0 116 131 132 17 127 0 115 117 116 125 1
33 134 0 135 -16 126 22 136 ?117 137 112 138 0 0 1 81 1 136 2397 13 126 139 0 14
0 15 141 16 137 30 142 ?45 42 126 143 0 0 1 30 255 138 23 0 126 130 143 0 +.0095
25 .01905 .00635 1 0 0 30 130 19 0 112 144 138 0 +.01905 .0142875 .00635 3642463
991552345e-31 -1 0 30 143 31 0 137 138 145 0 +.009525 -.01905 .00635 1 0 0 30 14
5 35 0 42 143 146 0 +.02413 .009525 .00635 1 0 0 16 42 34 147 ?31 148 137 145 0
 0 1 30 146 39 0 148 145 149 0 +.02413 -.009525 .00635 1 0 0 16 148 38 150 ?151
 152 42 146 0 0 1 30 149 43 0 152 146 153 0 +.02921 867361737988404e-32 .00635 -
1821231995776175e-31 -1 0 16 152 42 154 ?155 119 148 149 0 0 1 30 153 206 0 156
 149 157 0 +.01905 -.0142875 -.00635 3642463991552345e-31 -1 0 16 156 162 158 ?1
59 113 160 153 0 0 1 30 157 205 0 113 153 161 0 +.01905 .0142875 -.00635 3642463
991552345e-31 -1 0 16 113 158 162 ?82 163 156 157 0 0 1 30 161 204 0 163 157 164
 0 +.009525 .01905 -.00635 1 0 0 16 163 154 15 ?114 165 113 161 0 0 1 30 164 202
 0 165 161 166 0 +.009525 -.01905 -.00635 1 0 0 16 165 146 140 ?167 84 163 164 0
 0 1 30 166 201 0 84 164 168 0 +.02413 .009525 -.00635 1 0 0 16 84 142 169 ?76 7
4 165 166 0 0 1 30 168 200 0 74 166 170 0 +.02413 -.009525 -.00635 1 0 0 16 74 1
38 171 ?67 172 84 168 0 0 1 30 170 199 0 172 168 173 0 +.02921 867361737988404e-
32 -.00635 -1821231995776175e-31 -1 0 16 172 134 174 ?75 129 74 170 0 0 1 30 173
 249 0 119 170 120 0 +.01905 -.01905 .00635 0 0 -1 16 119 217 175 ?65 109 152 17
3 0 0 1 30 120 252 0 109 173 176 0 +.01905 .01905 .00635 0 0 -1 30 176 253 0 118
 120 177 0 +.01905 .009525 .00635 0 0 -1 16 118 221 178 ?58 96 109 176 0 0 1 30
 177 254 0 96 176 23 0 +.01905 -.009525 .00635 0 0 -1 16 96 222 179 ?53 29 118 1
77 0 0 1 31 23 697 0 29 177 8 0 -0 3888253587292845e-34 .00381 -1365923996832132
e-31 0 1 1 0 1365923996832132e-31 .00635 16 29 695 180 ?181 11 96 23 0 0 1 81 1
 180 2387 13 29 182 0 183 27 184 17 181 0 185 181 181 0 186 29 0 0 +15 185 518 0
 181 187 0 17 186 0 188 186 186 0 181 29 0 0 -15 188 2285 0 186 189 190 14 255 1
89 938 191 ?192 193 188 6 194 -0 0 192 193 26 15 190 925 0 195 189 0 17 195 0 19
0 196 197 198 199 200 0 201 -17 196 0 190 202 195 203 201 204 0 205 +17 197 0 19
0 195 202 206 207 208 0 209 -18 198 895 210 195 203 211 212 ?1 17 199 0 132 213
 214 206 195 200 0 197 +16 200 832 215 ?199 216 217 218 0 0 1 17 201 0 219 220 2
05 198 196 204 0 214 -15 219 937 0 221 192 0 17 220 0 219 221 201 211 214 217 0
 222 -17 205 0 219 201 221 203 223 224 0 225 +16 204 868 226 ?196 224 216 227 0
 0 1 17 214 0 132 199 228 198 220 217 0 0 +15 132 759 0 228 131 0 17 228 0 132 2
14 213 211 229 230 0 0 -16 217 863 231 ?214 200 230 232 0 0 1 81 1 231 2514 13 2
17 233 0 234 235 236 16 230 846 237 ?229 217 238 239 0 0 1 30 232 968 0 217 218
 239 0 +.0127 .01905 -1084202172485504e-33 0 0 1 30 218 969 0 200 240 232 0 +0 .
01905 .00381 -1 0 -1365923996832132e-31 30 239 967 0 230 232 241 0 +0 .01905 -.0
0381 -1 0 -1195183497228114e-31 30 241 965 0 216 239 227 0 +.0127 .019052 -.0038
1 0 -1 0 16 216 824 242 ?221 204 200 241 0 0 1 30 227 964 0 204 241 243 0 +.0127
 .019052 .00381 0 -1 0 31 243 539 0 244 227 245 0 +0 3888253587292845e-34 .00635
 0 0 1 1 0 0 .00635 16 244 500 246 ?247 160 248 243 0 0 1 31 245 538 0 160 243 1
44 0 -0 3888253587292845e-34 -.00635 0 0 1 1 0 0 .00635 16 160 494 249 ?250 156
 244 245 0 0 1 30 144 11 0 129 245 130 0 +.01905 -.0142875 .00635 36424639915523
45e-31 -1 0 16 129 10 251 ?94 112 172 144 0 0 1 81 1 251 2530 13 129 252 0 162 1
58 253 17 94 0 93 65 87 32 254 129 0 0 +15 93 237 0 95 21 0 17 65 0 93 95 94 63
 255 119 0 167 +17 254 0 121 151 45 77 94 129 0 0 -17 151 0 121 43 254 256 97 14
8 0 155 +17 45 0 121 254 257 32 258 137 0 255 +17 257 0 121 45 259 260 261 262 0
 263 +17 258 0 264 265 255 260 45 137 0 257 -17 255 0 264 258 167 32 65 119 0 94
 -15 264 2288 0 265 266 267 17 167 0 264 255 265 63 268 165 0 159 +17 265 0 264
 167 258 269 263 270 0 271 +17 268 0 81 272 159 269 167 165 0 265 -17 159 0 81 2
68 73 63 95 156 0 0 +15 81 433 0 273 274 0 17 73 0 81 159 75 50 67 74 0 95 -17 9
5 0 93 87 65 50 159 156 0 0 -17 75 0 81 73 76 66 85 172 0 275 +17 85 0 276 277 2
75 24 75 172 0 278 -17 275 0 276 85 279 66 72 280 0 0 -15 276 1141 0 85 281 0 17
 279 0 276 275 277 282 283 284 0 0 -17 72 0 71 285 67 282 275 280 0 286 +16 280
 1082 287 ?72 288 289 290 288 288 1 81 1 287 2484 13 280 291 0 292 293 294 16 28
8 1074 292 ?295 296 280 290 280 280 1 16 289 1103 297 ?298 280 299 300 0 0 1 30
 290 1181 0 288 301 302 0 +.02921 -.009525 .0254 0 0 -1 30 301 1182 0 284 303 29
0 0 +.02921 0 -.0254 -1821231995776175e-31 1 0 30 302 1180 0 304 290 305 0 +.029
21 .009525 .0254 0 0 -1 16 304 1097 306 ?307 308 296 302 296 296 1 30 305 1179 0
 308 302 309 0 +.0355854 .009525 .0254 0 0 -1 16 308 1094 310 ?311 238 304 305 0
 0 1 30 309 1178 0 238 305 312 0 +.0355854 -.009525 .0254 0 0 -1 16 238 1088 313
 ?314 230 308 309 0 0 1 30 312 973 0 224 309 315 0 +.0127 -.01905 -1084202172485
504e-33 0 0 1 16 224 819 235 ?205 316 204 312 0 0 1 30 315 971 0 316 312 240 0 +
0 -.01905 .00381 -1 0 -1365923996832132e-31 16 316 811 317 ?202 248 224 315 0 0
 1 30 240 970 0 248 315 218 0 +0 -.01905 -.00381 -1 0 -1195183497228114e-31 16 2
48 827 318 ?319 244 316 240 0 0 1 81 1 318 2392 13 248 320 0 237 249 321 17 319
 0 267 322 223 323 324 248 0 325 +15 267 718 0 223 266 0 17 322 0 267 225 319 32
6 327 328 0 0 +17 223 0 267 319 225 55 205 224 0 0 -18 323 1965 329 319 330 326
 331 ?1 17 324 0 332 222 325 55 319 248 0 223 -17 325 0 332 324 229 323 333 334
 0 327 +15 332 921 0 229 193 0 17 229 0 332 325 222 335 228 230 0 333 +17 333 0
 336 209 327 335 325 334 0 213 -16 334 1851 337 ?325 208 338 339 0 0 1 17 327 0
 336 333 207 323 322 328 0 0 -15 336 2068 0 333 340 0 17 207 0 336 327 209 326 1
97 208 0 322 +16 328 1811 341 ?322 342 208 343 0 0 1 81 1 341 2458 13 328 344 0
 345 346 347 16 342 1749 348 ?271 349 328 350 0 0 1 16 208 1876 351 ?207 328 334
 352 0 0 1 30 343 2163 0 328 353 354 0 +-.0127 -.01905 -1084202172485504e-33 0 0
 1 30 353 2164 0 355 356 343 0 +-.0355854 -.009525 .0254 0 0 -1 30 354 2159 0 33
8 343 339 0 +-.0127 .01905 -1084202172485504e-33 0 0 1 16 338 1873 357 ?209 334
 355 354 0 0 1 30 339 2157 0 334 354 352 0 +-.0127 .019052 -.00381 0 -1 0 30 352
 2156 0 208 339 358 0 +-.0127 .019052 .00381 0 -1 0 30 358 2147 0 262 352 359 0
 +-.01905 -.0142875 .00635 -3642463991552345e-31 -1 0 16 262 1838 360 ?257 361 3
62 358 0 0 1 30 359 2146 0 361 358 363 0 +-.01905 .0142875 .00635 -3642463991552
345e-31 -1 0 16 361 1829 364 ?124 365 262 359 0 0 1 30 363 2142 0 365 359 366 0
 +-.02413 .009525 .00635 -1 0 0 16 365 1832 367 ?368 369 361 363 0 0 1 30 366 21
41 0 369 363 370 0 +-.02413 -.009525 .00635 -1 0 0 16 369 1755 371 ?372 373 365
 366 0 0 1 30 370 2140 0 373 366 350 0 +-.02921 867361737988404e-32 .00635 18212
31995776175e-31 -1 0 16 373 1835 374 ?375 270 369 370 0 0 1 30 350 2139 0 342 37
0 376 0 +-.01905 -.0142875 -.00635 -3642463991552345e-31 -1 0 30 376 2138 0 349
 350 377 0 +-.01905 .0142875 -.00635 -3642463991552345e-31 -1 0 16 349 1779 378
 ?379 380 342 376 0 0 1 30 377 2134 0 380 376 381 0 +-.02413 .009525 -.00635 -1
 0 0 16 380 1764 382 ?383 384 349 377 0 0 1 30 381 2133 0 384 377 385 0 +-.02413
 -.009525 -.00635 -1 0 0 16 384 1741 386 ?387 362 380 381 0 0 1 30 385 2132 0 36
2 381 388 0 +-.02921 867361737988404e-32 -.00635 1821231995776175e-31 -1 0 16 36
2 1879 389 ?390 262 384 385 0 0 1 30 388 2131 0 270 385 391 0 +-.01905 -.01905 .
00635 0 0 -1 16 270 1820 345 ?265 134 373 388 0 0 1 30 391 2128 0 134 388 392 0
 +-.01905 .01905 .00635 0 0 -1 16 134 1782 346 ?133 393 270 391 0 0 1 30 392 212
7 0 393 391 394 0 +-.01905 .009525 .00635 0 0 -1 16 393 1776 395 ?396 397 134 39
2 0 0 1 30 394 2126 0 397 392 398 0 +-.01905 -.009525 .00635 0 0 -1 16 397 1752
 399 ?400 401 393 394 0 0 1 31 398 1610 0 402 394 403 0 +.0355854 14745149545802
86e-32 .01651 1 364246399155235e-30 0 -364246399155235e-30 1 0 .0025781 16 402 1
550 404 ?405 406 407 398 0 0 1 31 403 1609 0 407 398 408 0 -.02921 1242293305262
856e-32 .01651 -1 -1821231995776175e-31 0 1821231995776175e-31 -1 0 .0025781 16
 407 1555 409 ?410 402 411 403 0 0 1 31 408 1608 0 411 403 412 0 +.0355854 18648
2773667507e-31 -.01651 1 364246399155235e-30 0 -364246399155235e-30 1 0 .0025781
 16 411 1574 413 ?414 407 401 408 0 0 1 31 412 1607 0 401 408 415 0 -.02921 1632
60608735764e-31 -.01651 -1 -1821231995776175e-31 0 1821231995776175e-31 -1 0 .00
25781 16 401 1579 416 ?417 411 397 412 0 0 1 30 415 1189 0 418 412 419 0 +.03239
77 -.009525 .0254 -1 -2720964137115795e-31 0 16 418 1071 420 ?421 422 284 415 0
 0 1 30 419 1188 0 422 415 423 0 +.0355854 0 .0254 -364246399155235e-30 1 0 16 4
22 1106 424 ?425 299 418 419 0 0 1 30 423 1187 0 299 419 300 0 +.0323977 .009525
 .0254 -1 -2720964137115795e-31 0 16 299 1109 426 ?427 289 422 423 0 0 1 30 300
 1186 0 289 423 428 0 +.02921 0 .0254 -1821231995776175e-31 1 0 30 428 1185 0 40
6 300 429 0 +.0323977 -.009525 -.0254 -1 -2720964137115795e-31 0 16 406 1112 430
 ?286 431 402 428 0 0 1 30 429 1184 0 431 428 303 0 +.0355854 0 -.0254 -36424639
9155235e-30 1 0 16 431 1085 432 ?433 434 406 429 0 0 1 30 303 1183 0 434 429 301
 0 +.0323977 .009525 -.0254 -1 -2720964137115795e-31 0 16 434 1091 435 ?436 284
 431 303 0 0 1 81 1 435 2509 13 434 437 0 310 313 438 17 436 0 38 278 311 439 44
0 434 0 283 +16 284 1115 441 ?283 418 434 301 0 0 1 81 1 441 2503 13 284 442 0 4
43 430 444 17 283 0 445 440 286 439 279 284 0 0 +15 445 1169 0 286 446 0 17 440
 0 445 447 283 448 436 434 0 0 -17 286 0 445 283 447 282 285 406 0 279 +18 439 1
119 443 277 282 448 449 ?1 81 1 443 2502 13 439 450 0 451 441 452 17 277 0 276 2
79 85 439 278 296 0 436 +18 282 1125 453 72 454 439 455 ?1 18 448 1127 456 433 4
39 457 458 ?1 29 449 1195 0 439 458 455 .02921 .009525 -.0254 29 458 1196 0 448
 459 449 .0355854 .009525 -.0254 29 455 1194 0 282 449 460 .02921 -.009525 -.025
4 29 460 1193 0 256 455 461 .02921 -.009525 .00635 18 256 1131 69 151 211 462 46
0 ?1 29 461 987 0 211 460 212 .0127 .01905 -.00381 18 211 897 463 220 198 256 46
1 ?1 29 212 986 0 198 461 101 .0127 .01905 .00381 29 101 985 0 203 212 100 .0127
 -.01905 .00381 18 203 902 464 196 55 198 101 ?1 81 1 464 2520 13 203 465 0 463
 466 467 18 55 890 466 221 50 203 100 ?1 81 1 466 2521 13 55 468 0 464 469 470 1
7 221 0 219 205 220 55 222 216 0 324 +17 222 0 332 229 324 211 221 216 0 228 -80
 255 1 13 471 472 9000 0 0 0 0 3 5 0 0 0 FFTFTFTTFFFFFF3 81 1 468 992 471 55 0 4
66 473 465 474 81 1 469 2522 13 111 475 0 466 476 477 84 255 2 470 IP14 111 236
 469 ?131 478 106 6 22 +0 0 131 478 26 81 1 475 2352 479 111 473 469 480 481 482
 81 1 476 2523 13 21 483 0 469 150 484 84 3 477 JHa14 21 238 476 ?485 274 93 6 7
 +0 0 485 274 26 81 1 483 2349 479 21 486 476 487 488 489 81 1 150 2524 13 148 4
90 0 476 171 491 84 3 484 JHW81 1 490 319 471 148 0 150 492 486 493 81 1 171 252
5 13 74 492 0 150 147 494 84 4 491 KHVB81 1 492 318 471 74 0 171 495 490 496 81
 1 147 2526 13 42 495 0 171 169 497 84 4 494 KHRB81 1 495 317 471 42 0 147 498 4
92 499 81 1 169 2527 13 84 498 0 147 128 500 84 4 497 KHNB81 1 498 316 471 84 0
 169 501 495 502 81 1 128 2528 13 112 501 0 169 162 503 84 4 500 KHJB81 1 501 31
5 471 112 0 128 504 498 505 81 1 162 2529 13 113 504 0 128 251 506 84 4 503 KHFB
81 1 504 314 471 113 0 162 252 501 507 84 4 506 KHBB80 1 471 508 509 9000 0 0 0
 0 3 6 0 0 0 FFTFTFTTFFFFFF1 81 1 252 313 471 129 0 251 510 504 511 82 255 3 507
 6 16 1 81 1 510 312 471 156 0 158 512 252 513 82 3 511 6 15 1 81 1 158 2531 13
 156 510 0 251 179 514 81 1 512 304 471 96 0 179 515 510 516 82 3 513 6 14 1 81
 1 179 2532 13 96 512 0 158 178 517 81 1 515 302 471 118 0 178 518 512 519 82 3
 516 6 6 1 81 1 178 2533 13 118 515 0 179 175 520 81 1 518 301 471 119 0 175 521
 515 522 82 3 519 6 4 1 81 1 175 2534 13 119 518 0 178 91 523 81 1 521 299 471 1
09 0 91 90 518 524 82 3 522 6 3 1 81 1 91 2535 13 109 521 0 175 86 525 81 1 90 2
95 471 77 0 86 526 521 527 82 3 524 6 1 1 81 1 526 294 471 50 0 52 528 90 529 82
 3 527 6 13 0 81 1 52 2537 13 50 526 0 86 98 530 81 1 528 291 471 88 0 98 531 52
6 532 82 3 529 6 12 0 81 1 98 2538 13 88 528 0 52 57 533 81 1 531 290 471 54 0 5
7 534 528 535 82 3 532 6 9 0 81 1 57 2539 13 54 531 0 98 44 536 81 1 534 289 471
 32 0 44 537 531 538 82 3 535 6 8 0 81 1 44 2540 13 32 534 0 57 64 539 81 1 537
 288 471 63 0 64 104 534 540 82 3 538 6 7 0 81 1 64 2541 13 63 537 0 44 102 541
 81 1 104 285 471 46 0 102 542 537 543 82 3 540 6 6 0 81 1 542 284 471 59 0 61 0
 104 544 82 3 543 6 3 0 81 1 61 2543 13 59 542 0 102 0 545 82 3 544 6 2 0 84 3 5
45 JHI84 3 541 JHY84 3 539 JHc84 3 536 JHg84 3 533 JHk84 3 530 JHw84 3 525 JHF84
 3 523 JHN84 3 520 JHR84 3 517 JHZ84 3 514 JH579 255 9 509 BTI/DetId82 3 505 6 1
7 1 82 3 502 6 18 1 82 3 499 6 19 1 82 3 496 6 20 1 81 1 486 327 471 21 0 483 49
0 473 546 82 3 493 6 21 1 81 1 473 328 471 111 0 475 486 468 547 82 3 546 6 5 2
 82 3 547 6 6 2 80 1 479 0 548 8001 0 0 0 0 3 5 0 0 0 FFFFTFTFFFFFFF2 81 1 487 2
348 479 274 549 183 550 483 551 81 1 488 2350 479 485 552 293 483 480 553 83 255
 3 489 .615686274509804 .811764705882353 .929411764705882 14 485 226 293 ?478 21
 71 6 554 -0 0 478 21 26 81 1 552 1220 471 485 0 488 555 291 556 81 1 293 2485 1
3 485 488 0 287 557 558 81 1 480 2351 479 478 555 557 488 475 559 83 3 553 .6156
86274509804 .811764705882353 .929411764705882 14 478 228 557 ?111 485 38 6 560 +
0 0 111 485 26 81 1 555 1219 471 478 0 480 561 552 562 81 1 557 2486 13 478 480
 0 293 154 563 83 3 559 .615686274509804 .811764705882353 .929411764705882 81 1
 154 2487 13 152 561 0 557 174 564 84 3 563 JTC81 1 561 1218 471 152 0 154 565 5
55 566 81 1 174 2488 13 172 565 0 154 69 567 84 3 564 JTF81 1 565 1217 471 172 0
 174 568 561 569 81 1 69 2489 13 256 568 0 174 35 570 84 3 567 JTB81 1 568 1216
 471 256 0 69 68 565 571 84 3 570 JTM81 1 68 1215 471 66 0 35 34 568 572 82 3 57
1 18 3 0 81 1 34 1214 471 12 0 30 78 68 573 82 3 572 18 2 0 81 1 78 1213 471 24
 0 36 574 34 575 82 3 573 18 1 0 81 1 574 1168 471 446 0 576 577 78 578 82 3 575
 18 0 0 14 446 1166 79 ?579 580 445 6 581 -0 0 579 580 26 81 1 576 2364 479 446
 574 79 582 583 584 81 1 577 1164 471 580 0 582 585 574 586 82 3 578 17 1 2 14 5
80 1162 587 ?446 588 589 6 590 +0 0 446 588 26 81 1 582 2363 479 580 577 587 591
 576 592 81 1 585 1137 471 593 0 594 595 577 596 82 3 586 17 2 2 18 593 1136 594
 427 462 597 598 ?1 81 1 594 2495 13 593 585 0 587 599 600 81 1 595 1135 471 597
 0 599 601 585 602 82 3 596 17 7 0 18 597 1134 599 425 593 454 603 ?1 81 1 599 2
496 13 597 595 0 594 604 605 81 1 601 1133 471 462 0 604 606 595 607 82 3 602 17
 5 0 18 462 1132 604 608 256 593 609 ?1 81 1 604 2497 13 462 601 0 599 610 611 8
1 1 606 1130 471 457 0 610 612 601 613 82 3 607 17 3 0 18 457 1129 610 314 448 6
14 459 ?1 81 1 610 2498 13 457 606 0 604 456 615 81 1 612 1128 471 448 0 456 616
 606 617 82 3 613 17 0 0 81 1 456 2499 13 448 612 0 610 453 618 81 1 616 1126 47
1 282 0 453 619 612 620 82 3 617 17 4 0 81 1 453 2500 13 282 616 0 456 451 621 8
1 1 619 1124 471 454 0 451 450 616 622 82 3 620 17 2 0 18 454 1123 451 623 597 2
82 624 ?1 81 1 451 2501 13 454 619 0 453 443 625 81 1 450 1120 471 439 0 443 442
 619 626 82 3 622 17 1 0 81 1 442 1117 471 284 0 441 627 450 628 82 3 626 17 6 0
 81 1 627 1114 471 406 0 430 629 442 630 82 3 628 17 10 1 81 1 430 2504 13 406 6
27 0 441 426 631 81 1 629 1111 471 299 0 426 632 627 633 82 3 630 17 4 1 81 1 42
6 2505 13 299 629 0 430 424 634 81 1 632 1108 471 422 0 424 635 629 636 82 3 633
 17 7 1 81 1 424 2506 13 422 632 0 426 297 637 81 1 635 1105 471 289 0 297 638 6
32 639 82 3 636 17 9 1 81 1 297 2507 13 289 635 0 424 310 640 81 1 638 1096 471
 308 0 310 437 635 641 82 3 639 17 11 1 81 1 310 2508 13 308 638 0 297 435 642 8
1 1 437 1093 471 434 0 435 643 638 644 82 3 641 17 2 1 81 1 643 1090 471 238 0 3
13 645 437 646 82 3 644 17 6 1 81 1 313 2510 13 238 643 0 435 432 647 81 1 645 1
087 471 431 0 432 648 643 649 82 3 646 17 0 1 81 1 432 2511 13 431 645 0 313 420
 650 81 1 648 1073 471 418 0 420 651 645 652 82 3 649 17 8 1 81 1 420 2512 13 41
8 648 0 432 234 653 81 1 651 1006 471 192 0 654 233 648 655 82 3 652 17 5 1 14 1
92 934 234 ?281 189 219 6 656 -0 0 281 189 26 81 1 654 2359 479 192 651 234 657
 658 659 81 1 233 1003 471 217 0 231 660 651 661 82 3 655 14 2 2 81 1 660 1002 4
71 224 0 235 662 233 663 82 3 661 14 7 1 81 1 235 2515 13 224 660 0 231 226 664
 81 1 662 997 471 204 0 226 665 660 666 82 3 663 14 6 1 81 1 226 2516 13 204 662
 0 235 242 667 81 1 665 996 471 216 0 242 668 662 669 82 3 666 14 1 1 81 1 242 2
517 13 216 665 0 226 210 670 81 1 668 995 471 198 0 210 671 665 672 82 3 669 14
 0 1 81 1 210 2518 13 198 668 0 242 463 673 81 1 671 994 471 211 0 463 465 668 6
74 82 3 672 14 3 0 81 1 463 2519 13 211 671 0 210 464 675 81 1 465 993 471 203 0
 464 468 671 676 82 3 674 14 2 0 82 3 676 14 1 0 84 3 675 JPI84 3 673 JPM84 3 67
0 JPB84 3 667 JPF84 3 664 JPZ81 1 234 2513 13 192 654 0 420 231 677 81 1 657 235
8 479 189 678 191 679 654 680 81 1 658 2360 479 281 681 682 654 683 684 83 3 659
 .615686274509804 .811764705882353 .929411764705882 14 281 1138 682 ?685 192 686
 6 687 +588 588 685 192 26 81 1 681 1621 471 281 0 658 688 689 690 81 1 682 2473
 13 281 658 0 691 692 693 81 1 683 2361 479 685 688 692 658 591 694 83 3 684 .61
5686274509804 .811764705882353 .929411764705882 14 685 1150 692 ?588 281 695 6 6
96 -0 0 588 281 26 81 1 688 1620 471 685 0 683 697 681 698 81 1 692 2474 13 685
 683 0 682 699 700 81 1 591 2362 479 588 689 691 683 582 701 83 3 694 .615686274
509804 .811764705882353 .929411764705882 14 588 1158 691 ?580 685 702 6 687 +281
 281 580 685 26 81 1 689 1622 471 588 0 591 681 703 704 81 1 691 2472 13 588 591
 0 386 682 705 83 3 701 .615686274509804 .811764705882353 .929411764705882 81 1
 386 2471 13 384 703 0 348 691 706 84 3 705 JXS81 1 703 1743 471 384 0 386 689 7
07 708 81 1 348 2470 13 342 707 0 399 386 709 84 3 706 JY581 1 707 1751 471 342
 0 348 703 710 711 81 1 399 2469 13 397 710 0 371 348 712 84 3 709 JYh81 1 710 1
754 471 397 0 399 707 713 714 81 1 371 2468 13 369 713 0 715 399 716 84 3 712 JY
N81 1 713 1757 471 369 0 371 710 717 718 81 1 715 2467 13 355 717 0 719 371 720
 84 3 716 JY916 355 1758 715 ?721 338 722 353 0 0 1 81 1 717 1760 471 355 0 715
 713 723 724 81 1 719 2466 13 725 723 0 382 715 726 84 4 720 KYxC16 725 1761 719
 ?727 728 729 730 0 0 1 81 1 723 1763 471 725 0 719 717 731 732 81 1 382 2465 13
 380 731 0 733 719 734 84 4 726 KY5C81 1 731 1766 471 380 0 382 723 735 736 81 1
 733 2464 13 737 735 0 738 382 739 84 3 734 JYx16 737 1767 733 ?740 741 742 743
 741 741 1 81 1 735 1769 471 737 0 733 731 744 745 81 1 738 2463 13 746 744 0 74
7 733 748 84 4 739 KYpD16 746 1770 738 ?749 750 751 752 0 0 1 81 1 744 1772 471
 746 0 738 735 753 754 81 1 747 2462 13 741 753 0 395 738 755 84 4 748 KYFD16 74
1 1773 747 ?756 722 737 743 737 737 1 81 1 753 1775 471 741 0 747 744 757 758 81
 1 395 2461 13 393 757 0 378 747 759 84 4 755 KYtD81 1 757 1778 471 393 0 395 75
3 760 761 81 1 378 2460 13 349 760 0 346 395 762 84 3 759 JYJ81 1 760 1781 471 3
49 0 378 757 763 764 81 1 346 2459 13 134 763 0 341 378 765 84 3 762 JYp81 1 763
 1784 471 134 0 346 760 344 766 84 3 765 JYB81 1 344 1813 471 328 0 341 763 767
 768 82 3 766 23 0 1 81 1 767 1822 471 270 0 345 344 769 770 82 3 768 23 28 1 81
 1 345 2457 13 270 767 0 364 341 771 81 1 769 1831 471 361 0 364 767 772 773 82
 3 770 23 1 1 81 1 364 2456 13 361 769 0 367 345 774 81 1 772 1834 471 365 0 367
 769 775 776 82 3 773 23 11 1 81 1 367 2455 13 365 772 0 374 364 777 81 1 775 18
37 471 373 0 374 772 778 779 82 3 776 23 13 1 81 1 374 2454 13 373 775 0 360 367
 780 81 1 778 1840 471 262 0 360 775 781 782 82 3 779 23 55 1 81 1 360 2453 13 2
62 778 0 337 374 783 81 1 781 1853 471 334 0 337 778 784 785 82 3 782 23 9 1 81
 1 337 2452 13 334 781 0 357 360 786 81 1 784 1875 471 338 0 357 781 787 788 82
 3 785 23 22 1 81 1 357 2451 13 338 784 0 351 337 789 81 1 787 1878 471 208 0 35
1 784 790 791 82 3 788 23 29 1 81 1 351 2450 13 208 787 0 389 357 792 81 1 790 1
881 471 362 0 389 787 793 794 82 3 791 23 23 1 81 1 389 2449 13 362 790 0 795 35
1 796 81 1 793 1884 471 797 0 795 790 798 799 82 3 794 23 54 1 16 797 1882 795 ?
800 742 750 801 742 742 1 81 1 795 2448 13 797 793 0 802 389 803 81 1 798 1887 4
71 804 0 802 793 805 806 82 3 799 23 56 1 16 804 1885 802 ?807 808 809 810 0 0 1
 81 1 802 2447 13 804 798 0 811 795 812 81 1 805 1890 471 729 0 811 798 813 814
 82 3 806 23 52 1 16 729 1888 811 ?815 725 816 817 0 0 1 81 1 811 2446 13 729 80
5 0 818 802 819 81 1 813 1893 471 820 0 818 805 821 822 82 3 814 23 60 1 16 820
 1891 818 ?823 816 824 825 0 0 1 81 1 818 2445 13 820 813 0 826 811 827 81 1 821
 1896 471 751 0 826 813 828 829 82 3 822 23 62 1 16 751 1894 826 ?830 746 808 83
1 0 0 1 81 1 826 2444 13 751 821 0 832 818 833 81 1 828 1899 471 722 0 832 821 8
34 835 82 3 829 23 51 1 16 722 1897 832 ?836 355 741 356 0 0 1 81 1 832 2443 13
 722 828 0 837 826 838 81 1 834 1902 471 742 0 837 828 839 840 82 3 835 23 45 1
 16 742 1900 837 ?841 737 797 801 797 797 1 81 1 837 2442 13 742 834 0 842 832 8
43 81 1 839 1905 471 808 0 842 834 844 845 82 3 840 23 57 1 16 808 1903 842 ?846
 751 804 847 0 0 1 81 1 842 2441 13 808 839 0 848 837 849 81 1 844 1908 471 750
 0 848 839 850 851 82 3 845 23 47 1 16 750 1906 848 ?852 797 746 853 0 0 1 81 1
 848 2440 13 750 844 0 854 842 855 81 1 850 1911 471 728 0 854 844 856 857 82 3
 851 23 53 1 16 728 1909 854 ?858 809 725 859 0 0 1 81 1 854 2439 13 728 850 0 8
60 848 861 81 1 856 1914 471 809 0 860 850 862 863 82 3 857 23 50 1 16 809 1912
 860 ?864 804 728 865 0 0 1 81 1 860 2438 13 809 856 0 866 854 867 81 1 862 1917
 471 816 0 866 856 868 869 82 3 863 23 48 1 16 816 1915 866 ?870 729 820 871 0 0
 1 81 1 866 2437 13 816 862 0 872 860 873 81 1 868 1920 471 824 0 872 862 874 87
5 82 3 869 23 61 1 16 824 1918 872 ?876 820 0 877 0 0 1 81 1 872 2436 13 824 868
 0 878 866 879 81 1 874 1930 471 330 0 878 868 880 881 82 3 875 23 63 1 18 330 1
929 878 400 882 323 883 ?1 81 1 878 2435 13 330 874 0 884 872 885 81 1 880 1932
 471 886 0 884 874 887 888 82 3 881 23 10 0 18 886 1931 884 889 890 269 891 ?1 8
1 1 884 2434 13 886 880 0 892 878 893 81 1 887 1934 471 882 0 892 880 894 895 82
 3 888 23 38 0 18 882 1933 892 396 896 330 897 ?1 81 1 892 2433 13 882 887 0 898
 884 899 81 1 894 1936 471 896 0 898 887 900 901 82 3 895 23 8 0 18 896 1935 898
 116 269 882 902 ?1 81 1 898 2432 13 896 894 0 903 892 904 81 1 900 1944 471 260
 0 903 894 905 906 82 3 901 23 2 0 18 260 1943 903 258 614 125 907 ?1 81 1 903 2
431 13 260 900 0 908 898 909 81 1 905 1946 471 269 0 908 900 910 911 82 3 906 23
 7 0 18 269 1945 908 268 886 896 912 ?1 81 1 908 2430 13 269 905 0 913 903 914 8
1 1 910 1952 471 125 0 913 905 915 916 82 3 911 23 6 0 18 125 1951 913 122 260 9
17 918 ?1 81 1 913 2429 13 125 910 0 919 908 920 81 1 915 1954 471 917 0 919 910
 921 922 82 3 916 23 3 0 18 917 1953 919 124 125 923 924 ?1 81 1 919 2428 13 917
 915 0 925 913 926 81 1 921 1956 471 927 0 925 915 928 929 82 3 922 23 9 0 18 92
7 1955 925 375 335 930 931 ?1 81 1 925 2427 13 927 921 0 932 919 933 81 1 928 19
58 471 923 0 932 921 934 935 82 3 929 23 39 0 18 923 1957 932 259 917 890 936 ?1
 81 1 932 2426 13 923 928 0 329 925 937 81 1 934 1966 471 323 0 329 928 938 939
 82 3 935 23 11 0 81 1 329 2425 13 323 934 0 940 932 941 81 1 938 1976 471 206 0
 940 934 942 943 82 3 939 23 16 0 18 206 1975 940 199 326 335 944 ?1 81 1 940 24
24 13 206 938 0 945 329 946 81 1 942 1978 471 335 0 945 938 947 948 82 3 943 23
 19 0 18 335 1977 945 229 206 927 949 ?1 81 1 945 2423 13 335 942 0 950 940 951
 81 1 947 1980 471 326 0 950 942 952 953 82 3 948 23 18 0 18 326 1979 950 202 32
3 206 954 ?1 81 1 950 2422 13 326 947 0 955 945 956 81 1 952 1982 471 957 0 955
 947 958 959 82 3 953 23 17 0 18 957 1981 955 807 960 961 962 ?1 81 1 955 2421 1
3 957 952 0 963 950 964 81 1 958 1984 471 890 0 963 952 965 966 82 3 959 23 34 0
 18 890 1983 963 967 923 886 968 ?1 81 1 963 2420 13 890 958 0 969 955 970 81 1
 965 1986 471 971 0 969 958 972 973 82 3 966 23 36 0 18 971 1985 969 974 961 0 9
75 ?1 81 1 969 2419 13 971 965 0 976 963 977 81 1 972 1988 471 978 0 976 965 979
 980 82 3 973 23 28 0 18 978 1987 976 830 981 982 983 ?1 81 1 976 2418 13 978 97
2 0 984 969 985 81 1 979 1990 471 930 0 984 972 986 987 82 3 980 23 33 0 18 930
 1989 984 988 927 981 989 ?1 81 1 984 2417 13 930 979 0 990 976 991 81 1 986 199
2 471 614 0 990 979 992 993 82 3 987 23 31 0 18 614 1991 990 994 457 260 995 ?1
 81 1 990 2416 13 614 986 0 996 984 997 81 1 992 1994 471 981 0 996 986 998 999
 82 3 993 23 37 0 18 981 1993 996 852 930 978 1000 ?1 81 1 996 2415 13 981 992 0
 1001 990 1002 81 1 998 1996 471 982 0 1001 992 1003 1004 82 3 999 23 35 0 18 98
2 1995 1001 1005 978 960 1006 ?1 81 1 1001 2414 13 982 998 0 1007 996 1008 81 1
 1003 1998 471 961 0 1007 998 1009 1010 82 3 1004 23 29 0 18 961 1997 1007 858 9
57 971 1011 ?1 81 1 1007 2413 13 961 1003 0 1012 1001 1013 81 1 1009 2000 471 96
0 0 1012 1003 1014 1015 82 3 1010 23 32 0 18 960 1999 1012 1016 982 957 1017 ?1
 81 1 1012 2412 13 960 1009 0 1018 1007 1019 81 1 1014 2023 471 1020 0 1021 1009
 1022 1023 82 3 1015 23 30 0 14 1020 2021 1018 ?1024 1025 1026 6 1027 +0 0 1024
 1025 26 81 1 1021 2367 479 1020 1014 1018 1028 1029 1030 81 1 1022 2027 471 102
4 0 1029 1014 1031 1032 82 3 1023 23 0 2 14 1024 2025 1033 ?1034 1020 1035 6 103
6 -0 0 1034 1020 26 81 1 1029 2368 479 1024 1022 1033 1021 1037 1038 81 1 1031 2
031 471 1034 0 1037 1022 1039 1040 82 3 1032 23 18 2 14 1034 2029 1041 ?1042 102
4 1043 6 1044 +0 0 1042 1024 26 81 1 1037 2369 479 1034 1031 1041 1029 1045 1046
 81 1 1039 2035 471 1042 0 1045 1031 1047 1048 82 3 1040 23 17 2 14 1042 2033 10
49 ?340 1034 1050 6 1051 +0 0 340 1034 26 81 1 1045 2370 479 1042 1039 1049 1037
 1052 1053 81 1 1047 2067 471 340 0 1052 1039 1054 1055 82 3 1048 23 1 2 14 340
 2065 1056 ?1057 1042 336 6 1058 -0 0 1057 1042 26 81 1 1052 2371 479 340 1047 1
056 1045 1059 1060 81 1 1054 2071 471 1057 0 1059 1047 1061 1062 82 3 1055 23 6
 2 14 1057 2069 1063 ?1064 340 1065 6 1066 +1067 1067 1064 340 26 81 1 1059 2372
 479 1057 1054 1063 1052 1068 1069 81 1 1061 2076 471 1064 0 1068 1054 1070 1071
 82 3 1062 23 22 2 14 1064 2074 1072 ?1067 1057 1073 6 1074 -0 0 1067 1057 26 81
 1 1068 2373 479 1064 1061 1072 1059 1075 1076 81 1 1070 2082 471 1067 0 1075 10
61 1077 1078 82 3 1071 23 21 2 14 1067 2080 1079 ?1080 1064 1081 6 1066 +1057 10
57 1080 1064 26 81 1 1075 2374 479 1067 1070 1079 1068 1082 1083 81 1 1077 2087
 471 1080 0 1082 1070 1084 1085 82 3 1078 23 23 2 14 1080 2085 1086 ?1087 1067 1
088 6 1089 +0 0 1087 1067 26 81 1 1082 2375 479 1080 1077 1086 1075 1090 1091 81
 1 1084 2091 471 1087 0 1090 1077 1092 1093 82 3 1085 23 16 2 14 1087 2089 1094
 ?1095 1080 1096 6 1097 -0 0 1095 1080 26 81 1 1090 2376 479 1087 1084 1094 1082
 1098 1099 81 1 1092 2095 471 1095 0 1098 1084 1100 1101 82 3 1093 23 15 2 14 10
95 2093 1102 ?1103 1087 1104 6 1105 -0 0 1103 1087 26 81 1 1098 2377 479 1095 10
92 1102 1090 1106 1107 81 1 1100 2100 471 1103 0 1106 1092 1108 1109 82 3 1101 2
3 19 2 14 1103 2098 16 ?0 1095 1110 6 1111 -0 0 0 1095 26 81 1 1106 2378 479 110
3 1100 16 1098 0 1112 81 1 1108 2323 471 1 0 1113 1100 1114 1115 82 3 1109 23 20
 2 81 1 1113 2344 1116 1 1108 1117 0 0 1118 81 1 1114 2324 471 163 0 15 1108 139
 1119 82 3 1115 6 0 3 81 1 15 2398 13 163 1114 0 136 2 1120 81 1 139 2325 471 12
6 0 136 1114 1121 1122 82 3 1119 24 0 1 81 1 1121 2326 471 165 0 140 139 1123 11
24 82 3 1122 24 1 1 81 1 140 2396 13 165 1121 0 142 136 1125 81 1 1123 2327 471
 137 0 142 1121 1126 1127 82 3 1124 24 2 1 81 1 142 2395 13 137 1123 0 246 140 1
128 81 1 1126 2328 471 244 0 246 1123 1129 1130 82 3 1127 24 3 1 81 1 246 2394 1
3 244 1126 0 249 142 1131 81 1 1129 2329 471 160 0 249 1126 320 1132 82 3 1130 2
4 4 1 81 1 249 2393 13 160 1129 0 318 246 1133 81 1 320 2330 471 248 0 318 1129
 1134 1135 82 3 1132 24 5 1 81 1 1134 2331 471 230 0 237 320 1136 1137 82 3 1135
 24 6 1 81 1 237 2391 13 230 1134 0 317 318 1138 81 1 1136 2332 471 316 0 317 11
34 1139 1140 82 3 1137 24 7 1 81 1 317 2390 13 316 1136 0 215 237 1141 81 1 1139
 2333 471 200 0 215 1136 1142 1143 82 3 1140 24 8 1 81 1 215 2389 13 200 1139 0
 27 317 1144 81 1 1142 2334 471 11 0 27 1139 182 1145 82 3 1143 24 9 1 81 1 27 2
388 13 11 1142 0 180 215 1146 81 1 182 2335 471 29 0 180 1142 549 1147 82 3 1145
 24 10 1 81 1 549 2336 471 274 0 487 182 1148 1149 82 3 1147 24 11 1 14 274 121
 183 ?21 19 1150 6 1151 -0 0 21 19 26 81 1 1148 2337 471 123 0 1152 549 1153 115
4 82 3 1149 24 0 2 14 123 1 1155 ?187 266 1156 6 1157 +0 0 187 266 26 81 1 1152
 2355 479 123 1148 1155 1158 1159 1160 81 1 1153 2338 471 193 0 679 1148 678 116
1 82 3 1154 24 1 2 14 193 930 1162 ?189 187 1163 6 1164 +0 0 189 187 26 81 1 679
 2357 479 193 1153 1162 1159 657 1165 81 1 678 2339 471 189 0 657 1153 1166 1167
 82 3 1161 24 2 2 81 1 1166 2340 471 131 0 481 678 1168 1169 82 3 1167 24 3 2 14
 131 234 1170 ?266 111 115 6 1171 +0 0 266 111 26 81 1 481 2353 479 131 1166 117
0 475 1158 1172 81 1 1168 2341 471 266 0 1158 1166 1173 1174 82 3 1169 24 4 2 14
 266 230 1175 ?123 131 264 6 1176 -0 0 123 131 26 81 1 1158 2354 479 266 1168 11
75 481 1152 1177 81 1 1173 2342 471 187 0 1159 1168 1178 1179 82 3 1174 24 5 2 1
4 187 523 1180 ?193 123 1181 6 1182 -19 19 193 123 26 81 1 1159 2356 479 187 117
3 1180 1152 679 1183 81 1 1178 2343 471 19 0 550 1173 0 1184 82 3 1179 24 6 2 14
 19 704 1185 ?274 0 1186 6 1182 -187 187 274 0 26 81 1 550 2347 479 19 1178 1185
 0 487 1187 82 3 1184 24 7 2 81 1 1185 2379 13 19 550 0 0 1180 1188 83 3 1187 .6
15686274509804 .811764705882353 .929411764705882 81 1 1180 2380 13 187 1159 0 11
85 1175 1189 84 3 1188 JZe81 1 1175 2381 13 266 1158 0 1180 1170 1190 84 3 1189
 JZa81 1 1170 2382 13 131 481 0 1175 191 1191 84 3 1190 JZW81 1 191 2383 13 189
 657 0 1170 1162 1192 84 3 1191 JZS81 1 1162 2384 13 193 679 0 191 1155 1193 84
 3 1192 JZO81 1 1155 2385 13 123 1152 0 1162 183 1194 84 3 1193 JZK81 1 183 2386
 13 274 487 0 1155 180 1195 84 3 1194 JZG84 3 1195 JZC15 1186 2295 0 1196 19 119
7 51 255 1182 534 0 187 1164 1157 0 +0 3888253587292845e-34 -.006352 0 0 1 .0063
5 1 0 0 13 26 88 0 0 0 0 0 0 10 19 50 1164 953 0 193 194 1182 0 +0 .019052 -.003
81 -1195183497228114e-31 0 1 1 0 1195183497228114e-31 50 1157 2 0 123 1182 1151
 0 +.001293741465735436 693889390390723e-32 .00635 0 0 1 1 0 0 50 1151 198 0 274
 1157 554 0 +.001293741465735436 693889390390723e-32 -.00635 0 0 1 1 0 0 50 554
 240 0 485 1151 560 0 +.02413 -.009525 .00635 0 1 0 0 0 1 50 560 241 0 478 554 1
176 0 +.02413 .009525 .00635 0 1 0 0 0 1 50 1176 242 0 266 560 1171 0 +.009525 -
.01905 .00635 0 1 0 0 0 1 50 1171 244 0 131 1176 22 0 +.009525 .01905 .00635 0 1
 0 0 0 1 50 22 245 0 111 1171 7 0 +.01905 .0142875 .00635 1 3642463991552345e-31
 0 -364246399155235e-30 1 0 50 194 954 0 189 656 1164 0 +0 .019052 .00381 -13659
23996832132e-31 0 1 1 0 1365923996832132e-31 50 656 955 0 192 696 194 0 +.0127 .
019052 -1084202172485504e-33 1 0 0 0 0 -1 50 696 1173 0 685 687 656 0 +.0355854
 0 .0254 -1 -364246399155235e-30 0 364246399155235e-30 -1 0 50 687 1175 0 588 58
1 696 0 +.02921 0 .0254 -1 -1821231995776175e-31 0 1821231995776175e-31 -1 0 50
 581 1176 0 446 590 687 0 +.0177927 0 -.0254 0 0 1 1 0 0 50 590 1177 0 580 1198
 581 0 +.0177927 0 .0254 0 0 1 1 0 0 51 1198 1601 0 1025 1199 590 0 +.029208 163
253323807781e-31 -.01651 1 364246399155235e-30 0 .0025781 -364246399155235e-30 1
 0 14 1025 1592 699 ?1020 579 1200 6 1198 -0 0 1020 579 26 51 1199 1604 0 579 10
27 1198 0 +.029208 1242220455983026e-32 .01651 1 364246399155235e-30 0 .0025781
 -364246399155235e-30 1 0 14 579 1568 1201 ?1025 446 1202 6 1199 -0 0 1025 446 2
6 50 1027 2105 0 1020 1051 1199 0 +-.01905 -.0142875 .00635 -1 3642463991552345e
-31 0 364246399155235e-30 1 0 50 1051 2106 0 1042 1044 1027 0 +-.01905 .0142875
 .00635 -1 3642463991552345e-31 0 364246399155235e-30 1 0 50 1044 2110 0 1034 10
36 1051 0 +-.02413 .009525 .00635 0 1 0 0 0 1 50 1036 2111 0 1024 1058 1044 0 +-
.02413 -.009525 .00635 0 1 0 0 0 1 50 1058 2117 0 340 1074 1036 0 +-.0127 .01905
2 -1084202172485504e-33 -1 0 0 0 0 -1 50 1074 2118 0 1064 1066 1058 0 +-.0355854
 0 .0254 1 -364246399155235e-30 0 -364246399155235e-30 -1 0 50 1066 2119 0 1067
 1097 1074 0 +-.02921 0 .0254 1 -1821231995776175e-31 0 -1821231995776175e-31 -1
 0 50 1097 2120 0 1087 1089 1066 0 +-.0177927 0 -.0254 0 0 1 -1 0 0 50 1089 2121
 0 1080 1111 1097 0 +-.0177927 0 .0254 0 0 1 -1 0 0 51 1111 2122 0 1103 1105 108
9 0 +-.029208 163253323807781e-31 -.01651 -1 364246399155235e-30 0 .0025781 3642
46399155235e-30 1 0 51 1105 2123 0 1095 0 1111 0 +-.029208 1242220455983026e-32
 .01651 -1 364246399155235e-30 0 .0025781 364246399155235e-30 1 0 81 1 1201 2476
 13 579 583 0 699 416 1203 15 1202 1571 0 405 579 1204 17 405 0 1202 405 405 0 1
205 402 0 0 +15 1204 1572 0 1206 579 0 17 1206 0 1204 1206 1206 0 410 407 0 0 -1
7 410 0 702 410 410 0 1206 407 0 0 +15 702 1515 0 410 588 1207 15 1207 1161 0 30
7 588 0 17 307 0 1207 155 298 12 39 304 0 0 +17 155 0 1207 608 307 256 43 152 0
 295 +17 298 0 1207 307 608 593 1208 289 0 0 +17 39 0 38 1209 31 593 307 304 0 2
98 -15 38 227 0 83 478 0 17 1209 0 38 311 39 597 427 299 0 0 -17 311 0 38 436 12
09 448 1210 308 0 440 +17 427 0 589 1208 425 593 1209 299 0 39 +15 589 1165 0 12
11 580 0 17 1208 0 589 1211 427 462 298 289 0 0 -17 425 0 589 427 1211 597 1212
 422 0 1210 +17 1211 0 589 425 1208 454 421 418 0 0 -17 1212 0 1213 314 1210 454
 425 422 0 1211 -17 1210 0 1213 1212 433 597 311 308 0 1209 -15 1213 1153 0 433
 685 0 17 433 0 1213 1210 314 448 447 431 0 311 +17 314 0 1213 433 1212 457 623
 238 0 447 +17 447 0 445 286 440 457 433 431 0 285 -17 285 0 71 623 72 457 286 4
06 0 0 -15 71 225 0 67 485 0 17 623 0 71 421 285 454 314 238 0 1212 -17 421 0 71
 295 623 462 1211 418 0 1208 +17 295 0 71 97 421 256 608 288 0 0 +17 97 0 71 53
 295 77 151 148 0 254 -17 608 0 1207 298 155 462 295 288 0 421 -17 53 0 71 67 97
 50 87 96 0 73 +17 83 0 38 40 278 54 76 84 0 82 -17 40 0 38 31 83 88 58 118 0 41
 -17 278 0 38 83 436 24 277 296 0 0 -17 82 0 81 76 114 54 108 113 0 0 +17 114 0
 81 82 273 59 116 163 0 0 +17 273 0 81 114 1214 896 379 349 0 0 -17 116 0 115 12
7 62 896 114 163 0 133 -17 133 0 1050 379 135 896 127 134 0 273 +15 1050 2036 0
 379 1042 0 17 379 0 1050 1215 133 882 273 349 0 1214 +17 135 0 1050 133 1215 12
5 124 361 0 0 -17 1215 0 1050 135 379 917 396 393 0 1216 -17 124 0 121 368 122 9
17 135 361 0 1215 +17 368 0 121 375 124 614 1216 365 0 756 +17 375 0 121 259 368
 927 994 373 0 841 +17 1216 0 1043 396 756 917 368 365 0 0 -17 756 0 1043 1216 7
49 614 1217 741 0 0 +15 1043 2032 0 383 1034 0 17 749 0 1043 756 1218 981 1219 7
46 0 0 +17 1217 0 1220 988 994 981 756 741 0 749 -15 1220 2084 0 1217 1067 0 17
 988 0 1220 841 1217 930 852 750 0 846 -17 994 0 1220 1217 841 614 375 373 0 368
 -17 841 0 1220 994 988 927 1221 742 0 372 +17 1221 0 1035 1222 372 930 841 742
 0 0 -17 372 0 1035 1221 1223 927 259 369 0 0 +15 1035 2028 0 1224 1024 0 17 122
3 0 1035 372 1224 923 400 397 0 261 -17 259 0 121 257 375 923 372 369 0 1223 -17
 1224 0 1035 1223 889 330 387 384 0 272 -17 400 0 1026 271 261 330 1223 397 0 12
24 +17 261 0 1026 400 263 923 257 262 0 0 -15 1026 2024 0 271 1020 0 17 263 0 10
26 261 271 260 265 270 0 0 -17 271 0 1026 263 400 269 272 342 0 0 +17 272 0 81 3
87 268 330 271 342 0 0 -17 387 0 81 1225 272 886 1224 384 0 0 +17 1225 0 81 1214
 387 890 390 362 0 0 -17 1214 0 81 273 1225 882 383 380 0 0 -17 390 0 1226 800 9
67 886 1225 362 0 387 +15 1226 2073 0 390 1057 0 17 800 0 1226 807 390 960 889 7
97 0 727 +17 967 0 1226 390 807 890 740 737 0 383 -17 807 0 1226 967 800 957 101
6 804 0 864 +17 740 0 1043 1227 383 957 967 737 0 0 +17 383 0 1043 740 396 890 1
214 380 0 1225 +17 396 0 1043 383 1216 882 1215 393 0 379 +17 1227 0 1043 1218 7
40 961 864 809 0 0 -17 1218 0 1043 749 1227 978 836 722 0 0 -17 864 0 1096 1016
 858 957 1227 809 0 740 +15 1096 2092 0 1228 1087 0 17 1016 0 1096 1228 864 960
 807 804 0 800 -17 858 0 1096 864 1228 961 974 728 0 836 +17 1228 0 1096 858 101
6 971 727 725 0 721 -17 974 0 1229 1230 836 971 858 728 0 1228 -17 836 0 1229 97
4 830 961 1218 722 0 1227 +15 1229 2079 0 974 1064 0 17 830 0 1229 836 1230 978
 1005 751 0 1219 +17 1230 0 1229 830 974 982 721 355 0 1222 -17 1005 0 1088 846
 1219 982 830 751 0 1230 -17 1219 0 1088 1005 852 978 749 746 0 1218 -15 1088 20
88 0 846 1080 0 17 852 0 1088 1219 846 981 988 750 0 1217 +17 846 0 1088 852 100
5 930 1222 808 0 1221 +17 1222 0 1035 721 1221 982 846 808 0 0 -17 721 0 1035 72
7 1222 971 1230 355 0 0 +17 727 0 1035 889 721 960 1228 725 0 0 +17 889 0 1035 1
224 727 886 800 797 0 390 -16 296 1060 1231 ?277 304 288 302 304 304 1 81 1 1231
 2482 13 296 1232 0 306 292 1233 81 1 1232 1223 471 296 0 1231 1234 1235 1236 81
 1 306 2481 13 304 1235 0 404 1231 1237 81 1 292 2483 13 288 1234 0 1231 287 123
8 84 3 1233 JTR81 1 1234 1222 471 288 0 292 291 1232 1239 84 3 1238 JTN81 1 291
 1221 471 280 0 287 552 1234 1240 82 3 1239 18 3 1 82 3 1240 18 2 1 81 1 1235 12
24 471 304 0 306 1232 1241 1242 81 1 404 2480 13 402 1241 0 409 306 1243 84 3 12
37 JTV81 1 1241 1614 471 402 0 404 1235 1244 1245 81 1 409 2479 13 407 1244 0 41
3 404 1246 84 3 1243 JXB81 1 1244 1615 471 407 0 409 1241 1247 1248 81 1 413 247
8 13 411 1247 0 416 409 1249 84 3 1246 JXF81 1 1247 1616 471 411 0 413 1244 1250
 1251 81 1 416 2477 13 401 1250 0 1201 413 1252 84 3 1249 JXJ81 1 1250 1617 471
 401 0 416 1247 1253 1254 84 3 1252 JXN81 1 1253 1618 471 579 0 583 1250 697 125
5 82 3 1254 22 3 1 81 1 583 2365 479 579 1253 1201 576 1028 1256 81 1 697 1619 4
71 1025 0 1028 1253 688 1257 82 3 1255 22 0 2 81 1 1028 2366 479 1025 697 699 58
3 1021 1258 82 3 1257 22 1 2 81 1 699 2475 13 1025 1028 0 692 1201 1259 83 3 125
8 .615686274509804 .811764705882353 .929411764705882 84 3 1259 JXG83 3 1256 .615
686274509804 .811764705882353 .929411764705882 82 3 1251 22 2 1 82 3 1248 22 1 1
 82 3 1245 22 0 1 82 3 1242 18 5 1 82 3 1236 18 4 1 17 58 0 106 108 107 54 40 11
8 0 83 +17 43 0 121 41 151 12 155 152 0 307 -17 1205 0 695 1205 1205 0 405 402 0
 0 -15 695 1528 0 1205 685 1260 15 1260 1521 0 1261 685 1213 17 1261 0 1260 1261
 1261 0 414 411 0 0 -17 414 0 1200 414 414 0 1261 411 0 0 +15 1200 1595 0 414 10
25 1262 15 1262 1596 0 1263 1025 0 17 1263 0 1262 1263 1263 0 417 401 0 0 -17 41
7 0 686 417 417 0 1263 401 0 0 +15 686 1536 0 417 281 276 84 3 1203 JXC17 1196 0
 1186 1196 1196 0 28 11 0 0 -15 1197 702 0 250 19 0 17 250 0 1197 250 250 0 1264
 160 0 0 +17 1264 0 1150 1264 1264 0 250 160 0 0 -15 1150 2296 0 1264 274 81 17
 28 0 1163 28 28 0 1196 11 0 0 +15 1163 2298 0 28 193 332 83 3 1183 .61568627450
9804 .811764705882353 .929411764705882 15 1181 2284 0 247 187 185 17 247 0 1181
 247 247 0 1265 244 0 0 +17 1265 0 1156 1265 1265 0 247 244 0 0 -15 1156 2283 0
 1265 123 121 83 3 1177 .615686274509804 .811764705882353 .929411764705882 83 3
 1172 .615686274509804 .811764705882353 .929411764705882 83 3 1165 .615686274509
804 .811764705882353 .929411764705882 83 3 1160 .615686274509804 .81176470588235
3 .929411764705882 84 3 1146 JZp84 3 1144 JZl84 3 1141 JZh84 3 1138 JZd84 3 1133
 JZV84 3 1131 JZR84 3 1128 JZN84 3 1125 JZJ84 3 1120 JZB80 1 1116 1266 1267 8038
 0 0 0 0 0 0 0 0 0 TTTTTTTTTTTTTF10 81 1 1117 2345 1266 1 1113 14 0 0 1268 98 25
5 6 1118 80 97 114 116 32 49 80 1 1266 1269 1270 8017 0 0 0 0 0 0 0 0 0 TTTTTTTT
TTTTTF3 81 1 14 2346 1271 1 1117 2 0 0 1272 84 6 1268 Part 180 1 1271 479 1273 8
040 0 0 0 0 3 5 0 0 0 TTTFFFFFFFFFFF2 83 3 1272 .615686274509804 .81176470588235
3 .929411764705882 79 17 1273 SDL/TYSA_COLOUR_279 13 1270 SDL/TYSA_NAME79 14 126
7 SDL/TYSA_UNAME81 1 16 2400 13 1103 1106 0 2 1102 1274 83 3 1112 .6156862745098
04 .811764705882353 .929411764705882 81 1 1102 2401 13 1095 1098 0 16 1094 1275
 84 4 1274 KYSB81 1 1094 2402 13 1087 1090 0 1102 1086 1276 84 4 1275 KYOB81 1 1
086 2403 13 1080 1082 0 1094 1079 1277 84 3 1276 JY+81 1 1079 2404 13 1067 1075
 0 1086 1072 1278 84 4 1277 KYCB81 1 1072 2405 13 1064 1068 0 1079 1063 1279 84
 4 1278 KYeB81 1 1063 2406 13 1057 1059 0 1072 1056 1280 84 4 1279 KYWB81 1 1056
 2407 13 340 1052 0 1063 1049 1281 84 4 1280 KYaB81 1 1049 2408 13 1042 1045 0 1
056 1041 1282 84 3 1281 JYa81 1 1041 2409 13 1034 1037 0 1049 1033 1283 84 3 128
2 JYG81 1 1033 2410 13 1024 1029 0 1041 1018 1284 84 4 1283 KYGB81 1 1018 2411 1
3 1020 1021 0 1033 1012 1285 84 4 1284 KYKB84 3 1285 JYC15 1110 2101 0 1286 1103
 1287 17 1286 0 1110 1286 1286 0 823 820 0 0 -15 1287 2102 0 876 1103 0 17 876 0
 1287 876 876 0 1288 824 0 0 +17 1288 0 1065 1288 1288 0 876 824 0 0 -15 1065 20
72 0 1288 1057 1226 17 823 0 1289 823 823 0 1286 820 0 0 +15 1289 2078 0 823 106
4 1229 83 3 1107 .615686274509804 .811764705882353 .929411764705882 15 1104 2096
 0 1290 1095 1291 17 1290 0 1104 1290 1290 0 815 729 0 0 -15 1291 2097 0 870 109
5 0 17 870 0 1291 870 870 0 1292 816 0 0 +17 1292 0 1081 1292 1292 0 870 816 0 0
 -15 1081 2083 0 1292 1067 1220 17 815 0 1073 815 815 0 1290 729 0 0 +15 1073 20
77 0 815 1064 1289 83 3 1099 .615686274509804 .811764705882353 .929411764705882
 83 3 1091 .615686274509804 .811764705882353 .929411764705882 83 3 1083 .6156862
74509804 .811764705882353 .929411764705882 83 3 1076 .615686274509804 .811764705
882353 .929411764705882 83 3 1069 .615686274509804 .811764705882353 .92941176470
5882 83 3 1060 .615686274509804 .811764705882353 .929411764705882 83 3 1053 .615
686274509804 .811764705882353 .929411764705882 83 3 1046 .615686274509804 .81176
4705882353 .929411764705882 83 3 1038 .615686274509804 .811764705882353 .9294117
64705882 83 3 1030 .615686274509804 .811764705882353 .929411764705882 84 4 1019
 KY4B29 1017 2212 0 960 962 931 -.02921 -.009525 -.0254 29 962 2213 0 957 1011 1
017 -.02921 .009525 -.0254 29 931 2211 0 927 1017 949 -.02921 -.009525 .00635 29
 949 2210 0 335 931 944 -.0127 .01905 -.00381 29 944 2209 0 206 949 954 -.0127 .
01905 .00381 29 954 2208 0 326 944 331 -.0127 -.01905 .00381 29 331 2207 0 323 9
54 936 -.0127 -.01905 -.00381 29 936 2196 0 923 331 924 -.01905 -.009525 .00635
 29 924 2195 0 917 936 918 -.01905 .009525 .00635 29 918 2194 0 125 924 907 -.01
905 .01905 .00635 29 907 2191 0 260 918 995 -.01905 -.01905 .00635 29 995 2190 0
 614 907 883 -.02921 .009525 .00635 29 883 2189 0 330 995 897 -.01905 -.009525 -
.00635 29 897 2188 0 882 883 902 -.01905 .009525 -.00635 29 902 2187 0 896 897 9
12 -.01905 .01905 -.00635 29 912 2184 0 269 902 891 -.01905 -.01905 -.00635 29 8
91 2183 0 886 912 968 -.02921 -.009525 -.00635 29 968 2182 0 890 891 624 -.02921
 .009525 -.00635 29 624 1201 0 454 968 603 .0355854 -.009525 .0254 29 603 1200 0
 597 624 598 .0355854 .009525 .0254 29 598 1199 0 593 603 609 .02921 .009525 .02
54 29 609 1198 0 462 598 459 .02921 -.009525 .0254 29 459 1197 0 457 609 458 .03
55854 -.009525 -.0254 29 1011 2214 0 961 975 962 -.0355854 .009525 -.0254 29 975
 2215 0 971 989 1011 -.0355854 -.009525 -.0254 29 989 2216 0 930 1000 975 -.0292
1 -.009525 .0254 29 1000 2217 0 981 983 989 -.02921 .009525 .0254 29 983 2218 0
 978 1006 1000 -.0355854 .009525 .0254 29 1006 2219 0 982 0 983 -.0355854 -.0095
25 .0254 84 4 1013 KYAC84 4 1008 KY0B84 4 1002 KYMC84 4 997 KYUC84 4 991 KY8B84
 4 985 KYEC84 4 977 KYwB84 4 970 KYQC84 4 964 KYIC84 4 956 KYEB17 202 0 190 197
 196 326 225 316 0 207 +17 225 0 267 223 322 203 202 316 0 0 -84 4 951 KYIB84 4
 946 KYMB84 4 941 KYAB84 3 937 JYs84 4 933 KYcC84 3 926 JYk84 3 920 JYM84 3 914
 JYY84 3 909 JYc84 3 904 JYI84 3 899 JYg84 4 893 KYYC84 3 885 JYo84 4 879 KY9D31
 877 2176 0 824 825 847 0 --.02921 163260608735764e-31 -.01651 -1 18212319957761
75e-31 0 -1821231995776175e-31 -1 0 .0025781 31 825 2177 0 820 871 877 0 +-.0355
854 186482773667507e-31 -.01651 1 -364246399155235e-30 0 364246399155235e-30 1 0
 .0025781 30 847 2175 0 808 877 831 0 +-.0323977 -.009525 .0254 1 -2720964137115
795e-31 0 30 831 2174 0 751 847 752 0 +-.0355854 0 .0254 364246399155235e-30 1 0
 30 752 2173 0 746 831 853 0 +-.0323977 .009525 .0254 1 -2720964137115795e-31 0
 30 853 2172 0 750 752 730 0 +-.02921 0 .0254 1821231995776175e-31 1 0 30 730 21
71 0 725 853 859 0 +-.0323977 -.009525 -.0254 1 -2720964137115795e-31 0 30 859 2
170 0 728 730 865 0 +-.0355854 0 -.0254 364246399155235e-30 1 0 30 865 2169 0 80
9 859 810 0 +-.0323977 .009525 -.0254 1 -2720964137115795e-31 0 30 810 2168 0 80
4 865 801 0 +-.02921 0 -.0254 1821231995776175e-31 1 0 30 801 2167 0 742 810 743
 0 +-.02921 -.009525 .0254 0 0 -1 30 743 2166 0 741 801 356 0 +-.02921 .009525 .
0254 0 0 -1 30 356 2165 0 722 743 353 0 +-.0355854 .009525 .0254 0 0 -1 31 871 2
178 0 816 817 825 0 --.02921 1242293305262856e-32 .01651 -1 1821231995776175e-31
 0 -1821231995776175e-31 -1 0 .0025781 31 817 2179 0 729 0 871 0 +-.0355854 1474
514954580286e-32 .01651 1 -364246399155235e-30 0 364246399155235e-30 1 0 .002578
1 84 4 873 KY1D84 4 867 KYBD84 4 861 KYJD84 4 855 KYVD84 4 849 KY9C84 4 843 KYlD
84 4 838 KY1C84 4 833 KYND84 4 827 KY5D84 4 819 KYxD84 4 812 KYRD84 4 803 KYhD84
 4 796 KYZD84 4 792 KYdB84 4 789 KY1B84 4 786 KYZB84 3 783 JYl84 4 780 KYdD84 3
 777 JY184 3 774 JYt84 3 771 JYF82 3 764 23 10 1 82 3 761 23 2 1 82 3 758 23 59
 1 82 3 754 23 49 1 82 3 745 23 58 1 82 3 736 23 12 1 82 3 732 23 46 1 82 3 724
 23 44 1 82 3 718 23 15 1 82 3 714 23 3 1 82 3 711 23 8 1 82 3 708 23 14 1 82 3
 704 22 4 2 84 3 700 JXK82 3 698 22 2 2 84 3 693 JXO82 3 690 22 3 2 83 3 680 .61
5686274509804 .811764705882353 .929411764705882 84 3 677 JPK84 3 653 JSV84 3 650
 JSh84 3 647 JSB84 3 642 JSJ84 3 640 JSt84 3 637 JSl84 3 634 JSd84 3 631 JSR84 3
 625 JSE84 3 621 JSI84 3 618 JSQ84 2 615 IS84 3 611 JSM84 3 605 JSU81 1 587 2494
 13 580 582 0 79 594 1293 84 3 600 JSc81 1 79 2493 13 446 576 0 36 587 1294 84 3
 1293 JSK84 3 1294 JSG83 3 592 .615686274509804 .811764705882353 .92941176470588
2 83 3 584 .615686274509804 .811764705882353 .929411764705882 82 3 569 18 0 1 82
 3 566 18 1 1 82 3 562 18 0 2 84 3 558 JTG82 3 556 18 1 2 83 3 551 .615686274509
804 .811764705882353 .929411764705882 79 15 548 SDL/TYSA_COLOUR83 3 482 .6156862
74509804 .811764705882353 .929411764705882 82 3 474 14 0 0 79 12 472 BTI/ExportI
d84 3 467 JPE84 3 452 JSY84 3 444 JSp84 3 438 JSZ17 209 0 336 207 333 206 213 33
8 0 0 +17 213 0 132 228 199 335 209 338 0 0 -84 4 347 KYxB84 3 321 JZZ84 3 294 J
TJ84 3 253 JH984 3 236 JPd84 3 184 JZt84 3 141 JZF84 3 105 JHM84 3 92 JH084 2 80
 IT84 3 70 JTI84 3 37 JTE19 20 256 0 1 0 10 6 S0 74 4 CI16 index_map_offset0 0 1
 dCCZ20 18 6 0 0 1178 1113 1117 14 1106 61 0 0 0 0 0 0 0 0 0 0 0 0 0 0 84 3 17 J
HD1 0 
