**ABCDEFGHIJKLMNOPQRSTUVWXYZabcdefghijklmnopqrstuvwxyz**************************
**PARASOLID !"#$%&'()*+,-./:;<=>?@[\]^_`{|}~0123456789**************************
**PART1;
MC=unknown;
MC_MODEL=unknown;
MC_ID=unknown;
OS=unknown;
OS_RELEASE=unknown;
FRU=Parasolid 32.0.170;
APPL=Onshape;
SITE=unknown;
USER=unknown;
FORMAT=text;
GUISE=transmit;
KEY=BTGapi::writeModels_.xmt;
FILE=BTGapi::writeModels_.xmt;
DATE=2019-11-06T14:57:23 (UTC);
**PART2;
SCH=SCH_3200170_32001;
USFLD_SIZE=0;
**PART3;
**END_OF_HEADER*****************************************************************
T51 : TRANSMIT FILE created by modeller version 320017023 SCH_3200170_32001_1300
6227 0 12 34 CCCCCCI4 mesh1006 0 I8 polyline1008 0 CCCCCCCDI5 owner1040 0 CCCCCC
I13 boundary_mesh1006 0 I17 boundary_polyline1008 0 CCCA16 index_map_offset0 0 1
 dA9 index_map82 0 A17 node_id_index_map82 0 A20 schema_embedding_map82 0 A5 chi
ld12 0 A14 lowest_node_id0 0 1 dA16 mesh_offset_data206 0 Z1 2084 2 3 0 0 0 0 0
 0 1e3 1e-8 0 4 5 1 0 1 1 6 7 8 9 0 0 10 11 12 0 0 0 0 0 0 0 81 255 1 2 2065 13
 1 14 0 15 16 17 70 11 CI9 list_type0 0 1 uI10 notransmit0 0 1 lCCCDCCDI12 finge
r_index0 0 1 dI12 finger_block1012 0 CZ3 0 4 T1 0 0 6 20 1 18 18 13 255 6 143 0
 1 0 19 0 0 20 0 50 255 7 1874 0 21 22 0 0 --.5616448 0 -.003175000000000125 .92
3879532511287 .3826834323650895 325500253150267e-30 3523189352030485e-31 0 -1 30
 255 8 1846 0 11 23 0 0 --.5616448 -392523114670944e-31 .31194375 -.382683432365
0895 .923879532511287 0 29 255 9 1838 0 12 24 0 -.574675 .0314576855604339 .3119
4375 19 8 CCCCCCCA5 owner12 0 Z10 142 0 1 20 0 25 V0 16 255 11 1844 26 ?27 0 28
 8 0 0 1 18 255 12 1835 29 30 0 31 9 ?1 81 1 29 1967 13 12 32 0 33 34 35 17 255
 30 0 36 37 38 12 39 28 0 40 +18 31 1826 41 42 12 43 24 ?1 81 1 41 1963 13 31 44
 0 45 46 47 17 42 0 48 49 50 31 51 52 0 38 +18 43 1817 53 54 31 55 56 ?1 29 24 1
829 0 31 56 9 -.574675 .0314576855604339 -.318235287112087 29 56 1820 0 43 57 24
 -.568220440302673 .015875 -.31511875 29 57 1811 0 55 58 56 -.568220440302673 .0
15875 -.30876875 18 55 1808 46 59 43 60 57 ?1 29 58 1802 0 60 61 57 -.5616448 0
 .31194375 18 60 1799 33 27 55 62 58 ?1 29 61 1798 0 62 63 58 -.5616448 0 -.3055
9375 18 62 1795 45 64 60 65 61 ?1 29 63 768 0 65 66 61 .52705 0 -.28336875 18 65
 766 67 68 62 69 63 ?1 29 66 747 0 69 70 63 -.00635 0 -.28336875 18 69 745 71 72
 65 73 66 ?1 29 70 730 0 73 74 66 -.015875 .01905 .27384375 18 73 726 75 76 69 7
7 70 ?1 29 74 714 0 77 78 70 .015875 .01905 -.27384375 18 77 710 79 80 73 81 74
 ?1 29 78 479 0 81 82 74 -.015875 .0270002 .27384375 18 81 477 83 84 77 85 78 ?1
 29 82 463 0 85 86 78 .015875 .0270002 -.27384375 18 85 461 87 88 81 89 82 ?1 29
 86 311 0 90 91 82 .568325 0 .31194375 18 90 291 92 93 94 95 86 ?1 29 91 133 0 8
9 96 86 -.574675 .03175 .31194375 18 89 131 97 37 85 98 91 ?1 29 96 123 0 98 99
 91 -.517525 .03175 .27384375 18 98 121 100 101 89 102 96 ?1 29 99 118 0 102 103
 96 -.517525 .03175 -.27384375 18 102 116 104 105 98 106 99 ?1 29 103 103 0 106
 107 99 .517525 .03175 -.27384375 18 106 101 108 109 102 110 103 ?1 29 107 98 0
 110 111 103 .517525 .03175 .27384375 18 110 96 112 113 106 94 107 ?1 29 111 73
 0 94 114 107 .568325 .03175 .31194375 18 94 71 115 116 110 90 111 ?1 29 114 621
 0 95 117 111 .015875 .0270002 .27384375 18 95 557 15 118 90 119 114 ?1 29 117 6
23 0 119 120 114 -.015875 .0270002 -.27384375 18 119 565 121 122 95 123 117 ?1 2
9 120 1188 0 123 124 117 -.517525 .01905 -.27384375 18 123 1078 125 126 119 127
 120 ?1 29 124 1189 0 127 128 120 -.517525 .01905 .27384375 18 127 1098 129 130
 123 131 124 ?1 29 128 1191 0 131 132 124 -.015875 .01905 -.27384375 18 131 1079
 133 134 127 135 128 ?1 29 132 1196 0 135 136 128 .517525 .01905 -.27384375 18 1
35 951 137 138 131 139 132 ?1 29 136 1197 0 139 140 132 .517525 .01905 .27384375
 18 139 971 141 142 135 143 136 ?1 29 140 1198 0 143 144 136 .015875 .01905 .273
84375 18 143 972 145 146 139 147 140 ?1 29 144 1204 0 148 149 140 -.00635 0 .283
36875 18 148 1096 150 151 152 153 144 ?1 29 149 1206 0 153 154 144 -.52705 0 -.2
8336875 18 153 1088 155 156 148 157 149 ?1 29 154 1207 0 157 158 149 -.52705 0 .
28336875 18 157 1084 159 160 153 161 154 ?1 29 158 1208 0 162 163 154 -.00635 .0
1905 .28336875 18 162 1082 164 165 166 167 158 ?1 29 163 1209 0 167 168 158 -.00
635 .01905 -.28336875 18 167 1094 169 170 162 171 163 ?1 29 168 1210 0 171 172 1
63 -.52705 .01905 -.28336875 18 171 1090 173 174 167 152 168 ?1 29 172 1211 0 15
2 175 168 -.52705 .01905 .28336875 18 152 1086 176 177 171 148 172 ?1 29 175 121
2 0 178 179 172 .52705 0 .28336875 18 178 969 180 181 182 183 175 ?1 29 179 1214
 0 183 184 175 .00635 0 -.28336875 18 183 961 185 186 178 166 179 ?1 29 184 1215
 0 166 187 179 .00635 0 .28336875 18 166 957 188 189 183 162 184 ?1 29 187 1216
 0 147 190 184 .52705 .01905 .28336875 18 147 955 191 192 143 193 187 ?1 29 190
 1217 0 193 194 187 .52705 .01905 -.28336875 18 193 967 195 196 147 197 190 ?1 2
9 194 1218 0 197 198 190 .00635 .01905 -.28336875 18 197 963 199 200 193 182 194
 ?1 29 198 1219 0 182 201 194 .00635 .01905 .28336875 18 182 959 202 203 197 178
 198 ?1 29 201 1751 0 161 204 198 .568325 .015875 -.30876875 18 161 1691 205 206
 157 207 201 ?1 29 204 1752 0 207 208 201 .568325 0 -.30559375 18 207 1697 209 2
10 161 211 204 ?1 29 208 1754 0 211 212 204 .568325 .015875 -.31511875 18 211 16
89 213 214 207 215 208 ?1 29 212 1755 0 215 216 208 .568325 .03175 -.31829375 18
 215 1685 217 218 211 219 212 ?1 29 216 1758 0 219 0 212 -.574675 .03175 -.31829
375 18 219 1679 220 49 215 0 216 ?1 81 1 220 1977 13 219 221 0 205 217 222 17 49
 0 48 218 42 219 38 223 0 224 -15 255 48 1718 0 50 225 0 17 218 0 48 226 49 215
 227 228 0 229 +17 38 0 36 30 224 31 49 223 0 39 +16 223 1653 230 ?38 231 0 232
 0 0 1 17 224 0 36 38 37 219 233 234 0 227 +15 36 1546 0 38 235 0 17 37 0 36 224
 30 89 40 236 0 237 -17 233 0 238 239 227 89 224 234 0 0 -16 234 63 240 ?224 236
 241 242 0 0 1 17 227 0 238 233 243 219 218 228 0 0 -15 238 5 0 243 244 245 17 2
43 0 238 227 239 215 246 247 0 0 +16 228 23 248 ?218 249 250 251 0 0 1 81 1 248
 1973 13 228 252 0 253 209 254 16 249 27 255 ?256 257 228 258 0 0 1 16 250 15 25
9 ?239 228 247 260 0 0 1 30 251 24 0 228 260 258 0 +.00635 .03175 -.31829375 1 0
 0 30 260 16 0 250 261 251 0 +.00635 .03175 .31194375 1 0 0 30 258 28 0 249 251
 262 0 +572458747072346e-31 .03175 .27384375 1 0 0 30 262 36 0 257 258 263 0 +.5
17525 .03175 0 0 0 -1 16 257 35 264 ?265 266 249 262 0 0 1 30 263 40 0 266 262 2
67 0 +.2667 .03175 -.27384375 1 0 0 16 266 39 268 ?269 241 257 263 0 0 1 30 267
 52 0 241 263 242 0 +-.517525 .03175 -555111512312578e-31 0 0 -1 16 241 51 270 ?
271 234 266 267 0 0 1 30 242 64 0 234 267 272 0 +-.574675 .03175 -.0031749999999
9993 3523189352030485e-31 0 -1 30 272 303 0 273 242 274 0 +.568325 0 -.003174999
99999993 0 0 -1 16 273 259 275 ?276 277 278 272 0 0 1 30 274 302 0 277 272 279 0
 +.00635 0 .31194375 1 0 0 16 277 1800 280 ?93 247 273 274 0 0 1 30 279 345 0 23
6 274 281 0 +-.574675 .03175 .31194375 0 -1 0 16 236 313 282 ?40 283 234 279 0 0
 1 30 281 346 0 284 279 285 0 +-.517525 .03175 .27384375 0 -1 0 16 284 314 286 ?
287 288 283 281 0 0 1 30 285 347 0 288 281 289 0 +-.517525 .03175 -.27384375 0 -
1 0 16 288 315 290 ?291 292 284 285 0 0 1 30 289 348 0 292 285 293 0 +.517525 .0
3175 -.27384375 0 -1 0 16 292 316 294 ?295 296 288 289 0 0 1 30 293 349 0 296 28
9 297 0 +.517525 .03175 .27384375 0 -1 0 16 296 317 298 ?299 300 292 293 0 0 1 3
0 297 351 0 283 293 301 0 +.568325 .03175 .31194375 0 -1 0 16 283 319 302 ?303 2
84 236 297 0 0 1 30 301 722 0 300 297 304 0 +.015875 .01905 0 177372159588636e-3
0 0 1 16 300 720 305 ?146 306 296 301 0 0 1 30 304 738 0 306 301 307 0 +-.015875
 .01905 0 177372159588636e-30 0 1 16 306 736 308 ?309 310 300 304 0 0 1 30 307 1
805 0 310 304 311 0 +-.5616448 0 -.003175000000000125 3523189352030485e-31 0 -1
 16 310 1803 312 ?313 314 306 307 0 0 1 30 311 1814 0 314 307 315 0 --.540966564
241433 -.0499216772142815 -.2956094145571435 .376313279174233 -.908500622283526
 .181700124456704 16 314 1812 316 ?59 317 310 311 0 0 1 30 315 1823 0 317 311 31
8 0 --.568220440302673 .015875 -.31194375 -3523189352030485e-31 0 1 16 317 1821
 319 ?54 52 314 315 0 0 1 30 318 1832 0 52 315 23 0 --.540532375564087 -.0509699
014077573 -.3017497697184485 .3763132791742325 -.908500622283526 .18170012445670
45 16 52 1830 320 ?42 28 317 318 0 0 1 30 23 1841 0 28 318 8 0 +-.574675 .031457
6855604339 -.00317499999999993 -3523189352030485e-31 0 1 16 28 1839 321 ?30 11 5
2 23 0 0 1 81 1 321 1953 13 28 322 0 312 316 323 80 255 1 13 324 325 9000 0 0 0
 0 3 5 0 0 0 FFTFTFTTFFFFFF3 81 1 322 1903 324 28 0 321 326 327 328 81 1 312 195
2 13 310 327 0 282 321 329 81 1 316 1954 13 314 326 0 321 320 330 84 255 3 323 J
Sh81 1 326 1902 324 314 0 316 331 322 332 81 1 320 1955 13 52 331 0 316 319 333
 84 3 330 JSd81 1 331 1901 324 52 0 320 334 326 335 81 1 319 1956 13 317 334 0 3
20 336 337 84 3 333 JSZ81 1 334 1900 324 317 0 319 338 331 339 81 1 336 1957 13
 340 338 0 319 341 342 84 3 337 JSV16 340 1796 336 ?210 343 344 345 0 0 1 81 1 3
38 1899 324 340 0 336 346 334 347 81 1 341 1958 13 231 346 0 336 348 349 84 3 34
2 JSR16 231 1818 341 ?214 344 223 350 0 0 1 81 1 346 1898 324 231 0 341 351 338
 352 81 1 348 1959 13 344 351 0 341 26 353 84 3 349 JSN16 344 1809 348 ?206 340
 231 354 0 0 1 81 1 351 1897 324 344 0 348 355 346 356 81 1 26 1960 13 11 355 0
 348 280 357 84 3 353 JSJ81 1 355 1896 324 11 0 26 358 351 359 81 1 280 1961 13
 277 358 0 26 45 360 84 3 357 JSF81 1 358 1895 324 277 0 280 361 355 362 81 1 45
 1962 13 62 361 0 280 41 363 84 3 360 JSB81 1 361 1894 324 62 0 45 44 358 364 84
 3 363 JSU80 1 324 365 366 9000 0 0 0 0 3 6 0 0 0 FFTFTFTTFFFFFF1 81 1 44 1893 3
24 31 0 41 367 361 368 82 255 3 364 17 5 0 81 1 367 1892 324 55 0 46 369 44 370
 82 3 368 17 4 0 81 1 46 1964 13 55 367 0 41 53 371 81 1 369 1891 324 43 0 53 37
2 367 373 82 3 370 17 3 0 81 1 53 1965 13 43 369 0 46 33 374 81 1 372 1890 324 6
0 0 33 32 369 375 82 3 373 17 2 0 81 1 33 1966 13 60 372 0 53 29 376 81 1 32 188
9 324 12 0 29 377 372 378 82 3 375 17 1 0 81 1 377 1791 324 379 0 380 381 32 382
 82 3 378 17 0 0 14 255 379 335 34 ?235 19 383 6 22 -0 0 235 19 25 81 1 380 1918
 384 379 377 34 385 386 387 81 1 381 1786 324 273 0 275 388 377 389 82 3 382 16
 3 2 81 1 275 1969 13 273 381 0 34 390 391 81 1 388 1784 324 392 0 390 393 381 3
94 82 3 389 16 10 1 16 392 1638 390 ?395 396 397 398 0 0 1 81 1 390 1970 13 392
 388 0 275 399 400 81 1 393 1783 324 343 0 399 401 388 402 82 3 394 16 8 1 16 34
3 1633 399 ?226 397 340 403 0 0 1 81 1 399 1971 13 343 393 0 390 253 404 81 1 40
1 1781 324 397 0 253 252 393 405 82 3 402 16 7 1 16 397 1664 253 ?406 392 343 40
7 0 0 1 81 1 253 1972 13 397 401 0 399 248 408 81 1 252 1776 324 228 0 248 409 4
01 410 82 3 405 16 5 1 81 1 409 1772 324 207 0 209 411 252 412 82 3 410 16 0 1 8
1 1 209 1974 13 207 409 0 248 213 413 81 1 411 1771 324 211 0 213 414 409 415 82
 3 412 16 4 0 81 1 213 1975 13 211 411 0 209 205 416 81 1 414 1770 324 161 0 205
 221 411 417 82 3 415 16 3 0 81 1 205 1976 13 161 414 0 213 220 418 81 1 221 176
9 324 219 0 220 419 414 420 82 3 417 16 2 0 81 1 419 1768 324 215 0 217 421 221
 422 82 3 420 16 1 0 81 1 217 1978 13 215 419 0 220 423 424 81 1 421 1315 324 42
5 0 423 426 419 427 82 3 422 16 0 0 16 425 883 423 ?80 428 429 430 0 0 1 81 1 42
3 1979 13 425 421 0 217 431 432 81 1 426 1314 324 429 0 431 433 421 434 82 3 427
 12 39 1 16 429 939 431 ?435 425 436 437 0 0 1 81 1 431 1980 13 429 426 0 423 30
5 438 81 1 433 1313 324 300 0 305 439 426 440 82 3 434 12 38 1 81 1 305 1981 13
 300 433 0 431 441 442 81 1 439 1312 324 428 0 441 443 433 444 82 3 440 12 37 1
 16 428 936 441 ?445 446 425 447 0 0 1 81 1 441 1982 13 428 439 0 305 448 449 81
 1 443 1311 324 450 0 448 451 439 452 82 3 444 12 36 1 16 450 1059 448 ?126 453
 446 454 0 0 1 81 1 448 1983 13 450 443 0 441 455 456 81 1 451 1310 324 446 0 45
5 457 443 458 82 3 452 12 35 1 16 446 1019 455 ?459 450 428 460 0 0 1 81 1 455 1
984 13 446 451 0 448 308 461 81 1 457 1309 324 306 0 308 462 451 463 82 3 458 12
 34 1 81 1 308 1985 13 306 457 0 455 464 465 81 1 462 1308 324 453 0 464 466 457
 467 82 3 463 12 33 1 16 453 1062 464 ?130 468 450 469 0 0 1 81 1 464 1986 13 45
3 462 0 308 133 470 81 1 466 1307 324 131 0 133 471 462 472 82 3 467 12 32 1 81
 1 133 1987 13 131 466 0 464 75 473 81 1 471 1306 324 73 0 75 474 466 475 82 3 4
72 12 23 0 81 1 75 1988 13 73 471 0 133 79 476 81 1 474 1305 324 77 0 79 477 471
 478 82 3 475 12 22 0 81 1 79 1989 13 77 474 0 75 145 479 81 1 477 1304 324 143
 0 145 480 474 481 82 3 478 12 21 0 81 1 145 1990 13 143 477 0 79 137 482 81 1 4
80 1303 324 135 0 137 483 477 484 82 3 481 12 20 0 81 1 137 1991 13 135 480 0 14
5 141 485 81 1 483 1302 324 139 0 141 486 480 487 82 3 484 12 19 0 81 1 141 1992
 13 139 483 0 137 125 488 81 1 486 1301 324 123 0 125 489 483 490 82 3 487 12 18
 0 81 1 125 1993 13 123 486 0 141 129 491 81 1 489 1300 324 127 0 129 492 486 49
3 82 3 490 12 17 0 81 1 129 1994 13 127 489 0 125 494 495 81 1 492 1299 324 496
 0 497 498 489 499 82 3 493 12 16 0 14 496 325 494 ?500 235 501 6 502 -0 0 500 2
35 25 81 1 497 1920 384 496 492 494 386 503 504 81 1 498 1298 324 500 0 503 505
 492 506 82 3 499 12 16 2 14 500 329 507 ?508 496 509 6 510 +0 0 508 496 25 81 1
 503 1921 384 500 498 507 497 511 512 81 1 505 1296 324 513 0 514 515 498 516 82
 3 506 12 15 2 14 513 585 517 ?518 519 520 6 521 -0 0 518 519 25 81 1 514 1925 3
84 513 505 517 522 523 524 81 1 515 1295 324 519 0 522 525 505 526 82 3 516 12 1
3 2 14 519 577 527 ?513 528 529 6 530 +0 0 513 528 25 81 1 522 1924 384 519 515
 527 531 514 532 81 1 525 1294 324 508 0 511 533 515 534 82 3 526 12 12 2 14 508
 327 535 ?528 500 536 6 537 +0 0 528 500 25 81 1 511 1922 384 508 525 535 503 53
1 538 81 1 533 1293 324 528 0 531 539 525 540 82 3 534 12 11 2 14 528 323 541 ?5
19 508 542 6 543 -0 0 519 508 25 81 1 531 1923 384 528 533 541 511 522 544 81 1
 539 1292 324 545 0 546 547 533 548 82 3 540 12 10 2 14 545 996 549 ?550 551 552
 6 553 +0 0 550 551 25 81 1 546 1932 384 545 539 549 554 555 556 81 1 547 1291 3
24 557 0 558 559 539 560 82 3 548 12 9 2 14 557 988 561 ?551 562 563 6 564 -0 0
 551 562 25 81 1 558 1930 384 557 547 561 565 554 566 81 1 559 1290 324 551 0 55
4 567 547 568 82 3 560 12 8 2 14 551 992 569 ?545 557 570 6 571 -0 0 545 557 25
 81 1 554 1931 384 551 559 569 558 546 572 81 1 567 1289 324 550 0 555 573 559 5
74 82 3 568 12 7 2 14 550 1000 575 ?576 545 577 6 578 +0 0 576 545 25 81 1 555 1
933 384 550 567 575 546 579 580 81 1 573 1288 324 562 0 565 581 567 582 82 3 574
 12 6 2 14 562 984 583 ?557 584 585 6 586 +0 0 557 584 25 81 1 565 1929 384 562
 573 583 587 558 588 81 1 581 1287 324 589 0 590 591 573 592 82 3 582 12 5 2 14
 589 1123 593 ?225 594 595 6 596 +0 0 225 594 25 81 1 590 1938 384 589 581 593 5
97 598 599 81 1 591 1286 324 600 0 601 602 581 603 82 3 592 12 4 2 14 600 1115 6
04 ?594 605 606 6 607 -0 0 594 605 25 81 1 601 1936 384 600 591 604 608 597 609
 81 1 602 1285 324 594 0 597 610 591 611 82 3 603 12 3 2 14 594 1119 612 ?589 60
0 613 6 614 -0 0 589 600 25 81 1 597 1937 384 594 602 612 601 590 615 81 1 610 1
284 324 576 0 579 616 602 617 82 3 611 12 2 2 14 576 1127 618 ?605 550 619 6 620
 +0 0 605 550 25 81 1 579 1934 384 576 610 618 555 608 621 81 1 616 1283 324 605
 0 608 622 610 623 82 3 617 12 1 2 14 605 1111 624 ?600 576 625 6 626 +0 0 600 5
76 25 81 1 608 1935 384 605 616 624 579 601 627 81 1 622 1282 324 628 0 629 630
 616 631 82 3 623 12 0 2 16 628 518 629 ?632 278 633 634 0 0 1 81 1 629 2011 13
 628 622 0 624 635 636 81 1 630 1281 324 278 0 635 637 622 638 82 3 631 12 31 1
 16 278 510 635 ?639 273 628 640 0 0 1 81 1 635 2012 13 278 630 0 629 641 642 81
 1 637 1280 324 633 0 641 643 630 644 82 3 638 12 30 1 16 633 528 641 ?645 628 6
46 647 0 0 1 81 1 641 2013 13 633 637 0 635 648 649 81 1 643 1279 324 646 0 648
 650 637 651 82 3 644 12 29 1 16 646 536 648 ?652 633 653 654 0 0 1 81 1 648 201
4 13 646 643 0 641 294 655 81 1 650 1278 324 292 0 294 656 643 657 82 3 651 12 2
8 1 81 1 294 2015 13 292 650 0 648 298 658 81 1 656 1277 324 296 0 298 659 650 6
60 82 3 657 12 27 1 81 1 298 2016 13 296 656 0 294 290 661 81 1 659 1276 324 288
 0 290 662 656 663 82 3 660 12 26 1 81 1 290 2017 13 288 659 0 298 286 664 81 1
 662 1275 324 284 0 286 665 659 666 82 3 663 12 25 1 81 1 286 2018 13 284 662 0
 290 667 668 81 1 665 1274 324 669 0 667 670 662 671 82 3 666 12 24 1 16 669 945
 667 ?672 673 674 675 0 0 1 81 1 667 2019 13 669 665 0 286 676 677 81 1 670 1273
 324 678 0 676 679 665 680 82 3 671 12 23 1 16 678 928 676 ?681 682 683 684 0 0
 1 81 1 676 2020 13 678 670 0 667 685 686 81 1 679 1272 324 687 0 685 688 670 68
9 82 3 680 12 22 1 16 687 916 685 ?690 674 682 691 0 0 1 81 1 685 2021 13 687 67
9 0 676 692 693 81 1 688 1271 324 694 0 692 695 679 696 82 3 689 12 21 1 16 694
 889 692 ?697 683 698 699 0 0 1 81 1 692 2022 13 694 688 0 685 700 701 81 1 695
 1270 324 674 0 700 702 688 703 82 3 696 12 20 1 16 674 922 700 ?704 669 687 705
 0 0 1 81 1 700 2023 13 674 695 0 692 706 707 81 1 702 1269 324 683 0 706 708 69
5 709 82 3 703 12 19 1 16 683 894 706 ?68 678 694 710 0 0 1 81 1 706 2024 13 683
 702 0 700 711 712 81 1 708 1268 324 682 0 711 713 702 714 82 3 709 12 18 1 16 6
82 942 711 ?715 687 678 716 0 0 1 81 1 711 2025 13 682 708 0 706 717 718 81 1 71
3 1267 324 698 0 717 719 708 720 82 3 714 12 17 1 16 698 908 717 ?721 694 722 72
3 0 0 1 81 1 717 2026 13 698 713 0 711 724 725 81 1 719 1266 324 726 0 724 727 7
13 728 82 3 720 12 16 1 16 726 1013 724 ?729 730 731 732 0 0 1 81 1 724 2027 13
 726 719 0 717 733 734 81 1 727 1265 324 735 0 733 736 719 737 82 3 728 12 15 1
 16 735 1051 733 ?738 739 740 741 0 0 1 81 1 733 2028 13 735 727 0 724 742 743 8
1 1 736 1264 324 744 0 742 745 727 746 82 3 737 12 14 1 16 744 1039 742 ?747 731
 739 748 0 0 1 81 1 742 2029 13 744 736 0 733 749 750 81 1 745 1263 324 751 0 74
9 752 736 753 82 3 746 12 13 1 16 751 1068 749 ?754 740 396 755 0 0 1 81 1 749 2
030 13 751 745 0 742 756 757 81 1 752 1262 324 731 0 756 758 745 759 82 3 753 12
 12 1 16 731 1045 756 ?760 726 744 761 0 0 1 81 1 756 2031 13 731 752 0 749 762
 763 81 1 758 1261 324 740 0 762 764 752 765 82 3 759 12 11 1 16 740 1073 762 ?7
2 735 751 766 0 0 1 81 1 762 2032 13 740 758 0 756 767 768 81 1 764 1260 324 739
 0 767 769 758 770 82 3 765 12 10 1 16 739 1010 767 ?771 744 735 772 0 0 1 81 1
 767 2033 13 739 764 0 762 773 774 81 1 769 1259 324 396 0 773 775 764 776 82 3
 770 12 9 1 16 396 1031 773 ?777 751 392 778 0 0 1 81 1 773 2034 13 396 769 0 76
7 779 780 81 1 775 1258 324 781 0 779 782 769 783 82 3 776 12 8 1 16 781 1048 77
9 ?784 785 730 786 0 0 1 81 1 779 2035 13 781 775 0 773 787 788 81 1 782 1257 32
4 789 0 787 790 775 791 82 3 783 12 7 1 16 789 925 787 ?792 793 673 794 0 0 1 81
 1 787 2036 13 789 782 0 779 795 796 81 1 790 1256 324 793 0 795 797 782 798 82
 3 791 12 6 1 16 793 919 795 ?186 436 789 799 0 0 1 81 1 795 2037 13 793 790 0 7
87 800 801 81 1 797 1255 324 673 0 800 802 790 803 82 3 798 12 5 1 16 673 933 80
0 ?181 789 669 804 0 0 1 81 1 800 2038 13 673 797 0 795 805 806 81 1 802 1254 32
4 436 0 805 807 797 808 82 3 803 12 4 1 16 436 913 805 ?189 429 793 809 0 0 1 81
 1 805 2039 13 436 802 0 800 810 811 81 1 807 1253 324 730 0 810 812 802 813 82
 3 808 12 3 1 16 730 1056 810 ?151 781 726 814 0 0 1 81 1 810 2040 13 730 807 0
 805 815 816 81 1 812 1252 324 785 0 815 817 807 818 82 3 813 12 2 1 16 785 1042
 815 ?156 722 781 819 0 0 1 81 1 815 2041 13 785 812 0 810 820 821 81 1 817 1251
 324 722 0 820 822 812 823 82 3 818 12 1 1 16 722 1036 820 ?160 698 785 824 0 0
 1 81 1 820 2042 13 722 817 0 815 169 825 81 1 822 1250 324 167 0 169 826 817 82
7 82 3 823 12 0 1 81 1 169 2043 13 167 822 0 820 71 828 81 1 826 1249 324 69 0 7
1 829 822 830 82 3 827 12 15 0 81 1 71 2044 13 69 826 0 169 195 831 81 1 829 124
8 324 193 0 195 832 826 833 82 3 830 12 14 0 81 1 195 2045 13 193 829 0 71 67 83
4 81 1 832 1247 324 65 0 67 835 829 836 82 3 833 12 13 0 81 1 67 2046 13 65 832
 0 195 199 837 81 1 835 1246 324 197 0 199 838 832 839 82 3 836 12 12 0 81 1 199
 2047 13 197 835 0 67 185 840 81 1 838 1245 324 183 0 185 841 835 842 82 3 839 1
2 11 0 81 1 185 2048 13 183 838 0 199 191 843 81 1 841 1244 324 147 0 191 844 83
8 845 82 3 842 12 10 0 81 1 191 2049 13 147 841 0 185 180 846 81 1 844 1243 324
 178 0 180 847 841 848 82 3 845 12 9 0 81 1 180 2050 13 178 844 0 191 202 849 81
 1 847 1242 324 182 0 202 850 844 851 82 3 848 12 8 0 81 1 202 2051 13 182 847 0
 180 188 852 81 1 850 1241 324 166 0 188 853 847 854 82 3 851 12 7 0 81 1 188 20
52 13 166 850 0 202 164 855 81 1 853 1240 324 162 0 164 856 850 857 82 3 854 12
 6 0 81 1 164 2053 13 162 853 0 188 150 858 81 1 856 1239 324 148 0 150 859 853
 860 82 3 857 12 5 0 81 1 150 2054 13 148 856 0 164 173 861 81 1 859 1238 324 17
1 0 173 862 856 863 82 3 860 12 4 0 81 1 173 2055 13 171 859 0 150 155 864 81 1
 862 1237 324 153 0 155 865 859 866 82 3 863 12 3 0 81 1 155 2056 13 153 862 0 1
73 176 867 81 1 865 1236 324 152 0 176 868 862 869 82 3 866 12 2 0 81 1 176 2057
 13 152 865 0 155 159 870 81 1 868 1235 324 157 0 159 871 865 872 82 3 869 12 1
 0 81 1 159 2058 13 157 868 0 176 873 874 81 1 871 653 324 875 0 873 876 868 877
 82 3 872 12 0 0 16 875 523 873 ?88 653 878 879 0 0 1 81 1 873 2059 13 875 871 0
 159 880 881 81 1 876 652 324 468 0 880 882 871 883 82 3 877 10 5 1 16 468 541 8
80 ?884 878 453 885 0 0 1 81 1 880 2060 13 468 876 0 873 121 886 81 1 882 647 32
4 119 0 121 887 876 888 82 3 883 10 4 1 81 1 121 2061 13 119 882 0 880 83 889 81
 1 887 645 324 81 0 83 890 882 891 82 3 888 10 7 0 81 1 83 2062 13 81 887 0 121
 87 892 81 1 890 643 324 85 0 87 893 887 894 82 3 891 10 5 0 81 1 87 2063 13 85
 890 0 83 15 895 81 1 893 641 324 95 0 15 896 890 897 82 3 894 10 3 0 81 1 15 20
64 13 95 893 0 87 2 898 81 1 896 639 324 1 0 899 900 893 901 82 3 897 10 1 0 81
 1 899 1914 902 1 896 903 0 0 904 81 1 900 591 324 584 0 587 905 896 906 82 3 90
1 8 0 3 14 584 589 16 ?562 244 907 6 908 -0 0 562 244 25 81 1 587 1928 384 584 9
00 16 909 565 910 81 1 905 548 324 653 0 911 912 900 913 82 3 906 9 2 2 16 653 5
46 911 ?914 646 875 915 0 0 1 81 1 911 2067 13 653 905 0 16 916 917 81 1 912 517
 324 878 0 916 918 905 919 82 3 913 9 11 1 16 878 515 916 ?920 875 468 921 0 0 1
 81 1 916 2068 13 878 912 0 911 922 923 81 1 918 426 324 244 0 909 924 912 925 8
2 3 919 9 9 1 14 244 1 922 ?584 518 238 6 926 -0 0 584 518 25 81 1 909 1927 384
 244 918 922 523 587 927 81 1 924 424 324 234 0 240 928 918 929 82 3 925 8 1 2 8
1 1 240 2070 13 234 924 0 922 264 930 81 1 928 422 324 257 0 264 931 924 932 82
 3 929 8 23 1 81 1 264 2071 13 257 928 0 240 270 933 81 1 931 420 324 241 0 270
 934 928 935 82 3 932 8 21 1 81 1 270 2072 13 241 931 0 264 268 936 81 1 934 418
 324 266 0 268 937 931 938 82 3 935 8 19 1 81 1 268 2073 13 266 934 0 270 255 93
9 81 1 937 416 324 249 0 255 940 934 941 82 3 938 8 17 1 81 1 255 2074 13 249 93
7 0 268 942 943 81 1 940 414 324 247 0 942 944 937 945 82 3 941 8 15 1 16 247 11
 942 ?243 250 277 261 0 0 1 81 1 942 2075 13 247 940 0 255 259 946 81 1 944 410
 324 250 0 259 947 940 948 82 3 945 8 13 1 81 1 259 2076 13 250 944 0 942 302 94
9 81 1 947 401 324 283 0 302 950 944 951 82 3 948 8 9 1 81 1 302 2077 13 283 947
 0 259 97 952 81 1 950 398 324 89 0 97 953 947 954 82 3 951 8 0 1 81 1 97 2078 1
3 89 950 0 302 108 955 81 1 953 396 324 106 0 108 956 950 957 82 3 954 8 13 0 81
 1 108 2079 13 106 953 0 97 112 958 81 1 956 394 324 110 0 112 959 953 960 82 3
 957 8 11 0 81 1 112 2080 13 110 956 0 108 104 961 81 1 959 392 324 102 0 104 96
2 956 963 82 3 960 8 9 0 81 1 104 2081 13 102 959 0 112 100 964 81 1 962 390 324
 98 0 100 965 959 966 82 3 963 8 7 0 81 1 100 2082 13 98 962 0 104 115 967 81 1
 965 386 324 94 0 115 968 962 969 82 3 966 8 5 0 81 1 115 2083 13 94 965 0 100 9
2 970 81 1 968 385 324 90 0 92 0 965 971 82 3 969 8 1 0 81 1 92 2084 13 90 968 0
 115 0 972 82 3 971 8 0 0 84 2 972 IJ84 3 970 JJE84 3 967 JJU84 3 964 JJc84 3 96
1 JJk84 3 958 JJs84 3 955 JJ084 3 952 JJB84 3 949 JJl84 3 946 JJ130 261 12 0 247
 640 260 0 +.568325 .03175 -.00317499999999993 0 0 -1 30 640 605 0 278 634 261 0
 +-.015875 .0270002 .27384375 0 -1 0 30 634 606 0 628 647 640 0 +-.015875 .02700
02 -.27384375 0 -1 0 30 647 607 0 633 654 634 0 +.015875 .0270002 -.27384375 0 -
1 0 30 654 608 0 646 915 647 0 +.015875 .0270002 .27384375 0 -1 0 30 915 613 0 6
53 879 654 0 +.015875 .0270002 0 -177372159588636e-30 0 -1 30 879 614 0 875 921
 915 0 +-3642919299551295e-32 .0270002 -.27384375 1 0 0 30 921 615 0 878 885 879
 0 +-.015875 .0270002 0 -177372159588636e-30 0 -1 30 885 616 0 468 469 921 0 +57
2458747072346e-31 .0270002 .27384375 1 0 0 30 469 1152 0 453 454 885 0 +-.517525
 .01905 -555111512312578e-31 0 0 1 30 454 1153 0 450 460 469 0 +.2667 .01905 -.2
7384375 -1 0 0 30 460 1154 0 446 447 454 0 +572458747072346e-31 .01905 .27384375
 -1 0 0 30 447 1158 0 428 430 460 0 +.517525 .01905 0 0 0 1 30 430 1159 0 425 43
7 447 0 +.2667 .01905 -.27384375 -1 0 0 30 437 1160 0 429 824 430 0 +57245874707
2346e-31 .01905 .27384375 -1 0 0 30 824 1164 0 722 819 437 0 +-.52705 .01905 .28
336875 0 -1 0 30 819 1165 0 785 786 824 0 +-.52705 .01905 -.28336875 0 -1 0 30 7
86 1166 0 781 814 819 0 +-.00635 .01905 -.28336875 0 -1 0 30 814 1167 0 730 741
 786 0 +-.00635 .01905 .28336875 0 -1 0 30 741 1168 0 735 766 814 0 +-.00635 0 0
 612178822109639e-31 0 -1 30 766 1169 0 740 755 741 0 +-.2667 0 -.28336875 1 0 0
 30 755 1170 0 751 778 766 0 +-.52705 0 0 0 0 -1 30 778 1171 0 396 732 755 0 +-.
2667 0 .28336875 1 0 0 30 732 1172 0 726 761 778 0 +-.00635 .01905 0 61217882210
9639e-31 0 -1 30 761 1173 0 731 748 732 0 +-.2667 .01905 -.28336875 1 0 0 30 748
 1174 0 744 772 761 0 +-.52705 .01905 0 0 0 -1 30 772 1175 0 739 809 748 0 +-.26
67 .01905 .28336875 1 0 0 30 809 1176 0 436 799 772 0 +.00635 .01905 .28336875 0
 -1 0 30 799 1177 0 793 794 809 0 +.00635 .01905 -.28336875 0 -1 0 30 794 1178 0
 789 804 799 0 +.52705 .01905 -.28336875 0 -1 0 30 804 1179 0 673 684 794 0 +.52
705 .01905 .28336875 0 -1 0 30 684 1180 0 678 710 804 0 +.52705 0 0 0 0 -1 30 71
0 1181 0 683 699 684 0 +.2667 0 -.28336875 1 0 0 30 699 1182 0 694 723 710 0 +.0
0635 0 0 -1836536466328915e-31 0 -1 30 723 1183 0 698 675 699 0 +.2667 0 .283368
75 1 0 0 30 675 1184 0 669 705 723 0 +.52705 .01905 0 0 0 -1 30 705 1185 0 674 6
91 675 0 +.2667 .01905 -.28336875 1 0 0 30 691 1186 0 687 716 705 0 +.00635 .019
05 0 -1836536466328915e-31 0 -1 30 716 1187 0 682 345 691 0 +.2667 .01905 .28336
875 1 0 0 30 345 1736 0 340 354 716 0 +-.574677 0 -.30559375 1 0 0 30 354 1737 0
 344 350 345 0 +-.574677 .015875 -.30876875 1 0 0 30 350 1738 0 231 232 354 0 +-
.574677 .015875 -.31511875 1 0 0 30 232 1744 0 223 398 350 0 +-.574675 .0238125
 -.31670625 -690954279080219e-31 -.98058067569092 .196116135138183 30 398 1747 0
 392 407 232 0 +.568325 .0079375 -.30718125 0 -.98058067569092 .196116135138183
 30 407 1749 0 397 403 398 0 +.568325 .015875 -.31194375 0 0 -1 30 403 1750 0 34
3 0 407 0 +.568325 .0238125 -.31670625 0 -.98058067569092 .196116135138183 84 3
 943 JJ984 4 939 KJFB84 4 936 KJNB84 4 933 KJVB81 1 922 2069 13 244 909 0 916 24
0 973 84 4 930 KJdB84 3 973 JJG80 1 384 0 974 8001 0 0 0 0 3 5 0 0 0 FFFFTFTFFFF
FFF2 81 1 523 1926 384 518 975 976 514 909 977 83 255 3 927 .615686274509804 .81
1764705882353 .929411764705882 14 518 333 976 ?244 513 978 6 979 -0 0 244 513 25
 81 1 975 1908 324 518 0 523 980 981 982 81 1 976 1948 13 518 523 0 983 984 985
 83 3 977 .615686274509804 .811764705882353 .929411764705882 81 1 983 1947 13 98
6 987 0 988 976 989 81 1 984 1949 13 21 990 0 976 230 991 84 3 985 JSG14 21 1858
 984 ?0 992 993 6 7 +0 0 0 992 25 81 1 990 1942 384 21 980 984 994 0 995 81 1 23
0 1950 13 223 996 0 984 282 997 84 3 991 JSC81 1 996 1906 324 223 0 230 998 980
 999 81 1 282 1951 13 236 998 0 230 312 1000 84 3 997 JSt81 1 998 1905 324 236 0
 282 327 996 1001 84 3 1000 JSp81 1 327 1904 324 310 0 312 322 998 1002 82 3 100
1 17 10 1 82 3 1002 17 9 1 81 1 980 1907 324 21 0 990 996 975 1003 82 3 999 17 1
1 1 82 3 1003 17 0 2 81 1 994 1941 384 992 1004 1005 987 990 1006 83 3 995 .6156
86274509804 .811764705882353 .929411764705882 14 992 1723 1005 ?21 986 1007 6 10
08 -0 0 21 986 25 81 1 1004 1911 324 992 0 994 1009 1010 1011 81 1 1005 1945 13
 992 994 0 1012 988 1013 81 1 987 1940 384 986 981 983 598 994 1014 83 3 1006 .6
15686274509804 .811764705882353 .929411764705882 14 986 1719 983 ?992 225 1015 6
 1016 +0 0 992 225 25 81 1 981 1909 324 986 0 987 975 1009 1017 81 1 598 1939 38
4 225 1009 988 590 987 1018 83 3 1014 .615686274509804 .811764705882353 .9294117
64705882 14 225 1715 988 ?986 589 48 6 1019 -0 0 986 589 25 81 1 1009 1910 324 2
25 0 598 981 1004 1020 81 1 988 1946 13 225 598 0 1005 983 1021 83 3 1018 .61568
6274509804 .811764705882353 .929411764705882 84 3 1021 JSO82 3 1020 17 3 2 50 10
19 1731 0 225 0 1016 0 +-.574677 .0238125 -.31670625 0 .196116135138183 .9805806
7569092 0 -.98058067569092 .196116135138183 13 25 352 0 0 0 0 0 0 10 19 14 19 19
9 1022 ?379 0 1023 6 1024 +0 0 379 0 25 81 1 1022 1943 13 19 385 0 0 1012 1025 1
5 1023 743 0 1026 19 1027 50 1024 295 0 19 926 1028 0 +-.00317500000000015 0 -.0
0317499999999993 0 -1 0 1 0 0 50 926 2 0 244 530 1024 0 +-.00317500000000015 .03
175 -.00317499999999993 0 -1 0 1 0 0 50 1028 336 0 235 1024 543 0 +-.574675 .031
75 -.00317499999999993 -1 0 -3523189352030485e-31 -3523189352030485e-31 0 1 14 2
35 321 1012 ?496 379 36 6 1028 +0 0 496 379 25 50 543 337 0 528 1028 502 0 +-.51
7525 .03175 -555111512312578e-31 -1 0 0 0 0 1 50 502 338 0 496 543 537 0 +.2667
 .03175 -.27384375 0 0 -1 -1 0 0 50 537 339 0 508 502 510 0 +.517525 .03175 0 -1
 0 0 0 0 1 50 510 340 0 500 537 979 0 +572458747072346e-31 .03175 .27384375 0 0
 -1 -1 0 0 50 979 342 0 518 510 22 0 +.00635 .03175 .31194375 0 0 -1 -1 0 0 50 2
2 343 0 379 979 7 0 +.568325 .03175 -.00317499999999993 -1 0 0 0 0 1 81 1 1012 1
944 13 235 386 0 1022 1005 1029 81 1 386 1919 384 235 1010 1012 380 497 1030 84
 3 1029 JSW81 1 1010 1912 324 235 0 386 1004 1031 1032 83 3 1030 .61568627450980
4 .811764705882353 .929411764705882 81 1 1031 1913 324 19 0 385 1010 0 1033 82 3
 1032 17 5 2 81 1 385 1917 384 19 1031 1022 0 380 1034 82 3 1033 17 6 2 83 3 103
4 .615686274509804 .811764705882353 .929411764705882 50 530 600 0 519 521 926 0
 +-.015875 .0270002 0 -1 0 177372159588636e-30 177372159588636e-30 0 1 50 521 60
2 0 513 908 530 0 +.015875 .0270002 0 -1 0 177372159588636e-30 177372159588636e-
30 0 1 50 908 604 0 584 626 521 0 +-.00317500000000015 .0270002 -.00317499999999
993 0 -1 0 1 0 0 50 626 1140 0 605 607 908 0 +-.2667 .01905 .28336875 0 0 -1 -1
 0 0 50 607 1141 0 600 614 626 0 +-.52705 .01905 0 -1 0 0 0 0 1 50 614 1142 0 59
4 596 607 0 +-.2667 .01905 -.28336875 0 0 -1 -1 0 0 50 596 1143 0 589 620 614 0
 +-.00635 .01905 0 -1 0 -612178822109639e-31 -612178822109639e-31 0 1 50 620 114
5 0 576 586 596 0 +0 .01905 0 0 -1 0 1 0 0 50 586 1146 0 562 564 620 0 +.2667 .0
1905 .28336875 0 0 -1 -1 0 0 50 564 1147 0 557 571 586 0 +.00635 .01905 0 -1 0 1
836536466328915e-31 1836536466328915e-31 0 1 50 571 1148 0 551 553 564 0 +.2667
 .01905 -.28336875 0 0 -1 -1 0 0 50 553 1149 0 545 578 571 0 +.52705 .01905 0 -1
 0 0 0 0 1 50 578 1151 0 550 1008 553 0 +0 .01905 0 0 -1 0 1 0 0 50 1008 1729 0
 992 1016 578 0 +-.574677 .0079375 -.30718125 0 .196116135138183 .98058067569092
 0 -.98058067569092 .196116135138183 50 1016 1730 0 986 1019 1008 0 +-.574677 .0
15875 -.31194375 0 -1 0 0 0 -1 17 1026 0 1023 777 1035 157 754 751 0 0 -15 1027
 764 0 1036 19 1037 17 1036 0 1027 721 1038 166 697 694 0 0 -15 1037 217 0 1039
 19 0 17 1039 0 1037 313 1040 60 93 277 0 1041 -17 313 0 1037 210 1039 62 1041 3
10 0 1042 +17 1040 0 1037 1039 210 90 276 273 0 0 -17 93 0 978 116 27 90 1039 27
7 0 303 +17 1041 0 993 1043 64 60 313 310 0 0 -15 993 1859 0 1043 21 0 17 1043 0
 993 39 1041 12 27 11 0 0 -17 64 0 993 1041 1044 62 59 314 0 313 -17 1044 0 993
 64 51 55 54 317 0 0 -17 59 0 1007 206 1042 55 64 314 0 1045 +15 1007 1726 0 104
2 992 0 17 206 0 1007 395 59 161 1045 344 0 1046 +17 1042 0 1007 59 395 62 210 3
40 0 0 -17 1045 0 1015 54 1046 55 206 344 0 1044 -15 1015 1722 0 1045 986 0 17 5
4 0 1015 214 1045 43 1044 317 0 50 +17 1046 0 1015 1045 214 161 406 397 0 1047 -
17 214 0 1015 1046 54 211 50 231 0 226 +17 406 0 383 229 1047 211 1046 397 0 0 +
17 1047 0 383 406 276 161 395 392 0 0 -15 383 1572 0 229 379 0 17 276 0 383 1047
 303 207 1040 273 0 0 +17 395 0 1007 1042 206 207 1047 392 0 276 +17 303 0 383 2
76 246 90 116 283 0 1040 +17 246 0 383 303 229 94 243 247 0 0 -17 116 0 978 237
 93 94 303 283 0 239 -15 978 332 0 40 518 0 17 237 0 978 40 116 89 239 250 0 233
 -17 239 0 238 243 233 94 237 250 0 246 +17 40 0 978 27 237 12 37 236 0 1043 +17
 27 0 978 93 40 60 1043 11 0 1039 +17 229 0 383 246 406 215 226 343 0 243 -17 22
6 0 48 50 218 211 229 343 0 406 +17 50 0 48 42 226 43 214 231 0 51 -17 51 0 993
 1044 39 43 42 52 0 0 -17 39 0 993 51 1043 31 30 28 0 0 -17 210 0 1037 1040 313
 207 1042 340 0 395 +17 721 0 1027 681 1036 178 1048 698 0 0 +17 1038 0 1027 103
6 681 183 68 683 0 0 -17 697 0 563 200 189 183 1036 694 0 1038 +15 563 991 0 697
 557 0 17 200 0 563 1049 697 197 186 793 0 690 -17 189 0 563 697 1049 166 203 43
6 0 1048 +17 1049 0 563 189 200 182 690 687 0 1050 -17 203 0 585 715 1048 182 18
9 436 0 1049 -17 1048 0 585 203 181 166 721 698 0 1036 -15 585 987 0 1048 562 0
 17 181 0 585 1048 715 178 192 673 0 1051 +17 715 0 585 181 203 147 1050 682 0 0
 +17 192 0 552 672 1051 147 181 673 0 1052 -17 1051 0 552 192 792 178 681 678 0
 721 -15 552 999 0 1051 545 0 17 792 0 552 1051 672 65 196 789 0 681 +17 681 0 1
027 1038 721 65 1051 678 0 0 +17 672 0 552 792 192 193 1052 669 0 0 +17 196 0 57
0 1053 68 193 792 789 0 704 -15 570 995 0 68 551 0 17 1053 0 570 186 196 197 704
 674 0 0 -17 68 0 570 196 186 65 1038 683 0 792 +17 704 0 1054 1052 690 193 1053
 674 0 672 +15 1054 1004 0 1050 550 0 17 1052 0 1054 1050 704 147 672 669 0 715
 -17 690 0 1054 704 1050 197 1049 687 0 1053 +17 1050 0 1054 690 1052 182 715 68
2 0 0 -17 186 0 570 68 1053 183 200 793 0 697 +17 777 0 1023 738 1026 148 1055 3
96 0 0 +17 1035 0 1023 1026 738 153 72 740 0 0 -17 754 0 606 174 160 153 1026 75
1 0 1035 +15 606 1118 0 754 600 0 17 174 0 606 1056 754 171 156 785 0 747 -17 16
0 0 606 754 1056 157 177 722 0 1055 +17 1056 0 606 160 174 152 747 744 0 1057 -1
7 177 0 625 771 1055 152 160 722 0 1056 -17 1055 0 625 177 151 157 777 396 0 102
6 -15 625 1114 0 1055 605 0 17 151 0 625 1055 771 148 165 730 0 1058 +17 771 0 6
25 151 177 162 1057 739 0 0 +17 165 0 595 729 1058 162 151 730 0 1059 -17 1058 0
 595 165 784 148 738 735 0 777 -15 595 1126 0 1058 589 0 17 784 0 595 1058 729 6
9 170 781 0 738 +17 738 0 1023 1035 777 69 1058 735 0 0 +17 729 0 595 784 165 16
7 1059 726 0 0 +17 170 0 613 1060 72 167 784 781 0 760 -15 613 1122 0 72 594 0 1
7 1060 0 613 156 170 171 760 731 0 0 -17 72 0 613 170 156 69 1035 740 0 784 +17
 760 0 619 1059 747 167 1060 731 0 729 +15 619 1105 0 1057 576 1061 17 1059 0 61
9 1057 760 162 729 726 0 771 -17 747 0 619 760 1057 171 1056 744 0 1060 +17 1057
 0 619 747 1059 152 771 739 0 0 -15 1061 1106 0 130 576 0 17 130 0 1061 76 126 1
27 1062 453 0 459 +17 76 0 1061 134 130 73 459 446 0 309 -17 126 0 1061 130 134
 123 1063 450 0 1062 +17 1062 0 542 105 287 123 130 453 0 291 -17 459 0 509 101
 639 127 76 446 0 287 +15 509 483 0 299 500 0 17 101 0 509 256 459 98 287 284 0
 1064 -17 639 0 509 459 1065 73 1066 278 0 0 +17 287 0 542 1062 1064 127 101 284
 0 0 +15 542 795 0 1062 528 0 17 1064 0 542 287 105 98 271 241 0 1067 -17 105 0
 542 1064 1062 102 291 288 0 1068 -17 271 0 245 269 1067 102 1064 241 0 0 +17 10
67 0 245 271 1069 98 256 249 0 0 -15 245 6 0 1067 244 0 17 1069 0 245 1067 269 1
10 265 257 0 256 -17 256 0 509 299 101 110 1067 249 0 0 +17 299 0 509 435 256 13
9 113 296 0 0 +17 435 0 509 1070 299 143 142 429 0 652 +17 113 0 536 265 445 110
 299 296 0 1069 -15 536 326 0 295 508 0 17 265 0 536 295 113 106 1069 257 0 269
 +17 445 0 536 113 295 139 138 428 0 299 +17 295 0 536 445 265 135 109 292 0 0 +
17 138 0 577 80 142 135 445 428 0 1071 -15 577 1003 0 80 550 1054 17 80 0 577 14
6 138 77 1071 425 0 1072 +17 142 0 577 138 146 139 435 429 0 445 -17 1071 0 501
 109 645 135 80 425 0 295 -15 501 830 0 1071 496 0 17 109 0 501 1068 1071 106 29
5 292 0 265 -17 645 0 501 1071 88 77 1073 633 0 0 +17 88 0 501 645 122 85 1074 8
75 0 1073 +17 1073 0 520 118 1072 85 645 633 0 914 -15 520 721 0 1072 513 0 17 1
18 0 520 652 1073 95 914 653 0 884 -17 1072 0 520 1073 652 77 146 300 0 645 -17
 914 0 907 1074 884 85 118 653 0 0 +15 907 592 0 884 584 0 17 1074 0 907 84 914
 119 88 875 0 0 -17 884 0 907 914 84 95 1065 468 0 1070 +17 84 0 907 884 1074 81
 920 878 0 1066 -17 1065 0 509 639 1070 81 884 468 0 0 -17 1070 0 509 1065 435 9
5 652 646 0 0 -17 652 0 520 1072 118 143 1070 646 0 0 +17 920 0 529 632 1066 119
 84 878 0 1074 +17 1066 0 529 920 309 81 639 278 0 1065 -15 529 580 0 632 519 0
 17 309 0 529 1066 632 73 134 306 0 639 +17 632 0 529 309 920 131 122 628 0 0 +1
7 134 0 1061 126 76 131 309 306 0 1063 -17 1063 0 501 122 291 131 126 450 0 632
 -17 122 0 501 88 1063 119 632 628 0 920 -17 291 0 501 1063 1068 123 105 288 0 0
 +17 1068 0 501 291 109 102 269 266 0 271 -17 269 0 245 1069 271 106 1068 266 0
 0 +17 146 0 577 142 80 143 1072 300 0 435 +17 156 0 613 72 1060 153 174 785 0 7
54 +84 3 1025 JSa82 3 1017 17 2 2 84 3 1013 JSS82 3 1011 17 4 2 84 3 989 JSK82 3
 982 17 1 2 79 255 15 974 SDL/TYSA_COLOUR84 3 923 JKl81 1 16 2066 13 584 587 0 2
 911 1075 84 3 917 JKt84 3 1075 JKK83 3 910 .615686274509804 .811764705882353 .9
29411764705882 80 1 902 1076 1077 8038 0 0 0 0 0 0 0 0 0 TTTTTTTTTTTTTF10 81 1 9
03 1915 1076 1 899 14 0 0 1078 98 255 6 904 80 97 114 116 32 49 80 1 1076 1079 1
080 8017 0 0 0 0 0 0 0 0 0 TTTTTTTTTTTTTF3 81 1 14 1916 1081 1 903 2 0 0 1082 84
 6 1078 Part 180 1 1081 384 1083 8040 0 0 0 0 3 5 0 0 0 TTTFFFFFFFFFFF2 83 3 108
2 .615686274509804 .811764705882353 .929411764705882 79 17 1083 SDL/TYSA_COLOUR_
279 13 1080 SDL/TYSA_NAME79 14 1077 SDL/TYSA_UNAME84 3 898 JLE84 3 895 JLM84 3 8
92 JLU84 3 889 JLc84 3 886 JLR84 3 881 JLV84 2 874 IN84 3 870 JNE84 3 867 JNI84
 3 864 JNM84 3 861 JNQ84 3 858 JNU84 3 855 JNY84 3 852 JNc84 3 849 JNg84 3 846 J
Nk84 3 843 JNo84 3 840 JNs84 3 837 JNw84 3 834 JN084 3 831 JN484 3 828 JN884 3 8
25 JNB84 3 821 JNF84 3 816 JNJ84 3 811 JNN84 3 806 JNR84 3 801 JNV84 3 796 JNZ84
 3 788 JNd84 3 780 JNh84 3 774 JNl84 3 768 JNp84 3 763 JNt84 3 757 JNx84 3 750 J
N184 3 743 JN584 3 734 JN984 4 725 KNBB84 4 718 KNFB84 4 712 KNJB84 4 707 KNNB84
 4 701 KNRB84 4 693 KNVB84 4 686 KNZB84 4 677 KNdB84 4 668 KNhB84 4 664 KNlB84 4
 661 KNpB84 4 658 KNtB84 4 655 KNxB84 4 649 KN1B84 4 642 KN5B81 1 624 2010 13 60
5 608 0 618 629 1084 84 4 636 KN9B81 1 618 2009 13 576 579 0 612 624 1085 84 3 1
084 JNC81 1 612 2008 13 594 597 0 604 618 1086 84 3 1085 JNG81 1 604 2007 13 600
 601 0 593 612 1087 84 3 1086 JNK81 1 593 2006 13 589 590 0 583 604 1088 84 3 10
87 JNO81 1 583 2005 13 562 565 0 575 593 1089 84 3 1088 JNS81 1 575 2004 13 550
 555 0 569 583 1090 84 3 1089 JNW81 1 569 2003 13 551 554 0 561 575 1091 84 3 10
90 JNa81 1 561 2002 13 557 558 0 549 569 1092 84 3 1091 JNe81 1 549 2001 13 545
 546 0 541 561 1093 84 3 1092 JNi81 1 541 2000 13 528 531 0 535 549 1094 84 3 10
93 JNm81 1 535 1999 13 508 511 0 527 541 1095 84 3 1094 JNq81 1 527 1998 13 519
 522 0 517 535 1096 84 3 1095 JNu81 1 517 1997 13 513 514 0 507 527 1097 84 3 10
96 JNy81 1 507 1996 13 500 503 0 494 517 1098 84 3 1097 JN281 1 494 1995 13 496
 497 0 129 507 1099 84 3 1098 JN+84 4 1099 KNCB83 3 627 .615686274509804 .811764
705882353 .929411764705882 83 3 621 .615686274509804 .811764705882353 .929411764
705882 83 3 615 .615686274509804 .811764705882353 .929411764705882 83 3 609 .615
686274509804 .811764705882353 .929411764705882 83 3 599 .615686274509804 .811764
705882353 .929411764705882 83 3 588 .615686274509804 .811764705882353 .929411764
705882 83 3 580 .615686274509804 .811764705882353 .929411764705882 83 3 572 .615
686274509804 .811764705882353 .929411764705882 83 3 566 .615686274509804 .811764
705882353 .929411764705882 83 3 556 .615686274509804 .811764705882353 .929411764
705882 83 3 544 .615686274509804 .811764705882353 .929411764705882 83 3 538 .615
686274509804 .811764705882353 .929411764705882 83 3 532 .615686274509804 .811764
705882353 .929411764705882 83 3 524 .615686274509804 .811764705882353 .929411764
705882 83 3 512 .615686274509804 .811764705882353 .929411764705882 83 3 504 .615
686274509804 .811764705882353 .929411764705882 84 4 495 KNAB84 4 491 KNEB84 4 48
8 KNIB84 4 485 KNMB84 4 482 KNQB84 4 479 KNUB84 4 476 KNYB84 4 473 KNcB84 4 470
 KNBC84 4 465 KNFC84 4 461 KNJC84 4 456 KNNC84 4 449 KNRC84 4 442 KNVC84 4 438 K
NZC84 4 432 KNdC84 2 424 IR84 3 418 JRI84 3 416 JRM84 3 413 JRQ84 3 408 JRV84 3
 404 JRd84 3 400 JRh81 1 34 1968 13 379 380 0 29 275 1100 84 3 391 JRp84 3 1100
 JRO83 3 387 .615686274509804 .811764705882353 .929411764705882 84 3 376 JSE84 3
 374 JSI84 3 371 JSM79 9 366 BTI/DetId82 3 362 17 0 1 82 3 359 17 1 1 82 3 356 1
7 2 1 82 3 352 17 3 1 82 3 347 17 4 1 82 3 339 17 5 1 82 3 335 17 6 1 82 3 332 1
7 7 1 84 3 329 JSl82 3 328 17 8 1 79 12 325 BTI/ExportId84 3 254 JRB84 3 222 JRE
84 3 47 JSQ84 2 35 IS19 20 353 0 1 0 10 6 S0 74 4 CI16 index_map_offset0 0 1 dCC
Z20 18 6 0 0 1031 899 903 14 990 92 0 0 0 0 0 0 0 0 0 0 0 0 0 0 84 3 17 JJD1 0 
